<svg width="64" height="64" viewBox="0 0 64 64" fill="none" xmlns="http://www.w3.org/2000/svg">
<g clip-path="url(#clip0)">
<path d="M59.9098 25.5038L57.7444 27.4286L55.0977 24.782L57.0226 22.8571C57.7444 22.1353 58.9474 22.1353 59.6692 22.8571C60.6316 23.5789 60.6316 24.782 59.9098 25.5038ZM43.3083 60.391H5.53383C4.57143 60.391 3.60902 59.4286 3.60902 58.4662V5.53383C3.60902 4.57143 4.33083 3.60902 5.53383 3.60902H33.6842V12.9925C33.6842 13.9549 34.406 14.9173 35.609 14.9173H44.9925V29.594L39.4586 35.1278L36.812 37.7744C36.5714 38.015 36.5714 38.2556 36.3308 38.4962L33.6842 46.4361C33.4436 47.1579 33.6842 47.8797 34.1654 48.3609C34.6466 48.8421 35.3684 49.0827 36.0902 48.8421L44.0301 46.1955C44.2707 46.1955 44.5113 45.9549 44.7519 45.7143L44.9925 45.4737V58.4662C44.9925 59.4286 44.2707 60.391 43.3083 60.391ZM39.218 4.33083L44.5113 9.62406C44.9925 10.1053 44.9925 10.8271 44.9925 11.3083H37.5338V3.84962C38.015 3.84962 38.4962 3.60902 39.218 4.33083ZM46.1955 39.218L43.5489 36.5714C44.9925 35.1278 51.2481 28.8722 52.6917 27.4286L55.3383 30.0752L46.1955 39.218ZM43.5489 41.8647L42.5865 42.8271L38.4962 44.0301L39.9399 39.9398L40.9023 38.9774L43.5489 41.8647ZM62.5564 20.2105C60.391 18.0451 56.782 18.0451 54.6165 20.2105C53.8947 20.9323 49.5639 25.2632 49.0827 25.985V11.0677C49.0827 9.62406 48.6015 8.18045 47.3985 6.97744L42.1053 1.68421C40.9023 0.481203 39.4586 0 37.7744 0H5.53383C2.64662 0 0 2.64662 0 5.53383V58.4662C0 61.594 2.64662 64 5.53383 64H43.3083C46.4361 64 48.8421 61.3534 48.8421 58.4662V41.8647L62.5564 28.1504C64.7218 25.985 64.7218 22.3759 62.5564 20.2105Z" fill="white" fill-opacity="0.5"/>
<path d="M9.3838 22.6166H35.6094C36.5718 22.6166 37.5342 21.8948 37.5342 20.6918C37.5342 19.7294 36.8124 18.767 35.6094 18.767H9.3838C8.42139 18.767 7.45898 19.4888 7.45898 20.6918C7.45898 21.6542 8.42139 22.6166 9.3838 22.6166Z" fill="white" fill-opacity="0.5"/>
<path d="M9.3838 30.0752H28.1507C29.1131 30.0752 30.0755 29.3534 30.0755 28.1504C30.0755 27.188 29.3537 26.2256 28.1507 26.2256H9.3838C8.42139 26.2256 7.45898 26.9474 7.45898 28.1504C7.45898 29.1128 8.42139 30.0752 9.3838 30.0752Z" fill="white" fill-opacity="0.5"/>
<path d="M9.3838 37.5338H28.1507C29.1131 37.5338 30.0755 36.812 30.0755 35.609C30.0755 34.6466 29.3537 33.6842 28.1507 33.6842H9.3838C8.42139 33.6842 7.45898 34.406 7.45898 35.609C7.45898 36.812 8.42139 37.5338 9.3838 37.5338Z" fill="white" fill-opacity="0.5"/>
<path d="M30.0755 43.3082C30.0755 42.3458 29.3537 41.3834 28.1507 41.3834H9.3838C8.42139 41.3834 7.45898 42.3458 7.45898 43.3082C7.45898 44.2706 8.18079 45.233 9.3838 45.233H28.1507C29.1131 44.9924 30.0755 44.2706 30.0755 43.3082Z" fill="white" fill-opacity="0.5"/>
<path d="M35.6086 52.9324H24.3003C23.3379 52.9324 22.3755 53.6542 22.3755 54.8572C22.3755 55.8196 23.0973 56.782 24.3003 56.782H35.6086C36.571 56.782 37.5334 56.0602 37.5334 54.8572C37.5334 53.6542 36.8116 52.9324 35.6086 52.9324Z" fill="white" fill-opacity="0.5"/>
</g>
<defs>
<clipPath id="clip0">
<rect width="64" height="64" fill="white"/>
</clipPath>
</defs>
</svg>
