<svg width="60" height="59" viewBox="0 0 60 59" fill="none" xmlns="http://www.w3.org/2000/svg">
<g clip-path="url(#clip0)">
<path d="M52.3568 25.2582C52.93 25.0654 53.6943 25.0654 54.2676 25.0654C54.8408 25.0654 55.6052 25.0654 56.1784 25.2582V0H38.4077V13.1111H52.3568V25.2582Z" fill="white" fill-opacity="0.5"/>
<path d="M8.59873 22.5589C8.59873 21.2092 9.74522 20.0523 11.0828 20.0523C12.4204 20.0523 13.5669 21.2092 13.5669 22.5589C13.5669 23.9085 12.4204 25.0654 11.0828 25.0654C9.74522 25.2582 8.59873 24.1013 8.59873 22.5589ZM20.0637 29.6929C21.5924 27.7647 22.5478 25.2582 22.5478 22.7517C22.5478 16.5817 17.5796 11.3759 11.2739 11.3759C4.96815 11.3759 0 16.3889 0 22.5589C0 25.2582 0.955414 27.5719 2.48408 29.5L11.2739 40.6831L20.0637 29.6929Z" fill="white" fill-opacity="0.5"/>
<path d="M11.2738 51.2876C9.17189 51.2876 7.45215 53.0229 7.45215 55.1438C7.45215 57.2647 9.17189 59 11.2738 59C13.3757 59 15.0955 57.2647 15.0955 55.1438C15.0955 53.0229 13.3757 51.2876 11.2738 51.2876Z" fill="white" fill-opacity="0.5"/>
<path d="M52.5477 42.0326H31.1465C29.2356 42.0326 27.5159 40.4901 27.5159 38.3692C27.5159 36.4411 29.0445 34.7058 31.1465 34.7058H46.8152C46.6242 34.1274 46.6242 33.3561 46.6242 32.7777C46.6242 32.1993 46.6242 31.428 46.8152 30.8496H31.1465C26.9426 30.8496 23.6942 34.3202 23.6942 38.3692C23.6942 42.4182 27.1337 45.8888 31.1465 45.8888H52.5477C54.4586 45.8888 56.1783 47.4313 56.1783 49.5522C56.1783 51.6731 54.6496 53.2156 52.5477 53.2156H18.7261C18.9172 53.7941 18.9172 54.5653 18.9172 55.1437C18.9172 55.7222 18.9172 56.4934 18.7261 57.0718H52.7388C56.9426 57.0718 60.191 53.6012 60.191 49.5522C60.191 45.5032 56.7516 42.0326 52.5477 42.0326Z" fill="white" fill-opacity="0.5"/>
<path d="M50.4458 32.7777C50.4458 34.8986 52.1655 36.6339 54.2675 36.6339C56.3694 36.6339 58.0891 34.8986 58.0891 32.7777C58.0891 30.6568 56.3694 28.9215 54.2675 28.9215C52.1655 28.9215 50.4458 30.6568 50.4458 32.7777Z" fill="white" fill-opacity="0.5"/>
</g>
<defs>
<clipPath id="clip0">
<rect width="60" height="59" fill="white"/>
</clipPath>
</defs>
</svg>
