<svg width="65" height="64" viewBox="0 0 65 64" fill="none" xmlns="http://www.w3.org/2000/svg">
<g clip-path="url(#clip0)">
<path d="M40.8642 29.7228V33.558H38.2355L40.8642 29.7228ZM32.5002 34.5168C32.5002 34.7565 32.5002 34.7565 32.2612 34.7565V34.9962C32.2612 35.4756 32.2612 35.7153 32.5002 36.1947C32.5002 36.4344 32.7392 36.9138 33.2171 37.1535C33.6951 37.6329 34.412 37.8726 35.6068 37.8726H40.8642V39.3108C40.8642 39.5505 40.8642 40.0299 40.8642 40.2696C40.8642 40.5093 41.1031 40.9887 41.3421 41.2284C41.5811 41.4681 41.8201 41.7078 42.059 41.7078C42.298 41.9475 42.537 41.9475 43.0149 41.9475C43.4928 41.9475 43.7318 41.9475 43.9708 41.7078C44.2098 41.7078 44.4487 41.4681 44.6877 41.2284C44.9267 40.9887 45.1656 40.749 45.1656 40.2696C45.1656 40.0299 45.1656 39.5505 45.1656 39.3108V37.8726C45.4046 37.8726 45.8826 37.8726 46.1215 37.6329C46.3605 37.6329 46.5995 37.3932 47.0774 37.3932C47.5554 37.1535 47.7943 36.4344 47.7943 35.7153C47.7943 35.2359 47.7943 34.9962 47.5553 34.7565C47.3164 34.5168 47.0774 34.0374 46.8384 34.0374C46.5995 34.0374 46.3605 33.7977 45.8826 33.7977C45.6436 33.7977 45.4046 33.7977 45.1656 33.7977V25.1685C45.1656 24.2097 44.9267 23.4906 44.4487 23.0112C43.9708 22.5318 43.2539 22.2921 42.537 22.2921C42.298 22.2921 42.059 22.2921 41.8201 22.5318C41.5811 22.5318 41.3421 22.7715 41.1031 23.0112C40.8642 23.0112 40.8642 23.2509 40.6252 23.4906C40.3862 23.7303 40.1473 23.97 40.1473 24.2097L33.6951 32.8389C33.6951 33.0786 33.4561 33.0786 33.4561 33.0786C33.4561 33.0786 33.4561 33.0786 33.2171 33.3183C33.2171 33.558 32.9781 33.558 32.9781 33.558C32.9781 33.7977 32.9781 33.7977 32.7392 33.7977C32.7392 34.0374 32.7392 34.0374 32.5002 34.0374C32.5002 34.2771 32.5002 34.2771 32.5002 34.5168Z" fill="white" fill-opacity="0.5"/>
<path d="M24.853 29.9626C24.6141 30.2023 24.6141 30.442 24.3751 30.6817C24.1361 30.9214 23.8971 31.1611 23.6582 31.4008C23.4192 31.6405 23.1802 31.8802 22.9413 32.1199C22.7023 32.1199 22.4633 32.3596 22.2244 32.839C21.9854 33.0787 21.5074 33.3184 21.0295 33.7978C20.5516 34.2772 20.0736 34.5169 19.5957 35.236C19.1177 35.236 18.4008 35.9551 17.9229 36.4345C17.6839 36.6742 17.6839 36.9139 17.4449 36.9139C17.4449 37.1536 17.206 37.3933 16.967 37.633C16.967 38.1124 16.728 38.3521 16.728 38.5918C16.728 38.8315 16.728 39.0712 16.728 39.3109C16.728 39.5506 16.728 40.03 16.967 40.2697C16.967 40.5094 17.206 40.7491 17.4449 40.9888C17.6839 41.2285 17.9229 41.4682 18.4008 41.4682C18.6398 41.4682 19.1177 41.7079 19.3567 41.7079H28.4376C28.6766 41.7079 29.1545 41.7079 29.3935 41.4682C29.6324 41.2285 29.8714 41.2285 30.1104 40.9888C30.3494 40.7491 30.3493 40.5094 30.5883 40.2697C30.5883 40.03 30.8273 39.7903 30.8273 39.5506C30.8273 39.3109 30.8273 38.8315 30.5883 38.5918C30.5883 38.3521 30.3494 38.1124 30.1104 37.8727C29.8714 37.633 29.6324 37.633 29.1545 37.3933C28.9155 37.3933 28.4376 37.3933 28.1986 37.3933H23.4192L23.6582 37.1536C24.1361 36.6742 24.6141 36.4345 25.092 35.9551C25.5699 35.4757 26.0479 34.9963 26.5258 34.7566C27.0038 34.2772 27.2427 34.0375 27.7207 33.7978C27.9596 33.5581 28.1986 33.3184 28.6766 32.839C28.9155 32.5993 29.1545 32.1199 29.3935 31.6405C29.6324 31.1611 29.8714 30.6817 30.1104 30.2023C30.3494 29.7229 30.3493 29.2435 30.3493 28.5244C30.3493 28.2847 30.3493 27.8053 30.3493 27.3259C30.3493 27.0862 30.1104 26.6068 30.1104 26.3671C29.8714 26.1274 29.8714 25.648 29.6324 25.4083C29.3935 25.1686 29.1545 24.9289 28.9155 24.4495C28.6766 24.2098 28.4376 23.9701 28.1986 23.7304C27.9596 23.4907 27.7207 23.251 27.2427 23.251C26.7648 23.0113 26.2868 23.0113 25.5699 22.7716C25.092 22.7716 24.3751 22.5319 23.6582 22.5319C23.1802 22.5319 22.7023 22.5319 21.9854 22.5319C21.5074 22.5319 21.0295 22.7716 20.5516 23.0113C20.3126 22.7716 19.8346 23.0113 19.5957 23.251C19.1177 23.4907 18.8788 23.7304 18.6398 23.9701C18.4008 24.2098 18.1619 24.4495 17.9229 24.9289C17.6839 25.1686 17.4449 25.648 17.4449 25.8877C17.4449 26.1274 17.206 26.6068 17.206 26.8465C17.206 27.0862 17.206 27.5656 17.206 27.8053C17.206 28.045 17.206 28.5244 17.4449 28.7641C17.6839 29.0038 17.6839 29.2435 17.9229 29.4832C18.1619 29.7229 18.4008 29.7229 18.6398 29.9626C18.8788 30.2023 19.1177 30.2023 19.5957 30.2023C19.8346 30.2023 20.3126 30.2023 20.5516 29.9626C20.7905 29.9626 21.0295 29.7229 21.2685 29.4832C21.5074 29.2435 21.5074 29.0038 21.7464 28.7641C21.7464 28.5244 21.9854 28.2847 21.9854 28.045C21.9854 27.8053 22.2244 27.5656 22.2244 27.5656C22.4633 27.3259 22.7023 27.0862 22.9413 26.8465C22.9413 26.3671 23.1802 26.3671 23.4192 26.3671C23.6582 26.3671 23.6582 26.3671 23.8971 26.3671C24.1361 26.3671 24.1361 26.6068 24.3751 26.6068C24.6141 26.6068 24.6141 26.8465 24.853 26.8465L25.092 27.0862C25.092 27.3259 25.092 27.3259 25.331 27.5656C25.331 27.8053 25.331 27.8053 25.331 28.045C25.331 28.2847 25.331 28.2847 25.331 28.5244C25.331 28.7641 25.331 29.0038 25.092 29.0038C25.092 29.4832 25.092 29.7229 24.853 29.9626Z" fill="white" fill-opacity="0.5"/>
<path d="M2.15074 34.2772C3.34559 34.2772 4.30147 33.3183 4.30147 32.1198C4.30147 24.4494 7.40809 17.4981 12.4265 12.4644C17.4449 7.43071 24.375 4.31461 32.0221 4.31461C37.7573 4.31461 43.0147 5.99251 47.5551 9.10861C50.4228 11.0262 53.0515 13.6629 55.2022 16.779L52.8125 15.8202C51.6176 15.3408 50.4228 15.8202 49.9448 17.0187C49.4669 18.2172 49.9448 19.4157 51.1397 19.8951L59.0257 23.0112C59.5037 23.2509 60.2206 23.2509 60.6985 23.0112C61.1765 22.7715 61.6544 22.2921 61.8934 21.8127L65 13.9026C65.4779 12.7041 65 11.5056 63.8051 11.0262C62.6103 10.5468 61.4154 11.0262 60.9375 12.2247L59.7426 15.5805C57.3529 11.5056 54.0073 8.14981 50.1838 5.51311C44.6875 1.9176 38.7132 0 32.0221 0C23.1801 0 15.2941 3.59551 9.55882 9.34831C3.58456 15.1011 0 23.2509 0 32.1198C0 33.3183 0.955882 34.2772 2.15074 34.2772Z" fill="white" fill-opacity="0.5"/>
<path d="M62.6099 29.9625C61.415 29.9625 60.4591 30.9213 60.4591 32.1198C60.4591 39.7902 57.3525 46.7416 52.3341 51.7753C47.3158 56.809 40.3856 59.9251 32.7386 59.9251C27.0033 59.9251 21.7459 58.2472 17.2055 55.1311C14.3378 53.2135 11.9481 50.5768 9.79738 47.4607L12.1871 48.4195C13.3819 48.8989 14.5768 48.4195 15.0547 47.221C15.5327 46.0225 15.0547 44.8239 13.8599 44.3445L5.97385 41.2284C5.49591 40.9887 4.779 40.9887 4.30105 41.2284C3.82311 41.4681 3.34517 41.9475 3.1062 42.4269L0.238554 50.3371C-0.239387 51.5356 0.477525 52.7341 1.43341 53.2135C2.62826 53.6929 3.82311 53.2135 4.30105 52.015L5.49591 48.6592C7.88561 52.7341 11.2312 56.0899 15.0547 58.7266C20.3121 62.3221 26.2863 64.2397 32.9775 64.2397C41.8194 64.2397 49.7055 60.6442 55.6797 54.8914C61.415 49.1386 64.9996 40.9887 64.9996 32.1198C64.7606 30.9213 63.8047 29.9625 62.6099 29.9625Z" fill="white" fill-opacity="0.5"/>
</g>
<defs>
<clipPath id="clip0">
<rect width="65" height="64" fill="white"/>
</clipPath>
</defs>
</svg>
