<svg width="75" height="35" viewBox="0 0 75 35" fill="none" xmlns="http://www.w3.org/2000/svg">
<g clip-path="url(#clip0)">
<path d="M72.6156 30.0308C70.0144 30.0308 67.4133 28.9506 65.6792 26.7901C65.2456 26.142 64.5953 25.9259 63.7283 25.9259C62.8612 25.9259 62.4277 26.142 61.7774 26.7901C60.0433 28.7345 57.4422 30.0308 54.841 30.0308C52.2399 30.0308 49.6387 28.9506 47.9046 26.7901C47.4711 26.142 46.8208 25.9259 45.9537 25.9259C45.3034 25.9259 44.6531 26.142 44.0029 26.7901C42.2688 28.7345 39.6676 30.0308 37.0664 30.0308C34.4653 30.0308 31.8641 28.9506 30.13 26.7901C29.6965 26.142 29.0462 25.9259 28.1792 25.9259C27.5289 25.9259 26.8786 26.142 26.2283 26.7901C24.4942 28.7345 21.893 30.0308 19.2919 30.0308C16.6907 30.0308 14.7399 28.9506 13.0057 27.0062C12.5722 26.358 11.9219 26.142 11.0549 26.142C10.1878 26.142 9.7543 26.358 9.10401 27.0062C7.36991 28.9506 4.76875 30.2469 2.1676 30.2469C0.867018 30.2469 -0.216797 31.3271 -0.216797 32.6234C-0.216797 33.9197 0.867018 35 2.1676 35C4.98552 35 7.80343 34.1358 10.1878 32.6234C10.4046 32.4074 10.8381 32.1913 11.0549 31.9753C11.2716 32.1913 11.7052 32.4074 11.9219 32.6234C14.3063 34.1358 16.9075 35 19.9422 35C22.9768 35 25.578 34.1358 27.9624 32.6234C28.1792 32.4074 28.6127 32.1913 28.8294 31.9753C29.0462 32.1913 29.4797 32.4074 29.6965 32.6234C32.0809 34.1358 34.682 35 37.7167 35C40.5346 35 43.3526 34.1358 45.737 32.6234C45.9537 32.4074 46.3873 32.1913 46.604 31.9753C46.8208 32.1913 47.2543 32.4074 47.4711 32.6234C49.8555 34.1358 52.4566 35 55.4913 35C58.3092 35 61.1271 34.1358 63.5115 32.6234C63.7283 32.4074 64.1618 32.1913 64.3786 31.9753C64.5954 32.1913 65.0289 32.4074 65.2456 32.6234C67.63 34.1358 70.2312 35 73.2659 35C74.5664 35 75.6503 33.9197 75.6503 32.6234C75 31.1111 73.9162 30.0308 72.6156 30.0308Z" fill="white" fill-opacity="0.5"/>
<path d="M72.6156 17.068C70.0145 17.068 67.4133 15.9877 65.6792 13.8272C65.2457 13.3951 64.5954 12.963 63.9451 12.963C63.2948 12.963 62.6445 13.1791 61.9942 13.8272C60.2601 15.7717 57.659 17.068 55.0578 17.068C52.4566 17.068 49.8555 15.9877 48.1214 13.8272C47.6879 13.3951 47.0376 12.963 46.3873 12.963C45.737 12.963 45.0867 13.1791 44.4364 13.8272C42.7023 15.7717 40.1012 17.068 37.5 17.068C34.8988 17.068 32.2977 15.9877 30.5636 13.8272C30.1301 13.3951 29.4798 12.963 28.8295 12.963C28.1792 12.963 27.5289 13.1791 26.8786 13.8272C25.1445 15.7717 22.5434 17.068 19.9422 17.068C17.341 17.068 14.7399 15.9877 13.0058 13.8272C12.5723 13.3951 11.922 12.963 11.2717 12.963C10.6214 12.963 9.75434 13.3951 9.32081 13.8272C7.58671 15.7717 4.98555 17.068 2.38439 17.068C1.08382 17.068 0 18.1482 0 19.4445C0 20.7408 1.08382 21.821 2.38439 21.821C5.20231 21.821 8.02023 20.9568 10.4046 19.4445C10.6214 19.2284 11.0549 19.0124 11.2717 18.7963C11.4884 19.0124 11.7052 19.2284 12.1387 19.4445C14.5231 20.9568 17.1243 21.821 20.159 21.821C23.1936 21.821 25.7948 20.9568 28.1792 19.4445C28.396 19.2284 28.8295 19.0124 29.0462 18.7963C29.263 19.0124 29.6965 19.2284 29.9133 19.4445C32.2977 20.9568 34.8988 21.821 37.9335 21.821C40.7514 21.821 43.5694 20.9568 45.9538 19.4445C46.1705 19.2284 46.604 19.0124 46.8208 18.7963C47.0376 19.0124 47.4711 19.2284 47.6879 19.4445C50.0723 20.9568 52.6734 21.821 55.7081 21.821C58.526 21.821 61.3439 20.9568 63.7283 19.4445C63.9451 19.2284 64.3786 19.0124 64.5954 18.7963C64.8121 19.0124 65.2457 19.2284 65.4624 19.4445C67.8468 20.9568 70.448 21.821 73.4827 21.821C74.7832 21.821 75.8671 20.7408 75.8671 19.4445C75 18.1482 73.9162 17.068 72.6156 17.068Z" fill="white" fill-opacity="0.5"/>
<path d="M2.38439 8.85802C5.20231 8.85802 8.02023 7.99383 10.4046 6.48148C10.6214 6.26543 11.0549 6.04938 11.2717 5.83333C11.4884 6.04938 11.7052 6.26543 12.1387 6.48148C14.5231 7.99383 17.1243 8.85802 20.159 8.85802C23.1936 8.85802 25.7948 7.99383 28.1792 6.48148C28.396 6.26543 28.8295 6.04938 29.0462 5.83333C29.263 6.04938 29.6965 6.26543 29.9133 6.48148C32.2977 7.99383 34.8988 8.85802 37.9335 8.85802C40.7514 8.85802 43.5694 7.99383 45.9538 6.48148C46.1705 6.26543 46.604 6.04938 46.8208 5.83333C47.0376 6.04938 47.4711 6.26543 47.6879 6.48148C50.0723 7.99383 52.6734 8.85802 55.7081 8.85802C58.7428 8.85802 60.6936 7.99383 63.078 6.48148C63.2948 6.26543 63.7283 6.04938 63.9451 5.83333C64.1619 6.04938 64.5954 6.26543 64.8121 6.48148C67.1965 7.99383 69.7977 8.85802 72.8324 8.85802C74.1329 8.85802 75.2168 7.77778 75.2168 6.48148C75.2168 5.18518 74.1329 4.10494 72.8324 4.10494C70.2312 4.10494 67.6301 3.02469 65.896 0.864197C65.2457 0.216049 64.5954 0 63.9451 0C63.2948 0 62.6445 0.216049 61.9942 0.864197C60.2601 2.80864 57.659 4.10494 55.0578 4.10494C52.4566 4.10494 49.8555 3.02469 48.1214 0.864197C47.6879 0.216049 47.0376 0 46.3873 0C45.737 0 45.0867 0.216049 44.4364 0.864197C42.7023 2.80864 40.1012 4.10494 37.5 4.10494C34.8988 4.10494 32.2977 3.02469 30.5636 0.864197C30.1301 0.216049 29.4798 0 28.8295 0C28.1792 0 27.5289 0.216049 26.8786 0.864197C25.1445 2.80864 22.5434 4.10494 19.9422 4.10494C17.341 4.10494 14.7399 2.80864 13.0058 0.864197C12.5723 0.216049 11.922 0 11.2717 0C10.6214 0 9.75434 0.216049 9.32081 0.864197C7.58671 2.80864 4.98555 4.10494 2.38439 4.10494C1.08382 4.10494 0 5.18518 0 6.48148C0 7.77778 1.08382 8.85802 2.38439 8.85802Z" fill="white" fill-opacity="0.5"/>
</g>
<defs>
<clipPath id="clip0">
<rect width="75" height="35" fill="white"/>
</clipPath>
</defs>
</svg>
