<svg width="549" height="415" viewBox="0 0 549 415" fill="none" xmlns="http://www.w3.org/2000/svg">
<path d="M183.301 48.0897C237.579 -3.05313 320.7 -7.74125 380.377 36.8666L334.341 98.238C304.502 75.9341 263.012 78.207 235.873 103.778L183.301 48.0897Z" fill="#14ADEA"/>
<path d="M235.874 103.068C263.155 77.7808 304.36 75.5079 334.199 97.5277L379.383 37.1507C320.132 -6.88896 238.147 -2.20088 184.154 48.2317L235.874 103.068ZM334.767 98.8062C334.483 98.9483 334.199 99.0903 333.915 98.8062C304.218 76.6443 263.155 78.9174 236.158 104.347C235.874 104.631 235.447 104.631 235.305 104.347L182.733 48.5158C182.448 48.2317 182.448 47.8054 182.733 47.6634C237.437 -3.76362 320.558 -8.45166 380.662 36.4404C380.804 36.5825 380.946 36.7245 380.946 36.8666C380.946 37.0086 380.946 37.1507 380.804 37.2927L334.767 98.8062C334.909 98.8062 334.909 98.8062 334.767 98.8062Z" fill="white"/>
<path d="M380.377 37.0085C407.8 57.4657 427.409 86.5887 436.36 119.547L362.332 139.72C357.927 123.241 347.981 108.751 334.341 98.38L380.377 37.0085Z" fill="#DEDFE0"/>
<path d="M362.901 138.868L435.65 119.121C426.84 86.8727 407.232 58.0339 380.52 37.8609L335.335 98.2378C348.55 108.324 358.354 122.673 362.901 138.868ZM436.929 119.973C436.786 119.973 436.786 120.115 436.644 120.115L362.616 140.288C362.474 140.288 362.332 140.288 362.19 140.288C362.048 140.146 361.906 140.004 361.906 139.862C357.501 123.525 347.697 109.035 334.057 98.9481C333.915 98.806 333.772 98.664 333.772 98.5219C333.772 98.3799 333.772 98.2377 333.915 98.0957L379.951 36.7244C380.093 36.4403 380.519 36.4402 380.804 36.5823C408.227 57.0394 428.119 86.4465 437.071 119.547C437.071 119.547 437.071 119.831 436.929 119.973Z" fill="white"/>
<path d="M436.361 119.547C449.291 167.423 438.35 218.566 406.807 256.923L347.556 208.337C363.327 189.158 368.727 163.587 362.333 139.578L436.361 119.547Z" fill="#CFE3F2"/>
<path d="M348.549 208.195L406.806 255.928C437.639 217.997 448.579 167.423 435.934 120.258L363.184 140.005C369.436 163.729 363.895 189.159 348.549 208.195ZM407.374 257.349C407.09 257.633 406.805 257.633 406.521 257.349L347.271 208.763C347.128 208.621 347.128 208.479 346.986 208.337C346.986 208.195 346.986 208.053 347.128 207.911C362.758 188.874 368.157 163.445 361.764 139.863C361.621 139.578 361.906 139.152 362.19 139.01L436.218 118.837C436.36 118.837 436.502 118.837 436.644 118.837C436.786 118.979 436.928 119.121 436.928 119.263C450 167.281 438.917 218.85 407.374 257.349Z" fill="white"/>
<path d="M406.948 256.923C353.239 322.414 256.619 332.074 191.116 278.374C140.106 236.608 121.635 166.712 145.221 105.057L216.834 132.333C201.63 171.827 221.523 216.15 261.023 231.351C291.856 243.143 326.81 233.908 347.697 208.337L406.948 256.923Z" fill="#41BAAA"/>
<path d="M145.506 105.909C122.346 167.281 140.675 236.324 191.401 277.948C256.335 331.222 352.387 321.704 405.954 257.065L347.698 209.332C345.709 211.747 343.577 214.02 341.304 216.151C319.849 236.324 288.731 242.717 260.74 232.062C241.416 224.674 226.212 210.326 217.829 191.432C209.446 172.821 208.878 152.08 215.982 132.901L145.506 105.909ZM393.734 271.982C338.178 324.261 251.078 328.381 190.548 278.943C139.254 236.892 120.641 166.997 144.512 104.915C144.654 104.631 144.938 104.489 145.364 104.489L216.977 131.907C217.119 131.907 217.261 132.049 217.403 132.191C217.403 132.333 217.545 132.475 217.403 132.617C210.156 151.654 210.725 172.253 218.966 190.721C227.207 209.19 242.268 223.396 261.166 230.641C291.857 242.29 326.385 233.198 347.13 207.769C347.414 207.485 347.698 207.485 347.982 207.627L407.233 256.213C407.375 256.355 407.375 256.497 407.517 256.639C407.517 256.781 407.517 256.923 407.375 257.065C403.112 262.605 398.565 267.436 393.734 271.982Z" fill="white"/>
<path d="M145.079 105.057C149.626 92.9815 155.736 81.6164 163.266 71.1038L225.785 115.428C222.091 120.684 218.965 126.366 216.692 132.475L145.079 105.057Z" fill="#3AB0D5"/>
<path d="M145.931 104.631L216.407 131.481C218.68 125.798 221.522 120.4 224.932 115.428L163.408 71.8141C156.304 82.0426 150.478 93.1236 145.931 104.631ZM217.26 132.901C217.117 133.043 216.833 133.186 216.549 133.043L144.937 105.625C144.795 105.625 144.653 105.483 144.51 105.341C144.51 105.199 144.368 105.057 144.51 104.915C149.199 92.8395 155.309 81.3324 162.84 70.8197C162.982 70.5355 163.408 70.3934 163.692 70.6776L226.211 115.001C226.353 115.143 226.495 115.285 226.495 115.428C226.495 115.57 226.495 115.712 226.353 115.854C222.659 121.11 219.675 126.793 217.402 132.759C217.26 132.759 217.26 132.759 217.26 132.901Z" fill="white"/>
<path d="M163.267 71.1038C169.092 62.8641 175.912 55.0507 183.301 48.0896L235.874 103.921C232.179 107.472 228.769 111.308 225.928 115.428L163.267 71.1038Z" fill="#6AA84B"/>
<path d="M164.261 70.9617L225.785 114.575C228.485 110.739 231.611 107.188 235.021 103.92L183.443 49.0839C176.339 55.6188 169.803 63.0062 164.261 70.9617ZM226.354 115.854C226.07 115.996 225.785 116.138 225.501 115.854L162.982 71.53C162.84 71.3879 162.698 71.2458 162.698 71.1037C162.698 70.9617 162.698 70.8196 162.84 70.6776C168.808 62.2958 175.486 54.6244 182.875 47.6633C183.159 47.3792 183.585 47.3792 183.727 47.6633L236.3 103.494C236.584 103.778 236.584 104.205 236.3 104.347C232.606 107.898 229.338 111.734 226.354 115.854Z" fill="white"/>
<path d="M429.622 10.4023H425.452L424.516 13H423.162L426.963 3.04688H428.111L431.919 13H430.572L429.622 10.4023ZM425.849 9.32227H429.232L427.537 4.66699L425.849 9.32227ZM432.76 9.24023C432.76 8.08724 433.026 7.17122 433.56 6.49219C434.093 5.80859 434.799 5.4668 435.679 5.4668C436.581 5.4668 437.285 5.78581 437.791 6.42383L437.852 5.60352H439.008V12.8223C439.008 13.7793 438.723 14.5335 438.153 15.085C437.588 15.6364 436.827 15.9121 435.87 15.9121C435.337 15.9121 434.815 15.7982 434.305 15.5703C433.794 15.3424 433.405 15.0303 433.136 14.6338L433.792 13.875C434.334 14.5449 434.997 14.8799 435.781 14.8799C436.396 14.8799 436.875 14.7067 437.217 14.3604C437.563 14.014 437.736 13.5264 437.736 12.8975V12.2617C437.23 12.8451 436.54 13.1367 435.665 13.1367C434.799 13.1367 434.097 12.7881 433.56 12.0908C433.026 11.3936 432.76 10.4434 432.76 9.24023ZM434.031 9.38379C434.031 10.2178 434.202 10.874 434.544 11.3525C434.886 11.8265 435.364 12.0635 435.979 12.0635C436.777 12.0635 437.363 11.7012 437.736 10.9766V7.59961C437.349 6.89323 436.768 6.54004 435.993 6.54004C435.378 6.54004 434.897 6.7793 434.551 7.25781C434.204 7.73633 434.031 8.44499 434.031 9.38379ZM444.497 6.73828C444.306 6.70638 444.098 6.69043 443.875 6.69043C443.046 6.69043 442.483 7.04362 442.186 7.75V13H440.922V5.60352H442.152L442.173 6.45801C442.588 5.7972 443.175 5.4668 443.936 5.4668C444.183 5.4668 444.369 5.4987 444.497 5.5625V6.73828ZM447.04 13H445.775V5.60352H447.04V13ZM445.673 3.6416C445.673 3.43652 445.734 3.26335 445.857 3.12207C445.985 2.98079 446.172 2.91016 446.418 2.91016C446.664 2.91016 446.851 2.98079 446.978 3.12207C447.106 3.26335 447.17 3.43652 447.17 3.6416C447.17 3.84668 447.106 4.01758 446.978 4.1543C446.851 4.29102 446.664 4.35938 446.418 4.35938C446.172 4.35938 445.985 4.29102 445.857 4.1543C445.734 4.01758 445.673 3.84668 445.673 3.6416ZM455.318 9.38379C455.318 10.5094 455.061 11.4163 454.546 12.1045C454.031 12.7926 453.334 13.1367 452.454 13.1367C451.556 13.1367 450.85 12.8519 450.335 12.2822V15.8438H449.07V5.60352H450.226L450.287 6.42383C450.802 5.78581 451.518 5.4668 452.434 5.4668C453.322 5.4668 454.024 5.80176 454.539 6.47168C455.059 7.1416 455.318 8.07357 455.318 9.26758V9.38379ZM454.054 9.24023C454.054 8.40625 453.876 7.74772 453.52 7.26465C453.165 6.78158 452.677 6.54004 452.058 6.54004C451.292 6.54004 450.718 6.87956 450.335 7.55859V11.0928C450.713 11.7673 451.292 12.1045 452.071 12.1045C452.677 12.1045 453.158 11.8652 453.514 11.3867C453.874 10.9036 454.054 10.1882 454.054 9.24023ZM460.507 6.73828C460.315 6.70638 460.108 6.69043 459.885 6.69043C459.055 6.69043 458.492 7.04362 458.196 7.75V13H456.932V5.60352H458.162L458.183 6.45801C458.597 5.7972 459.185 5.4668 459.946 5.4668C460.192 5.4668 460.379 5.4987 460.507 5.5625V6.73828ZM461.204 9.2334C461.204 8.50879 461.345 7.8571 461.628 7.27832C461.915 6.69954 462.311 6.25293 462.817 5.93848C463.328 5.62402 463.909 5.4668 464.56 5.4668C465.568 5.4668 466.381 5.81543 467.001 6.5127C467.625 7.20996 467.937 8.13737 467.937 9.29492V9.38379C467.937 10.1038 467.798 10.751 467.52 11.3252C467.247 11.8949 466.853 12.3392 466.338 12.6582C465.827 12.9772 465.24 13.1367 464.574 13.1367C463.572 13.1367 462.758 12.7881 462.134 12.0908C461.514 11.3936 461.204 10.4707 461.204 9.32227V9.2334ZM462.476 9.38379C462.476 10.2041 462.665 10.8626 463.043 11.3594C463.426 11.8561 463.936 12.1045 464.574 12.1045C465.217 12.1045 465.727 11.8538 466.105 11.3525C466.484 10.8467 466.673 10.1403 466.673 9.2334C466.673 8.4222 466.479 7.76595 466.092 7.26465C465.709 6.75879 465.199 6.50586 464.56 6.50586C463.936 6.50586 463.433 6.75423 463.05 7.25098C462.667 7.74772 462.476 8.45866 462.476 9.38379ZM469.216 9.24023C469.216 8.10547 469.485 7.19401 470.022 6.50586C470.56 5.81315 471.264 5.4668 472.135 5.4668C473.001 5.4668 473.686 5.76302 474.192 6.35547V2.5H475.457V13H474.295L474.233 12.207C473.727 12.8268 473.023 13.1367 472.121 13.1367C471.264 13.1367 470.565 12.7858 470.022 12.084C469.485 11.3822 469.216 10.4661 469.216 9.33594V9.24023ZM470.48 9.38379C470.48 10.2223 470.654 10.8786 471 11.3525C471.346 11.8265 471.825 12.0635 472.435 12.0635C473.238 12.0635 473.823 11.7035 474.192 10.9834V7.58594C473.814 6.88867 473.233 6.54004 472.449 6.54004C471.829 6.54004 471.346 6.7793 471 7.25781C470.654 7.73633 470.48 8.44499 470.48 9.38379ZM481.992 12.2686C481.5 12.8473 480.778 13.1367 479.825 13.1367C479.037 13.1367 478.435 12.9089 478.02 12.4531C477.61 11.9928 477.403 11.3138 477.398 10.416V5.60352H478.663V10.3818C478.663 11.5029 479.119 12.0635 480.03 12.0635C480.996 12.0635 481.639 11.7035 481.958 10.9834V5.60352H483.223V13H482.019L481.992 12.2686ZM488.117 12.1045C488.568 12.1045 488.963 11.9678 489.3 11.6943C489.637 11.4209 489.824 11.0791 489.86 10.6689H491.057C491.034 11.0928 490.888 11.4961 490.619 11.8789C490.35 12.2617 489.99 12.5671 489.539 12.7949C489.092 13.0228 488.618 13.1367 488.117 13.1367C487.11 13.1367 486.308 12.8018 485.711 12.1318C485.118 11.4574 484.822 10.5368 484.822 9.37012V9.1582C484.822 8.43815 484.954 7.79785 485.219 7.2373C485.483 6.67676 485.861 6.24154 486.353 5.93164C486.85 5.62174 487.436 5.4668 488.11 5.4668C488.94 5.4668 489.628 5.71517 490.175 6.21191C490.726 6.70866 491.02 7.35352 491.057 8.14648H489.86C489.824 7.66797 489.642 7.27604 489.313 6.9707C488.99 6.66081 488.589 6.50586 488.11 6.50586C487.468 6.50586 486.969 6.73828 486.613 7.20312C486.262 7.66341 486.087 8.33105 486.087 9.20605V9.44531C486.087 10.2975 486.262 10.9538 486.613 11.4141C486.964 11.8743 487.465 12.1045 488.117 12.1045ZM494.194 3.8125V5.60352H495.575V6.58105H494.194V11.168C494.194 11.4642 494.256 11.6875 494.379 11.8379C494.502 11.9837 494.712 12.0566 495.008 12.0566C495.154 12.0566 495.354 12.0293 495.609 11.9746V13C495.277 13.0911 494.953 13.1367 494.639 13.1367C494.074 13.1367 493.647 12.9658 493.36 12.624C493.073 12.2822 492.93 11.7969 492.93 11.168V6.58105H491.583V5.60352H492.93V3.8125H494.194ZM501.365 11.0381C501.365 10.6963 501.235 10.432 500.976 10.2451C500.72 10.0537 500.271 9.88965 499.629 9.75293C498.991 9.61621 498.483 9.45215 498.104 9.26074C497.731 9.06934 497.453 8.84147 497.27 8.57715C497.093 8.31283 497.004 7.99837 497.004 7.63379C497.004 7.02767 497.259 6.51497 497.769 6.0957C498.284 5.67643 498.941 5.4668 499.738 5.4668C500.577 5.4668 501.256 5.68327 501.775 6.11621C502.299 6.54915 502.561 7.10286 502.561 7.77734H501.29C501.29 7.43099 501.142 7.13249 500.846 6.88184C500.554 6.63118 500.185 6.50586 499.738 6.50586C499.278 6.50586 498.918 6.60612 498.658 6.80664C498.398 7.00716 498.268 7.26921 498.268 7.59277C498.268 7.89811 498.389 8.12826 498.631 8.2832C498.872 8.43815 499.308 8.58626 499.936 8.72754C500.57 8.86882 501.083 9.03743 501.475 9.2334C501.866 9.42936 502.156 9.66634 502.343 9.94434C502.534 10.2178 502.63 10.5527 502.63 10.9492C502.63 11.61 502.365 12.141 501.837 12.542C501.308 12.9385 500.622 13.1367 499.779 13.1367C499.187 13.1367 498.663 13.0319 498.207 12.8223C497.751 12.6126 497.393 12.321 497.134 11.9473C496.879 11.569 496.751 11.1611 496.751 10.7236H498.016C498.038 11.1475 498.207 11.4847 498.521 11.7354C498.84 11.9814 499.26 12.1045 499.779 12.1045C500.258 12.1045 500.641 12.0088 500.928 11.8174C501.219 11.6214 501.365 11.3617 501.365 11.0381ZM509.459 7.4082H510.409C511.006 7.39909 511.476 7.24186 511.817 6.93652C512.159 6.63118 512.33 6.21875 512.33 5.69922C512.33 4.53255 511.749 3.94922 510.587 3.94922C510.04 3.94922 509.602 4.10645 509.274 4.4209C508.951 4.73079 508.789 5.14323 508.789 5.6582H507.524C507.524 4.86979 507.811 4.21582 508.386 3.69629C508.964 3.1722 509.698 2.91016 510.587 2.91016C511.526 2.91016 512.262 3.15853 512.795 3.65527C513.328 4.15202 513.595 4.84245 513.595 5.72656C513.595 6.15951 513.453 6.57878 513.171 6.98438C512.893 7.38997 512.512 7.69303 512.029 7.89355C512.576 8.06673 512.998 8.35384 513.294 8.75488C513.595 9.15592 513.745 9.64583 513.745 10.2246C513.745 11.1178 513.453 11.8265 512.87 12.3506C512.287 12.8747 511.528 13.1367 510.594 13.1367C509.659 13.1367 508.898 12.8838 508.31 12.3779C507.727 11.8721 507.435 11.2044 507.435 10.375H508.707C508.707 10.8991 508.878 11.3184 509.22 11.6328C509.561 11.9473 510.019 12.1045 510.594 12.1045C511.204 12.1045 511.671 11.945 511.995 11.626C512.319 11.307 512.48 10.849 512.48 10.252C512.48 9.67318 512.303 9.22884 511.947 8.91895C511.592 8.60905 511.079 8.44954 510.409 8.44043H509.459V7.4082ZM516.062 8.00977L516.568 3.04688H521.668V4.21582H517.642L517.341 6.92969C517.828 6.64258 518.382 6.49902 519.002 6.49902C519.909 6.49902 520.629 6.7998 521.162 7.40137C521.695 7.99837 521.962 8.80729 521.962 9.82812C521.962 10.8535 521.684 11.6624 521.128 12.2549C520.576 12.8428 519.804 13.1367 518.81 13.1367C517.931 13.1367 517.213 12.8929 516.657 12.4053C516.101 11.9176 515.784 11.2432 515.707 10.3818H516.903C516.981 10.9515 517.184 11.3822 517.512 11.6738C517.84 11.9609 518.273 12.1045 518.81 12.1045C519.398 12.1045 519.859 11.904 520.191 11.5029C520.529 11.1019 520.697 10.5482 520.697 9.8418C520.697 9.17643 520.515 8.64323 520.15 8.24219C519.79 7.83659 519.31 7.63379 518.708 7.63379C518.157 7.63379 517.724 7.75456 517.409 7.99609L517.074 8.26953L516.062 8.00977ZM528.306 3.04004V4.11328H528.073C527.089 4.13151 526.305 4.42318 525.722 4.98828C525.138 5.55339 524.801 6.34863 524.71 7.37402C525.234 6.77246 525.949 6.47168 526.856 6.47168C527.722 6.47168 528.413 6.77702 528.928 7.3877C529.447 7.99837 529.707 8.78678 529.707 9.75293C529.707 10.7783 529.427 11.5986 528.866 12.2139C528.31 12.8291 527.563 13.1367 526.624 13.1367C525.671 13.1367 524.899 12.7721 524.307 12.043C523.714 11.3092 523.418 10.3659 523.418 9.21289V8.72754C523.418 6.89551 523.808 5.49642 524.587 4.53027C525.371 3.55957 526.535 3.06283 528.08 3.04004H528.306ZM526.644 7.52441C526.212 7.52441 525.813 7.6543 525.448 7.91406C525.084 8.17383 524.831 8.49967 524.689 8.8916V9.35645C524.689 10.1768 524.874 10.8376 525.243 11.3389C525.612 11.8402 526.073 12.0908 526.624 12.0908C527.194 12.0908 527.64 11.8812 527.964 11.4619C528.292 11.0426 528.456 10.4935 528.456 9.81445C528.456 9.13086 528.29 8.57943 527.957 8.16016C527.629 7.73633 527.191 7.52441 526.644 7.52441ZM531.293 14.9824L530.575 14.4902C531.004 13.8932 531.227 13.278 531.245 12.6445V11.5029H532.482V12.4941C532.482 12.9544 532.368 13.4147 532.141 13.875C531.917 14.3353 531.635 14.7044 531.293 14.9824ZM539.988 5.64453C539.988 6.14128 539.856 6.58333 539.592 6.9707C539.332 7.35807 538.979 7.66113 538.532 7.87988C539.052 8.10319 539.462 8.42904 539.763 8.85742C540.068 9.28581 540.221 9.77116 540.221 10.3135C540.221 11.1748 539.929 11.8607 539.346 12.3711C538.767 12.8815 538.004 13.1367 537.056 13.1367C536.099 13.1367 535.331 12.8815 534.752 12.3711C534.178 11.8561 533.891 11.1702 533.891 10.3135C533.891 9.77572 534.036 9.29036 534.328 8.85742C534.624 8.42448 535.032 8.09635 535.552 7.87305C535.11 7.6543 534.761 7.35124 534.506 6.96387C534.251 6.5765 534.123 6.13672 534.123 5.64453C534.123 4.80599 534.392 4.14062 534.93 3.64844C535.467 3.15625 536.176 2.91016 537.056 2.91016C537.931 2.91016 538.637 3.15625 539.175 3.64844C539.717 4.14062 539.988 4.80599 539.988 5.64453ZM538.956 10.2861C538.956 9.73014 538.778 9.27669 538.423 8.92578C538.072 8.57487 537.612 8.39941 537.042 8.39941C536.472 8.39941 536.014 8.57259 535.668 8.91895C535.326 9.2653 535.155 9.72103 535.155 10.2861C535.155 10.8512 535.322 11.2956 535.654 11.6191C535.991 11.9427 536.459 12.1045 537.056 12.1045C537.648 12.1045 538.113 11.9427 538.45 11.6191C538.787 11.291 538.956 10.8467 538.956 10.2861ZM537.056 3.94922C536.559 3.94922 536.156 4.10417 535.846 4.41406C535.54 4.7194 535.388 5.13639 535.388 5.66504C535.388 6.1709 535.538 6.58105 535.839 6.89551C536.144 7.2054 536.55 7.36035 537.056 7.36035C537.561 7.36035 537.965 7.2054 538.266 6.89551C538.571 6.58105 538.724 6.1709 538.724 5.66504C538.724 5.15918 538.566 4.74674 538.252 4.42773C537.937 4.10872 537.539 3.94922 537.056 3.94922ZM544.008 9.5752L543.215 10.4023V13H541.95V2.5H543.215V8.85059L543.892 8.03711L546.195 5.60352H547.733L544.855 8.69336L548.068 13H546.585L544.008 9.5752Z" fill="#009487"/>
<path d="M524.1 40.9329H515.329V39.1926L519.468 34.7805C520.037 34.1594 520.456 33.6174 520.725 33.1545C521.001 32.6917 521.138 32.2522 521.138 31.8362C521.138 31.2678 520.995 30.8225 520.708 30.5002C520.42 30.1721 520.01 30.0081 519.477 30.0081C518.903 30.0081 518.449 30.2073 518.115 30.6057C517.787 30.9983 517.623 31.5168 517.623 32.1614H515.074C515.074 31.3821 515.258 30.6702 515.628 30.0256C516.003 29.3811 516.53 28.8772 517.21 28.5139C517.889 28.1448 518.66 27.9602 519.521 27.9602C520.839 27.9602 521.862 28.2766 522.588 28.9094C523.321 29.5422 523.687 30.4358 523.687 31.5901C523.687 32.2229 523.523 32.8674 523.195 33.5237C522.867 34.1799 522.304 34.9446 521.507 35.8176L518.598 38.885H524.1V40.9329ZM534.436 40.9329H525.665V39.1926L529.804 34.7805C530.373 34.1594 530.792 33.6174 531.061 33.1545C531.336 32.6917 531.474 32.2522 531.474 31.8362C531.474 31.2678 531.331 30.8225 531.044 30.5002C530.756 30.1721 530.346 30.0081 529.813 30.0081C529.239 30.0081 528.785 30.2073 528.451 30.6057C528.123 30.9983 527.959 31.5168 527.959 32.1614H525.41C525.41 31.3821 525.594 30.6702 525.963 30.0256C526.338 29.3811 526.866 28.8772 527.545 28.5139C528.225 28.1448 528.996 27.9602 529.857 27.9602C531.175 27.9602 532.198 28.2766 532.924 28.9094C533.657 29.5422 534.023 30.4358 534.023 31.5901C534.023 32.2229 533.859 32.8674 533.531 33.5237C533.203 34.1799 532.64 34.9446 531.843 35.8176L528.934 38.885H534.436V40.9329ZM535.965 30.5969C535.965 29.8118 536.22 29.176 536.73 28.6897C537.24 28.1975 537.908 27.9514 538.734 27.9514C539.572 27.9514 540.246 28.1946 540.755 28.6809C541.265 29.1614 541.52 29.8147 541.52 30.6409V31.2737C541.52 32.0647 541.265 32.7004 540.755 33.1809C540.246 33.6614 539.578 33.9016 538.752 33.9016C537.919 33.9016 537.246 33.6614 536.73 33.1809C536.22 32.6946 535.965 32.0413 535.965 31.2209V30.5969ZM537.653 31.2737C537.653 31.6252 537.753 31.9094 537.952 32.1262C538.157 32.3372 538.423 32.4426 538.752 32.4426C539.08 32.4426 539.34 32.3342 539.534 32.1174C539.727 31.9006 539.824 31.6106 539.824 31.2473V30.5969C539.824 30.2454 539.727 29.9612 539.534 29.7444C539.34 29.5276 539.074 29.4192 538.734 29.4192C538.412 29.4192 538.151 29.5276 537.952 29.7444C537.753 29.9553 537.653 30.2512 537.653 30.6321V31.2737ZM542.083 37.7952C542.083 37.0042 542.34 36.3684 542.856 35.8879C543.372 35.4016 544.04 35.1584 544.86 35.1584C545.692 35.1584 546.363 35.3987 546.873 35.8792C547.388 36.3538 547.646 37.01 547.646 37.8479V38.4807C547.646 39.2659 547.394 39.9016 546.89 40.3879C546.386 40.8684 545.715 41.1086 544.878 41.1086C544.034 41.1086 543.357 40.8655 542.847 40.3792C542.337 39.8928 542.083 39.2483 542.083 38.4456V37.7952ZM543.77 38.4807C543.77 38.803 543.876 39.0784 544.086 39.3069C544.297 39.5354 544.561 39.6497 544.878 39.6497C545.592 39.6497 545.95 39.2542 545.95 38.4631V37.7952C545.95 37.4436 545.85 37.1624 545.651 36.9514C545.452 36.7346 545.188 36.6262 544.86 36.6262C544.532 36.6262 544.268 36.7346 544.069 36.9514C543.87 37.1624 543.77 37.4524 543.77 37.8215V38.4807ZM539.253 39.9749L538.013 39.3069L544.262 29.3049L545.502 29.9729L539.253 39.9749Z" fill="#009487"/>
<path d="M278.347 369.183L281.601 377.304L284.855 369.183H286.557V379.136H285.245V375.26L285.368 371.076L282.1 379.136H281.095L277.835 371.097L277.964 375.26V379.136H276.652V369.183H278.347ZM291.746 379.273C290.743 379.273 289.927 378.945 289.298 378.288C288.669 377.628 288.355 376.746 288.355 375.643V375.41C288.355 374.677 288.494 374.023 288.772 373.448C289.055 372.87 289.446 372.419 289.948 372.095C290.454 371.767 291.001 371.603 291.588 371.603C292.55 371.603 293.297 371.92 293.831 372.553C294.364 373.186 294.63 374.093 294.63 375.274V375.8H289.62C289.638 376.529 289.85 377.119 290.255 377.571C290.666 378.017 291.185 378.24 291.814 378.24C292.261 378.24 292.639 378.149 292.949 377.967C293.259 377.785 293.53 377.543 293.762 377.242L294.535 377.844C293.915 378.796 292.985 379.273 291.746 379.273ZM291.588 372.642C291.078 372.642 290.65 372.829 290.303 373.202C289.957 373.572 289.743 374.091 289.661 374.761H293.366V374.665C293.329 374.023 293.156 373.526 292.846 373.175C292.536 372.82 292.117 372.642 291.588 372.642ZM297.816 369.948V371.74H299.197V372.717H297.816V377.304C297.816 377.6 297.877 377.823 298.001 377.974C298.124 378.12 298.333 378.193 298.629 378.193C298.775 378.193 298.976 378.165 299.231 378.111V379.136C298.898 379.227 298.575 379.273 298.26 379.273C297.695 379.273 297.269 379.102 296.982 378.76C296.695 378.418 296.551 377.933 296.551 377.304V372.717H295.205V371.74H296.551V369.948H297.816ZM305.247 379.136C305.174 378.99 305.114 378.73 305.069 378.357C304.481 378.967 303.779 379.273 302.963 379.273C302.234 379.273 301.635 379.068 301.166 378.657C300.701 378.243 300.468 377.719 300.468 377.085C300.468 376.315 300.76 375.718 301.343 375.294C301.931 374.866 302.756 374.652 303.818 374.652H305.048V374.071C305.048 373.628 304.916 373.278 304.652 373.018C304.388 372.753 303.998 372.621 303.483 372.621C303.032 372.621 302.654 372.735 302.348 372.963C302.043 373.191 301.89 373.467 301.89 373.79H300.619C300.619 373.421 300.749 373.066 301.008 372.724C301.273 372.378 301.628 372.104 302.075 371.904C302.526 371.703 303.02 371.603 303.558 371.603C304.41 371.603 305.078 371.817 305.561 372.245C306.044 372.669 306.295 373.255 306.313 374.002V377.406C306.313 378.086 306.4 378.626 306.573 379.027V379.136H305.247ZM303.148 378.172C303.544 378.172 303.92 378.07 304.276 377.865C304.631 377.659 304.889 377.393 305.048 377.065V375.547H304.057C302.508 375.547 301.733 376.001 301.733 376.907C301.733 377.304 301.865 377.614 302.129 377.837C302.394 378.06 302.733 378.172 303.148 378.172ZM309.669 379.136H308.405V368.636H309.669V379.136ZM316.006 377.174C316.006 376.832 315.876 376.568 315.617 376.381C315.362 376.19 314.913 376.026 314.27 375.889C313.632 375.752 313.124 375.588 312.746 375.397C312.372 375.205 312.094 374.977 311.912 374.713C311.734 374.449 311.645 374.134 311.645 373.77C311.645 373.164 311.9 372.651 312.411 372.232C312.926 371.812 313.582 371.603 314.379 371.603C315.218 371.603 315.897 371.819 316.417 372.252C316.941 372.685 317.203 373.239 317.203 373.913H315.931C315.931 373.567 315.783 373.268 315.487 373.018C315.195 372.767 314.826 372.642 314.379 372.642C313.919 372.642 313.559 372.742 313.299 372.943C313.04 373.143 312.91 373.405 312.91 373.729C312.91 374.034 313.03 374.264 313.272 374.419C313.514 374.574 313.949 374.722 314.578 374.864C315.211 375.005 315.724 375.173 316.116 375.369C316.508 375.565 316.797 375.802 316.984 376.08C317.175 376.354 317.271 376.689 317.271 377.085C317.271 377.746 317.007 378.277 316.478 378.678C315.949 379.074 315.264 379.273 314.42 379.273C313.828 379.273 313.304 379.168 312.848 378.958C312.392 378.749 312.035 378.457 311.775 378.083C311.52 377.705 311.392 377.297 311.392 376.86H312.657C312.68 377.283 312.848 377.621 313.163 377.871C313.482 378.117 313.901 378.24 314.42 378.24C314.899 378.24 315.282 378.145 315.569 377.953C315.861 377.757 316.006 377.498 316.006 377.174ZM332.16 369.894L328.038 379.136H326.711L330.82 370.222H325.433V369.183H332.16V369.894ZM337.751 379.136H336.48V370.707L333.93 371.644V370.495L337.553 369.135H337.751V379.136ZM346.303 374.761C346.039 375.075 345.722 375.328 345.353 375.52C344.988 375.711 344.587 375.807 344.15 375.807C343.576 375.807 343.074 375.666 342.646 375.383C342.222 375.101 341.894 374.704 341.662 374.194C341.429 373.679 341.313 373.111 341.313 372.491C341.313 371.826 341.438 371.227 341.689 370.694C341.944 370.16 342.304 369.753 342.769 369.47C343.234 369.187 343.776 369.046 344.396 369.046C345.38 369.046 346.155 369.415 346.72 370.154C347.29 370.887 347.575 371.89 347.575 373.161V373.531C347.575 375.467 347.192 376.882 346.426 377.776C345.661 378.664 344.505 379.12 342.96 379.143H342.714V378.076H342.981C344.025 378.058 344.827 377.787 345.387 377.263C345.948 376.734 346.253 375.9 346.303 374.761ZM344.355 374.761C344.779 374.761 345.168 374.631 345.524 374.371C345.884 374.112 346.146 373.79 346.31 373.407V372.902C346.31 372.072 346.13 371.398 345.77 370.878C345.41 370.359 344.954 370.099 344.403 370.099C343.847 370.099 343.4 370.313 343.063 370.741C342.726 371.165 342.557 371.726 342.557 372.423C342.557 373.102 342.719 373.663 343.043 374.105C343.371 374.542 343.808 374.761 344.355 374.761ZM349.407 381.118L348.689 380.626C349.117 380.029 349.341 379.414 349.359 378.781V377.639H350.596V378.63C350.596 379.09 350.482 379.551 350.254 380.011C350.031 380.471 349.749 380.84 349.407 381.118ZM358.102 371.781C358.102 372.277 357.97 372.719 357.706 373.107C357.446 373.494 357.093 373.797 356.646 374.016C357.166 374.239 357.576 374.565 357.876 374.993C358.182 375.422 358.335 375.907 358.335 376.449C358.335 377.311 358.043 377.997 357.46 378.507C356.881 379.017 356.117 379.273 355.169 379.273C354.212 379.273 353.445 379.017 352.866 378.507C352.292 377.992 352.004 377.306 352.004 376.449C352.004 375.912 352.15 375.426 352.442 374.993C352.738 374.56 353.146 374.232 353.666 374.009C353.224 373.79 352.875 373.487 352.62 373.1C352.364 372.712 352.237 372.273 352.237 371.781C352.237 370.942 352.506 370.277 353.043 369.784C353.581 369.292 354.29 369.046 355.169 369.046C356.044 369.046 356.751 369.292 357.289 369.784C357.831 370.277 358.102 370.942 358.102 371.781ZM357.07 376.422C357.07 375.866 356.892 375.413 356.537 375.062C356.186 374.711 355.725 374.535 355.156 374.535C354.586 374.535 354.128 374.709 353.782 375.055C353.44 375.401 353.269 375.857 353.269 376.422C353.269 376.987 353.435 377.432 353.768 377.755C354.105 378.079 354.572 378.24 355.169 378.24C355.762 378.24 356.227 378.079 356.564 377.755C356.901 377.427 357.07 376.983 357.07 376.422ZM355.169 370.085C354.673 370.085 354.269 370.24 353.96 370.55C353.654 370.855 353.501 371.272 353.501 371.801C353.501 372.307 353.652 372.717 353.953 373.031C354.258 373.341 354.664 373.496 355.169 373.496C355.675 373.496 356.079 373.341 356.379 373.031C356.685 372.717 356.837 372.307 356.837 371.801C356.837 371.295 356.68 370.883 356.366 370.564C356.051 370.245 355.653 370.085 355.169 370.085ZM362.122 375.711L361.329 376.538V379.136H360.064V368.636H361.329V374.987L362.005 374.173L364.309 371.74H365.847L362.969 374.829L366.182 379.136H364.699L362.122 375.711Z" fill="#009487"/>
<path d="M341.843 402.162H343.294V404.21H341.843V406.978H339.303V404.21H334.056L333.942 402.61L339.277 394.181H341.843V402.162ZM336.473 402.162H339.303V397.644L339.136 397.934L336.473 402.162ZM345.043 400.685L345.781 394.181H352.953V396.3H347.864L347.547 399.051C348.151 398.728 348.793 398.567 349.472 398.567C350.691 398.567 351.646 398.945 352.337 399.701C353.029 400.457 353.375 401.514 353.375 402.874C353.375 403.7 353.199 404.441 352.847 405.097C352.502 405.748 352.004 406.255 351.353 406.618C350.703 406.975 349.935 407.154 349.05 407.154C348.277 407.154 347.559 406.999 346.897 406.688C346.235 406.372 345.711 405.929 345.324 405.361C344.943 404.793 344.741 404.145 344.717 403.419H347.231C347.284 403.952 347.468 404.368 347.785 404.667C348.107 404.96 348.526 405.106 349.042 405.106C349.616 405.106 350.058 404.901 350.369 404.491C350.679 404.075 350.835 403.489 350.835 402.733C350.835 402.007 350.656 401.45 350.298 401.063C349.941 400.677 349.434 400.483 348.778 400.483C348.174 400.483 347.685 400.641 347.31 400.958L347.064 401.186L345.043 400.685ZM354.965 396.642C354.965 395.857 355.22 395.221 355.73 394.735C356.24 394.243 356.908 393.997 357.734 393.997C358.572 393.997 359.246 394.24 359.755 394.726C360.265 395.207 360.52 395.86 360.52 396.686V397.319C360.52 398.11 360.265 398.746 359.755 399.226C359.246 399.707 358.578 399.947 357.752 399.947C356.92 399.947 356.246 399.707 355.73 399.226C355.22 398.74 354.965 398.087 354.965 397.266V396.642ZM356.653 397.319C356.653 397.671 356.753 397.955 356.952 398.172C357.157 398.383 357.423 398.488 357.752 398.488C358.08 398.488 358.34 398.38 358.534 398.163C358.727 397.946 358.824 397.656 358.824 397.293V396.642C358.824 396.291 358.727 396.007 358.534 395.79C358.34 395.573 358.074 395.465 357.734 395.465C357.412 395.465 357.151 395.573 356.952 395.79C356.753 396.001 356.653 396.297 356.653 396.677V397.319ZM361.083 403.841C361.083 403.05 361.34 402.414 361.856 401.933C362.372 401.447 363.04 401.204 363.86 401.204C364.692 401.204 365.363 401.444 365.873 401.925C366.388 402.399 366.646 403.055 366.646 403.893V404.526C366.646 405.311 366.394 405.947 365.89 406.433C365.386 406.914 364.715 407.154 363.878 407.154C363.034 407.154 362.357 406.911 361.847 406.425C361.337 405.938 361.083 405.294 361.083 404.491V403.841ZM362.77 404.526C362.77 404.848 362.876 405.124 363.087 405.352C363.297 405.581 363.561 405.695 363.878 405.695C364.592 405.695 364.95 405.3 364.95 404.509V403.841C364.95 403.489 364.85 403.208 364.651 402.997C364.452 402.78 364.188 402.672 363.86 402.672C363.532 402.672 363.268 402.78 363.069 402.997C362.87 403.208 362.77 403.498 362.77 403.867V404.526ZM358.253 406.02L357.013 405.352L363.262 395.35L364.502 396.018L358.253 406.02Z" fill="#009487"/>
<path d="M470.64 74.7437C470.517 75.7964 470.128 76.6099 469.471 77.1841C468.82 77.7537 467.951 78.0386 466.867 78.0386C465.691 78.0386 464.748 77.617 464.037 76.7739C463.33 75.9308 462.977 74.8029 462.977 73.3901V72.4331C462.977 71.508 463.141 70.6945 463.469 69.9927C463.802 69.2909 464.271 68.7531 464.878 68.3794C465.484 68.0011 466.186 67.812 466.983 67.812C468.04 67.812 468.888 68.1082 469.526 68.7007C470.164 69.2886 470.535 70.1043 470.64 71.1479H469.321C469.207 70.355 468.959 69.7808 468.576 69.4253C468.198 69.0698 467.667 68.8921 466.983 68.8921C466.144 68.8921 465.486 69.202 465.007 69.8218C464.533 70.4416 464.297 71.3234 464.297 72.4673V73.4312C464.297 74.5112 464.522 75.3703 464.973 76.0083C465.424 76.6463 466.056 76.9653 466.867 76.9653C467.596 76.9653 468.154 76.8013 468.542 76.4731C468.934 76.1405 469.193 75.564 469.321 74.7437H470.64ZM471.905 74.1353C471.905 73.4106 472.046 72.759 472.329 72.1802C472.616 71.6014 473.012 71.1548 473.518 70.8403C474.029 70.5259 474.61 70.3687 475.261 70.3687C476.269 70.3687 477.082 70.7173 477.702 71.4146C478.326 72.1118 478.638 73.0392 478.638 74.1968V74.2856C478.638 75.0057 478.499 75.6528 478.221 76.2271C477.948 76.7967 477.554 77.241 477.039 77.5601C476.528 77.8791 475.94 78.0386 475.275 78.0386C474.272 78.0386 473.459 77.6899 472.835 76.9927C472.215 76.2954 471.905 75.3726 471.905 74.2241V74.1353ZM473.176 74.2856C473.176 75.106 473.366 75.7645 473.744 76.2612C474.127 76.758 474.637 77.0063 475.275 77.0063C475.918 77.0063 476.428 76.7557 476.806 76.2544C477.185 75.7485 477.374 75.0422 477.374 74.1353C477.374 73.3241 477.18 72.6678 476.793 72.1665C476.41 71.6606 475.899 71.4077 475.261 71.4077C474.637 71.4077 474.133 71.6561 473.751 72.1528C473.368 72.6496 473.176 73.3605 473.176 74.2856ZM484.791 77.9019C484.718 77.756 484.658 77.4963 484.613 77.1226C484.025 77.7332 483.323 78.0386 482.507 78.0386C481.778 78.0386 481.179 77.8335 480.71 77.4233C480.245 77.0086 480.012 76.4845 480.012 75.8511C480.012 75.0809 480.304 74.4839 480.887 74.0601C481.475 73.6317 482.3 73.4175 483.362 73.4175H484.592V72.8364C484.592 72.3944 484.46 72.0435 484.196 71.7837C483.932 71.5194 483.542 71.3872 483.027 71.3872C482.576 71.3872 482.198 71.5011 481.892 71.729C481.587 71.9569 481.434 72.2326 481.434 72.5562H480.163C480.163 72.187 480.293 71.8315 480.552 71.4897C480.817 71.1434 481.172 70.87 481.619 70.6694C482.07 70.4689 482.564 70.3687 483.102 70.3687C483.954 70.3687 484.622 70.5828 485.105 71.0112C485.588 71.4351 485.839 72.0207 485.857 72.7681V76.1724C485.857 76.8514 485.944 77.3914 486.117 77.7925V77.9019H484.791ZM482.692 76.938C483.089 76.938 483.464 76.8354 483.82 76.6304C484.175 76.4253 484.433 76.1587 484.592 75.8306V74.313H483.601C482.052 74.313 481.277 74.7664 481.277 75.6733C481.277 76.0698 481.409 76.3797 481.673 76.603C481.938 76.8263 482.277 76.938 482.692 76.938ZM489.214 77.9019H487.949V67.4019H489.214V77.9019ZM495.55 75.9399C495.55 75.5981 495.421 75.3338 495.161 75.147C494.906 74.9556 494.457 74.7915 493.814 74.6548C493.176 74.5181 492.668 74.354 492.29 74.1626C491.916 73.9712 491.638 73.7433 491.456 73.479C491.278 73.2147 491.189 72.9002 491.189 72.5356C491.189 71.9295 491.444 71.4168 491.955 70.9976C492.47 70.5783 493.126 70.3687 493.923 70.3687C494.762 70.3687 495.441 70.5851 495.961 71.0181C496.485 71.451 496.747 72.0047 496.747 72.6792H495.475C495.475 72.3328 495.327 72.0343 495.031 71.7837C494.739 71.533 494.37 71.4077 493.923 71.4077C493.463 71.4077 493.103 71.508 492.843 71.7085C492.584 71.909 492.454 72.1711 492.454 72.4946C492.454 72.8 492.575 73.0301 492.816 73.1851C493.058 73.34 493.493 73.4881 494.122 73.6294C494.755 73.7707 495.268 73.9393 495.66 74.1353C496.052 74.3312 496.341 74.5682 496.528 74.8462C496.719 75.1196 496.815 75.4546 496.815 75.8511C496.815 76.5119 496.551 77.0428 496.022 77.4438C495.493 77.8403 494.808 78.0386 493.964 78.0386C493.372 78.0386 492.848 77.9338 492.392 77.7241C491.936 77.5145 491.579 77.2228 491.319 76.8491C491.064 76.4709 490.936 76.063 490.936 75.6255H492.201C492.224 76.0493 492.392 76.3866 492.707 76.6372C493.026 76.8833 493.445 77.0063 493.964 77.0063C494.443 77.0063 494.826 76.9106 495.113 76.7192C495.405 76.5233 495.55 76.2635 495.55 75.9399ZM509.434 77.9019H508.163V69.4731L505.613 70.4097V69.2612L509.236 67.9009H509.434V77.9019ZM518.102 67.9419V69.0151H517.87C516.885 69.0334 516.102 69.325 515.518 69.8901C514.935 70.4552 514.598 71.2505 514.506 72.2759C515.031 71.6743 515.746 71.3735 516.653 71.3735C517.519 71.3735 518.209 71.6789 518.724 72.2896C519.244 72.9002 519.504 73.6886 519.504 74.6548C519.504 75.6802 519.223 76.5005 518.663 77.1157C518.107 77.731 517.359 78.0386 516.421 78.0386C515.468 78.0386 514.696 77.674 514.103 76.9448C513.511 76.2111 513.214 75.2677 513.214 74.1147V73.6294C513.214 71.7974 513.604 70.3983 514.383 69.4321C515.167 68.4614 516.332 67.9647 517.877 67.9419H518.102ZM516.441 72.4263C516.008 72.4263 515.609 72.5562 515.245 72.8159C514.88 73.0757 514.627 73.4015 514.486 73.7935V74.2583C514.486 75.0786 514.671 75.7394 515.04 76.2407C515.409 76.742 515.869 76.9927 516.421 76.9927C516.99 76.9927 517.437 76.783 517.76 76.3638C518.089 75.9445 518.253 75.3953 518.253 74.7163C518.253 74.0327 518.086 73.4813 517.754 73.062C517.425 72.6382 516.988 72.4263 516.441 72.4263ZM525.847 73.5269C525.583 73.8413 525.266 74.0942 524.897 74.2856C524.533 74.4771 524.131 74.5728 523.694 74.5728C523.12 74.5728 522.618 74.4315 522.19 74.1489C521.766 73.8664 521.438 73.4699 521.206 72.9595C520.973 72.4445 520.857 71.8771 520.857 71.2573C520.857 70.592 520.982 69.9927 521.233 69.4595C521.488 68.9263 521.848 68.5184 522.313 68.2358C522.778 67.9533 523.32 67.812 523.94 67.812C524.924 67.812 525.699 68.1812 526.264 68.9194C526.834 69.6532 527.119 70.6558 527.119 71.9272V72.2964C527.119 74.2332 526.736 75.6483 525.97 76.5415C525.205 77.4302 524.049 77.8859 522.505 77.9087H522.258V76.8423H522.525C523.569 76.8241 524.371 76.5529 524.931 76.0288C525.492 75.5002 525.797 74.6662 525.847 73.5269ZM523.899 73.5269C524.323 73.5269 524.713 73.397 525.068 73.1372C525.428 72.8774 525.69 72.5562 525.854 72.1733V71.6675C525.854 70.8381 525.674 70.1636 525.314 69.644C524.954 69.1245 524.498 68.8647 523.947 68.8647C523.391 68.8647 522.944 69.0789 522.607 69.5073C522.27 69.9312 522.101 70.4917 522.101 71.189C522.101 71.868 522.263 72.4285 522.587 72.8706C522.915 73.3081 523.352 73.5269 523.899 73.5269ZM528.951 79.8843L528.233 79.3921C528.661 78.7951 528.885 78.1799 528.903 77.5464V76.4048H530.14V77.396C530.14 77.8563 530.026 78.3166 529.798 78.7769C529.575 79.2371 529.293 79.6063 528.951 79.8843ZM533.449 72.3101H534.399C534.996 72.3009 535.465 72.1437 535.807 71.8384C536.149 71.533 536.32 71.1206 536.32 70.6011C536.32 69.4344 535.739 68.8511 534.577 68.8511C534.03 68.8511 533.592 69.0083 533.264 69.3228C532.941 69.6326 532.779 70.0451 532.779 70.5601H531.514C531.514 69.7716 531.801 69.1177 532.376 68.5981C532.954 68.0741 533.688 67.812 534.577 67.812C535.516 67.812 536.252 68.0604 536.785 68.5571C537.318 69.0539 537.585 69.7443 537.585 70.6284C537.585 71.0614 537.443 71.4806 537.161 71.8862C536.883 72.2918 536.502 72.5949 536.019 72.7954C536.566 72.9686 536.988 73.2557 537.284 73.6567C537.585 74.0578 537.735 74.5477 537.735 75.1265C537.735 76.0197 537.443 76.7284 536.86 77.2524C536.277 77.7765 535.518 78.0386 534.584 78.0386C533.649 78.0386 532.888 77.7856 532.3 77.2798C531.717 76.7739 531.425 76.1063 531.425 75.2769H532.697C532.697 75.8009 532.868 76.2202 533.21 76.5347C533.551 76.8491 534.009 77.0063 534.584 77.0063C535.194 77.0063 535.661 76.8468 535.985 76.5278C536.309 76.2088 536.47 75.7508 536.47 75.1538C536.47 74.575 536.293 74.1307 535.937 73.8208C535.582 73.5109 535.069 73.3514 534.399 73.3423H533.449V72.3101ZM541.666 74.4771L540.873 75.3042V77.9019H539.608V67.4019H540.873V73.7524L541.549 72.939L543.853 70.5054H545.391L542.513 73.5952L545.726 77.9019H544.243L541.666 74.4771Z" fill="#009487"/>
<path d="M521.499 105.839H518.959V96.0479L515.926 96.9883V94.9229L521.226 93.0244H521.499V105.839ZM531.835 105.839H529.295V96.0479L526.262 96.9883V94.9229L531.562 93.0244H531.835V105.839ZM535.965 95.5029C535.965 94.7178 536.22 94.082 536.73 93.5957C537.24 93.1035 537.908 92.8574 538.734 92.8574C539.572 92.8574 540.246 93.1006 540.755 93.5869C541.265 94.0674 541.52 94.7207 541.52 95.5469V96.1797C541.52 96.9707 541.265 97.6064 540.755 98.0869C540.246 98.5674 539.578 98.8076 538.752 98.8076C537.92 98.8076 537.246 98.5674 536.73 98.0869C536.22 97.6006 535.965 96.9473 535.965 96.127V95.5029ZM537.653 96.1797C537.653 96.5312 537.753 96.8154 537.952 97.0322C538.157 97.2432 538.423 97.3486 538.752 97.3486C539.08 97.3486 539.34 97.2402 539.534 97.0234C539.727 96.8066 539.824 96.5166 539.824 96.1533V95.5029C539.824 95.1514 539.727 94.8672 539.534 94.6504C539.34 94.4336 539.074 94.3252 538.734 94.3252C538.412 94.3252 538.151 94.4336 537.952 94.6504C537.753 94.8613 537.653 95.1572 537.653 95.5381V96.1797ZM542.083 102.701C542.083 101.91 542.34 101.274 542.856 100.794C543.372 100.308 544.04 100.064 544.86 100.064C545.692 100.064 546.363 100.305 546.873 100.785C547.388 101.26 547.646 101.916 547.646 102.754V103.387C547.646 104.172 547.394 104.808 546.89 105.294C546.386 105.774 545.715 106.015 544.878 106.015C544.034 106.015 543.357 105.771 542.847 105.285C542.338 104.799 542.083 104.154 542.083 103.352V102.701ZM543.77 103.387C543.77 103.709 543.876 103.984 544.087 104.213C544.297 104.441 544.561 104.556 544.878 104.556C545.592 104.556 545.95 104.16 545.95 103.369V102.701C545.95 102.35 545.85 102.068 545.651 101.857C545.452 101.641 545.188 101.532 544.86 101.532C544.532 101.532 544.268 101.641 544.069 101.857C543.87 102.068 543.77 102.358 543.77 102.728V103.387ZM539.253 104.881L538.013 104.213L544.262 94.2109L545.502 94.8789L539.253 104.881Z" fill="#009487"/>
<path d="M445.388 284.53H441.211V288.926H439.899V278.973H446.065V280.053H441.211V283.457H445.388V284.53ZM450.358 289.062C449.355 289.062 448.539 288.734 447.91 288.078C447.281 287.417 446.967 286.535 446.967 285.433V285.2C446.967 284.466 447.106 283.812 447.384 283.238C447.667 282.66 448.058 282.208 448.56 281.885C449.066 281.557 449.612 281.393 450.2 281.393C451.162 281.393 451.909 281.709 452.443 282.343C452.976 282.976 453.242 283.883 453.242 285.063V285.59H448.232C448.25 286.319 448.462 286.909 448.867 287.36C449.278 287.807 449.797 288.03 450.426 288.03C450.873 288.03 451.251 287.939 451.561 287.757C451.871 287.575 452.142 287.333 452.374 287.032L453.147 287.634C452.527 288.586 451.597 289.062 450.358 289.062ZM450.2 282.432C449.69 282.432 449.262 282.618 448.915 282.992C448.569 283.361 448.355 283.881 448.273 284.551H451.978V284.455C451.941 283.812 451.768 283.316 451.458 282.965C451.148 282.609 450.729 282.432 450.2 282.432ZM458.287 282.664C458.096 282.632 457.889 282.616 457.665 282.616C456.836 282.616 456.273 282.969 455.977 283.676V288.926H454.712V281.529H455.943L455.963 282.384C456.378 281.723 456.966 281.393 457.727 281.393C457.973 281.393 458.16 281.424 458.287 281.488V282.664ZM461.514 279.738V281.529H462.895V282.507H461.514V287.094C461.514 287.39 461.575 287.613 461.698 287.764C461.821 287.91 462.031 287.982 462.327 287.982C462.473 287.982 462.674 287.955 462.929 287.9V288.926C462.596 289.017 462.273 289.062 461.958 289.062C461.393 289.062 460.967 288.892 460.68 288.55C460.393 288.208 460.249 287.723 460.249 287.094V282.507H458.903V281.529H460.249V279.738H461.514ZM465.752 288.926H464.487V281.529H465.752V288.926ZM464.385 279.567C464.385 279.362 464.446 279.189 464.57 279.048C464.697 278.907 464.884 278.836 465.13 278.836C465.376 278.836 465.563 278.907 465.691 279.048C465.818 279.189 465.882 279.362 465.882 279.567C465.882 279.772 465.818 279.943 465.691 280.08C465.563 280.217 465.376 280.285 465.13 280.285C464.884 280.285 464.697 280.217 464.57 280.08C464.446 279.943 464.385 279.772 464.385 279.567ZM469.156 288.926H467.892V278.426H469.156V288.926ZM472.561 288.926H471.296V281.529H472.561V288.926ZM471.194 279.567C471.194 279.362 471.255 279.189 471.378 279.048C471.506 278.907 471.693 278.836 471.939 278.836C472.185 278.836 472.372 278.907 472.499 279.048C472.627 279.189 472.691 279.362 472.691 279.567C472.691 279.772 472.627 279.943 472.499 280.08C472.372 280.217 472.185 280.285 471.939 280.285C471.693 280.285 471.506 280.217 471.378 280.08C471.255 279.943 471.194 279.772 471.194 279.567ZM475.78 287.894H480.108V288.926H474.236V287.996L478.317 282.575H474.297V281.529H479.903V282.425L475.78 287.894ZM484.496 289.062C483.494 289.062 482.678 288.734 482.049 288.078C481.42 287.417 481.106 286.535 481.106 285.433V285.2C481.106 284.466 481.245 283.812 481.523 283.238C481.805 282.66 482.197 282.208 482.698 281.885C483.204 281.557 483.751 281.393 484.339 281.393C485.301 281.393 486.048 281.709 486.581 282.343C487.114 282.976 487.381 283.883 487.381 285.063V285.59H482.37C482.389 286.319 482.6 286.909 483.006 287.36C483.416 287.807 483.936 288.03 484.565 288.03C485.011 288.03 485.39 287.939 485.699 287.757C486.009 287.575 486.28 287.333 486.513 287.032L487.285 287.634C486.666 288.586 485.736 289.062 484.496 289.062ZM484.339 282.432C483.829 282.432 483.4 282.618 483.054 282.992C482.708 283.361 482.493 283.881 482.411 284.551H486.116V284.455C486.08 283.812 485.907 283.316 485.597 282.965C485.287 282.609 484.868 282.432 484.339 282.432ZM492.426 282.664C492.235 282.632 492.027 282.616 491.804 282.616C490.974 282.616 490.412 282.969 490.115 283.676V288.926H488.851V281.529H490.081L490.102 282.384C490.516 281.723 491.104 281.393 491.865 281.393C492.112 281.393 492.298 281.424 492.426 281.488V282.664ZM497.902 286.964C497.902 286.622 497.772 286.358 497.512 286.171C497.257 285.979 496.808 285.815 496.165 285.679C495.527 285.542 495.019 285.378 494.641 285.187C494.267 284.995 493.989 284.767 493.807 284.503C493.629 284.239 493.54 283.924 493.54 283.56C493.54 282.953 493.795 282.441 494.306 282.021C494.821 281.602 495.477 281.393 496.275 281.393C497.113 281.393 497.792 281.609 498.312 282.042C498.836 282.475 499.098 283.029 499.098 283.703H497.826C497.826 283.357 497.678 283.058 497.382 282.808C497.09 282.557 496.721 282.432 496.275 282.432C495.814 282.432 495.454 282.532 495.195 282.732C494.935 282.933 494.805 283.195 494.805 283.519C494.805 283.824 494.926 284.054 495.167 284.209C495.409 284.364 495.844 284.512 496.473 284.653C497.106 284.795 497.619 284.963 498.011 285.159C498.403 285.355 498.692 285.592 498.879 285.87C499.07 286.144 499.166 286.479 499.166 286.875C499.166 287.536 498.902 288.067 498.373 288.468C497.845 288.864 497.159 289.062 496.316 289.062C495.723 289.062 495.199 288.958 494.743 288.748C494.288 288.538 493.93 288.247 493.67 287.873C493.415 287.495 493.287 287.087 493.287 286.649H494.552C494.575 287.073 494.743 287.41 495.058 287.661C495.377 287.907 495.796 288.03 496.316 288.03C496.794 288.03 497.177 287.935 497.464 287.743C497.756 287.547 497.902 287.287 497.902 286.964ZM514.151 288.926H507.629V288.017L511.074 284.188C511.585 283.61 511.936 283.14 512.127 282.78C512.323 282.416 512.421 282.04 512.421 281.652C512.421 281.133 512.264 280.707 511.949 280.374C511.635 280.041 511.216 279.875 510.692 279.875C510.063 279.875 509.573 280.055 509.222 280.415C508.876 280.771 508.702 281.267 508.702 281.905H507.438C507.438 280.989 507.732 280.249 508.32 279.684C508.912 279.118 509.703 278.836 510.692 278.836C511.617 278.836 512.348 279.08 512.886 279.567C513.424 280.05 513.693 280.695 513.693 281.502C513.693 282.482 513.068 283.648 511.82 285.002L509.154 287.894H514.151V288.926ZM520.829 285.583H522.21V286.615H520.829V288.926H519.558V286.615H515.026V285.87L519.483 278.973H520.829V285.583ZM516.461 285.583H519.558V280.702L519.407 280.976L516.461 285.583ZM529.873 288.926H523.352V288.017L526.797 284.188C527.307 283.61 527.658 283.14 527.85 282.78C528.046 282.416 528.144 282.04 528.144 281.652C528.144 281.133 527.987 280.707 527.672 280.374C527.358 280.041 526.938 279.875 526.414 279.875C525.785 279.875 525.295 280.055 524.945 280.415C524.598 280.771 524.425 281.267 524.425 281.905H523.16C523.16 280.989 523.454 280.249 524.042 279.684C524.635 279.118 525.425 278.836 526.414 278.836C527.339 278.836 528.071 279.08 528.609 279.567C529.146 280.05 529.415 280.695 529.415 281.502C529.415 282.482 528.791 283.648 527.542 285.002L524.876 287.894H529.873V288.926ZM531.302 290.908L530.584 290.416C531.013 289.819 531.236 289.204 531.254 288.57V287.429H532.491V288.42C532.491 288.88 532.377 289.34 532.15 289.801C531.926 290.261 531.644 290.63 531.302 290.908ZM538.808 284.551C538.543 284.865 538.227 285.118 537.858 285.31C537.493 285.501 537.092 285.597 536.654 285.597C536.08 285.597 535.579 285.455 535.151 285.173C534.727 284.89 534.399 284.494 534.166 283.983C533.934 283.468 533.818 282.901 533.818 282.281C533.818 281.616 533.943 281.017 534.194 280.483C534.449 279.95 534.809 279.542 535.274 279.26C535.738 278.977 536.281 278.836 536.901 278.836C537.885 278.836 538.66 279.205 539.225 279.943C539.794 280.677 540.079 281.68 540.079 282.951V283.32C540.079 285.257 539.696 286.672 538.931 287.565C538.165 288.454 537.01 288.91 535.465 288.933H535.219V287.866H535.486C536.529 287.848 537.331 287.577 537.892 287.053C538.452 286.524 538.758 285.69 538.808 284.551ZM536.86 284.551C537.283 284.551 537.673 284.421 538.029 284.161C538.389 283.901 538.651 283.58 538.815 283.197V282.691C538.815 281.862 538.635 281.188 538.275 280.668C537.915 280.148 537.459 279.889 536.907 279.889C536.351 279.889 535.905 280.103 535.568 280.531C535.23 280.955 535.062 281.516 535.062 282.213C535.062 282.892 535.223 283.452 535.547 283.895C535.875 284.332 536.313 284.551 536.86 284.551ZM544.017 285.501L543.224 286.328V288.926H541.959V278.426H543.224V284.776L543.901 283.963L546.204 281.529H547.742L544.864 284.619L548.077 288.926H546.594L544.017 285.501Z" fill="#009487"/>
<path d="M521.499 316.859H518.959V307.068L515.926 308.009V305.943L521.226 304.045H521.499V316.859ZM526.043 310.566L526.781 304.062H533.953V306.18H528.864L528.547 308.931C529.151 308.609 529.793 308.448 530.472 308.448C531.691 308.448 532.646 308.826 533.338 309.582C534.029 310.338 534.375 311.395 534.375 312.755C534.375 313.581 534.199 314.322 533.847 314.978C533.502 315.629 533.004 316.135 532.353 316.499C531.703 316.856 530.935 317.035 530.05 317.035C529.277 317.035 528.559 316.88 527.897 316.569C527.235 316.253 526.711 315.81 526.324 315.242C525.943 314.674 525.741 314.026 525.717 313.3H528.231C528.284 313.833 528.468 314.249 528.785 314.548C529.107 314.841 529.526 314.987 530.042 314.987C530.616 314.987 531.058 314.782 531.369 314.372C531.679 313.956 531.835 313.37 531.835 312.614C531.835 311.887 531.656 311.331 531.298 310.944C530.941 310.557 530.434 310.364 529.778 310.364C529.174 310.364 528.685 310.522 528.31 310.839L528.064 311.067L526.043 310.566ZM535.965 306.523C535.965 305.738 536.22 305.102 536.73 304.616C537.24 304.124 537.908 303.878 538.734 303.878C539.572 303.878 540.246 304.121 540.755 304.607C541.265 305.088 541.52 305.741 541.52 306.567V307.2C541.52 307.991 541.265 308.627 540.755 309.107C540.246 309.588 539.578 309.828 538.752 309.828C537.92 309.828 537.246 309.588 536.73 309.107C536.22 308.621 535.965 307.968 535.965 307.147V306.523ZM537.653 307.2C537.653 307.552 537.753 307.836 537.952 308.052C538.157 308.263 538.423 308.369 538.752 308.369C539.08 308.369 539.34 308.26 539.534 308.044C539.727 307.827 539.824 307.537 539.824 307.174V306.523C539.824 306.172 539.727 305.887 539.534 305.671C539.34 305.454 539.074 305.345 538.734 305.345C538.412 305.345 538.151 305.454 537.952 305.671C537.753 305.882 537.653 306.177 537.653 306.558V307.2ZM542.083 313.721C542.083 312.93 542.34 312.295 542.856 311.814C543.372 311.328 544.04 311.085 544.86 311.085C545.692 311.085 546.363 311.325 546.873 311.805C547.388 312.28 547.646 312.936 547.646 313.774V314.407C547.646 315.192 547.394 315.828 546.89 316.314C546.386 316.795 545.715 317.035 544.878 317.035C544.034 317.035 543.357 316.792 542.847 316.305C542.338 315.819 542.083 315.175 542.083 314.372V313.721ZM543.77 314.407C543.77 314.729 543.876 315.005 544.087 315.233C544.297 315.462 544.561 315.576 544.878 315.576C545.592 315.576 545.95 315.18 545.95 314.389V313.721C545.95 313.37 545.85 313.089 545.651 312.878C545.452 312.661 545.188 312.552 544.86 312.552C544.532 312.552 544.268 312.661 544.069 312.878C543.87 313.089 543.77 313.379 543.77 313.748V314.407ZM539.253 315.901L538.013 315.233L544.262 305.231L545.502 305.899L539.253 315.901Z" fill="#009487"/>
<path d="M20.04 261.288C20.04 262.264 19.876 263.116 19.5479 263.845C19.2197 264.57 18.7549 265.123 18.1533 265.506C17.5518 265.889 16.8499 266.08 16.0479 266.08C15.264 266.08 14.569 265.889 13.9629 265.506C13.3568 265.119 12.8851 264.57 12.5479 263.859C12.2152 263.143 12.0443 262.316 12.0352 261.377V260.659C12.0352 259.702 12.2015 258.857 12.5342 258.123C12.8669 257.39 13.3363 256.829 13.9424 256.442C14.5531 256.05 15.2503 255.854 16.0342 255.854C16.8317 255.854 17.5335 256.047 18.1396 256.435C18.7503 256.818 19.2197 257.376 19.5479 258.11C19.876 258.839 20.04 259.689 20.04 260.659V261.288ZM18.7344 260.646C18.7344 259.465 18.4974 258.561 18.0234 257.932C17.5495 257.298 16.8864 256.982 16.0342 256.982C15.2048 256.982 14.5508 257.298 14.0723 257.932C13.5983 258.561 13.3545 259.436 13.3408 260.557V261.288C13.3408 262.432 13.5801 263.332 14.0586 263.989C14.5417 264.64 15.2048 264.966 16.0479 264.966C16.8955 264.966 17.5518 264.658 18.0166 264.043C18.4814 263.423 18.7207 262.537 18.7344 261.384V260.646ZM25.3857 259.682C25.1943 259.65 24.987 259.634 24.7637 259.634C23.9342 259.634 23.3714 259.987 23.0752 260.694V265.944H21.8105V258.547H23.041L23.0615 259.402C23.4762 258.741 24.0641 258.41 24.8252 258.41C25.0713 258.41 25.2581 258.442 25.3857 258.506V259.682ZM29.4873 266.08C28.4847 266.08 27.6689 265.752 27.04 265.096C26.4111 264.435 26.0967 263.553 26.0967 262.45V262.218C26.0967 261.484 26.2357 260.83 26.5137 260.256C26.7962 259.677 27.1882 259.226 27.6895 258.903C28.1953 258.574 28.7422 258.41 29.3301 258.41C30.2917 258.41 31.0391 258.727 31.5723 259.361C32.1055 259.994 32.3721 260.901 32.3721 262.081V262.608H27.3613C27.3796 263.337 27.5915 263.927 27.9971 264.378C28.4072 264.825 28.9268 265.048 29.5557 265.048C30.0023 265.048 30.3805 264.957 30.6904 264.775C31.0003 264.592 31.2715 264.351 31.5039 264.05L32.2764 264.652C31.6566 265.604 30.7269 266.08 29.4873 266.08ZM29.3301 259.449C28.8197 259.449 28.3913 259.636 28.0449 260.01C27.6986 260.379 27.4844 260.899 27.4023 261.569H31.1074V261.473C31.071 260.83 30.8978 260.334 30.5879 259.983C30.278 259.627 29.8587 259.449 29.3301 259.449ZM42.1475 255.984V257.057H41.915C40.9307 257.075 40.1468 257.367 39.5635 257.932C38.9801 258.497 38.6429 259.292 38.5518 260.318C39.0758 259.716 39.7913 259.415 40.6982 259.415C41.5641 259.415 42.2546 259.721 42.7695 260.331C43.2891 260.942 43.5488 261.73 43.5488 262.697C43.5488 263.722 43.2686 264.542 42.708 265.157C42.152 265.773 41.4046 266.08 40.4658 266.08C39.5133 266.08 38.7409 265.716 38.1484 264.987C37.556 264.253 37.2598 263.309 37.2598 262.156V261.671C37.2598 259.839 37.6494 258.44 38.4287 257.474C39.2126 256.503 40.377 256.006 41.9219 255.984H42.1475ZM40.4863 260.468C40.0534 260.468 39.6546 260.598 39.29 260.858C38.9255 261.117 38.6725 261.443 38.5312 261.835V262.3C38.5312 263.12 38.7158 263.781 39.085 264.282C39.4541 264.784 39.9144 265.034 40.4658 265.034C41.0355 265.034 41.4821 264.825 41.8057 264.406C42.1338 263.986 42.2979 263.437 42.2979 262.758C42.2979 262.074 42.1315 261.523 41.7988 261.104C41.4707 260.68 41.0332 260.468 40.4863 260.468ZM50.3848 262.601H51.7656V263.633H50.3848V265.944H49.1133V263.633H44.5811V262.888L49.0381 255.99H50.3848V262.601ZM46.0166 262.601H49.1133V257.72L48.9629 257.993L46.0166 262.601ZM52.9961 267.926L52.2783 267.434C52.7067 266.837 52.93 266.222 52.9482 265.588V264.447H54.1855V265.438C54.1855 265.898 54.0716 266.358 53.8438 266.819C53.6204 267.279 53.3379 267.648 52.9961 267.926ZM57.4941 260.352H58.4443C59.0413 260.343 59.5107 260.185 59.8525 259.88C60.1943 259.575 60.3652 259.162 60.3652 258.643C60.3652 257.476 59.7842 256.893 58.6221 256.893C58.0752 256.893 57.6377 257.05 57.3096 257.365C56.986 257.674 56.8242 258.087 56.8242 258.602H55.5596C55.5596 257.813 55.8467 257.159 56.4209 256.64C56.9997 256.116 57.7334 255.854 58.6221 255.854C59.5609 255.854 60.2969 256.102 60.8301 256.599C61.3633 257.096 61.6299 257.786 61.6299 258.67C61.6299 259.103 61.4886 259.522 61.2061 259.928C60.9281 260.334 60.5475 260.637 60.0645 260.837C60.6113 261.01 61.0329 261.297 61.3291 261.698C61.6299 262.1 61.7803 262.589 61.7803 263.168C61.7803 264.061 61.4886 264.77 60.9053 265.294C60.3219 265.818 59.5632 266.08 58.6289 266.08C57.6947 266.08 56.9336 265.827 56.3457 265.322C55.7624 264.816 55.4707 264.148 55.4707 263.319H56.7422C56.7422 263.843 56.9131 264.262 57.2549 264.576C57.5967 264.891 58.0547 265.048 58.6289 265.048C59.2396 265.048 59.7067 264.889 60.0303 264.57C60.3538 264.251 60.5156 263.793 60.5156 263.196C60.5156 262.617 60.3379 262.172 59.9824 261.863C59.627 261.553 59.1143 261.393 58.4443 261.384H57.4941V260.352ZM65.7109 262.519L64.918 263.346V265.944H63.6533V255.444H64.918V261.794L65.5947 260.981L67.8984 258.547H69.4365L66.5586 261.637L69.7715 265.944H68.2881L65.7109 262.519Z" fill="#009487"/>
<path d="M19.6133 289.059H21.0635V291.107H19.6133V293.875H17.0732V291.107H11.8262L11.7119 289.507L17.0469 281.078H19.6133V289.059ZM14.2432 289.059H17.0732V284.541L16.9062 284.831L14.2432 289.059ZM22.3994 283.539C22.3994 282.754 22.6543 282.118 23.1641 281.632C23.6738 281.14 24.3418 280.894 25.168 280.894C26.0059 280.894 26.6797 281.137 27.1895 281.623C27.6992 282.104 27.9541 282.757 27.9541 283.583V284.216C27.9541 285.007 27.6992 285.643 27.1895 286.123C26.6797 286.604 26.0117 286.844 25.1855 286.844C24.3535 286.844 23.6797 286.604 23.1641 286.123C22.6543 285.637 22.3994 284.984 22.3994 284.163V283.539ZM24.0869 284.216C24.0869 284.568 24.1865 284.852 24.3857 285.069C24.5908 285.28 24.8574 285.385 25.1855 285.385C25.5137 285.385 25.7744 285.277 25.9678 285.06C26.1611 284.843 26.2578 284.553 26.2578 284.19V283.539C26.2578 283.188 26.1611 282.904 25.9678 282.687C25.7744 282.47 25.5078 282.362 25.168 282.362C24.8457 282.362 24.585 282.47 24.3857 282.687C24.1865 282.898 24.0869 283.194 24.0869 283.574V284.216ZM28.5166 290.738C28.5166 289.947 28.7744 289.311 29.29 288.83C29.8057 288.344 30.4736 288.101 31.2939 288.101C32.126 288.101 32.7969 288.341 33.3066 288.822C33.8223 289.296 34.0801 289.952 34.0801 290.79V291.423C34.0801 292.208 33.8281 292.844 33.3242 293.33C32.8203 293.811 32.1494 294.051 31.3115 294.051C30.4678 294.051 29.791 293.808 29.2812 293.322C28.7715 292.835 28.5166 292.191 28.5166 291.388V290.738ZM30.2041 291.423C30.2041 291.745 30.3096 292.021 30.5205 292.249C30.7314 292.478 30.9951 292.592 31.3115 292.592C32.0264 292.592 32.3838 292.197 32.3838 291.406V290.738C32.3838 290.386 32.2842 290.105 32.085 289.894C31.8857 289.677 31.6221 289.569 31.2939 289.569C30.9658 289.569 30.7021 289.677 30.5029 289.894C30.3037 290.105 30.2041 290.395 30.2041 290.764V291.423ZM25.6865 292.917L24.4473 292.249L30.6963 282.247L31.9355 282.915L25.6865 292.917Z" fill="#009487"/>
<path d="M8.03223 103.89H4.83301V112.763H3.52734V103.89H0.334961V102.81H8.03223V103.89ZM10.6846 112.763H9.41992V105.367H10.6846V112.763ZM9.31738 103.405C9.31738 103.2 9.37891 103.027 9.50195 102.885C9.62956 102.744 9.81641 102.674 10.0625 102.674C10.3086 102.674 10.4954 102.744 10.623 102.885C10.7507 103.027 10.8145 103.2 10.8145 103.405C10.8145 103.61 10.7507 103.781 10.623 103.918C10.4954 104.054 10.3086 104.123 10.0625 104.123C9.81641 104.123 9.62956 104.054 9.50195 103.918C9.37891 103.781 9.31738 103.61 9.31738 103.405ZM13.9043 105.367L13.9385 106.187C14.4808 105.549 15.2122 105.23 16.1328 105.23C17.1673 105.23 17.8714 105.627 18.2451 106.42C18.4912 106.064 18.8102 105.777 19.2021 105.558C19.5986 105.34 20.0658 105.23 20.6035 105.23C22.2259 105.23 23.0508 106.089 23.0781 107.807V112.763H21.8135V107.883C21.8135 107.354 21.6927 106.96 21.4512 106.7C21.2096 106.436 20.804 106.303 20.2344 106.303C19.765 106.303 19.3753 106.445 19.0654 106.727C18.7555 107.005 18.5755 107.381 18.5254 107.855V112.763H17.2539V107.917C17.2539 106.841 16.7275 106.303 15.6748 106.303C14.8454 106.303 14.278 106.657 13.9727 107.363V112.763H12.708V105.367H13.9043ZM31.2539 109.147C31.2539 110.277 30.9941 111.187 30.4746 111.875C29.9551 112.558 29.2578 112.9 28.3828 112.9C27.4486 112.9 26.7262 112.57 26.2158 111.909L26.1543 112.763H24.9922V102.263H26.2568V106.18C26.7673 105.547 27.4714 105.23 28.3691 105.23C29.2669 105.23 29.971 105.57 30.4814 106.249C30.9964 106.928 31.2539 107.858 31.2539 109.038V109.147ZM29.9893 109.004C29.9893 108.142 29.8229 107.477 29.4902 107.008C29.1576 106.538 28.679 106.303 28.0547 106.303C27.2207 106.303 26.6214 106.691 26.2568 107.466V110.665C26.6442 111.44 27.248 111.827 28.0684 111.827C28.6745 111.827 29.1462 111.592 29.4834 111.123C29.8206 110.653 29.9893 109.947 29.9893 109.004ZM35.9229 112.9C34.9202 112.9 34.1045 112.572 33.4756 111.916C32.8467 111.255 32.5322 110.373 32.5322 109.27V109.038C32.5322 108.304 32.6712 107.65 32.9492 107.076C33.2318 106.497 33.6237 106.046 34.125 105.722C34.6309 105.394 35.1777 105.23 35.7656 105.23C36.7272 105.23 37.4746 105.547 38.0078 106.18C38.541 106.814 38.8076 107.721 38.8076 108.901V109.427H33.7969C33.8151 110.157 34.027 110.747 34.4326 111.198C34.8428 111.645 35.3623 111.868 35.9912 111.868C36.4378 111.868 36.8161 111.777 37.126 111.594C37.4359 111.412 37.707 111.171 37.9395 110.87L38.7119 111.471C38.0921 112.424 37.1624 112.9 35.9229 112.9ZM35.7656 106.269C35.2552 106.269 34.8268 106.456 34.4805 106.83C34.1341 107.199 33.9199 107.719 33.8379 108.388H37.543V108.293C37.5065 107.65 37.3333 107.153 37.0234 106.802C36.7135 106.447 36.2943 106.269 35.7656 106.269ZM43.8525 106.502C43.6611 106.47 43.4538 106.454 43.2305 106.454C42.401 106.454 41.8382 106.807 41.542 107.513V112.763H40.2773V105.367H41.5078L41.5283 106.221C41.943 105.561 42.5309 105.23 43.292 105.23C43.5381 105.23 43.7249 105.262 43.8525 105.326V106.502Z" fill="#009487"/>
<path d="M52.9365 107.773L53.4424 102.81H58.542V103.979H54.5156L54.2148 106.693C54.7025 106.406 55.2562 106.262 55.876 106.262C56.7829 106.262 57.5029 106.563 58.0361 107.165C58.5693 107.762 58.8359 108.571 58.8359 109.592C58.8359 110.617 58.5579 111.426 58.002 112.018C57.4505 112.606 56.6781 112.9 55.6846 112.9C54.805 112.9 54.0872 112.656 53.5312 112.169C52.9753 111.681 52.6585 111.007 52.5811 110.145H53.7773C53.8548 110.715 54.0576 111.146 54.3857 111.437C54.7139 111.724 55.1468 111.868 55.6846 111.868C56.2725 111.868 56.7327 111.667 57.0654 111.266C57.4027 110.865 57.5713 110.312 57.5713 109.605C57.5713 108.94 57.389 108.407 57.0244 108.006C56.6644 107.6 56.1836 107.397 55.582 107.397C55.0306 107.397 54.5977 107.518 54.2832 107.76L53.9482 108.033L52.9365 107.773ZM66.458 108.518C66.458 109.999 66.2051 111.1 65.6992 111.82C65.1934 112.54 64.4027 112.9 63.3271 112.9C62.2653 112.9 61.4792 112.549 60.9688 111.847C60.4583 111.141 60.194 110.088 60.1758 108.689V107.001C60.1758 105.538 60.4287 104.451 60.9346 103.74C61.4404 103.029 62.2334 102.674 63.3135 102.674C64.3844 102.674 65.1729 103.018 65.6787 103.706C66.1846 104.389 66.4443 105.447 66.458 106.878V108.518ZM65.1934 106.789C65.1934 105.718 65.043 104.939 64.7422 104.451C64.4414 103.959 63.9652 103.713 63.3135 103.713C62.6663 103.713 62.1947 103.956 61.8984 104.444C61.6022 104.932 61.4495 105.681 61.4404 106.693V108.717C61.4404 109.792 61.5954 110.587 61.9053 111.102C62.2197 111.613 62.6937 111.868 63.3271 111.868C63.9515 111.868 64.4141 111.626 64.7148 111.143C65.0202 110.66 65.1797 109.899 65.1934 108.86V106.789ZM68.167 114.746L67.4492 114.254C67.8776 113.657 68.1009 113.041 68.1191 112.408V111.266H69.3564V112.258C69.3564 112.718 69.2425 113.178 69.0146 113.638C68.7913 114.099 68.5088 114.468 68.167 114.746ZM76.8623 105.408C76.8623 105.905 76.7301 106.347 76.4658 106.734C76.2061 107.122 75.8529 107.425 75.4062 107.643C75.9258 107.867 76.3359 108.192 76.6367 108.621C76.9421 109.049 77.0947 109.535 77.0947 110.077C77.0947 110.938 76.8031 111.624 76.2197 112.135C75.641 112.645 74.8776 112.9 73.9297 112.9C72.9727 112.9 72.2048 112.645 71.626 112.135C71.0518 111.62 70.7646 110.934 70.7646 110.077C70.7646 109.539 70.9105 109.054 71.2021 108.621C71.4984 108.188 71.9062 107.86 72.4258 107.636C71.9837 107.418 71.6351 107.115 71.3799 106.727C71.1247 106.34 70.9971 105.9 70.9971 105.408C70.9971 104.569 71.266 103.904 71.8037 103.412C72.3415 102.92 73.0501 102.674 73.9297 102.674C74.8047 102.674 75.5111 102.92 76.0488 103.412C76.5911 103.904 76.8623 104.569 76.8623 105.408ZM75.8301 110.05C75.8301 109.494 75.6523 109.04 75.2969 108.689C74.946 108.338 74.4857 108.163 73.916 108.163C73.3464 108.163 72.8883 108.336 72.542 108.682C72.2002 109.029 72.0293 109.484 72.0293 110.05C72.0293 110.615 72.1956 111.059 72.5283 111.383C72.8656 111.706 73.3327 111.868 73.9297 111.868C74.5221 111.868 74.987 111.706 75.3242 111.383C75.6615 111.054 75.8301 110.61 75.8301 110.05ZM73.9297 103.713C73.4329 103.713 73.0296 103.868 72.7197 104.177C72.4144 104.483 72.2617 104.9 72.2617 105.428C72.2617 105.934 72.4121 106.344 72.7129 106.659C73.0182 106.969 73.4238 107.124 73.9297 107.124C74.4355 107.124 74.8389 106.969 75.1396 106.659C75.445 106.344 75.5977 105.934 75.5977 105.428C75.5977 104.923 75.4404 104.51 75.126 104.191C74.8115 103.872 74.4128 103.713 73.9297 103.713ZM80.8818 109.339L80.0889 110.166V112.763H78.8242V102.263H80.0889V108.614L80.7656 107.801L83.0693 105.367H84.6074L81.7295 108.457L84.9424 112.763H83.459L80.8818 109.339Z" fill="#009487"/>
<path d="M3.4541 133.174H4.80762C5.45215 133.174 5.92969 133.013 6.24023 132.691C6.55078 132.368 6.70605 131.941 6.70605 131.407C6.70605 130.892 6.55078 130.49 6.24023 130.203C5.93555 129.916 5.51367 129.773 4.97461 129.773C4.48828 129.773 4.08105 129.907 3.75293 130.177C3.4248 130.441 3.26074 130.786 3.26074 131.214H0.720703C0.720703 130.546 0.899414 129.948 1.25684 129.421C1.62012 128.888 2.12402 128.472 2.76855 128.173C3.41895 127.874 4.13379 127.725 4.91309 127.725C6.2666 127.725 7.32715 128.05 8.09473 128.7C8.8623 129.345 9.24609 130.236 9.24609 131.372C9.24609 131.958 9.06738 132.497 8.70996 132.99C8.35254 133.482 7.88379 133.86 7.30371 134.123C8.02441 134.381 8.56055 134.768 8.91211 135.283C9.26953 135.799 9.44824 136.408 9.44824 137.112C9.44824 138.248 9.03223 139.159 8.2002 139.845C7.37402 140.531 6.27832 140.873 4.91309 140.873C3.63574 140.873 2.58984 140.536 1.77539 139.863C0.966797 139.189 0.5625 138.298 0.5625 137.191H3.10254C3.10254 137.671 3.28125 138.064 3.63867 138.368C4.00195 138.673 4.44727 138.825 4.97461 138.825C5.57812 138.825 6.0498 138.667 6.38965 138.351C6.73535 138.029 6.9082 137.604 6.9082 137.076C6.9082 135.799 6.20508 135.16 4.79883 135.16H3.4541V133.174ZM11.1709 130.362C11.1709 129.576 11.4258 128.941 11.9355 128.454C12.4453 127.962 13.1133 127.716 13.9395 127.716C14.7773 127.716 15.4512 127.959 15.9609 128.446C16.4707 128.926 16.7256 129.579 16.7256 130.406V131.038C16.7256 131.829 16.4707 132.465 15.9609 132.946C15.4512 133.426 14.7832 133.666 13.957 133.666C13.125 133.666 12.4512 133.426 11.9355 132.946C11.4258 132.459 11.1709 131.806 11.1709 130.986V130.362ZM12.8584 131.038C12.8584 131.39 12.958 131.674 13.1572 131.891C13.3623 132.102 13.6289 132.207 13.957 132.207C14.2852 132.207 14.5459 132.099 14.7393 131.882C14.9326 131.665 15.0293 131.375 15.0293 131.012V130.362C15.0293 130.01 14.9326 129.726 14.7393 129.509C14.5459 129.292 14.2793 129.184 13.9395 129.184C13.6172 129.184 13.3564 129.292 13.1572 129.509C12.958 129.72 12.8584 130.016 12.8584 130.397V131.038ZM17.2881 137.56C17.2881 136.769 17.5459 136.133 18.0615 135.653C18.5771 135.166 19.2451 134.923 20.0654 134.923C20.8975 134.923 21.5684 135.163 22.0781 135.644C22.5938 136.118 22.8516 136.775 22.8516 137.613V138.245C22.8516 139.031 22.5996 139.666 22.0957 140.153C21.5918 140.633 20.9209 140.873 20.083 140.873C19.2393 140.873 18.5625 140.63 18.0527 140.144C17.543 139.657 17.2881 139.013 17.2881 138.21V137.56ZM18.9756 138.245C18.9756 138.568 19.0811 138.843 19.292 139.072C19.5029 139.3 19.7666 139.414 20.083 139.414C20.7979 139.414 21.1553 139.019 21.1553 138.228V137.56C21.1553 137.208 21.0557 136.927 20.8564 136.716C20.6572 136.499 20.3936 136.391 20.0654 136.391C19.7373 136.391 19.4736 136.499 19.2744 136.716C19.0752 136.927 18.9756 137.217 18.9756 137.586V138.245ZM14.458 139.74L13.2188 139.072L19.4678 129.07L20.707 129.738L14.458 139.74Z" fill="#009487"/>
<path d="M285.178 25.0752C283.331 25.0752 281.91 23.6546 281.91 21.8078C281.91 19.961 283.331 18.5403 285.178 18.5403C287.025 18.5403 288.446 19.961 288.446 21.8078C288.446 23.5125 287.025 25.0752 285.178 25.0752Z" fill="#009487"/>
<path d="M401.975 89.1458C400.128 89.1458 398.707 87.7251 398.707 85.8783C398.707 84.0315 400.128 82.6108 401.975 82.6108C403.822 82.6108 405.243 84.0315 405.243 85.8783C405.243 87.7251 403.822 89.1458 401.975 89.1458Z" fill="#009487"/>
<path d="M410.926 199.955C409.079 199.955 407.658 201.376 407.658 203.223C407.658 205.07 409.079 206.49 410.926 206.49C412.773 206.49 414.194 205.07 414.194 203.223C414.194 201.376 412.773 199.955 410.926 199.955Z" fill="#009487"/>
<path d="M211.719 270.419C209.872 270.419 208.451 271.839 208.451 273.686C208.451 275.533 209.872 276.954 211.719 276.954C213.566 276.954 214.987 275.533 214.987 273.686C214.987 271.839 213.566 270.419 211.719 270.419Z" fill="#009487"/>
<path d="M164.404 90.9927C166.251 90.9927 167.672 92.4134 167.672 94.2602C167.672 96.1071 166.251 97.5277 164.404 97.5277C162.557 97.5277 161.136 96.1071 161.136 94.2602C161.136 92.4134 162.557 90.9927 164.404 90.9927Z" fill="#009487"/>
<path d="M547.616 21.6658H285.179" stroke="#009487" stroke-width="0.5" stroke-miterlimit="10"/>
<path d="M547.615 85.8784H401.975" stroke="#009487" stroke-width="0.5" stroke-miterlimit="10"/>
<path d="M548.042 296.275H410.927V203.223" stroke="#009487" stroke-width="0.5" stroke-miterlimit="10"/>
<path d="M367.305 386.911H211.719V273.686" stroke="#009487" stroke-width="0.5" stroke-miterlimit="10"/>
<path d="M12.085 273.828H123.34V94.4021H164.404" stroke="#009487" stroke-width="0.5" stroke-miterlimit="10"/>
<path d="M0.00683594 120.968H105.578V65.2791H178.612" stroke="#009487" stroke-width="0.5" stroke-miterlimit="10"/>
<path d="M178.612 61.8699C180.459 61.8699 181.88 63.2906 181.88 65.1374C181.88 66.9842 180.459 68.4048 178.612 68.4048C176.765 68.4048 175.344 66.9842 175.344 65.1374C175.202 63.4326 176.765 61.8699 178.612 61.8699Z" fill="#009487"/>
</svg>
