<svg width="564" height="415" viewBox="0 0 564 415" fill="none" xmlns="http://www.w3.org/2000/svg">
<path d="M172.921 57.532C229.472 -6.3965 327.229 -12.5052 391.168 44.036C419.87 69.3233 438.058 104.555 442.32 142.628L365.45 151.294C360.762 108.817 322.54 78.4154 280.055 83.1035C261.016 85.2344 243.397 94.3265 230.751 108.675L172.921 57.532Z" fill="#14ADEA"/>
<path d="M366.02 150.584L441.753 142.06C437.348 104.271 419.303 69.6075 390.885 44.4622C327.514 -11.6528 230.183 -5.82822 173.916 57.39L230.894 107.822C243.682 93.6161 261.158 84.5241 280.198 82.3931C300.943 80.1201 321.262 85.9447 337.46 98.8725C353.374 111.942 363.604 130.126 366.02 150.584ZM442.747 143.054C442.605 143.196 442.463 143.196 442.321 143.196L365.451 151.862C365.309 151.862 365.167 151.862 365.025 151.72C364.883 151.578 364.883 151.436 364.741 151.294C362.467 130.979 352.379 112.653 336.465 99.867C320.409 87.0813 300.375 81.2566 280.056 83.6717C261.158 85.8027 243.824 94.8947 231.178 109.101C231.036 109.385 230.609 109.385 230.325 109.101L172.495 57.9583C172.211 57.8162 172.211 57.39 172.495 57.1059C229.189 -6.9647 327.514 -13.0734 391.595 43.6099C420.439 69.1813 438.627 104.271 442.889 142.486C442.889 142.77 442.889 142.912 442.747 143.054Z" fill="white"/>
<path d="M442.321 142.628C443.742 155.556 443.6 168.483 441.753 181.411L365.167 170.756C366.02 164.364 366.162 157.829 365.451 151.436L442.321 142.628Z" fill="#DEDFE0"/>
<path d="M365.877 170.188L441.326 180.701C443.031 168.342 443.173 155.698 441.894 143.196L366.161 151.72C366.729 157.829 366.729 164.08 365.877 170.188ZM442.178 181.696C442.036 181.838 441.894 181.98 441.61 181.838L365.024 171.183C364.882 171.183 364.74 171.041 364.598 170.899C364.456 170.757 364.456 170.615 364.456 170.473C365.309 164.08 365.451 157.687 364.74 151.294C364.74 151.01 364.882 150.726 365.309 150.584L442.178 141.918C442.32 141.918 442.462 141.918 442.605 142.06C442.747 142.202 442.747 142.344 442.889 142.486C444.31 155.414 444.168 168.484 442.32 181.411C442.32 181.553 442.32 181.696 442.178 181.696Z" fill="white"/>
<path d="M441.753 181.411C434.08 235.822 398.131 281.992 347.406 302.875L318.136 231.418C343.57 220.905 361.473 197.891 365.309 170.615L441.753 181.411Z" fill="#CFE3F2"/>
<path d="M347.69 302.165C397.705 281.424 433.369 235.396 441.184 181.838L365.735 171.325C361.756 198.175 343.853 221.189 318.846 231.702L347.69 302.165ZM404.667 262.672C389.179 280.145 369.713 294.21 347.548 303.444C347.405 303.444 347.263 303.444 347.121 303.444C346.979 303.444 346.837 303.302 346.837 303.16L317.425 231.702C317.283 231.418 317.425 230.992 317.709 230.992C342.859 220.621 360.762 197.607 364.598 170.615C364.598 170.33 364.882 170.046 365.309 170.188L441.894 180.843C442.036 180.843 442.178 180.985 442.32 181.127C442.463 181.269 442.463 181.411 442.463 181.553C438.058 211.955 424.701 240.226 404.667 262.672Z" fill="white"/>
<path d="M347.406 302.876C268.405 335.408 178.179 297.619 145.783 218.774C136.689 196.754 132.853 172.888 134.558 149.021L211.712 154.419C208.586 197.038 240.698 233.975 283.324 236.958C295.259 237.811 307.195 235.822 318.136 231.276L347.406 302.876Z" fill="#41BAAA"/>
<path d="M134.983 149.589C133.42 173.03 137.257 196.754 146.208 218.49C161.838 256.563 191.25 286.254 229.33 302.023C267.125 317.792 308.757 317.934 346.695 302.591L317.851 232.128C306.91 236.532 294.975 238.379 283.324 237.526C262.579 236.106 243.681 226.588 230.04 210.961C216.542 195.334 209.864 175.587 211.143 154.988L134.983 149.589ZM347.832 303.302C347.832 303.302 347.689 303.444 347.547 303.444C309.184 319.213 266.983 319.071 228.762 303.16C190.54 287.249 160.843 257.273 145.072 218.916C135.978 196.896 132.142 172.745 133.847 148.879C133.847 148.595 134.131 148.311 134.415 148.311L211.569 153.709C211.711 153.709 211.853 153.851 211.995 153.851C212.137 153.993 212.137 154.135 212.137 154.277C210.716 174.734 217.252 194.481 230.609 209.966C243.965 225.451 262.721 234.685 283.039 236.248C294.833 237.1 306.768 235.111 317.709 230.707C317.851 230.707 317.993 230.707 318.135 230.707C318.277 230.707 318.419 230.849 318.419 230.991L347.689 302.449C347.974 302.876 347.974 303.16 347.832 303.302Z" fill="white"/>
<path d="M134.558 149.021C135.126 140.213 136.547 131.405 138.678 122.881L213.701 141.35C212.706 145.612 211.996 150.015 211.569 154.419L134.558 149.021Z" fill="#3AB0D5"/>
<path d="M135.125 148.453L211.001 153.851C211.285 149.873 211.995 145.753 212.848 141.776L138.962 123.592C137.115 131.689 135.694 140.071 135.125 148.453ZM211.995 154.846C211.853 154.988 211.711 154.988 211.569 154.988L134.415 149.589C134.273 149.589 134.131 149.447 133.989 149.447C133.847 149.305 133.847 149.163 133.847 149.021C134.415 140.213 135.836 131.405 137.967 122.739C138.109 122.455 138.393 122.171 138.678 122.313L213.7 140.781C213.842 140.781 213.984 140.923 214.127 141.065C214.269 141.207 214.269 141.349 214.127 141.492C213.132 145.753 212.421 150.157 212.137 154.419C212.137 154.703 212.137 154.703 211.995 154.846Z" fill="white"/>
<path d="M138.678 122.881C141.235 112.653 144.788 102.566 149.334 93.0479L218.958 126.433C216.684 131.263 214.837 136.235 213.558 141.349L138.678 122.881Z" fill="#6AA84B"/>
<path d="M139.388 122.455L213.274 140.639C214.553 135.809 216.116 131.121 218.247 126.717L149.619 93.9002C145.214 102.992 141.804 112.653 139.388 122.455ZM214.127 141.776C213.985 141.918 213.7 142.06 213.558 141.918L138.536 123.449C138.394 123.449 138.252 123.307 138.109 123.165C137.967 123.023 137.967 122.881 138.109 122.739C140.667 112.51 144.219 102.424 148.908 92.9058C149.05 92.6216 149.334 92.4796 149.619 92.6217L219.242 126.006C219.384 126.006 219.526 126.149 219.526 126.291C219.526 126.433 219.526 126.575 219.526 126.717C217.253 131.405 215.406 136.377 214.269 141.491C214.269 141.633 214.127 141.776 214.127 141.776Z" fill="white"/>
<path d="M149.335 93.1899C155.587 80.2622 163.402 68.3288 172.922 57.6741L230.752 108.817C226.063 114.215 222.084 120.182 218.958 126.575L149.335 93.1899Z" fill="#EDD3DD"/>
<path d="M150.187 92.9059L218.816 125.865C221.8 119.756 225.636 114.073 230.041 108.959L173.064 58.3845C163.828 68.7551 156.155 80.4043 150.187 92.9059ZM219.384 126.859C219.242 127.001 218.958 127.143 218.674 127.001L149.051 93.6162C148.909 93.6162 148.767 93.4742 148.767 93.3321C148.767 93.19 148.767 93.0479 148.767 92.9059C155.018 79.9781 162.975 67.9028 172.495 57.248C172.637 56.9639 173.064 56.9639 173.348 57.248L231.178 108.391C231.462 108.533 231.462 108.959 231.178 109.243C226.489 114.5 222.652 120.324 219.384 126.859C219.527 126.859 219.527 126.859 219.384 126.859Z" fill="white"/>
<path d="M47.4385 8.34473C47.4385 9.31999 47.2744 10.1722 46.9463 10.9014C46.6182 11.626 46.1533 12.1797 45.5518 12.5625C44.9502 12.9453 44.2484 13.1367 43.4463 13.1367C42.6624 13.1367 41.9674 12.9453 41.3613 12.5625C40.7552 12.1751 40.2835 11.626 39.9463 10.915C39.6136 10.1995 39.4427 9.3724 39.4336 8.43359V7.71582C39.4336 6.75879 39.5999 5.91341 39.9326 5.17969C40.2653 4.44596 40.7347 3.88542 41.3408 3.49805C41.9515 3.10612 42.6488 2.91016 43.4326 2.91016C44.2301 2.91016 44.932 3.10384 45.5381 3.49121C46.1488 3.87402 46.6182 4.43229 46.9463 5.16602C47.2744 5.89518 47.4385 6.74512 47.4385 7.71582V8.34473ZM46.1328 7.70215C46.1328 6.52181 45.8958 5.61719 45.4219 4.98828C44.9479 4.35482 44.2848 4.03809 43.4326 4.03809C42.6032 4.03809 41.9492 4.35482 41.4707 4.98828C40.9967 5.61719 40.7529 6.49219 40.7393 7.61328V8.34473C40.7393 9.48861 40.9785 10.3887 41.457 11.0449C41.9401 11.6966 42.6032 12.0225 43.4463 12.0225C44.2939 12.0225 44.9502 11.7148 45.415 11.0996C45.8799 10.4798 46.1191 9.59342 46.1328 8.44043V7.70215ZM50.9248 3.8125V5.60352H52.3057V6.58105H50.9248V11.168C50.9248 11.4642 50.9863 11.6875 51.1094 11.8379C51.2324 11.9837 51.4421 12.0566 51.7383 12.0566C51.8841 12.0566 52.0846 12.0293 52.3398 11.9746V13C52.0072 13.0911 51.6836 13.1367 51.3691 13.1367C50.804 13.1367 50.3779 12.9658 50.0908 12.624C49.8037 12.2822 49.6602 11.7969 49.6602 11.168V6.58105H48.3135V5.60352H49.6602V3.8125H50.9248ZM55.0537 6.49902C55.6143 5.81087 56.3434 5.4668 57.2412 5.4668C58.8044 5.4668 59.5928 6.34863 59.6064 8.1123V13H58.3418V8.10547C58.3372 7.57227 58.2142 7.17806 57.9727 6.92285C57.7357 6.66764 57.3643 6.54004 56.8584 6.54004C56.4482 6.54004 56.0882 6.64941 55.7783 6.86816C55.4684 7.08691 55.2269 7.37402 55.0537 7.72949V13H53.7891V2.5H55.0537V6.49902ZM64.5693 13.1367C63.5667 13.1367 62.751 12.8086 62.1221 12.1523C61.4932 11.4915 61.1787 10.6097 61.1787 9.50684V9.27441C61.1787 8.54069 61.3177 7.88672 61.5957 7.3125C61.8783 6.73372 62.2702 6.28255 62.7715 5.95898C63.2773 5.63086 63.8242 5.4668 64.4121 5.4668C65.3737 5.4668 66.1211 5.78353 66.6543 6.41699C67.1875 7.05046 67.4541 7.95736 67.4541 9.1377V9.66406H62.4434C62.4616 10.3932 62.6735 10.9834 63.0791 11.4346C63.4893 11.8812 64.0088 12.1045 64.6377 12.1045C65.0843 12.1045 65.4626 12.0133 65.7725 11.8311C66.0824 11.6488 66.3535 11.4072 66.5859 11.1064L67.3584 11.708C66.7386 12.6605 65.8089 13.1367 64.5693 13.1367ZM64.4121 6.50586C63.9017 6.50586 63.4733 6.69271 63.127 7.06641C62.7806 7.43555 62.5664 7.95508 62.4844 8.625H66.1895V8.5293C66.153 7.88672 65.9798 7.38997 65.6699 7.03906C65.36 6.68359 64.9408 6.50586 64.4121 6.50586ZM72.499 6.73828C72.3076 6.70638 72.1003 6.69043 71.877 6.69043C71.0475 6.69043 70.4847 7.04362 70.1885 7.75V13H68.9238V5.60352H70.1543L70.1748 6.45801C70.5895 5.7972 71.1774 5.4668 71.9385 5.4668C72.1846 5.4668 72.3714 5.4987 72.499 5.5625V6.73828ZM84.6396 13H83.3682V4.57129L80.8184 5.50781V4.35938L84.4414 2.99902H84.6396V13ZM94.8662 13H88.3447V12.0908L91.79 8.2627C92.3005 7.68392 92.6514 7.21452 92.8428 6.85449C93.0387 6.48991 93.1367 6.11393 93.1367 5.72656C93.1367 5.20703 92.9795 4.78092 92.665 4.44824C92.3506 4.11556 91.9313 3.94922 91.4072 3.94922C90.7783 3.94922 90.2884 4.12923 89.9375 4.48926C89.5911 4.84473 89.418 5.34147 89.418 5.97949H88.1533C88.1533 5.06348 88.4473 4.32292 89.0352 3.75781C89.6276 3.19271 90.4183 2.91016 91.4072 2.91016C92.3324 2.91016 93.0638 3.15397 93.6016 3.6416C94.1393 4.12467 94.4082 4.76953 94.4082 5.57617C94.4082 6.55599 93.7839 7.72266 92.5352 9.07617L89.8691 11.9678H94.8662V13ZM101.053 8.625C100.788 8.93945 100.472 9.19238 100.103 9.38379C99.738 9.5752 99.3369 9.6709 98.8994 9.6709C98.3252 9.6709 97.8239 9.52962 97.3955 9.24707C96.9717 8.96452 96.6436 8.56803 96.4111 8.05762C96.1787 7.54264 96.0625 6.97526 96.0625 6.35547C96.0625 5.6901 96.1878 5.09082 96.4385 4.55762C96.6937 4.02441 97.0537 3.61654 97.5186 3.33398C97.9834 3.05143 98.5257 2.91016 99.1455 2.91016C100.13 2.91016 100.905 3.2793 101.47 4.01758C102.039 4.7513 102.324 5.75391 102.324 7.02539V7.39453C102.324 9.33138 101.941 10.7464 101.176 11.6396C100.41 12.5283 99.2549 12.984 97.71 13.0068H97.4639V11.9404H97.7305C98.7741 11.9222 99.5762 11.651 100.137 11.127C100.697 10.5983 101.003 9.76432 101.053 8.625ZM99.1045 8.625C99.5283 8.625 99.918 8.49512 100.273 8.23535C100.633 7.97559 100.896 7.6543 101.06 7.27148V6.76562C101.06 5.9362 100.88 5.26172 100.52 4.74219C100.16 4.22266 99.7038 3.96289 99.1523 3.96289C98.5964 3.96289 98.1497 4.17708 97.8125 4.60547C97.4753 5.0293 97.3066 5.58984 97.3066 6.28711C97.3066 6.96615 97.4684 7.52669 97.792 7.96875C98.1201 8.40625 98.5576 8.625 99.1045 8.625ZM104.156 14.9824L103.438 14.4902C103.867 13.8932 104.09 13.278 104.108 12.6445V11.5029H105.346V12.4941C105.346 12.9544 105.232 13.4147 105.004 13.875C104.781 14.3353 104.498 14.7044 104.156 14.9824ZM111.662 8.625C111.398 8.93945 111.081 9.19238 110.712 9.38379C110.347 9.5752 109.946 9.6709 109.509 9.6709C108.935 9.6709 108.433 9.52962 108.005 9.24707C107.581 8.96452 107.253 8.56803 107.021 8.05762C106.788 7.54264 106.672 6.97526 106.672 6.35547C106.672 5.6901 106.797 5.09082 107.048 4.55762C107.303 4.02441 107.663 3.61654 108.128 3.33398C108.593 3.05143 109.135 2.91016 109.755 2.91016C110.739 2.91016 111.514 3.2793 112.079 4.01758C112.649 4.7513 112.934 5.75391 112.934 7.02539V7.39453C112.934 9.33138 112.551 10.7464 111.785 11.6396C111.02 12.5283 109.864 12.984 108.319 13.0068H108.073V11.9404H108.34C109.383 11.9222 110.186 11.651 110.746 11.127C111.307 10.5983 111.612 9.76432 111.662 8.625ZM109.714 8.625C110.138 8.625 110.527 8.49512 110.883 8.23535C111.243 7.97559 111.505 7.6543 111.669 7.27148V6.76562C111.669 5.9362 111.489 5.26172 111.129 4.74219C110.769 4.22266 110.313 3.96289 109.762 3.96289C109.206 3.96289 108.759 4.17708 108.422 4.60547C108.085 5.0293 107.916 5.58984 107.916 6.28711C107.916 6.96615 108.078 7.52669 108.401 7.96875C108.729 8.40625 109.167 8.625 109.714 8.625ZM116.871 9.5752L116.078 10.4023V13H114.813V2.5H116.078V8.85059L116.755 8.03711L119.059 5.60352H120.597L117.719 8.69336L120.932 13H119.448L116.871 9.5752Z" fill="#009487"/>
<path d="M47.0117 36.1152H48.4619V38.1631H47.0117V40.9316H44.4717V38.1631H39.2246L39.1104 36.5635L44.4453 28.1348H47.0117V36.1152ZM41.6416 36.1152H44.4717V31.5977L44.3047 31.8877L41.6416 36.1152ZM49.7979 30.5957C49.7979 29.8105 50.0527 29.1748 50.5625 28.6885C51.0723 28.1963 51.7402 27.9502 52.5664 27.9502C53.4043 27.9502 54.0781 28.1934 54.5879 28.6797C55.0977 29.1602 55.3525 29.8135 55.3525 30.6396V31.2725C55.3525 32.0635 55.0977 32.6992 54.5879 33.1797C54.0781 33.6602 53.4102 33.9004 52.584 33.9004C51.752 33.9004 51.0781 33.6602 50.5625 33.1797C50.0527 32.6934 49.7979 32.04 49.7979 31.2197V30.5957ZM51.4854 31.2725C51.4854 31.624 51.585 31.9082 51.7842 32.125C51.9893 32.3359 52.2559 32.4414 52.584 32.4414C52.9121 32.4414 53.1729 32.333 53.3662 32.1162C53.5596 31.8994 53.6562 31.6094 53.6562 31.2461V30.5957C53.6562 30.2441 53.5596 29.96 53.3662 29.7432C53.1729 29.5264 52.9062 29.418 52.5664 29.418C52.2441 29.418 51.9834 29.5264 51.7842 29.7432C51.585 29.9541 51.4854 30.25 51.4854 30.6309V31.2725ZM55.915 37.7939C55.915 37.0029 56.1729 36.3672 56.6885 35.8867C57.2041 35.4004 57.8721 35.1572 58.6924 35.1572C59.5244 35.1572 60.1953 35.3975 60.7051 35.8779C61.2207 36.3525 61.4785 37.0088 61.4785 37.8467V38.4795C61.4785 39.2646 61.2266 39.9004 60.7227 40.3867C60.2188 40.8672 59.5479 41.1074 58.71 41.1074C57.8662 41.1074 57.1895 40.8643 56.6797 40.3779C56.1699 39.8916 55.915 39.2471 55.915 38.4443V37.7939ZM57.6025 38.4795C57.6025 38.8018 57.708 39.0771 57.9189 39.3057C58.1299 39.5342 58.3936 39.6484 58.71 39.6484C59.4248 39.6484 59.7822 39.2529 59.7822 38.4619V37.7939C59.7822 37.4424 59.6826 37.1611 59.4834 36.9502C59.2842 36.7334 59.0205 36.625 58.6924 36.625C58.3643 36.625 58.1006 36.7334 57.9014 36.9502C57.7021 37.1611 57.6025 37.4512 57.6025 37.8203V38.4795ZM53.085 39.9736L51.8457 39.3057L58.0947 29.3037L59.334 29.9717L53.085 39.9736Z" fill="#009487"/>
<path d="M420.38 10.4023H416.21L415.273 13H413.92L417.721 3.04688H418.869L422.677 13H421.33L420.38 10.4023ZM416.606 9.32227H419.99L418.295 4.66699L416.606 9.32227ZM423.517 9.24023C423.517 8.08724 423.784 7.17122 424.317 6.49219C424.85 5.80859 425.557 5.4668 426.436 5.4668C427.339 5.4668 428.043 5.78581 428.549 6.42383L428.61 5.60352H429.766V12.8223C429.766 13.7793 429.481 14.5335 428.911 15.085C428.346 15.6364 427.585 15.9121 426.628 15.9121C426.095 15.9121 425.573 15.7982 425.062 15.5703C424.552 15.3424 424.162 15.0303 423.893 14.6338L424.55 13.875C425.092 14.5449 425.755 14.8799 426.539 14.8799C427.154 14.8799 427.633 14.7067 427.974 14.3604C428.321 14.014 428.494 13.5264 428.494 12.8975V12.2617C427.988 12.8451 427.298 13.1367 426.423 13.1367C425.557 13.1367 424.855 12.7881 424.317 12.0908C423.784 11.3936 423.517 10.4434 423.517 9.24023ZM424.789 9.38379C424.789 10.2178 424.96 10.874 425.302 11.3525C425.643 11.8265 426.122 12.0635 426.737 12.0635C427.535 12.0635 428.12 11.7012 428.494 10.9766V7.59961C428.107 6.89323 427.526 6.54004 426.751 6.54004C426.136 6.54004 425.655 6.7793 425.308 7.25781C424.962 7.73633 424.789 8.44499 424.789 9.38379ZM435.255 6.73828C435.063 6.70638 434.856 6.69043 434.633 6.69043C433.803 6.69043 433.24 7.04362 432.944 7.75V13H431.68V5.60352H432.91L432.931 6.45801C433.345 5.7972 433.933 5.4668 434.694 5.4668C434.94 5.4668 435.127 5.4987 435.255 5.5625V6.73828ZM437.798 13H436.533V5.60352H437.798V13ZM436.431 3.6416C436.431 3.43652 436.492 3.26335 436.615 3.12207C436.743 2.98079 436.93 2.91016 437.176 2.91016C437.422 2.91016 437.609 2.98079 437.736 3.12207C437.864 3.26335 437.928 3.43652 437.928 3.6416C437.928 3.84668 437.864 4.01758 437.736 4.1543C437.609 4.29102 437.422 4.35938 437.176 4.35938C436.93 4.35938 436.743 4.29102 436.615 4.1543C436.492 4.01758 436.431 3.84668 436.431 3.6416ZM446.076 9.38379C446.076 10.5094 445.819 11.4163 445.304 12.1045C444.789 12.7926 444.091 13.1367 443.212 13.1367C442.314 13.1367 441.608 12.8519 441.093 12.2822V15.8438H439.828V5.60352H440.983L441.045 6.42383C441.56 5.78581 442.275 5.4668 443.191 5.4668C444.08 5.4668 444.782 5.80176 445.297 6.47168C445.816 7.1416 446.076 8.07357 446.076 9.26758V9.38379ZM444.811 9.24023C444.811 8.40625 444.634 7.74772 444.278 7.26465C443.923 6.78158 443.435 6.54004 442.815 6.54004C442.05 6.54004 441.475 6.87956 441.093 7.55859V11.0928C441.471 11.7673 442.05 12.1045 442.829 12.1045C443.435 12.1045 443.916 11.8652 444.271 11.3867C444.631 10.9036 444.811 10.1882 444.811 9.24023ZM451.265 6.73828C451.073 6.70638 450.866 6.69043 450.642 6.69043C449.813 6.69043 449.25 7.04362 448.954 7.75V13H447.689V5.60352H448.92L448.94 6.45801C449.355 5.7972 449.943 5.4668 450.704 5.4668C450.95 5.4668 451.137 5.4987 451.265 5.5625V6.73828ZM451.962 9.2334C451.962 8.50879 452.103 7.8571 452.386 7.27832C452.673 6.69954 453.069 6.25293 453.575 5.93848C454.085 5.62402 454.667 5.4668 455.318 5.4668C456.325 5.4668 457.139 5.81543 457.759 6.5127C458.383 7.20996 458.695 8.13737 458.695 9.29492V9.38379C458.695 10.1038 458.556 10.751 458.278 11.3252C458.005 11.8949 457.611 12.3392 457.096 12.6582C456.585 12.9772 455.997 13.1367 455.332 13.1367C454.329 13.1367 453.516 12.7881 452.891 12.0908C452.272 11.3936 451.962 10.4707 451.962 9.32227V9.2334ZM453.233 9.38379C453.233 10.2041 453.422 10.8626 453.801 11.3594C454.183 11.8561 454.694 12.1045 455.332 12.1045C455.974 12.1045 456.485 11.8538 456.863 11.3525C457.241 10.8467 457.431 10.1403 457.431 9.2334C457.431 8.4222 457.237 7.76595 456.849 7.26465C456.467 6.75879 455.956 6.50586 455.318 6.50586C454.694 6.50586 454.19 6.75423 453.807 7.25098C453.425 7.74772 453.233 8.45866 453.233 9.38379ZM459.974 9.24023C459.974 8.10547 460.242 7.19401 460.78 6.50586C461.318 5.81315 462.022 5.4668 462.892 5.4668C463.758 5.4668 464.444 5.76302 464.95 6.35547V2.5H466.215V13H465.053L464.991 12.207C464.485 12.8268 463.781 13.1367 462.879 13.1367C462.022 13.1367 461.322 12.7858 460.78 12.084C460.242 11.3822 459.974 10.4661 459.974 9.33594V9.24023ZM461.238 9.38379C461.238 10.2223 461.411 10.8786 461.758 11.3525C462.104 11.8265 462.583 12.0635 463.193 12.0635C463.995 12.0635 464.581 11.7035 464.95 10.9834V7.58594C464.572 6.88867 463.991 6.54004 463.207 6.54004C462.587 6.54004 462.104 6.7793 461.758 7.25781C461.411 7.73633 461.238 8.44499 461.238 9.38379ZM472.75 12.2686C472.258 12.8473 471.535 13.1367 470.583 13.1367C469.794 13.1367 469.193 12.9089 468.778 12.4531C468.368 11.9928 468.161 11.3138 468.156 10.416V5.60352H469.421V10.3818C469.421 11.5029 469.877 12.0635 470.788 12.0635C471.754 12.0635 472.397 11.7035 472.716 10.9834V5.60352H473.98V13H472.777L472.75 12.2686ZM478.875 12.1045C479.326 12.1045 479.72 11.9678 480.057 11.6943C480.395 11.4209 480.582 11.0791 480.618 10.6689H481.814C481.792 11.0928 481.646 11.4961 481.377 11.8789C481.108 12.2617 480.748 12.5671 480.297 12.7949C479.85 13.0228 479.376 13.1367 478.875 13.1367C477.868 13.1367 477.066 12.8018 476.469 12.1318C475.876 11.4574 475.58 10.5368 475.58 9.37012V9.1582C475.58 8.43815 475.712 7.79785 475.976 7.2373C476.241 6.67676 476.619 6.24154 477.111 5.93164C477.608 5.62174 478.194 5.4668 478.868 5.4668C479.697 5.4668 480.386 5.71517 480.932 6.21191C481.484 6.70866 481.778 7.35352 481.814 8.14648H480.618C480.582 7.66797 480.399 7.27604 480.071 6.9707C479.748 6.66081 479.347 6.50586 478.868 6.50586C478.225 6.50586 477.726 6.73828 477.371 7.20312C477.02 7.66341 476.845 8.33105 476.845 9.20605V9.44531C476.845 10.2975 477.02 10.9538 477.371 11.4141C477.722 11.8743 478.223 12.1045 478.875 12.1045ZM484.952 3.8125V5.60352H486.333V6.58105H484.952V11.168C484.952 11.4642 485.014 11.6875 485.137 11.8379C485.26 11.9837 485.469 12.0566 485.766 12.0566C485.911 12.0566 486.112 12.0293 486.367 11.9746V13C486.034 13.0911 485.711 13.1367 485.396 13.1367C484.831 13.1367 484.405 12.9658 484.118 12.624C483.831 12.2822 483.687 11.7969 483.687 11.168V6.58105H482.341V5.60352H483.687V3.8125H484.952ZM492.123 11.0381C492.123 10.6963 491.993 10.432 491.733 10.2451C491.478 10.0537 491.029 9.88965 490.387 9.75293C489.749 9.61621 489.24 9.45215 488.862 9.26074C488.488 9.06934 488.21 8.84147 488.028 8.57715C487.85 8.31283 487.762 7.99837 487.762 7.63379C487.762 7.02767 488.017 6.51497 488.527 6.0957C489.042 5.67643 489.698 5.4668 490.496 5.4668C491.335 5.4668 492.014 5.68327 492.533 6.11621C493.057 6.54915 493.319 7.10286 493.319 7.77734H492.048C492.048 7.43099 491.9 7.13249 491.603 6.88184C491.312 6.63118 490.943 6.50586 490.496 6.50586C490.036 6.50586 489.676 6.60612 489.416 6.80664C489.156 7.00716 489.026 7.26921 489.026 7.59277C489.026 7.89811 489.147 8.12826 489.389 8.2832C489.63 8.43815 490.065 8.58626 490.694 8.72754C491.328 8.86882 491.84 9.03743 492.232 9.2334C492.624 9.42936 492.914 9.66634 493.1 9.94434C493.292 10.2178 493.388 10.5527 493.388 10.9492C493.388 11.61 493.123 12.141 492.595 12.542C492.066 12.9385 491.38 13.1367 490.537 13.1367C489.945 13.1367 489.42 13.0319 488.965 12.8223C488.509 12.6126 488.151 12.321 487.891 11.9473C487.636 11.569 487.509 11.1611 487.509 10.7236H488.773C488.796 11.1475 488.965 11.4847 489.279 11.7354C489.598 11.9814 490.017 12.1045 490.537 12.1045C491.016 12.1045 491.398 12.0088 491.685 11.8174C491.977 11.6214 492.123 11.3617 492.123 11.0381ZM502.534 13H501.263V4.57129L498.713 5.50781V4.35938L502.336 2.99902H502.534V13ZM506.328 14.9824L505.61 14.4902C506.039 13.8932 506.262 13.278 506.28 12.6445V11.5029H507.517V12.4941C507.517 12.9544 507.404 13.4147 507.176 13.875C506.952 14.3353 506.67 14.7044 506.328 14.9824ZM515.228 8.75488C515.228 10.236 514.975 11.3366 514.47 12.0566C513.964 12.7767 513.173 13.1367 512.098 13.1367C511.036 13.1367 510.25 12.7858 509.739 12.084C509.229 11.3776 508.964 10.3249 508.946 8.92578V7.2373C508.946 5.77441 509.199 4.6875 509.705 3.97656C510.211 3.26562 511.004 2.91016 512.084 2.91016C513.155 2.91016 513.943 3.25423 514.449 3.94238C514.955 4.62598 515.215 5.68327 515.228 7.11426V8.75488ZM513.964 7.02539C513.964 5.95443 513.813 5.17513 513.513 4.6875C513.212 4.19531 512.736 3.94922 512.084 3.94922C511.437 3.94922 510.965 4.19303 510.669 4.68066C510.373 5.16829 510.22 5.91797 510.211 6.92969V8.95312C510.211 10.0286 510.366 10.8239 510.676 11.3389C510.99 11.8493 511.464 12.1045 512.098 12.1045C512.722 12.1045 513.184 11.863 513.485 11.3799C513.791 10.8968 513.95 10.1357 513.964 9.09668V7.02539ZM522.885 5.64453C522.885 6.14128 522.752 6.58333 522.488 6.9707C522.228 7.35807 521.875 7.66113 521.429 7.87988C521.948 8.10319 522.358 8.42904 522.659 8.85742C522.964 9.28581 523.117 9.77116 523.117 10.3135C523.117 11.1748 522.825 11.8607 522.242 12.3711C521.663 12.8815 520.9 13.1367 519.952 13.1367C518.995 13.1367 518.227 12.8815 517.648 12.3711C517.074 11.8561 516.787 11.1702 516.787 10.3135C516.787 9.77572 516.933 9.29036 517.224 8.85742C517.521 8.42448 517.929 8.09635 518.448 7.87305C518.006 7.6543 517.657 7.35124 517.402 6.96387C517.147 6.5765 517.019 6.13672 517.019 5.64453C517.019 4.80599 517.288 4.14062 517.826 3.64844C518.364 3.15625 519.072 2.91016 519.952 2.91016C520.827 2.91016 521.533 3.15625 522.071 3.64844C522.613 4.14062 522.885 4.80599 522.885 5.64453ZM521.852 10.2861C521.852 9.73014 521.675 9.27669 521.319 8.92578C520.968 8.57487 520.508 8.39941 519.938 8.39941C519.369 8.39941 518.911 8.57259 518.564 8.91895C518.223 9.2653 518.052 9.72103 518.052 10.2861C518.052 10.8512 518.218 11.2956 518.551 11.6191C518.888 11.9427 519.355 12.1045 519.952 12.1045C520.544 12.1045 521.009 11.9427 521.347 11.6191C521.684 11.291 521.852 10.8467 521.852 10.2861ZM519.952 3.94922C519.455 3.94922 519.052 4.10417 518.742 4.41406C518.437 4.7194 518.284 5.13639 518.284 5.66504C518.284 6.1709 518.434 6.58105 518.735 6.89551C519.041 7.2054 519.446 7.36035 519.952 7.36035C520.458 7.36035 520.861 7.2054 521.162 6.89551C521.467 6.58105 521.62 6.1709 521.62 5.66504C521.62 5.15918 521.463 4.74674 521.148 4.42773C520.834 4.10872 520.435 3.94922 519.952 3.94922ZM529.502 5.60352L529.536 6.42383C530.078 5.78581 530.81 5.4668 531.73 5.4668C532.765 5.4668 533.469 5.86328 533.843 6.65625C534.089 6.30078 534.408 6.01367 534.8 5.79492C535.196 5.57617 535.663 5.4668 536.201 5.4668C537.823 5.4668 538.648 6.32585 538.676 8.04395V13H537.411V8.11914C537.411 7.59049 537.29 7.19629 537.049 6.93652C536.807 6.6722 536.402 6.54004 535.832 6.54004C535.363 6.54004 534.973 6.68132 534.663 6.96387C534.353 7.24186 534.173 7.61784 534.123 8.0918V13H532.851V8.15332C532.851 7.0778 532.325 6.54004 531.272 6.54004C530.443 6.54004 529.876 6.89323 529.57 7.59961V13H528.306V5.60352H529.502ZM541.964 13H540.699V5.60352H541.964V13ZM540.597 3.6416C540.597 3.43652 540.658 3.26335 540.781 3.12207C540.909 2.98079 541.096 2.91016 541.342 2.91016C541.588 2.91016 541.775 2.98079 541.902 3.12207C542.03 3.26335 542.094 3.43652 542.094 3.6416C542.094 3.84668 542.03 4.01758 541.902 4.1543C541.775 4.29102 541.588 4.35938 541.342 4.35938C541.096 4.35938 540.909 4.29102 540.781 4.1543C540.658 4.01758 540.597 3.84668 540.597 3.6416ZM545.368 13H544.103V2.5H545.368V13Z" fill="#009487"/>
<path d="M516.642 33.4082H517.995C518.64 33.4082 519.117 33.2471 519.428 32.9248C519.738 32.6025 519.894 32.1748 519.894 31.6416C519.894 31.126 519.738 30.7246 519.428 30.4375C519.123 30.1504 518.701 30.0068 518.162 30.0068C517.676 30.0068 517.269 30.1416 516.94 30.4111C516.612 30.6748 516.448 31.0205 516.448 31.4482H513.908C513.908 30.7803 514.087 30.1826 514.444 29.6553C514.808 29.1221 515.312 28.7061 515.956 28.4072C516.606 28.1084 517.321 27.959 518.101 27.959C519.454 27.959 520.515 28.2842 521.282 28.9346C522.05 29.5791 522.434 30.4697 522.434 31.6064C522.434 32.1924 522.255 32.7314 521.897 33.2236C521.54 33.7158 521.071 34.0938 520.491 34.3574C521.212 34.6152 521.748 35.002 522.1 35.5176C522.457 36.0332 522.636 36.6426 522.636 37.3457C522.636 38.4824 522.22 39.3936 521.388 40.0791C520.562 40.7646 519.466 41.1074 518.101 41.1074C516.823 41.1074 515.777 40.7705 514.963 40.0967C514.154 39.4229 513.75 38.5322 513.75 37.4248H516.29C516.29 37.9053 516.469 38.2979 516.826 38.6025C517.189 38.9072 517.635 39.0596 518.162 39.0596C518.766 39.0596 519.237 38.9014 519.577 38.585C519.923 38.2627 520.096 37.8379 520.096 37.3105C520.096 36.0332 519.393 35.3945 517.986 35.3945H516.642V33.4082ZM533.095 29.5586L528.146 40.9316H525.466L530.423 30.1914H524.06V28.1348H533.095V29.5586ZM534.694 30.5957C534.694 29.8105 534.949 29.1748 535.459 28.6885C535.969 28.1963 536.637 27.9502 537.463 27.9502C538.301 27.9502 538.975 28.1934 539.484 28.6797C539.994 29.1602 540.249 29.8135 540.249 30.6396V31.2725C540.249 32.0635 539.994 32.6992 539.484 33.1797C538.975 33.6602 538.307 33.9004 537.48 33.9004C536.648 33.9004 535.975 33.6602 535.459 33.1797C534.949 32.6934 534.694 32.04 534.694 31.2197V30.5957ZM536.382 31.2725C536.382 31.624 536.481 31.9082 536.681 32.125C536.886 32.3359 537.152 32.4414 537.48 32.4414C537.809 32.4414 538.069 32.333 538.263 32.1162C538.456 31.8994 538.553 31.6094 538.553 31.2461V30.5957C538.553 30.2441 538.456 29.96 538.263 29.7432C538.069 29.5264 537.803 29.418 537.463 29.418C537.141 29.418 536.88 29.5264 536.681 29.7432C536.481 29.9541 536.382 30.25 536.382 30.6309V31.2725ZM540.812 37.7939C540.812 37.0029 541.069 36.3672 541.585 35.8867C542.101 35.4004 542.769 35.1572 543.589 35.1572C544.421 35.1572 545.092 35.3975 545.602 35.8779C546.117 36.3525 546.375 37.0088 546.375 37.8467V38.4795C546.375 39.2646 546.123 39.9004 545.619 40.3867C545.115 40.8672 544.444 41.1074 543.606 41.1074C542.763 41.1074 542.086 40.8643 541.576 40.3779C541.066 39.8916 540.812 39.2471 540.812 38.4443V37.7939ZM542.499 38.4795C542.499 38.8018 542.604 39.0771 542.815 39.3057C543.026 39.5342 543.29 39.6484 543.606 39.6484C544.321 39.6484 544.679 39.2529 544.679 38.4619V37.7939C544.679 37.4424 544.579 37.1611 544.38 36.9502C544.181 36.7334 543.917 36.625 543.589 36.625C543.261 36.625 542.997 36.7334 542.798 36.9502C542.599 37.1611 542.499 37.4512 542.499 37.8203V38.4795ZM537.981 39.9736L536.742 39.3057L542.991 29.3037L544.23 29.9717L537.981 39.9736Z" fill="#009487"/>
<path d="M292.495 369.18L295.749 377.302L299.002 369.18H300.705V379.134H299.392V375.258L299.515 371.074L296.248 379.134H295.243L291.982 371.094L292.112 375.258V379.134H290.799V369.18H292.495ZM305.893 379.27C304.89 379.27 304.075 378.942 303.446 378.286C302.817 377.625 302.502 376.743 302.502 375.64V375.408C302.502 374.674 302.641 374.02 302.919 373.446C303.202 372.867 303.594 372.416 304.095 372.093C304.601 371.764 305.148 371.6 305.736 371.6C306.697 371.6 307.445 371.917 307.978 372.551C308.511 373.184 308.778 374.091 308.778 375.271V375.798H303.767C303.785 376.527 303.997 377.117 304.403 377.568C304.813 378.015 305.333 378.238 305.961 378.238C306.408 378.238 306.786 378.147 307.096 377.965C307.406 377.782 307.677 377.541 307.91 377.24L308.682 377.842C308.062 378.794 307.133 379.27 305.893 379.27ZM305.736 372.639C305.225 372.639 304.797 372.826 304.451 373.2C304.104 373.569 303.89 374.089 303.808 374.759H307.513V374.663C307.477 374.02 307.304 373.524 306.994 373.173C306.684 372.817 306.265 372.639 305.736 372.639ZM311.963 369.946V371.737H313.344V372.715H311.963V377.302C311.963 377.598 312.025 377.821 312.148 377.971C312.271 378.117 312.481 378.19 312.777 378.19C312.923 378.19 313.123 378.163 313.378 378.108V379.134C313.046 379.225 312.722 379.27 312.408 379.27C311.843 379.27 311.417 379.099 311.129 378.758C310.842 378.416 310.699 377.93 310.699 377.302V372.715H309.352V371.737H310.699V369.946H311.963ZM319.394 379.134C319.321 378.988 319.262 378.728 319.216 378.354C318.628 378.965 317.927 379.27 317.111 379.27C316.382 379.27 315.782 379.065 315.313 378.655C314.848 378.24 314.616 377.716 314.616 377.083C314.616 376.313 314.907 375.716 315.491 375.292C316.079 374.863 316.904 374.649 317.965 374.649H319.196V374.068C319.196 373.626 319.064 373.275 318.799 373.015C318.535 372.751 318.145 372.619 317.63 372.619C317.179 372.619 316.801 372.733 316.496 372.961C316.19 373.189 316.038 373.464 316.038 373.788H314.766C314.766 373.419 314.896 373.063 315.156 372.721C315.42 372.375 315.776 372.102 316.222 371.901C316.673 371.701 317.168 371.6 317.706 371.6C318.558 371.6 319.225 371.815 319.709 372.243C320.192 372.667 320.442 373.252 320.46 374V377.404C320.46 378.083 320.547 378.623 320.72 379.024V379.134H319.394ZM317.295 378.17C317.692 378.17 318.068 378.067 318.423 377.862C318.779 377.657 319.036 377.39 319.196 377.062V375.545H318.205C316.655 375.545 315.88 375.998 315.88 376.905C315.88 377.302 316.013 377.611 316.277 377.835C316.541 378.058 316.881 378.17 317.295 378.17ZM323.817 379.134H322.552V368.634H323.817V379.134ZM330.154 377.172C330.154 376.83 330.024 376.566 329.764 376.379C329.509 376.187 329.06 376.023 328.418 375.886C327.779 375.75 327.271 375.586 326.893 375.394C326.519 375.203 326.241 374.975 326.059 374.711C325.881 374.446 325.793 374.132 325.793 373.767C325.793 373.161 326.048 372.649 326.558 372.229C327.073 371.81 327.729 371.6 328.527 371.6C329.365 371.6 330.044 371.817 330.564 372.25C331.088 372.683 331.35 373.236 331.35 373.911H330.079C330.079 373.565 329.931 373.266 329.634 373.015C329.343 372.765 328.974 372.639 328.527 372.639C328.067 372.639 327.707 372.74 327.447 372.94C327.187 373.141 327.057 373.403 327.057 373.726C327.057 374.032 327.178 374.262 327.419 374.417C327.661 374.572 328.096 374.72 328.725 374.861C329.359 375.002 329.871 375.171 330.263 375.367C330.655 375.563 330.945 375.8 331.131 376.078C331.323 376.351 331.418 376.686 331.418 377.083C331.418 377.744 331.154 378.274 330.626 378.676C330.097 379.072 329.411 379.27 328.568 379.27C327.975 379.27 327.451 379.165 326.996 378.956C326.54 378.746 326.182 378.455 325.922 378.081C325.667 377.703 325.54 377.295 325.54 376.857H326.804C326.827 377.281 326.996 377.618 327.31 377.869C327.629 378.115 328.048 378.238 328.568 378.238C329.046 378.238 329.429 378.142 329.716 377.951C330.008 377.755 330.154 377.495 330.154 377.172ZM344.728 374.759C344.464 375.073 344.147 375.326 343.778 375.517C343.413 375.709 343.012 375.804 342.575 375.804C342.001 375.804 341.499 375.663 341.071 375.381C340.647 375.098 340.319 374.702 340.086 374.191C339.854 373.676 339.738 373.109 339.738 372.489C339.738 371.824 339.863 371.224 340.114 370.691C340.369 370.158 340.729 369.75 341.194 369.468C341.659 369.185 342.201 369.044 342.821 369.044C343.805 369.044 344.58 369.413 345.145 370.151C345.715 370.885 346 371.887 346 373.159V373.528C346 375.465 345.617 376.88 344.851 377.773C344.085 378.662 342.93 379.118 341.385 379.14H341.139V378.074H341.406C342.449 378.056 343.251 377.785 343.812 377.26C344.373 376.732 344.678 375.898 344.728 374.759ZM342.78 374.759C343.204 374.759 343.593 374.629 343.949 374.369C344.309 374.109 344.571 373.788 344.735 373.405V372.899C344.735 372.07 344.555 371.395 344.195 370.876C343.835 370.356 343.379 370.096 342.828 370.096C342.272 370.096 341.825 370.311 341.488 370.739C341.151 371.163 340.982 371.723 340.982 372.421C340.982 373.1 341.144 373.66 341.467 374.102C341.795 374.54 342.233 374.759 342.78 374.759ZM348.324 374.143L348.83 369.18H353.929V370.349H349.903L349.602 373.063C350.09 372.776 350.643 372.633 351.263 372.633C352.17 372.633 352.89 372.933 353.423 373.535C353.957 374.132 354.223 374.941 354.223 375.962C354.223 376.987 353.945 377.796 353.389 378.388C352.838 378.976 352.065 379.27 351.072 379.27C350.192 379.27 349.474 379.026 348.918 378.539C348.362 378.051 348.046 377.377 347.968 376.515H349.165C349.242 377.085 349.445 377.516 349.773 377.807C350.101 378.094 350.534 378.238 351.072 378.238C351.66 378.238 352.12 378.038 352.453 377.636C352.79 377.235 352.959 376.682 352.959 375.975C352.959 375.31 352.776 374.777 352.412 374.376C352.052 373.97 351.571 373.767 350.969 373.767C350.418 373.767 349.985 373.888 349.67 374.13L349.335 374.403L348.324 374.143ZM357.443 373.542H358.393C358.99 373.533 359.46 373.375 359.801 373.07C360.143 372.765 360.314 372.352 360.314 371.833C360.314 370.666 359.733 370.083 358.571 370.083C358.024 370.083 357.586 370.24 357.258 370.554C356.935 370.864 356.773 371.277 356.773 371.792H355.508C355.508 371.003 355.795 370.349 356.37 369.83C356.948 369.306 357.682 369.044 358.571 369.044C359.51 369.044 360.246 369.292 360.779 369.789C361.312 370.286 361.579 370.976 361.579 371.86C361.579 372.293 361.437 372.712 361.155 373.118C360.877 373.524 360.496 373.827 360.013 374.027C360.56 374.2 360.982 374.487 361.278 374.888C361.579 375.289 361.729 375.779 361.729 376.358C361.729 377.251 361.437 377.96 360.854 378.484C360.271 379.008 359.512 379.27 358.578 379.27C357.643 379.27 356.882 379.017 356.294 378.511C355.711 378.006 355.419 377.338 355.419 376.509H356.691C356.691 377.033 356.862 377.452 357.204 377.766C357.545 378.081 358.003 378.238 358.578 378.238C359.188 378.238 359.655 378.079 359.979 377.76C360.303 377.441 360.464 376.983 360.464 376.385C360.464 375.807 360.287 375.362 359.931 375.052C359.576 374.743 359.063 374.583 358.393 374.574H357.443V373.542ZM363.554 381.116L362.836 380.624C363.265 380.027 363.488 379.412 363.506 378.778V377.636H364.744V378.628C364.744 379.088 364.63 379.548 364.402 380.009C364.179 380.469 363.896 380.838 363.554 381.116ZM370.37 379.134H369.098V370.705L366.548 371.641V370.493L370.171 369.133H370.37V379.134ZM376.269 375.709L375.476 376.536V379.134H374.211V368.634H375.476V374.984L376.153 374.171L378.457 371.737H379.995L377.117 374.827L380.33 379.134H378.846L376.269 375.709Z" fill="#009487"/>
<path d="M352.833 399.54H354.187C354.831 399.54 355.309 399.379 355.619 399.057C355.93 398.735 356.085 398.307 356.085 397.774C356.085 397.258 355.93 396.857 355.619 396.57C355.314 396.282 354.893 396.139 354.354 396.139C353.867 396.139 353.46 396.274 353.132 396.543C352.804 396.807 352.64 397.153 352.64 397.58H350.1C350.1 396.912 350.278 396.315 350.636 395.787C350.999 395.254 351.503 394.838 352.147 394.539C352.798 394.24 353.513 394.091 354.292 394.091C355.646 394.091 356.706 394.416 357.474 395.067C358.241 395.711 358.625 396.602 358.625 397.739C358.625 398.324 358.446 398.864 358.089 399.356C357.731 399.848 357.263 400.226 356.683 400.49C357.403 400.747 357.939 401.134 358.291 401.65C358.648 402.165 358.827 402.775 358.827 403.478C358.827 404.615 358.411 405.526 357.579 406.211C356.753 406.897 355.657 407.24 354.292 407.24C353.015 407.24 351.969 406.903 351.154 406.229C350.346 405.555 349.941 404.664 349.941 403.557H352.481C352.481 404.037 352.66 404.43 353.018 404.735C353.381 405.039 353.826 405.192 354.354 405.192C354.957 405.192 355.429 405.033 355.769 404.717C356.114 404.395 356.287 403.97 356.287 403.443C356.287 402.165 355.584 401.527 354.178 401.527H352.833V399.54ZM369.356 407.064H360.585V405.323L364.725 400.911C365.293 400.29 365.712 399.748 365.981 399.285C366.257 398.823 366.395 398.383 366.395 397.967C366.395 397.399 366.251 396.953 365.964 396.631C365.677 396.303 365.267 396.139 364.733 396.139C364.159 396.139 363.705 396.338 363.371 396.737C363.043 397.129 362.879 397.648 362.879 398.292H360.33C360.33 397.513 360.515 396.801 360.884 396.156C361.259 395.512 361.786 395.008 362.466 394.645C363.146 394.276 363.916 394.091 364.777 394.091C366.096 394.091 367.118 394.407 367.845 395.04C368.577 395.673 368.943 396.567 368.943 397.721C368.943 398.354 368.779 398.998 368.451 399.655C368.123 400.311 367.561 401.075 366.764 401.948L363.854 405.016H369.356V407.064ZM370.886 396.728C370.886 395.943 371.141 395.307 371.65 394.821C372.16 394.328 372.828 394.082 373.654 394.082C374.492 394.082 375.166 394.325 375.676 394.812C376.186 395.292 376.44 395.946 376.44 396.772V397.405C376.44 398.196 376.186 398.831 375.676 399.312C375.166 399.792 374.498 400.032 373.672 400.032C372.84 400.032 372.166 399.792 371.65 399.312C371.141 398.825 370.886 398.172 370.886 397.352V396.728ZM372.573 397.405C372.573 397.756 372.673 398.04 372.872 398.257C373.077 398.468 373.344 398.573 373.672 398.573C374 398.573 374.261 398.465 374.454 398.248C374.647 398.031 374.744 397.741 374.744 397.378V396.728C374.744 396.376 374.647 396.092 374.454 395.875C374.261 395.658 373.994 395.55 373.654 395.55C373.332 395.55 373.071 395.658 372.872 395.875C372.673 396.086 372.573 396.382 372.573 396.763V397.405ZM377.003 403.926C377.003 403.135 377.261 402.499 377.776 402.019C378.292 401.532 378.96 401.289 379.78 401.289C380.612 401.289 381.283 401.53 381.793 402.01C382.309 402.485 382.566 403.141 382.566 403.979V404.612C382.566 405.397 382.314 406.032 381.811 406.519C381.307 406.999 380.636 407.24 379.798 407.24C378.954 407.24 378.277 406.996 377.768 406.51C377.258 406.024 377.003 405.379 377.003 404.576V403.926ZM378.69 404.612C378.69 404.934 378.796 405.209 379.007 405.438C379.218 405.666 379.481 405.781 379.798 405.781C380.513 405.781 380.87 405.385 380.87 404.594V403.926C380.87 403.574 380.771 403.293 380.571 403.082C380.372 402.865 380.108 402.757 379.78 402.757C379.452 402.757 379.188 402.865 378.989 403.082C378.79 403.293 378.69 403.583 378.69 403.952V404.612ZM374.173 406.106L372.934 405.438L379.183 395.436L380.422 396.104L374.173 406.106Z" fill="#009487"/>
<path d="M8.08008 167.216H4.88086V176.089H3.5752V167.216H0.382812V166.135H8.08008V167.216ZM10.7324 176.089H9.46777V168.692H10.7324V176.089ZM9.36523 166.73C9.36523 166.525 9.42676 166.352 9.5498 166.211C9.67741 166.069 9.86426 165.999 10.1104 165.999C10.3564 165.999 10.5433 166.069 10.6709 166.211C10.7985 166.352 10.8623 166.525 10.8623 166.73C10.8623 166.935 10.7985 167.106 10.6709 167.243C10.5433 167.38 10.3564 167.448 10.1104 167.448C9.86426 167.448 9.67741 167.38 9.5498 167.243C9.42676 167.106 9.36523 166.935 9.36523 166.73ZM13.9521 168.692L13.9863 169.512C14.5286 168.874 15.2601 168.555 16.1807 168.555C17.2152 168.555 17.9193 168.952 18.293 169.745C18.5391 169.389 18.8581 169.102 19.25 168.884C19.6465 168.665 20.1136 168.555 20.6514 168.555C22.2738 168.555 23.0986 169.414 23.126 171.133V176.089H21.8613V171.208C21.8613 170.679 21.7406 170.285 21.499 170.025C21.2575 169.761 20.8519 169.629 20.2822 169.629C19.8128 169.629 19.4232 169.77 19.1133 170.052C18.8034 170.33 18.6234 170.706 18.5732 171.18V176.089H17.3018V171.242C17.3018 170.166 16.7754 169.629 15.7227 169.629C14.8932 169.629 14.3258 169.982 14.0205 170.688V176.089H12.7559V168.692H13.9521ZM31.3018 172.472C31.3018 173.603 31.042 174.512 30.5225 175.2C30.0029 175.884 29.3057 176.225 28.4307 176.225C27.4964 176.225 26.7741 175.895 26.2637 175.234L26.2021 176.089H25.04V165.589H26.3047V169.506C26.8151 168.872 27.5192 168.555 28.417 168.555C29.3148 168.555 30.0189 168.895 30.5293 169.574C31.0443 170.253 31.3018 171.183 31.3018 172.363V172.472ZM30.0371 172.329C30.0371 171.468 29.8708 170.802 29.5381 170.333C29.2054 169.863 28.7269 169.629 28.1025 169.629C27.2686 169.629 26.6693 170.016 26.3047 170.791V173.99C26.6921 174.765 27.2959 175.152 28.1162 175.152C28.7223 175.152 29.194 174.917 29.5312 174.448C29.8685 173.979 30.0371 173.272 30.0371 172.329ZM35.9707 176.225C34.9681 176.225 34.1523 175.897 33.5234 175.241C32.8945 174.58 32.5801 173.698 32.5801 172.595V172.363C32.5801 171.629 32.7191 170.975 32.9971 170.401C33.2796 169.822 33.6715 169.371 34.1729 169.048C34.6787 168.719 35.2256 168.555 35.8135 168.555C36.7751 168.555 37.5225 168.872 38.0557 169.506C38.5889 170.139 38.8555 171.046 38.8555 172.226V172.753H33.8447C33.863 173.482 34.0749 174.072 34.4805 174.523C34.8906 174.97 35.4102 175.193 36.0391 175.193C36.4857 175.193 36.8639 175.102 37.1738 174.92C37.4837 174.737 37.7549 174.496 37.9873 174.195L38.7598 174.797C38.14 175.749 37.2103 176.225 35.9707 176.225ZM35.8135 169.594C35.3031 169.594 34.8747 169.781 34.5283 170.155C34.182 170.524 33.9678 171.044 33.8857 171.714H37.5908V171.618C37.5544 170.975 37.3812 170.479 37.0713 170.128C36.7614 169.772 36.3421 169.594 35.8135 169.594ZM43.9004 169.827C43.709 169.795 43.5016 169.779 43.2783 169.779C42.4489 169.779 41.8861 170.132 41.5898 170.839V176.089H40.3252V168.692H41.5557L41.5762 169.547C41.9909 168.886 42.5788 168.555 43.3398 168.555C43.5859 168.555 43.7728 168.587 43.9004 168.651V169.827Z" fill="#009487"/>
<path d="M60.7207 171.714C60.4564 172.028 60.1396 172.281 59.7705 172.472C59.4059 172.664 59.0049 172.76 58.5674 172.76C57.9932 172.76 57.4919 172.618 57.0635 172.336C56.6396 172.053 56.3115 171.657 56.0791 171.146C55.8467 170.631 55.7305 170.064 55.7305 169.444C55.7305 168.779 55.8558 168.179 56.1064 167.646C56.3617 167.113 56.7217 166.705 57.1865 166.423C57.6514 166.14 58.1937 165.999 58.8135 165.999C59.7979 165.999 60.5726 166.368 61.1377 167.106C61.7074 167.84 61.9922 168.843 61.9922 170.114V170.483C61.9922 172.42 61.6094 173.835 60.8438 174.728C60.0781 175.617 58.9229 176.073 57.3779 176.095H57.1318V175.029H57.3984C58.4421 175.011 59.2441 174.74 59.8047 174.216C60.3652 173.687 60.6706 172.853 60.7207 171.714ZM58.7725 171.714C59.1963 171.714 59.5859 171.584 59.9414 171.324C60.3014 171.064 60.5635 170.743 60.7275 170.36V169.854C60.7275 169.025 60.5475 168.35 60.1875 167.831C59.8275 167.311 59.3717 167.052 58.8203 167.052C58.2643 167.052 57.8177 167.266 57.4805 167.694C57.1432 168.118 56.9746 168.678 56.9746 169.376C56.9746 170.055 57.1364 170.615 57.46 171.057C57.7881 171.495 58.2256 171.714 58.7725 171.714ZM68.6982 166.129V167.202H68.4658C67.4814 167.22 66.6976 167.512 66.1143 168.077C65.5309 168.642 65.1937 169.437 65.1025 170.463C65.6266 169.861 66.3421 169.56 67.249 169.56C68.1149 169.56 68.8053 169.866 69.3203 170.476C69.8398 171.087 70.0996 171.875 70.0996 172.842C70.0996 173.867 69.8193 174.687 69.2588 175.302C68.7028 175.918 67.9554 176.225 67.0166 176.225C66.0641 176.225 65.2917 175.861 64.6992 175.132C64.1068 174.398 63.8105 173.455 63.8105 172.302V171.816C63.8105 169.984 64.2002 168.585 64.9795 167.619C65.7633 166.648 66.9277 166.151 68.4727 166.129H68.6982ZM67.0371 170.613C66.6042 170.613 66.2054 170.743 65.8408 171.003C65.4762 171.262 65.2233 171.588 65.082 171.98V172.445C65.082 173.265 65.2666 173.926 65.6357 174.427C66.0049 174.929 66.4652 175.179 67.0166 175.179C67.5863 175.179 68.0329 174.97 68.3564 174.551C68.6846 174.131 68.8486 173.582 68.8486 172.903C68.8486 172.219 68.6823 171.668 68.3496 171.249C68.0215 170.825 67.584 170.613 67.0371 170.613ZM71.6855 178.071L70.9678 177.579C71.3962 176.982 71.6195 176.367 71.6377 175.733V174.592H72.875V175.583C72.875 176.043 72.7611 176.503 72.5332 176.964C72.3099 177.424 72.0273 177.793 71.6855 178.071ZM80.8662 176.089H74.3447V175.179L77.79 171.351C78.3005 170.773 78.6514 170.303 78.8428 169.943C79.0387 169.579 79.1367 169.203 79.1367 168.815C79.1367 168.296 78.9795 167.87 78.665 167.537C78.3506 167.204 77.9313 167.038 77.4072 167.038C76.7783 167.038 76.2884 167.218 75.9375 167.578C75.5911 167.933 75.418 168.43 75.418 169.068H74.1533C74.1533 168.152 74.4473 167.412 75.0352 166.846C75.6276 166.281 76.4183 165.999 77.4072 165.999C78.3324 165.999 79.0638 166.243 79.6016 166.73C80.1393 167.213 80.4082 167.858 80.4082 168.665C80.4082 169.645 79.7839 170.811 78.5352 172.165L75.8691 175.056H80.8662V176.089ZM84.4004 172.664L83.6074 173.491V176.089H82.3428V165.589H83.6074V171.939L84.2842 171.126L86.5879 168.692H88.126L85.248 171.782L88.4609 176.089H86.9775L84.4004 172.664Z" fill="#009487"/>
<path d="M3.50195 196.501H4.85547C5.5 196.501 5.97754 196.34 6.28809 196.017C6.59863 195.695 6.75391 195.267 6.75391 194.734C6.75391 194.219 6.59863 193.817 6.28809 193.53C5.9834 193.243 5.56152 193.099 5.02246 193.099C4.53613 193.099 4.12891 193.234 3.80078 193.504C3.47266 193.767 3.30859 194.113 3.30859 194.541H0.768555C0.768555 193.873 0.947266 193.275 1.30469 192.748C1.66797 192.215 2.17188 191.799 2.81641 191.5C3.4668 191.201 4.18164 191.052 4.96094 191.052C6.31445 191.052 7.375 191.377 8.14258 192.027C8.91016 192.672 9.29395 193.562 9.29395 194.699C9.29395 195.285 9.11523 195.824 8.75781 196.316C8.40039 196.808 7.93164 197.186 7.35156 197.45C8.07227 197.708 8.6084 198.094 8.95996 198.61C9.31738 199.126 9.49609 199.735 9.49609 200.438C9.49609 201.575 9.08008 202.486 8.24805 203.172C7.42188 203.857 6.32617 204.2 4.96094 204.2C3.68359 204.2 2.6377 203.863 1.82324 203.189C1.01465 202.515 0.610352 201.625 0.610352 200.517H3.15039C3.15039 200.998 3.3291 201.39 3.68652 201.695C4.0498 202 4.49512 202.152 5.02246 202.152C5.62598 202.152 6.09766 201.994 6.4375 201.677C6.7832 201.355 6.95605 200.93 6.95605 200.403C6.95605 199.126 6.25293 198.487 4.84668 198.487H3.50195V196.501ZM11.2188 193.688C11.2188 192.903 11.4736 192.267 11.9834 191.781C12.4932 191.289 13.1611 191.043 13.9873 191.043C14.8252 191.043 15.499 191.286 16.0088 191.772C16.5186 192.253 16.7734 192.906 16.7734 193.732V194.365C16.7734 195.156 16.5186 195.792 16.0088 196.272C15.499 196.753 14.8311 196.993 14.0049 196.993C13.1729 196.993 12.499 196.753 11.9834 196.272C11.4736 195.786 11.2188 195.133 11.2188 194.312V193.688ZM12.9062 194.365C12.9062 194.717 13.0059 195.001 13.2051 195.218C13.4102 195.428 13.6768 195.534 14.0049 195.534C14.333 195.534 14.5938 195.426 14.7871 195.209C14.9805 194.992 15.0771 194.702 15.0771 194.339V193.688C15.0771 193.337 14.9805 193.052 14.7871 192.836C14.5938 192.619 14.3271 192.51 13.9873 192.51C13.665 192.51 13.4043 192.619 13.2051 192.836C13.0059 193.047 12.9062 193.343 12.9062 193.723V194.365ZM17.3359 200.886C17.3359 200.095 17.5938 199.46 18.1094 198.979C18.625 198.493 19.293 198.25 20.1133 198.25C20.9453 198.25 21.6162 198.49 22.126 198.97C22.6416 199.445 22.8994 200.101 22.8994 200.939V201.572C22.8994 202.357 22.6475 202.993 22.1436 203.479C21.6396 203.96 20.9688 204.2 20.1309 204.2C19.2871 204.2 18.6104 203.957 18.1006 203.47C17.5908 202.984 17.3359 202.34 17.3359 201.537V200.886ZM19.0234 201.572C19.0234 201.894 19.1289 202.17 19.3398 202.398C19.5508 202.627 19.8145 202.741 20.1309 202.741C20.8457 202.741 21.2031 202.345 21.2031 201.554V200.886C21.2031 200.535 21.1035 200.254 20.9043 200.043C20.7051 199.826 20.4414 199.718 20.1133 199.718C19.7852 199.718 19.5215 199.826 19.3223 200.043C19.123 200.254 19.0234 200.544 19.0234 200.913V201.572ZM14.5059 203.066L13.2666 202.398L19.5156 192.396L20.7549 193.064L14.5059 203.066Z" fill="#009487"/>
<path d="M480.297 113.017C480.174 114.07 479.785 114.883 479.129 115.457C478.477 116.027 477.609 116.312 476.524 116.312C475.348 116.312 474.405 115.89 473.694 115.047C472.988 114.204 472.634 113.076 472.634 111.663V110.706C472.634 109.781 472.798 108.968 473.127 108.266C473.459 107.564 473.929 107.026 474.535 106.653C475.141 106.274 475.843 106.085 476.64 106.085C477.698 106.085 478.545 106.381 479.183 106.974C479.821 107.562 480.193 108.378 480.297 109.421H478.978C478.864 108.628 478.616 108.054 478.233 107.698C477.855 107.343 477.324 107.165 476.64 107.165C475.802 107.165 475.143 107.475 474.665 108.095C474.191 108.715 473.954 109.597 473.954 110.74V111.704C473.954 112.784 474.179 113.643 474.63 114.281C475.082 114.92 475.713 115.239 476.524 115.239C477.253 115.239 477.811 115.074 478.199 114.746C478.591 114.414 478.851 113.837 478.978 113.017H480.297ZM481.562 112.408C481.562 111.684 481.703 111.032 481.986 110.453C482.273 109.875 482.67 109.428 483.175 109.114C483.686 108.799 484.267 108.642 484.919 108.642C485.926 108.642 486.739 108.99 487.359 109.688C487.983 110.385 488.296 111.312 488.296 112.47V112.559C488.296 113.279 488.157 113.926 487.879 114.5C487.605 115.07 487.211 115.514 486.696 115.833C486.186 116.152 485.598 116.312 484.932 116.312C483.93 116.312 483.116 115.963 482.492 115.266C481.872 114.569 481.562 113.646 481.562 112.497V112.408ZM482.834 112.559C482.834 113.379 483.023 114.038 483.401 114.534C483.784 115.031 484.294 115.28 484.932 115.28C485.575 115.28 486.085 115.029 486.464 114.528C486.842 114.022 487.031 113.315 487.031 112.408C487.031 111.597 486.837 110.941 486.45 110.44C486.067 109.934 485.557 109.681 484.919 109.681C484.294 109.681 483.791 109.929 483.408 110.426C483.025 110.923 482.834 111.634 482.834 112.559ZM494.448 116.175C494.375 116.029 494.316 115.769 494.27 115.396C493.682 116.006 492.98 116.312 492.165 116.312C491.436 116.312 490.836 116.107 490.367 115.697C489.902 115.282 489.67 114.758 489.67 114.124C489.67 113.354 489.961 112.757 490.545 112.333C491.132 111.905 491.957 111.691 493.019 111.691H494.25V111.11C494.25 110.668 494.117 110.317 493.853 110.057C493.589 109.793 493.199 109.66 492.684 109.66C492.233 109.66 491.855 109.774 491.549 110.002C491.244 110.23 491.091 110.506 491.091 110.829H489.82C489.82 110.46 489.95 110.105 490.21 109.763C490.474 109.417 490.829 109.143 491.276 108.943C491.727 108.742 492.222 108.642 492.759 108.642C493.612 108.642 494.279 108.856 494.762 109.284C495.245 109.708 495.496 110.294 495.514 111.041V114.446C495.514 115.125 495.601 115.665 495.774 116.066V116.175H494.448ZM492.349 115.211C492.746 115.211 493.122 115.109 493.477 114.904C493.833 114.698 494.09 114.432 494.25 114.104V112.586H493.258C491.709 112.586 490.934 113.04 490.934 113.947C490.934 114.343 491.066 114.653 491.331 114.876C491.595 115.1 491.935 115.211 492.349 115.211ZM498.871 116.175H497.606V105.675H498.871V116.175ZM505.208 114.213C505.208 113.871 505.078 113.607 504.818 113.42C504.563 113.229 504.114 113.065 503.471 112.928C502.833 112.791 502.325 112.627 501.947 112.436C501.573 112.244 501.295 112.017 501.113 111.752C500.935 111.488 500.846 111.173 500.846 110.809C500.846 110.203 501.102 109.69 501.612 109.271C502.127 108.851 502.783 108.642 503.581 108.642C504.419 108.642 505.098 108.858 505.618 109.291C506.142 109.724 506.404 110.278 506.404 110.952H505.132C505.132 110.606 504.984 110.308 504.688 110.057C504.396 109.806 504.027 109.681 503.581 109.681C503.12 109.681 502.76 109.781 502.501 109.982C502.241 110.182 502.111 110.444 502.111 110.768C502.111 111.073 502.232 111.303 502.473 111.458C502.715 111.613 503.15 111.761 503.779 111.903C504.412 112.044 504.925 112.212 505.317 112.408C505.709 112.604 505.998 112.841 506.185 113.119C506.377 113.393 506.472 113.728 506.472 114.124C506.472 114.785 506.208 115.316 505.679 115.717C505.151 116.114 504.465 116.312 503.622 116.312C503.029 116.312 502.505 116.207 502.049 115.997C501.594 115.788 501.236 115.496 500.976 115.122C500.721 114.744 500.593 114.336 500.593 113.899H501.858C501.881 114.323 502.049 114.66 502.364 114.91C502.683 115.156 503.102 115.28 503.622 115.28C504.1 115.28 504.483 115.184 504.77 114.992C505.062 114.796 505.208 114.537 505.208 114.213ZM519.091 116.175H517.82V107.746L515.27 108.683V107.534L518.893 106.174H519.091V116.175ZM526.953 116.175H525.681V107.746L523.131 108.683V107.534L526.755 106.174H526.953V116.175ZM537.084 106.933L532.962 116.175H531.635L535.744 107.261H530.357V106.222H537.084V106.933ZM538.608 118.157L537.89 117.665C538.319 117.068 538.542 116.453 538.56 115.82V114.678H539.797V115.669C539.797 116.129 539.684 116.59 539.456 117.05C539.232 117.51 538.95 117.879 538.608 118.157ZM546.114 111.8C545.85 112.115 545.533 112.367 545.164 112.559C544.799 112.75 544.398 112.846 543.961 112.846C543.386 112.846 542.885 112.705 542.457 112.422C542.033 112.14 541.705 111.743 541.472 111.233C541.24 110.718 541.124 110.15 541.124 109.531C541.124 108.865 541.249 108.266 541.5 107.733C541.755 107.199 542.115 106.792 542.58 106.509C543.045 106.226 543.587 106.085 544.207 106.085C545.191 106.085 545.966 106.454 546.531 107.193C547.101 107.926 547.385 108.929 547.385 110.2V110.57C547.385 112.506 547.003 113.921 546.237 114.815C545.471 115.703 544.316 116.159 542.771 116.182H542.525V115.115H542.792C543.835 115.097 544.637 114.826 545.198 114.302C545.758 113.773 546.064 112.939 546.114 111.8ZM544.166 111.8C544.589 111.8 544.979 111.67 545.335 111.41C545.695 111.151 545.957 110.829 546.121 110.447V109.941C546.121 109.111 545.941 108.437 545.581 107.917C545.221 107.398 544.765 107.138 544.214 107.138C543.658 107.138 543.211 107.352 542.874 107.781C542.536 108.204 542.368 108.765 542.368 109.462C542.368 110.141 542.53 110.702 542.853 111.144C543.181 111.581 543.619 111.8 544.166 111.8ZM551.323 112.75L550.53 113.577V116.175H549.265V105.675H550.53V112.026L551.207 111.212L553.51 108.779H555.048L552.171 111.868L555.383 116.175H553.9L551.323 112.75Z" fill="#009487"/>
<path d="M540.729 139.292H542.18V141.34H540.729V144.108H538.189V141.34H532.942L532.828 139.74L538.163 131.312H540.729V139.292ZM535.359 139.292H538.189V134.774L538.022 135.064L535.359 139.292ZM543.516 133.772C543.516 132.987 543.771 132.352 544.28 131.865C544.79 131.373 545.458 131.127 546.284 131.127C547.122 131.127 547.796 131.37 548.306 131.856C548.815 132.337 549.07 132.99 549.07 133.816V134.449C549.07 135.24 548.815 135.876 548.306 136.356C547.796 136.837 547.128 137.077 546.302 137.077C545.47 137.077 544.796 136.837 544.28 136.356C543.771 135.87 543.516 135.217 543.516 134.396V133.772ZM545.203 134.449C545.203 134.801 545.303 135.085 545.502 135.302C545.707 135.513 545.974 135.618 546.302 135.618C546.63 135.618 546.891 135.51 547.084 135.293C547.277 135.076 547.374 134.786 547.374 134.423V133.772C547.374 133.421 547.277 133.137 547.084 132.92C546.891 132.703 546.624 132.595 546.284 132.595C545.962 132.595 545.701 132.703 545.502 132.92C545.303 133.131 545.203 133.427 545.203 133.808V134.449ZM549.633 140.971C549.633 140.18 549.891 139.544 550.406 139.063C550.922 138.577 551.59 138.334 552.41 138.334C553.242 138.334 553.913 138.574 554.423 139.055C554.938 139.529 555.196 140.186 555.196 141.023V141.656C555.196 142.441 554.944 143.077 554.44 143.563C553.937 144.044 553.266 144.284 552.428 144.284C551.584 144.284 550.907 144.041 550.397 143.555C549.888 143.068 549.633 142.424 549.633 141.621V140.971ZM551.32 141.656C551.32 141.979 551.426 142.254 551.637 142.482C551.848 142.711 552.111 142.825 552.428 142.825C553.143 142.825 553.5 142.43 553.5 141.639V140.971C553.5 140.619 553.4 140.338 553.201 140.127C553.002 139.91 552.738 139.802 552.41 139.802C552.082 139.802 551.818 139.91 551.619 140.127C551.42 140.338 551.32 140.628 551.32 140.997V141.656ZM546.803 143.15L545.563 142.482L551.812 132.48L553.052 133.148L546.803 143.15Z" fill="#009487"/>
<path d="M453.637 276.683H449.46V281.079H448.148V271.126H454.314V272.206H449.46V275.61H453.637V276.683ZM458.607 281.216C457.604 281.216 456.788 280.887 456.159 280.231C455.53 279.57 455.216 278.689 455.216 277.586V277.353C455.216 276.62 455.355 275.966 455.633 275.391C455.916 274.813 456.308 274.361 456.809 274.038C457.315 273.71 457.862 273.546 458.449 273.546C459.411 273.546 460.158 273.862 460.692 274.496C461.225 275.129 461.491 276.036 461.491 277.217V277.743H456.481C456.499 278.472 456.711 279.062 457.116 279.513C457.527 279.96 458.046 280.183 458.675 280.183C459.122 280.183 459.5 280.092 459.81 279.91C460.12 279.728 460.391 279.486 460.623 279.185L461.396 279.787C460.776 280.739 459.846 281.216 458.607 281.216ZM458.449 274.585C457.939 274.585 457.511 274.772 457.164 275.145C456.818 275.514 456.604 276.034 456.522 276.704H460.227V276.608C460.19 275.966 460.017 275.469 459.707 275.118C459.397 274.762 458.978 274.585 458.449 274.585ZM466.536 274.817C466.345 274.785 466.138 274.769 465.914 274.769C465.085 274.769 464.522 275.122 464.226 275.829V281.079H462.961V273.682H464.192L464.212 274.537C464.627 273.876 465.215 273.546 465.976 273.546C466.222 273.546 466.409 273.578 466.536 273.641V274.817ZM469.763 271.891V273.682H471.144V274.66H469.763V279.247C469.763 279.543 469.824 279.766 469.947 279.917C470.071 280.063 470.28 280.135 470.576 280.135C470.722 280.135 470.923 280.108 471.178 280.053V281.079C470.845 281.17 470.522 281.216 470.207 281.216C469.642 281.216 469.216 281.045 468.929 280.703C468.642 280.361 468.498 279.876 468.498 279.247V274.66H467.152V273.682H468.498V271.891H469.763ZM474.001 281.079H472.737V273.682H474.001V281.079ZM472.634 271.72C472.634 271.515 472.696 271.342 472.819 271.201C472.946 271.06 473.133 270.989 473.379 270.989C473.625 270.989 473.812 271.06 473.94 271.201C474.067 271.342 474.131 271.515 474.131 271.72C474.131 271.926 474.067 272.096 473.94 272.233C473.812 272.37 473.625 272.438 473.379 272.438C473.133 272.438 472.946 272.37 472.819 272.233C472.696 272.096 472.634 271.926 472.634 271.72ZM477.405 281.079H476.141V270.579H477.405V281.079ZM480.81 281.079H479.545V273.682H480.81V281.079ZM479.443 271.72C479.443 271.515 479.504 271.342 479.627 271.201C479.755 271.06 479.942 270.989 480.188 270.989C480.434 270.989 480.621 271.06 480.748 271.201C480.876 271.342 480.94 271.515 480.94 271.72C480.94 271.926 480.876 272.096 480.748 272.233C480.621 272.37 480.434 272.438 480.188 272.438C479.942 272.438 479.755 272.37 479.627 272.233C479.504 272.096 479.443 271.926 479.443 271.72ZM484.03 280.047H488.357V281.079H482.485V280.149L486.566 274.728H482.546V273.682H488.152V274.578L484.03 280.047ZM492.745 281.216C491.743 281.216 490.927 280.887 490.298 280.231C489.669 279.57 489.355 278.689 489.355 277.586V277.353C489.355 276.62 489.494 275.966 489.772 275.391C490.054 274.813 490.446 274.361 490.947 274.038C491.453 273.71 492 273.546 492.588 273.546C493.55 273.546 494.297 273.862 494.83 274.496C495.363 275.129 495.63 276.036 495.63 277.217V277.743H490.619C490.638 278.472 490.849 279.062 491.255 279.513C491.665 279.96 492.185 280.183 492.814 280.183C493.26 280.183 493.639 280.092 493.948 279.91C494.258 279.728 494.53 279.486 494.762 279.185L495.534 279.787C494.915 280.739 493.985 281.216 492.745 281.216ZM492.588 274.585C492.078 274.585 491.649 274.772 491.303 275.145C490.957 275.514 490.742 276.034 490.66 276.704H494.365V276.608C494.329 275.966 494.156 275.469 493.846 275.118C493.536 274.762 493.117 274.585 492.588 274.585ZM500.675 274.817C500.484 274.785 500.276 274.769 500.053 274.769C499.224 274.769 498.661 275.122 498.364 275.829V281.079H497.1V273.682H498.33L498.351 274.537C498.766 273.876 499.353 273.546 500.114 273.546C500.361 273.546 500.547 273.578 500.675 273.641V274.817ZM506.151 279.117C506.151 278.775 506.021 278.511 505.761 278.324C505.506 278.133 505.057 277.969 504.414 277.832C503.776 277.695 503.268 277.531 502.89 277.34C502.516 277.148 502.238 276.92 502.056 276.656C501.878 276.392 501.789 276.077 501.789 275.713C501.789 275.107 502.044 274.594 502.555 274.175C503.07 273.755 503.726 273.546 504.524 273.546C505.362 273.546 506.041 273.762 506.561 274.195C507.085 274.628 507.347 275.182 507.347 275.856H506.075C506.075 275.51 505.927 275.211 505.631 274.961C505.339 274.71 504.97 274.585 504.524 274.585C504.063 274.585 503.703 274.685 503.444 274.885C503.184 275.086 503.054 275.348 503.054 275.672C503.054 275.977 503.175 276.207 503.416 276.362C503.658 276.517 504.093 276.665 504.722 276.806C505.355 276.948 505.868 277.116 506.26 277.312C506.652 277.508 506.941 277.745 507.128 278.023C507.32 278.297 507.415 278.632 507.415 279.028C507.415 279.689 507.151 280.22 506.622 280.621C506.094 281.017 505.408 281.216 504.565 281.216C503.972 281.216 503.448 281.111 502.992 280.901C502.537 280.691 502.179 280.4 501.919 280.026C501.664 279.648 501.536 279.24 501.536 278.802H502.801C502.824 279.226 502.992 279.564 503.307 279.814C503.626 280.06 504.045 280.183 504.565 280.183C505.043 280.183 505.426 280.088 505.713 279.896C506.005 279.7 506.151 279.441 506.151 279.117ZM521.217 277.736H522.598V278.768H521.217V281.079H519.946V278.768H515.413V278.023L519.87 271.126H521.217V277.736ZM516.849 277.736H519.946V272.855L519.795 273.129L516.849 277.736ZM529.776 273.723C529.776 274.22 529.643 274.662 529.379 275.05C529.119 275.437 528.766 275.74 528.32 275.959C528.839 276.182 529.249 276.508 529.55 276.936C529.855 277.365 530.008 277.85 530.008 278.392C530.008 279.254 529.716 279.94 529.133 280.45C528.554 280.96 527.791 281.216 526.843 281.216C525.886 281.216 525.118 280.96 524.539 280.45C523.965 279.935 523.678 279.249 523.678 278.392C523.678 277.855 523.824 277.369 524.115 276.936C524.412 276.503 524.82 276.175 525.339 275.952C524.897 275.733 524.548 275.43 524.293 275.043C524.038 274.655 523.91 274.216 523.91 273.723C523.91 272.885 524.179 272.219 524.717 271.727C525.255 271.235 525.963 270.989 526.843 270.989C527.718 270.989 528.424 271.235 528.962 271.727C529.504 272.219 529.776 272.885 529.776 273.723ZM528.743 278.365C528.743 277.809 528.566 277.356 528.21 277.005C527.859 276.654 527.399 276.478 526.829 276.478C526.26 276.478 525.802 276.651 525.455 276.998C525.113 277.344 524.943 277.8 524.943 278.365C524.943 278.93 525.109 279.374 525.442 279.698C525.779 280.022 526.246 280.183 526.843 280.183C527.435 280.183 527.9 280.022 528.238 279.698C528.575 279.37 528.743 278.926 528.743 278.365ZM526.843 272.028C526.346 272.028 525.943 272.183 525.633 272.493C525.328 272.798 525.175 273.215 525.175 273.744C525.175 274.25 525.325 274.66 525.626 274.974C525.932 275.284 526.337 275.439 526.843 275.439C527.349 275.439 527.752 275.284 528.053 274.974C528.358 274.66 528.511 274.25 528.511 273.744C528.511 273.238 528.354 272.826 528.039 272.507C527.725 272.188 527.326 272.028 526.843 272.028ZM537.637 273.723C537.637 274.22 537.505 274.662 537.24 275.05C536.981 275.437 536.627 275.74 536.181 275.959C536.7 276.182 537.111 276.508 537.411 276.936C537.717 277.365 537.869 277.85 537.869 278.392C537.869 279.254 537.578 279.94 536.994 280.45C536.416 280.96 535.652 281.216 534.704 281.216C533.747 281.216 532.979 280.96 532.401 280.45C531.826 279.935 531.539 279.249 531.539 278.392C531.539 277.855 531.685 277.369 531.977 276.936C532.273 276.503 532.681 276.175 533.2 275.952C532.758 275.733 532.41 275.43 532.155 275.043C531.899 274.655 531.772 274.216 531.772 273.723C531.772 272.885 532.041 272.219 532.578 271.727C533.116 271.235 533.825 270.989 534.704 270.989C535.579 270.989 536.286 271.235 536.823 271.727C537.366 272.219 537.637 272.885 537.637 273.723ZM536.605 278.365C536.605 277.809 536.427 277.356 536.072 277.005C535.721 276.654 535.26 276.478 534.691 276.478C534.121 276.478 533.663 276.651 533.317 276.998C532.975 277.344 532.804 277.8 532.804 278.365C532.804 278.93 532.97 279.374 533.303 279.698C533.64 280.022 534.107 280.183 534.704 280.183C535.297 280.183 535.762 280.022 536.099 279.698C536.436 279.37 536.605 278.926 536.605 278.365ZM534.704 272.028C534.208 272.028 533.804 272.183 533.494 272.493C533.189 272.798 533.036 273.215 533.036 273.744C533.036 274.25 533.187 274.66 533.488 274.974C533.793 275.284 534.198 275.439 534.704 275.439C535.21 275.439 535.613 275.284 535.914 274.974C536.22 274.66 536.372 274.25 536.372 273.744C536.372 273.238 536.215 272.826 535.901 272.507C535.586 272.188 535.187 272.028 534.704 272.028ZM539.551 283.061L538.833 282.569C539.262 281.972 539.485 281.357 539.503 280.723V279.582H540.74V280.573C540.74 281.033 540.627 281.494 540.399 281.954C540.175 282.414 539.893 282.783 539.551 283.061ZM542.791 276.089L543.297 271.126H548.397V272.295H544.37L544.07 275.009C544.557 274.721 545.111 274.578 545.731 274.578C546.638 274.578 547.358 274.879 547.891 275.48C548.424 276.077 548.691 276.886 548.691 277.907C548.691 278.932 548.413 279.741 547.857 280.334C547.305 280.922 546.533 281.216 545.539 281.216C544.66 281.216 543.942 280.972 543.386 280.484C542.83 279.997 542.513 279.322 542.436 278.461H543.632C543.71 279.03 543.912 279.461 544.24 279.753C544.569 280.04 545.002 280.183 545.539 280.183C546.127 280.183 546.587 279.983 546.92 279.582C547.257 279.181 547.426 278.627 547.426 277.921C547.426 277.255 547.244 276.722 546.879 276.321C546.519 275.915 546.038 275.713 545.437 275.713C544.885 275.713 544.452 275.833 544.138 276.075L543.803 276.348L542.791 276.089ZM552.266 277.654L551.473 278.481V281.079H550.208V270.579H551.473V276.929L552.15 276.116L554.453 273.682H555.991L553.113 276.772L556.326 281.079H554.843L552.266 277.654Z" fill="#009487"/>
<path d="M531.696 309.017H529.156V299.226L526.124 300.166V298.101L531.424 296.202H531.696V309.017ZM544.563 297.644L539.615 309.017H536.935L541.892 298.276H535.528V296.22H544.563V297.644ZM546.163 298.681C546.163 297.896 546.418 297.26 546.928 296.773C547.438 296.281 548.105 296.035 548.932 296.035C549.77 296.035 550.443 296.278 550.953 296.765C551.463 297.245 551.718 297.898 551.718 298.725V299.357C551.718 300.148 551.463 300.784 550.953 301.265C550.443 301.745 549.775 301.985 548.949 301.985C548.117 301.985 547.443 301.745 546.928 301.265C546.418 300.778 546.163 300.125 546.163 299.305V298.681ZM547.851 299.357C547.851 299.709 547.95 299.993 548.149 300.21C548.354 300.421 548.621 300.526 548.949 300.526C549.277 300.526 549.538 300.418 549.731 300.201C549.925 299.984 550.021 299.694 550.021 299.331V298.681C550.021 298.329 549.925 298.045 549.731 297.828C549.538 297.611 549.271 297.503 548.932 297.503C548.609 297.503 548.349 297.611 548.149 297.828C547.95 298.039 547.851 298.335 547.851 298.716V299.357ZM552.28 305.879C552.28 305.088 552.538 304.452 553.054 303.972C553.569 303.485 554.237 303.242 555.058 303.242C555.89 303.242 556.561 303.482 557.07 303.963C557.586 304.438 557.844 305.094 557.844 305.932V306.564C557.844 307.35 557.592 307.985 557.088 308.472C556.584 308.952 555.913 309.192 555.075 309.192C554.231 309.192 553.555 308.949 553.045 308.463C552.535 307.977 552.28 307.332 552.28 306.529V305.879ZM553.968 306.564C553.968 306.887 554.073 307.162 554.284 307.391C554.495 307.619 554.759 307.733 555.075 307.733C555.79 307.733 556.147 307.338 556.147 306.547V305.879C556.147 305.527 556.048 305.246 555.849 305.035C555.649 304.818 555.386 304.71 555.058 304.71C554.729 304.71 554.466 304.818 554.267 305.035C554.067 305.246 553.968 305.536 553.968 305.905V306.564ZM549.45 308.059L548.211 307.391L554.46 297.389L555.699 298.057L549.45 308.059Z" fill="#009487"/>
<path d="M20.0508 261.289C20.0508 262.264 19.8867 263.117 19.5586 263.846C19.2305 264.57 18.7656 265.124 18.1641 265.507C17.5625 265.89 16.8607 266.081 16.0586 266.081C15.2747 266.081 14.5798 265.89 13.9736 265.507C13.3675 265.119 12.8958 264.57 12.5586 263.859C12.2259 263.144 12.055 262.317 12.0459 261.378V260.66C12.0459 259.703 12.2122 258.858 12.5449 258.124C12.8776 257.39 13.347 256.83 13.9531 256.442C14.5638 256.05 15.2611 255.854 16.0449 255.854C16.8424 255.854 17.5443 256.048 18.1504 256.436C18.7611 256.818 19.2305 257.377 19.5586 258.11C19.8867 258.84 20.0508 259.689 20.0508 260.66V261.289ZM18.7451 260.646C18.7451 259.466 18.5081 258.562 18.0342 257.933C17.5602 257.299 16.8971 256.982 16.0449 256.982C15.2155 256.982 14.5615 257.299 14.083 257.933C13.609 258.562 13.3652 259.437 13.3516 260.558V261.289C13.3516 262.433 13.5908 263.333 14.0693 263.989C14.5524 264.641 15.2155 264.967 16.0586 264.967C16.9062 264.967 17.5625 264.659 18.0273 264.044C18.4922 263.424 18.7314 262.538 18.7451 261.385V260.646ZM25.3965 259.683C25.2051 259.651 24.9977 259.635 24.7744 259.635C23.945 259.635 23.3822 259.988 23.0859 260.694V265.944H21.8213V258.548H23.0518L23.0723 259.402C23.487 258.742 24.0749 258.411 24.8359 258.411C25.082 258.411 25.2689 258.443 25.3965 258.507V259.683ZM29.498 266.081C28.4954 266.081 27.6797 265.753 27.0508 265.097C26.4219 264.436 26.1074 263.554 26.1074 262.451V262.219C26.1074 261.485 26.2464 260.831 26.5244 260.257C26.807 259.678 27.1989 259.227 27.7002 258.903C28.2061 258.575 28.7529 258.411 29.3408 258.411C30.3024 258.411 31.0498 258.728 31.583 259.361C32.1162 259.995 32.3828 260.902 32.3828 262.082V262.608H27.3721C27.3903 263.338 27.6022 263.928 28.0078 264.379C28.418 264.826 28.9375 265.049 29.5664 265.049C30.013 265.049 30.3913 264.958 30.7012 264.775C31.0111 264.593 31.2822 264.352 31.5146 264.051L32.2871 264.652C31.6673 265.605 30.7376 266.081 29.498 266.081ZM29.3408 259.45C28.8304 259.45 28.402 259.637 28.0557 260.011C27.7093 260.38 27.4951 260.899 27.4131 261.569H31.1182V261.474C31.0817 260.831 30.9085 260.334 30.5986 259.983C30.2887 259.628 29.8695 259.45 29.3408 259.45ZM43.2314 258.589C43.2314 259.086 43.0993 259.528 42.835 259.915C42.5752 260.302 42.222 260.605 41.7754 260.824C42.2949 261.048 42.7051 261.373 43.0059 261.802C43.3112 262.23 43.4639 262.715 43.4639 263.258C43.4639 264.119 43.1722 264.805 42.5889 265.315C42.0101 265.826 41.2467 266.081 40.2988 266.081C39.3418 266.081 38.5739 265.826 37.9951 265.315C37.4209 264.8 37.1338 264.115 37.1338 263.258C37.1338 262.72 37.2796 262.235 37.5713 261.802C37.8675 261.369 38.2754 261.041 38.7949 260.817C38.3529 260.599 38.0042 260.296 37.749 259.908C37.4938 259.521 37.3662 259.081 37.3662 258.589C37.3662 257.75 37.6351 257.085 38.1729 256.593C38.7106 256.101 39.4193 255.854 40.2988 255.854C41.1738 255.854 41.8802 256.101 42.418 256.593C42.9603 257.085 43.2314 257.75 43.2314 258.589ZM42.1992 263.23C42.1992 262.674 42.0215 262.221 41.666 261.87C41.3151 261.519 40.8548 261.344 40.2852 261.344C39.7155 261.344 39.2575 261.517 38.9111 261.863C38.5693 262.21 38.3984 262.665 38.3984 263.23C38.3984 263.796 38.5648 264.24 38.8975 264.563C39.2347 264.887 39.7018 265.049 40.2988 265.049C40.8913 265.049 41.3561 264.887 41.6934 264.563C42.0306 264.235 42.1992 263.791 42.1992 263.23ZM40.2988 256.894C39.8021 256.894 39.3988 257.049 39.0889 257.358C38.7835 257.664 38.6309 258.081 38.6309 258.609C38.6309 259.115 38.7812 259.525 39.082 259.84C39.3874 260.15 39.793 260.305 40.2988 260.305C40.8047 260.305 41.208 260.15 41.5088 259.84C41.8141 259.525 41.9668 259.115 41.9668 258.609C41.9668 258.104 41.8096 257.691 41.4951 257.372C41.1807 257.053 40.7819 256.894 40.2988 256.894ZM51.2979 261.699C51.2979 263.18 51.0449 264.281 50.5391 265.001C50.0332 265.721 49.2425 266.081 48.167 266.081C47.1051 266.081 46.319 265.73 45.8086 265.028C45.2982 264.322 45.0339 263.269 45.0156 261.87V260.182C45.0156 258.719 45.2686 257.632 45.7744 256.921C46.2803 256.21 47.0732 255.854 48.1533 255.854C49.2243 255.854 50.0127 256.199 50.5186 256.887C51.0244 257.57 51.2842 258.628 51.2979 260.059V261.699ZM50.0332 259.97C50.0332 258.899 49.8828 258.119 49.582 257.632C49.2812 257.14 48.805 256.894 48.1533 256.894C47.5062 256.894 47.0345 257.137 46.7383 257.625C46.4421 258.113 46.2894 258.862 46.2803 259.874V261.897C46.2803 262.973 46.4352 263.768 46.7451 264.283C47.0596 264.794 47.5335 265.049 48.167 265.049C48.7913 265.049 49.2539 264.807 49.5547 264.324C49.86 263.841 50.0195 263.08 50.0332 262.041V259.97ZM53.0068 267.927L52.2891 267.435C52.7174 266.838 52.9408 266.222 52.959 265.589V264.447H54.1963V265.438C54.1963 265.899 54.0824 266.359 53.8545 266.819C53.6312 267.28 53.3486 267.649 53.0068 267.927ZM57.5049 260.353H58.4551C59.0521 260.343 59.5215 260.186 59.8633 259.881C60.2051 259.576 60.376 259.163 60.376 258.644C60.376 257.477 59.7949 256.894 58.6328 256.894C58.0859 256.894 57.6484 257.051 57.3203 257.365C56.9967 257.675 56.835 258.088 56.835 258.603H55.5703C55.5703 257.814 55.8574 257.16 56.4316 256.641C57.0104 256.117 57.7441 255.854 58.6328 255.854C59.5716 255.854 60.3076 256.103 60.8408 256.6C61.374 257.096 61.6406 257.787 61.6406 258.671C61.6406 259.104 61.4993 259.523 61.2168 259.929C60.9388 260.334 60.5583 260.637 60.0752 260.838C60.6221 261.011 61.0436 261.298 61.3398 261.699C61.6406 262.1 61.791 262.59 61.791 263.169C61.791 264.062 61.4993 264.771 60.916 265.295C60.3327 265.819 59.5739 266.081 58.6396 266.081C57.7054 266.081 56.9443 265.828 56.3564 265.322C55.7731 264.816 55.4814 264.149 55.4814 263.319H56.7529C56.7529 263.843 56.9238 264.263 57.2656 264.577C57.6074 264.892 58.0654 265.049 58.6396 265.049C59.2503 265.049 59.7174 264.889 60.041 264.57C60.3646 264.251 60.5264 263.793 60.5264 263.196C60.5264 262.618 60.3486 262.173 59.9932 261.863C59.6377 261.553 59.125 261.394 58.4551 261.385H57.5049V260.353ZM65.7217 262.52L64.9287 263.347V265.944H63.6641V255.444H64.9287V261.795L65.6055 260.981L67.9092 258.548H69.4473L66.5693 261.638L69.7822 265.944H68.2988L65.7217 262.52Z" fill="#009487"/>
<path d="M14.6934 286.356H16.0469C16.6914 286.356 17.1689 286.195 17.4795 285.873C17.79 285.55 17.9453 285.123 17.9453 284.589C17.9453 284.074 17.79 283.672 17.4795 283.385C17.1748 283.098 16.7529 282.955 16.2139 282.955C15.7275 282.955 15.3203 283.089 14.9922 283.359C14.6641 283.623 14.5 283.968 14.5 284.396H11.96C11.96 283.728 12.1387 283.13 12.4961 282.603C12.8594 282.07 13.3633 281.654 14.0078 281.355C14.6582 281.056 15.373 280.907 16.1523 280.907C17.5059 280.907 18.5664 281.232 19.334 281.882C20.1016 282.527 20.4854 283.417 20.4854 284.554C20.4854 285.14 20.3066 285.679 19.9492 286.171C19.5918 286.664 19.123 287.042 18.543 287.305C19.2637 287.563 19.7998 287.95 20.1514 288.465C20.5088 288.981 20.6875 289.59 20.6875 290.293C20.6875 291.43 20.2715 292.341 19.4395 293.027C18.6133 293.712 17.5176 294.055 16.1523 294.055C14.875 294.055 13.8291 293.718 13.0146 293.044C12.2061 292.371 11.8018 291.48 11.8018 290.373H14.3418C14.3418 290.853 14.5205 291.246 14.8779 291.55C15.2412 291.855 15.6865 292.007 16.2139 292.007C16.8174 292.007 17.2891 291.849 17.6289 291.533C17.9746 291.21 18.1475 290.786 18.1475 290.258C18.1475 288.981 17.4443 288.342 16.0381 288.342H14.6934V286.356ZM22.4102 283.543C22.4102 282.758 22.665 282.123 23.1748 281.636C23.6846 281.144 24.3525 280.898 25.1787 280.898C26.0166 280.898 26.6904 281.141 27.2002 281.627C27.71 282.108 27.9648 282.761 27.9648 283.587V284.22C27.9648 285.011 27.71 285.647 27.2002 286.127C26.6904 286.608 26.0225 286.848 25.1963 286.848C24.3643 286.848 23.6904 286.608 23.1748 286.127C22.665 285.641 22.4102 284.988 22.4102 284.167V283.543ZM24.0977 284.22C24.0977 284.572 24.1973 284.856 24.3965 285.073C24.6016 285.284 24.8682 285.389 25.1963 285.389C25.5244 285.389 25.7852 285.281 25.9785 285.064C26.1719 284.847 26.2686 284.557 26.2686 284.194V283.543C26.2686 283.192 26.1719 282.908 25.9785 282.691C25.7852 282.474 25.5186 282.366 25.1787 282.366C24.8564 282.366 24.5957 282.474 24.3965 282.691C24.1973 282.902 24.0977 283.198 24.0977 283.579V284.22ZM28.5273 290.742C28.5273 289.951 28.7852 289.315 29.3008 288.834C29.8164 288.348 30.4844 288.105 31.3047 288.105C32.1367 288.105 32.8076 288.345 33.3174 288.826C33.833 289.3 34.0908 289.957 34.0908 290.794V291.427C34.0908 292.212 33.8389 292.848 33.335 293.334C32.8311 293.815 32.1602 294.055 31.3223 294.055C30.4785 294.055 29.8018 293.812 29.292 293.326C28.7822 292.839 28.5273 292.195 28.5273 291.392V290.742ZM30.2148 291.427C30.2148 291.75 30.3203 292.025 30.5312 292.253C30.7422 292.482 31.0059 292.596 31.3223 292.596C32.0371 292.596 32.3945 292.201 32.3945 291.41V290.742C32.3945 290.39 32.2949 290.109 32.0957 289.898C31.8965 289.681 31.6328 289.573 31.3047 289.573C30.9766 289.573 30.7129 289.681 30.5137 289.898C30.3145 290.109 30.2148 290.399 30.2148 290.768V291.427ZM25.6973 292.921L24.458 292.253L30.707 282.251L31.9463 282.919L25.6973 292.921Z" fill="#009487"/>
<path d="M38.6475 20.7378H165.959V81.825" stroke="#009487" stroke-width="0.5" stroke-miterlimit="10"/>
<path d="M545.619 20.7378H322.824" stroke="#009487" stroke-width="0.5" stroke-miterlimit="10"/>
<path d="M555.564 125.154H463.207V160.528H424.133" stroke="#009487" stroke-width="0.5" stroke-miterlimit="10"/>
<path d="M555.139 288.385H403.389V234.117" stroke="#009487" stroke-width="0.5" stroke-miterlimit="10"/>
<path d="M380.512 385.841H246.665V292.505" stroke="#009487" stroke-width="0.5" stroke-miterlimit="10"/>
<path d="M12.2197 272.9H123.333V141.918H159.565" stroke="#009487" stroke-width="0.5" stroke-miterlimit="10"/>
<path d="M0 183.258H105.572V112.937H154.166" stroke="#009487" stroke-width="0.5" stroke-miterlimit="10"/>
<path d="M165.959 85.2346C167.806 85.2346 169.227 83.814 169.227 81.9672C169.227 80.1204 167.806 78.6997 165.959 78.6997C164.112 78.6997 162.691 80.1204 162.691 81.9672C162.549 83.6719 164.112 85.2346 165.959 85.2346Z" fill="#009487"/>
<path d="M322.825 24.0051C320.978 24.0051 319.557 22.5845 319.557 20.7377C319.557 18.8908 320.978 17.4702 322.825 17.4702C324.672 17.4702 326.093 18.8908 326.093 20.7377C326.235 22.5845 324.672 24.0051 322.825 24.0051Z" fill="#009487"/>
<path d="M424.133 163.795C422.286 163.795 420.865 162.375 420.865 160.528C420.865 158.681 422.286 157.26 424.133 157.26C425.98 157.26 427.401 158.681 427.401 160.528C427.401 162.375 425.98 163.795 424.133 163.795Z" fill="#009487"/>
<path d="M403.388 230.708C401.541 230.708 400.12 232.128 400.12 233.975C400.12 235.822 401.541 237.242 403.388 237.242C405.235 237.242 406.656 235.822 406.656 233.975C406.656 232.128 405.235 230.708 403.388 230.708Z" fill="#009487"/>
<path d="M246.666 289.238C244.818 289.238 243.397 290.658 243.397 292.505C243.397 294.352 244.818 295.772 246.666 295.772C248.513 295.772 249.934 294.352 249.934 292.505C249.934 290.658 248.513 289.238 246.666 289.238Z" fill="#009487"/>
<path d="M159.565 138.65C161.412 138.65 162.833 140.071 162.833 141.918C162.833 143.765 161.412 145.185 159.565 145.185C157.718 145.185 156.297 143.765 156.297 141.918C156.297 140.071 157.86 138.65 159.565 138.65Z" fill="#009487"/>
<path d="M154.166 109.669C156.013 109.669 157.434 111.09 157.434 112.937C157.434 114.784 156.013 116.204 154.166 116.204C152.319 116.204 150.898 114.784 150.898 112.937C150.756 111.09 152.319 109.669 154.166 109.669Z" fill="#009487"/>
</svg>
