<svg width="556" height="414" viewBox="0 0 556 414" fill="none" xmlns="http://www.w3.org/2000/svg">
<path d="M226.489 19.639C303.927 -14.0301 394.153 21.3437 427.828 98.7683C439.053 124.624 442.89 153.179 438.911 181.307L363.178 170.51C369.146 128.744 340.018 90.1024 298.244 84.1358C284.177 82.1469 269.968 84.1358 256.896 89.6762L226.489 19.639Z" fill="#14ADEA"/>
<path d="M363.747 170.084L438.343 180.597C442.179 152.895 438.343 124.624 427.118 99.0525C393.727 22.1962 304.069 -13.1776 227.058 19.9231L257.18 88.966C270.11 83.4255 284.319 81.5787 298.244 83.5675C318.563 86.4088 336.608 97.0636 348.969 113.543C361.331 129.88 366.446 149.911 363.747 170.084ZM439.053 181.875C438.911 181.875 438.911 181.875 438.769 181.875L363.036 171.079C362.894 171.079 362.752 170.937 362.61 170.794C362.468 170.652 362.468 170.51 362.468 170.368C365.309 150.337 360.194 130.306 348.117 114.111C335.897 97.9159 318.136 87.4033 298.102 84.562C284.177 82.5731 269.968 84.562 257.18 90.1025C256.896 90.2445 256.612 90.1025 256.47 89.8183L225.921 19.9231C225.779 19.639 225.921 19.3549 226.205 19.2128C303.927 -14.5983 394.438 21.0596 428.255 98.6263C439.622 124.624 443.458 153.321 439.48 181.449C439.337 181.591 439.195 181.733 439.053 181.875Z" fill="white"/>
<path d="M438.769 181.307C436.354 197.929 431.238 214.124 423.566 229.182L355.363 194.519C359.2 186.99 361.757 178.892 362.894 170.51L438.769 181.307Z" fill="#DEDFE0"/>
<path d="M356.215 194.235L423.281 228.33C430.67 213.698 435.643 197.929 438.058 181.733L363.462 171.221C362.325 179.318 359.91 186.99 356.215 194.235ZM423.85 229.751C423.707 229.751 423.565 229.751 423.423 229.751L355.221 195.087C355.079 195.087 354.937 194.945 354.937 194.803C354.937 194.661 354.937 194.519 354.937 194.377C358.773 186.848 361.33 178.892 362.467 170.652C362.467 170.368 362.751 170.084 363.178 170.226L438.911 181.023C439.053 181.023 439.195 181.165 439.337 181.307C439.479 181.449 439.479 181.591 439.479 181.733C437.064 198.497 431.949 214.692 424.276 229.751C424.134 229.609 423.992 229.751 423.85 229.751Z" fill="white"/>
<path d="M423.707 229.183C385.343 304.476 293.128 334.309 217.963 295.952C201.907 287.713 187.414 276.774 175.053 263.562L231.178 211.709C259.879 242.679 308.189 244.525 339.307 215.971C345.985 209.862 351.384 202.617 355.505 194.519L423.707 229.183Z" fill="#CFE3F2"/>
<path d="M175.763 263.704C187.983 276.774 202.192 287.429 218.105 295.526C292.844 333.599 384.491 303.908 422.855 229.467L355.789 195.371C351.668 203.327 346.269 210.43 339.733 216.397C333.197 222.364 325.95 227.052 318.278 230.461C289.15 243.105 254.054 236.854 231.32 212.561L175.763 263.704ZM348.685 300.356C308.047 317.972 260.022 318.114 217.679 296.521C201.481 288.281 186.988 277.342 174.627 263.988C174.484 263.846 174.484 263.704 174.484 263.562C174.484 263.42 174.484 263.278 174.627 263.136L230.751 211.283C231.036 210.998 231.32 211.141 231.604 211.283C260.021 241.968 308.189 243.815 338.88 215.402C345.416 209.294 350.958 202.191 354.936 194.093C355.078 193.809 355.363 193.667 355.647 193.809L423.849 228.472C423.991 228.472 424.133 228.614 424.133 228.756C424.133 228.898 424.133 229.041 424.133 229.183C407.367 262.425 380.228 286.718 348.685 300.356Z" fill="white"/>
<path d="M175.054 263.704C143.936 230.035 129.585 184.29 135.979 138.83L211.712 149.343C208.586 172.073 215.691 194.945 231.32 211.709L175.054 263.704Z" fill="#41BAAA"/>
<path d="M136.405 139.398C130.295 184.433 144.362 229.325 175.053 262.852L230.467 211.709C215.122 194.945 208.017 172.357 211.001 149.769L136.405 139.398ZM175.195 264.13C174.91 264.272 174.768 264.13 174.484 263.988C143.083 230.035 128.874 184.433 135.268 138.688C135.268 138.404 135.552 138.12 135.978 138.262L211.711 148.775C211.853 148.775 211.996 148.917 212.138 149.059C212.28 149.201 212.28 149.343 212.28 149.485C209.154 172.073 216.258 194.661 231.746 211.425C231.888 211.567 231.888 211.709 231.888 211.851C231.888 211.993 231.888 212.135 231.746 212.277L175.621 264.13C175.337 264.13 175.337 264.13 175.195 264.13Z" fill="white"/>
<path d="M135.836 138.83C141.519 98.058 163.401 61.4056 196.508 36.9707L241.834 98.4842C225.209 110.702 214.269 129.028 211.427 149.485L135.836 138.83Z" fill="#3BB0D5"/>
<path d="M136.547 138.262L211.144 148.633C214.127 128.602 225.068 110.275 241.124 98.2001L196.366 37.6811C164.112 61.8319 142.231 98.3422 136.547 138.262ZM211.854 149.911C211.712 149.911 211.712 149.911 211.57 149.911L135.837 139.398C135.695 139.398 135.553 139.256 135.411 139.114C135.269 138.972 135.269 138.83 135.269 138.688C140.952 98.058 163.118 60.8374 196.224 36.4025C196.509 36.2605 196.793 36.2605 197.077 36.5446L242.403 98.058C242.545 98.2001 242.545 98.3422 242.545 98.4842C242.545 98.6263 242.403 98.7684 242.261 98.9104C225.921 110.986 214.98 129.454 212.138 149.485C212.138 149.627 211.996 149.769 211.854 149.911Z" fill="white"/>
<path d="M196.508 36.9707C205.744 30.1516 215.832 24.327 226.346 19.781L256.753 89.8183C251.496 92.0913 246.523 94.9326 241.834 98.4841L196.508 36.9707Z" fill="#EDD3DD"/>
<path d="M197.361 36.9707L242.119 97.4897C246.524 94.3643 251.213 91.523 256.186 89.3921L226.205 20.3492C215.975 24.8953 206.313 30.4358 197.361 36.9707ZM242.261 98.9103C241.977 99.0524 241.693 98.9103 241.551 98.7682L196.082 37.2548C195.94 37.1127 195.94 36.9707 195.94 36.8286C195.94 36.6865 196.082 36.5445 196.225 36.4024C205.46 29.5834 215.549 23.7588 226.205 19.0707C226.347 19.0707 226.489 19.0707 226.631 19.0707C226.774 19.0707 226.916 19.2127 226.916 19.3548L257.322 89.3921C257.465 89.6762 257.323 89.9603 257.038 90.1024C251.923 92.5175 246.95 95.5008 242.261 98.9103Z" fill="white"/>
<path d="M50.7422 8.34473C50.7422 9.31999 50.5781 10.1722 50.25 10.9014C49.9219 11.626 49.457 12.1797 48.8555 12.5625C48.2539 12.9453 47.5521 13.1367 46.75 13.1367C45.9661 13.1367 45.2712 12.9453 44.665 12.5625C44.0589 12.1751 43.5872 11.626 43.25 10.915C42.9173 10.1995 42.7464 9.3724 42.7373 8.43359V7.71582C42.7373 6.75879 42.9036 5.91341 43.2363 5.17969C43.569 4.44596 44.0384 3.88542 44.6445 3.49805C45.2552 3.10612 45.9525 2.91016 46.7363 2.91016C47.5339 2.91016 48.2357 3.10384 48.8418 3.49121C49.4525 3.87402 49.9219 4.43229 50.25 5.16602C50.5781 5.89518 50.7422 6.74512 50.7422 7.71582V8.34473ZM49.4365 7.70215C49.4365 6.52181 49.1995 5.61719 48.7256 4.98828C48.2516 4.35482 47.5885 4.03809 46.7363 4.03809C45.9069 4.03809 45.2529 4.35482 44.7744 4.98828C44.3005 5.61719 44.0566 6.49219 44.043 7.61328V8.34473C44.043 9.48861 44.2822 10.3887 44.7607 11.0449C45.2438 11.6966 45.9069 12.0225 46.75 12.0225C47.5977 12.0225 48.2539 11.7148 48.7188 11.0996C49.1836 10.4798 49.4229 9.59342 49.4365 8.44043V7.70215ZM54.2285 3.8125V5.60352H55.6094V6.58105H54.2285V11.168C54.2285 11.4642 54.29 11.6875 54.4131 11.8379C54.5361 11.9837 54.7458 12.0566 55.042 12.0566C55.1878 12.0566 55.3883 12.0293 55.6436 11.9746V13C55.3109 13.0911 54.9873 13.1367 54.6729 13.1367C54.1077 13.1367 53.6816 12.9658 53.3945 12.624C53.1074 12.2822 52.9639 11.7969 52.9639 11.168V6.58105H51.6172V5.60352H52.9639V3.8125H54.2285ZM58.3574 6.49902C58.918 5.81087 59.6471 5.4668 60.5449 5.4668C62.1081 5.4668 62.8965 6.34863 62.9102 8.1123V13H61.6455V8.10547C61.641 7.57227 61.5179 7.17806 61.2764 6.92285C61.0394 6.66764 60.668 6.54004 60.1621 6.54004C59.752 6.54004 59.3919 6.64941 59.082 6.86816C58.7721 7.08691 58.5306 7.37402 58.3574 7.72949V13H57.0928V2.5H58.3574V6.49902ZM67.873 13.1367C66.8704 13.1367 66.0547 12.8086 65.4258 12.1523C64.7969 11.4915 64.4824 10.6097 64.4824 9.50684V9.27441C64.4824 8.54069 64.6214 7.88672 64.8994 7.3125C65.182 6.73372 65.5739 6.28255 66.0752 5.95898C66.5811 5.63086 67.1279 5.4668 67.7158 5.4668C68.6774 5.4668 69.4248 5.78353 69.958 6.41699C70.4912 7.05046 70.7578 7.95736 70.7578 9.1377V9.66406H65.7471C65.7653 10.3932 65.9772 10.9834 66.3828 11.4346C66.793 11.8812 67.3125 12.1045 67.9414 12.1045C68.388 12.1045 68.7663 12.0133 69.0762 11.8311C69.3861 11.6488 69.6572 11.4072 69.8896 11.1064L70.6621 11.708C70.0423 12.6605 69.1126 13.1367 67.873 13.1367ZM67.7158 6.50586C67.2054 6.50586 66.777 6.69271 66.4307 7.06641C66.0843 7.43555 65.8701 7.95508 65.7881 8.625H69.4932V8.5293C69.4567 7.88672 69.2835 7.38997 68.9736 7.03906C68.6637 6.68359 68.2445 6.50586 67.7158 6.50586ZM75.8027 6.73828C75.6113 6.70638 75.404 6.69043 75.1807 6.69043C74.3512 6.69043 73.7884 7.04362 73.4922 7.75V13H72.2275V5.60352H73.458L73.4785 6.45801C73.8932 5.7972 74.4811 5.4668 75.2422 5.4668C75.4883 5.4668 75.6751 5.4987 75.8027 5.5625V6.73828ZM90.3086 13H83.7871V12.0908L87.2324 8.2627C87.7428 7.68392 88.0938 7.21452 88.2852 6.85449C88.4811 6.48991 88.5791 6.11393 88.5791 5.72656C88.5791 5.20703 88.4219 4.78092 88.1074 4.44824C87.793 4.11556 87.3737 3.94922 86.8496 3.94922C86.2207 3.94922 85.7308 4.12923 85.3799 4.48926C85.0335 4.84473 84.8604 5.34147 84.8604 5.97949H83.5957C83.5957 5.06348 83.8896 4.32292 84.4775 3.75781C85.07 3.19271 85.8607 2.91016 86.8496 2.91016C87.7747 2.91016 88.5062 3.15397 89.0439 3.6416C89.5817 4.12467 89.8506 4.76953 89.8506 5.57617C89.8506 6.55599 89.2262 7.72266 87.9775 9.07617L85.3115 11.9678H90.3086V13ZM97.8896 8.75488C97.8896 10.236 97.6367 11.3366 97.1309 12.0566C96.625 12.7767 95.8343 13.1367 94.7588 13.1367C93.6969 13.1367 92.9108 12.7858 92.4004 12.084C91.89 11.3776 91.6257 10.3249 91.6074 8.92578V7.2373C91.6074 5.77441 91.8604 4.6875 92.3662 3.97656C92.8721 3.26562 93.665 2.91016 94.7451 2.91016C95.8161 2.91016 96.6045 3.25423 97.1104 3.94238C97.6162 4.62598 97.876 5.68327 97.8896 7.11426V8.75488ZM96.625 7.02539C96.625 5.95443 96.4746 5.17513 96.1738 4.6875C95.873 4.19531 95.3968 3.94922 94.7451 3.94922C94.098 3.94922 93.6263 4.19303 93.3301 4.68066C93.0339 5.16829 92.8812 5.91797 92.8721 6.92969V8.95312C92.8721 10.0286 93.027 10.8239 93.3369 11.3389C93.6514 11.8493 94.1253 12.1045 94.7588 12.1045C95.3831 12.1045 95.8457 11.863 96.1465 11.3799C96.4518 10.8968 96.6113 10.1357 96.625 9.09668V7.02539ZM104.356 8.625C104.092 8.93945 103.775 9.19238 103.406 9.38379C103.042 9.5752 102.641 9.6709 102.203 9.6709C101.629 9.6709 101.128 9.52962 100.699 9.24707C100.275 8.96452 99.9473 8.56803 99.7148 8.05762C99.4824 7.54264 99.3662 6.97526 99.3662 6.35547C99.3662 5.6901 99.4915 5.09082 99.7422 4.55762C99.9974 4.02441 100.357 3.61654 100.822 3.33398C101.287 3.05143 101.829 2.91016 102.449 2.91016C103.434 2.91016 104.208 3.2793 104.773 4.01758C105.343 4.7513 105.628 5.75391 105.628 7.02539V7.39453C105.628 9.33138 105.245 10.7464 104.479 11.6396C103.714 12.5283 102.559 12.984 101.014 13.0068H100.768V11.9404H101.034C102.078 11.9222 102.88 11.651 103.44 11.127C104.001 10.5983 104.306 9.76432 104.356 8.625ZM102.408 8.625C102.832 8.625 103.222 8.49512 103.577 8.23535C103.937 7.97559 104.199 7.6543 104.363 7.27148V6.76562C104.363 5.9362 104.183 5.26172 103.823 4.74219C103.463 4.22266 103.007 3.96289 102.456 3.96289C101.9 3.96289 101.453 4.17708 101.116 4.60547C100.779 5.0293 100.61 5.58984 100.61 6.28711C100.61 6.96615 100.772 7.52669 101.096 7.96875C101.424 8.40625 101.861 8.625 102.408 8.625ZM107.46 14.9824L106.742 14.4902C107.171 13.8932 107.394 13.278 107.412 12.6445V11.5029H108.649V12.4941C108.649 12.9544 108.535 13.4147 108.308 13.875C108.084 14.3353 107.802 14.7044 107.46 14.9824ZM116.641 13H110.119V12.0908L113.564 8.2627C114.075 7.68392 114.426 7.21452 114.617 6.85449C114.813 6.48991 114.911 6.11393 114.911 5.72656C114.911 5.20703 114.754 4.78092 114.439 4.44824C114.125 4.11556 113.706 3.94922 113.182 3.94922C112.553 3.94922 112.063 4.12923 111.712 4.48926C111.366 4.84473 111.192 5.34147 111.192 5.97949H109.928C109.928 5.06348 110.222 4.32292 110.81 3.75781C111.402 3.19271 112.193 2.91016 113.182 2.91016C114.107 2.91016 114.838 3.15397 115.376 3.6416C115.914 4.12467 116.183 4.76953 116.183 5.57617C116.183 6.55599 115.558 7.72266 114.31 9.07617L111.644 11.9678H116.641V13ZM120.175 9.5752L119.382 10.4023V13H118.117V2.5H119.382V8.85059L120.059 8.03711L122.362 5.60352H123.9L121.022 8.69336L124.235 13H122.752L120.175 9.5752Z" fill="#009487"/>
<path d="M45.3848 33.4124H46.7383C47.3828 33.4124 47.8604 33.2512 48.1709 32.929C48.4814 32.6067 48.6367 32.179 48.6367 31.6458C48.6367 31.1301 48.4814 30.7288 48.1709 30.4417C47.8662 30.1545 47.4443 30.011 46.9053 30.011C46.4189 30.011 46.0117 30.1458 45.6836 30.4153C45.3555 30.679 45.1914 31.0247 45.1914 31.4524H42.6514C42.6514 30.7844 42.8301 30.1868 43.1875 29.6594C43.5508 29.1262 44.0547 28.7102 44.6992 28.4114C45.3496 28.1125 46.0645 27.9631 46.8438 27.9631C48.1973 27.9631 49.2578 28.2883 50.0254 28.9387C50.793 29.5833 51.1768 30.4739 51.1768 31.6106C51.1768 32.1965 50.998 32.7356 50.6406 33.2278C50.2832 33.72 49.8145 34.0979 49.2344 34.3616C49.9551 34.6194 50.4912 35.0061 50.8428 35.5217C51.2002 36.0374 51.3789 36.6467 51.3789 37.3499C51.3789 38.4866 50.9629 39.3977 50.1309 40.0833C49.3047 40.7688 48.209 41.1116 46.8438 41.1116C45.5664 41.1116 44.5205 40.7747 43.7061 40.1008C42.8975 39.427 42.4932 38.5364 42.4932 37.429H45.0332C45.0332 37.9094 45.2119 38.302 45.5693 38.6067C45.9326 38.9114 46.3779 39.0637 46.9053 39.0637C47.5088 39.0637 47.9805 38.9055 48.3203 38.5891C48.666 38.2668 48.8389 37.842 48.8389 37.3147C48.8389 36.0374 48.1357 35.3987 46.7295 35.3987H45.3848V33.4124ZM53.1016 30.5999C53.1016 29.8147 53.3564 29.179 53.8662 28.6926C54.376 28.2004 55.0439 27.9543 55.8701 27.9543C56.708 27.9543 57.3818 28.1975 57.8916 28.6838C58.4014 29.1643 58.6562 29.8176 58.6562 30.6438V31.2766C58.6562 32.0676 58.4014 32.7034 57.8916 33.1838C57.3818 33.6643 56.7139 33.9045 55.8877 33.9045C55.0557 33.9045 54.3818 33.6643 53.8662 33.1838C53.3564 32.6975 53.1016 32.0442 53.1016 31.2239V30.5999ZM54.7891 31.2766C54.7891 31.6282 54.8887 31.9124 55.0879 32.1292C55.293 32.3401 55.5596 32.4456 55.8877 32.4456C56.2158 32.4456 56.4766 32.3372 56.6699 32.1204C56.8633 31.9036 56.96 31.6135 56.96 31.2502V30.5999C56.96 30.2483 56.8633 29.9641 56.6699 29.7473C56.4766 29.5305 56.21 29.4221 55.8701 29.4221C55.5479 29.4221 55.2871 29.5305 55.0879 29.7473C54.8887 29.9583 54.7891 30.2542 54.7891 30.635V31.2766ZM59.2188 37.7981C59.2188 37.0071 59.4766 36.3713 59.9922 35.8909C60.5078 35.4045 61.1758 35.1614 61.9961 35.1614C62.8281 35.1614 63.499 35.4016 64.0088 35.8821C64.5244 36.3567 64.7822 37.0129 64.7822 37.8508V38.4836C64.7822 39.2688 64.5303 39.9045 64.0264 40.3909C63.5225 40.8713 62.8516 41.1116 62.0137 41.1116C61.1699 41.1116 60.4932 40.8684 59.9834 40.3821C59.4736 39.8958 59.2188 39.2512 59.2188 38.4485V37.7981ZM60.9062 38.4836C60.9062 38.8059 61.0117 39.0813 61.2227 39.3098C61.4336 39.5383 61.6973 39.6526 62.0137 39.6526C62.7285 39.6526 63.0859 39.2571 63.0859 38.4661V37.7981C63.0859 37.4465 62.9863 37.1653 62.7871 36.9543C62.5879 36.7375 62.3242 36.6292 61.9961 36.6292C61.668 36.6292 61.4043 36.7375 61.2051 36.9543C61.0059 37.1653 60.9062 37.4553 60.9062 37.8245V38.4836ZM56.3887 39.9778L55.1494 39.3098L61.3984 29.3079L62.6377 29.9758L56.3887 39.9778Z" fill="#009487"/>
<path d="M418.938 10.4023H414.769L413.832 13H412.479L416.279 3.04688H417.428L421.235 13H419.889L418.938 10.4023ZM415.165 9.32227H418.549L416.854 4.66699L415.165 9.32227ZM422.076 9.24023C422.076 8.08724 422.343 7.17122 422.876 6.49219C423.409 5.80859 424.116 5.4668 424.995 5.4668C425.897 5.4668 426.602 5.78581 427.107 6.42383L427.169 5.60352H428.324V12.8223C428.324 13.7793 428.039 14.5335 427.47 15.085C426.905 15.6364 426.144 15.9121 425.187 15.9121C424.653 15.9121 424.132 15.7982 423.621 15.5703C423.111 15.3424 422.721 15.0303 422.452 14.6338L423.108 13.875C423.651 14.5449 424.314 14.8799 425.098 14.8799C425.713 14.8799 426.191 14.7067 426.533 14.3604C426.88 14.014 427.053 13.5264 427.053 12.8975V12.2617C426.547 12.8451 425.856 13.1367 424.981 13.1367C424.116 13.1367 423.414 12.7881 422.876 12.0908C422.343 11.3936 422.076 10.4434 422.076 9.24023ZM423.348 9.38379C423.348 10.2178 423.519 10.874 423.86 11.3525C424.202 11.8265 424.681 12.0635 425.296 12.0635C426.093 12.0635 426.679 11.7012 427.053 10.9766V7.59961C426.665 6.89323 426.084 6.54004 425.31 6.54004C424.694 6.54004 424.214 6.7793 423.867 7.25781C423.521 7.73633 423.348 8.44499 423.348 9.38379ZM433.813 6.73828C433.622 6.70638 433.415 6.69043 433.191 6.69043C432.362 6.69043 431.799 7.04362 431.503 7.75V13H430.238V5.60352H431.469L431.489 6.45801C431.904 5.7972 432.492 5.4668 433.253 5.4668C433.499 5.4668 433.686 5.4987 433.813 5.5625V6.73828ZM436.356 13H435.092V5.60352H436.356V13ZM434.989 3.6416C434.989 3.43652 435.051 3.26335 435.174 3.12207C435.301 2.98079 435.488 2.91016 435.734 2.91016C435.98 2.91016 436.167 2.98079 436.295 3.12207C436.423 3.26335 436.486 3.43652 436.486 3.6416C436.486 3.84668 436.423 4.01758 436.295 4.1543C436.167 4.29102 435.98 4.35938 435.734 4.35938C435.488 4.35938 435.301 4.29102 435.174 4.1543C435.051 4.01758 434.989 3.84668 434.989 3.6416ZM444.635 9.38379C444.635 10.5094 444.377 11.4163 443.862 12.1045C443.347 12.7926 442.65 13.1367 441.771 13.1367C440.873 13.1367 440.166 12.8519 439.651 12.2822V15.8438H438.387V5.60352H439.542L439.604 6.42383C440.118 5.78581 440.834 5.4668 441.75 5.4668C442.639 5.4668 443.34 5.80176 443.855 6.47168C444.375 7.1416 444.635 8.07357 444.635 9.26758V9.38379ZM443.37 9.24023C443.37 8.40625 443.192 7.74772 442.837 7.26465C442.481 6.78158 441.994 6.54004 441.374 6.54004C440.608 6.54004 440.034 6.87956 439.651 7.55859V11.0928C440.03 11.7673 440.608 12.1045 441.388 12.1045C441.994 12.1045 442.475 11.8652 442.83 11.3867C443.19 10.9036 443.37 10.1882 443.37 9.24023ZM449.823 6.73828C449.632 6.70638 449.424 6.69043 449.201 6.69043C448.372 6.69043 447.809 7.04362 447.513 7.75V13H446.248V5.60352H447.479L447.499 6.45801C447.914 5.7972 448.502 5.4668 449.263 5.4668C449.509 5.4668 449.696 5.4987 449.823 5.5625V6.73828ZM450.521 9.2334C450.521 8.50879 450.662 7.8571 450.944 7.27832C451.231 6.69954 451.628 6.25293 452.134 5.93848C452.644 5.62402 453.225 5.4668 453.877 5.4668C454.884 5.4668 455.698 5.81543 456.317 6.5127C456.942 7.20996 457.254 8.13737 457.254 9.29492V9.38379C457.254 10.1038 457.115 10.751 456.837 11.3252C456.563 11.8949 456.169 12.3392 455.654 12.6582C455.144 12.9772 454.556 13.1367 453.891 13.1367C452.888 13.1367 452.075 12.7881 451.45 12.0908C450.83 11.3936 450.521 10.4707 450.521 9.32227V9.2334ZM451.792 9.38379C451.792 10.2041 451.981 10.8626 452.359 11.3594C452.742 11.8561 453.253 12.1045 453.891 12.1045C454.533 12.1045 455.044 11.8538 455.422 11.3525C455.8 10.8467 455.989 10.1403 455.989 9.2334C455.989 8.4222 455.796 7.76595 455.408 7.26465C455.025 6.75879 454.515 6.50586 453.877 6.50586C453.253 6.50586 452.749 6.75423 452.366 7.25098C451.983 7.74772 451.792 8.45866 451.792 9.38379ZM458.532 9.24023C458.532 8.10547 458.801 7.19401 459.339 6.50586C459.877 5.81315 460.581 5.4668 461.451 5.4668C462.317 5.4668 463.003 5.76302 463.509 6.35547V2.5H464.773V13H463.611L463.55 12.207C463.044 12.8268 462.34 13.1367 461.438 13.1367C460.581 13.1367 459.881 12.7858 459.339 12.084C458.801 11.3822 458.532 10.4661 458.532 9.33594V9.24023ZM459.797 9.38379C459.797 10.2223 459.97 10.8786 460.316 11.3525C460.663 11.8265 461.141 12.0635 461.752 12.0635C462.554 12.0635 463.14 11.7035 463.509 10.9834V7.58594C463.131 6.88867 462.549 6.54004 461.766 6.54004C461.146 6.54004 460.663 6.7793 460.316 7.25781C459.97 7.73633 459.797 8.44499 459.797 9.38379ZM471.309 12.2686C470.816 12.8473 470.094 13.1367 469.142 13.1367C468.353 13.1367 467.752 12.9089 467.337 12.4531C466.927 11.9928 466.719 11.3138 466.715 10.416V5.60352H467.979V10.3818C467.979 11.5029 468.435 12.0635 469.347 12.0635C470.313 12.0635 470.955 11.7035 471.274 10.9834V5.60352H472.539V13H471.336L471.309 12.2686ZM477.434 12.1045C477.885 12.1045 478.279 11.9678 478.616 11.6943C478.953 11.4209 479.14 11.0791 479.177 10.6689H480.373C480.35 11.0928 480.204 11.4961 479.936 11.8789C479.667 12.2617 479.307 12.5671 478.855 12.7949C478.409 13.0228 477.935 13.1367 477.434 13.1367C476.426 13.1367 475.624 12.8018 475.027 12.1318C474.435 11.4574 474.139 10.5368 474.139 9.37012V9.1582C474.139 8.43815 474.271 7.79785 474.535 7.2373C474.799 6.67676 475.178 6.24154 475.67 5.93164C476.167 5.62174 476.752 5.4668 477.427 5.4668C478.256 5.4668 478.944 5.71517 479.491 6.21191C480.043 6.70866 480.337 7.35352 480.373 8.14648H479.177C479.14 7.66797 478.958 7.27604 478.63 6.9707C478.306 6.66081 477.905 6.50586 477.427 6.50586C476.784 6.50586 476.285 6.73828 475.93 7.20312C475.579 7.66341 475.403 8.33105 475.403 9.20605V9.44531C475.403 10.2975 475.579 10.9538 475.93 11.4141C476.281 11.8743 476.782 12.1045 477.434 12.1045ZM483.511 3.8125V5.60352H484.892V6.58105H483.511V11.168C483.511 11.4642 483.572 11.6875 483.695 11.8379C483.818 11.9837 484.028 12.0566 484.324 12.0566C484.47 12.0566 484.671 12.0293 484.926 11.9746V13C484.593 13.0911 484.27 13.1367 483.955 13.1367C483.39 13.1367 482.964 12.9658 482.677 12.624C482.39 12.2822 482.246 11.7969 482.246 11.168V6.58105H480.899V5.60352H482.246V3.8125H483.511ZM490.682 11.0381C490.682 10.6963 490.552 10.432 490.292 10.2451C490.037 10.0537 489.588 9.88965 488.945 9.75293C488.307 9.61621 487.799 9.45215 487.421 9.26074C487.047 9.06934 486.769 8.84147 486.587 8.57715C486.409 8.31283 486.32 7.99837 486.32 7.63379C486.32 7.02767 486.576 6.51497 487.086 6.0957C487.601 5.67643 488.257 5.4668 489.055 5.4668C489.893 5.4668 490.572 5.68327 491.092 6.11621C491.616 6.54915 491.878 7.10286 491.878 7.77734H490.606C490.606 7.43099 490.458 7.13249 490.162 6.88184C489.87 6.63118 489.501 6.50586 489.055 6.50586C488.594 6.50586 488.234 6.60612 487.975 6.80664C487.715 7.00716 487.585 7.26921 487.585 7.59277C487.585 7.89811 487.706 8.12826 487.947 8.2832C488.189 8.43815 488.624 8.58626 489.253 8.72754C489.886 8.86882 490.399 9.03743 490.791 9.2334C491.183 9.42936 491.472 9.66634 491.659 9.94434C491.851 10.2178 491.946 10.5527 491.946 10.9492C491.946 11.61 491.682 12.141 491.153 12.542C490.625 12.9385 489.939 13.1367 489.096 13.1367C488.503 13.1367 487.979 13.0319 487.523 12.8223C487.068 12.6126 486.71 12.321 486.45 11.9473C486.195 11.569 486.067 11.1611 486.067 10.7236H487.332C487.355 11.1475 487.523 11.4847 487.838 11.7354C488.157 11.9814 488.576 12.1045 489.096 12.1045C489.574 12.1045 489.957 12.0088 490.244 11.8174C490.536 11.6214 490.682 11.3617 490.682 11.0381ZM501.093 13H499.821V4.57129L497.271 5.50781V4.35938L500.895 2.99902H501.093V13ZM504.887 14.9824L504.169 14.4902C504.597 13.8932 504.821 13.278 504.839 12.6445V11.5029H506.076V12.4941C506.076 12.9544 505.962 13.4147 505.734 13.875C505.511 14.3353 505.229 14.7044 504.887 14.9824ZM512.393 8.625C512.128 8.93945 511.812 9.19238 511.442 9.38379C511.078 9.5752 510.677 9.6709 510.239 9.6709C509.665 9.6709 509.164 9.52962 508.735 9.24707C508.312 8.96452 507.983 8.56803 507.751 8.05762C507.519 7.54264 507.402 6.97526 507.402 6.35547C507.402 5.6901 507.528 5.09082 507.778 4.55762C508.034 4.02441 508.394 3.61654 508.858 3.33398C509.323 3.05143 509.866 2.91016 510.485 2.91016C511.47 2.91016 512.244 3.2793 512.81 4.01758C513.379 4.7513 513.664 5.75391 513.664 7.02539V7.39453C513.664 9.33138 513.281 10.7464 512.516 11.6396C511.75 12.5283 510.595 12.984 509.05 13.0068H508.804V11.9404H509.07C510.114 11.9222 510.916 11.651 511.477 11.127C512.037 10.5983 512.342 9.76432 512.393 8.625ZM510.444 8.625C510.868 8.625 511.258 8.49512 511.613 8.23535C511.973 7.97559 512.235 7.6543 512.399 7.27148V6.76562C512.399 5.9362 512.219 5.26172 511.859 4.74219C511.499 4.22266 511.044 3.96289 510.492 3.96289C509.936 3.96289 509.49 4.17708 509.152 4.60547C508.815 5.0293 508.646 5.58984 508.646 6.28711C508.646 6.96615 508.808 7.52669 509.132 7.96875C509.46 8.40625 509.897 8.625 510.444 8.625ZM521.833 3.75781L517.711 13H516.385L520.493 4.08594H515.106V3.04688H521.833V3.75781ZM528.061 5.60352L528.095 6.42383C528.637 5.78581 529.368 5.4668 530.289 5.4668C531.324 5.4668 532.028 5.86328 532.401 6.65625C532.647 6.30078 532.966 6.01367 533.358 5.79492C533.755 5.57617 534.222 5.4668 534.76 5.4668C536.382 5.4668 537.207 6.32585 537.234 8.04395V13H535.97V8.11914C535.97 7.59049 535.849 7.19629 535.607 6.93652C535.366 6.6722 534.96 6.54004 534.391 6.54004C533.921 6.54004 533.532 6.68132 533.222 6.96387C532.912 7.24186 532.732 7.61784 532.682 8.0918V13H531.41V8.15332C531.41 7.0778 530.884 6.54004 529.831 6.54004C529.002 6.54004 528.434 6.89323 528.129 7.59961V13H526.864V5.60352H528.061ZM540.522 13H539.258V5.60352H540.522V13ZM539.155 3.6416C539.155 3.43652 539.217 3.26335 539.34 3.12207C539.467 2.98079 539.654 2.91016 539.9 2.91016C540.146 2.91016 540.333 2.98079 540.461 3.12207C540.589 3.26335 540.652 3.43652 540.652 3.6416C540.652 3.84668 540.589 4.01758 540.461 4.1543C540.333 4.29102 540.146 4.35938 539.9 4.35938C539.654 4.35938 539.467 4.29102 539.34 4.1543C539.217 4.01758 539.155 3.84668 539.155 3.6416ZM543.927 13H542.662V2.5H543.927V13Z" fill="#009487"/>
<path d="M520.361 33.4124H521.715C522.359 33.4124 522.837 33.2512 523.147 32.929C523.458 32.6067 523.613 32.179 523.613 31.6458C523.613 31.1301 523.458 30.7288 523.147 30.4417C522.843 30.1545 522.421 30.011 521.882 30.011C521.396 30.011 520.988 30.1458 520.66 30.4153C520.332 30.679 520.168 31.0247 520.168 31.4524H517.628C517.628 30.7844 517.807 30.1868 518.164 29.6594C518.527 29.1262 519.031 28.7102 519.676 28.4114C520.326 28.1125 521.041 27.9631 521.82 27.9631C523.174 27.9631 524.234 28.2883 525.002 28.9387C525.77 29.5833 526.153 30.4739 526.153 31.6106C526.153 32.1965 525.975 32.7356 525.617 33.2278C525.26 33.72 524.791 34.0979 524.211 34.3616C524.932 34.6194 525.468 35.0061 525.819 35.5217C526.177 36.0374 526.355 36.6467 526.355 37.3499C526.355 38.4866 525.939 39.3977 525.107 40.0833C524.281 40.7688 523.186 41.1116 521.82 41.1116C520.543 41.1116 519.497 40.7747 518.683 40.1008C517.874 39.427 517.47 38.5364 517.47 37.429H520.01C520.01 37.9094 520.188 38.302 520.546 38.6067C520.909 38.9114 521.354 39.0637 521.882 39.0637C522.485 39.0637 522.957 38.9055 523.297 38.5891C523.643 38.2668 523.815 37.842 523.815 37.3147C523.815 36.0374 523.112 35.3987 521.706 35.3987H520.361V33.4124ZM535.628 36.1194H537.078V38.1672H535.628V40.9358H533.088V38.1672H527.841L527.727 36.5676L533.062 28.1389H535.628V36.1194ZM530.258 36.1194H533.088V31.6018L532.921 31.8918L530.258 36.1194ZM538.414 30.5999C538.414 29.8147 538.669 29.179 539.179 28.6926C539.688 28.2004 540.356 27.9543 541.183 27.9543C542.021 27.9543 542.694 28.1975 543.204 28.6838C543.714 29.1643 543.969 29.8176 543.969 30.6438V31.2766C543.969 32.0676 543.714 32.7034 543.204 33.1838C542.694 33.6643 542.026 33.9045 541.2 33.9045C540.368 33.9045 539.694 33.6643 539.179 33.1838C538.669 32.6975 538.414 32.0442 538.414 31.2239V30.5999ZM540.102 31.2766C540.102 31.6282 540.201 31.9124 540.4 32.1292C540.605 32.3401 540.872 32.4456 541.2 32.4456C541.528 32.4456 541.789 32.3372 541.982 32.1204C542.176 31.9036 542.272 31.6135 542.272 31.2502V30.5999C542.272 30.2483 542.176 29.9641 541.982 29.7473C541.789 29.5305 541.522 29.4221 541.183 29.4221C540.86 29.4221 540.6 29.5305 540.4 29.7473C540.201 29.9583 540.102 30.2542 540.102 30.635V31.2766ZM544.531 37.7981C544.531 37.0071 544.789 36.3713 545.305 35.8909C545.82 35.4045 546.488 35.1614 547.309 35.1614C548.141 35.1614 548.812 35.4016 549.321 35.8821C549.837 36.3567 550.095 37.0129 550.095 37.8508V38.4836C550.095 39.2688 549.843 39.9045 549.339 40.3909C548.835 40.8713 548.164 41.1116 547.326 41.1116C546.482 41.1116 545.806 40.8684 545.296 40.3821C544.786 39.8958 544.531 39.2512 544.531 38.4485V37.7981ZM546.219 38.4836C546.219 38.8059 546.324 39.0813 546.535 39.3098C546.746 39.5383 547.01 39.6526 547.326 39.6526C548.041 39.6526 548.398 39.2571 548.398 38.4661V37.7981C548.398 37.4465 548.299 37.1653 548.1 36.9543C547.9 36.7375 547.637 36.6292 547.309 36.6292C546.98 36.6292 546.717 36.7375 546.518 36.9543C546.318 37.1653 546.219 37.4553 546.219 37.8245V38.4836ZM541.701 39.9778L540.462 39.3098L546.711 29.3079L547.95 29.9758L541.701 39.9778Z" fill="#009487"/>
<path d="M326.943 373.74H322.767V378.136H321.454V368.183H327.62V369.263H322.767V372.667H326.943V373.74ZM331.913 378.272C330.911 378.272 330.095 377.944 329.466 377.288C328.837 376.627 328.523 375.745 328.523 374.643V374.41C328.523 373.676 328.662 373.022 328.94 372.448C329.222 371.869 329.614 371.418 330.115 371.095C330.621 370.767 331.168 370.603 331.756 370.603C332.718 370.603 333.465 370.919 333.998 371.553C334.531 372.186 334.798 373.093 334.798 374.273V374.8H329.787C329.805 375.529 330.017 376.119 330.423 376.57C330.833 377.017 331.353 377.24 331.982 377.24C332.428 377.24 332.806 377.149 333.116 376.967C333.426 376.785 333.697 376.543 333.93 376.242L334.702 376.844C334.082 377.796 333.153 378.272 331.913 378.272ZM331.756 371.642C331.246 371.642 330.817 371.828 330.471 372.202C330.124 372.571 329.91 373.091 329.828 373.761H333.533V373.665C333.497 373.022 333.324 372.526 333.014 372.175C332.704 371.819 332.285 371.642 331.756 371.642ZM339.843 371.874C339.651 371.842 339.444 371.826 339.221 371.826C338.391 371.826 337.829 372.179 337.532 372.886V378.136H336.268V370.739H337.498L337.519 371.594C337.933 370.933 338.521 370.603 339.282 370.603C339.528 370.603 339.715 370.634 339.843 370.698V371.874ZM343.069 368.948V370.739H344.45V371.717H343.069V376.304C343.069 376.6 343.131 376.823 343.254 376.974C343.377 377.119 343.587 377.192 343.883 377.192C344.029 377.192 344.229 377.165 344.484 377.11V378.136C344.152 378.227 343.828 378.272 343.514 378.272C342.949 378.272 342.523 378.102 342.235 377.76C341.948 377.418 341.805 376.933 341.805 376.304V371.717H340.458V370.739H341.805V368.948H343.069ZM347.308 378.136H346.043V370.739H347.308V378.136ZM345.941 368.777C345.941 368.572 346.002 368.399 346.125 368.258C346.253 368.117 346.44 368.046 346.686 368.046C346.932 368.046 347.119 368.117 347.246 368.258C347.374 368.399 347.438 368.572 347.438 368.777C347.438 368.982 347.374 369.153 347.246 369.29C347.119 369.427 346.932 369.495 346.686 369.495C346.44 369.495 346.253 369.427 346.125 369.29C346.002 369.153 345.941 368.982 345.941 368.777ZM350.712 378.136H349.447V367.636H350.712V378.136ZM354.116 378.136H352.852V370.739H354.116V378.136ZM352.749 368.777C352.749 368.572 352.811 368.399 352.934 368.258C353.061 368.117 353.248 368.046 353.494 368.046C353.74 368.046 353.927 368.117 354.055 368.258C354.182 368.399 354.246 368.572 354.246 368.777C354.246 368.982 354.182 369.153 354.055 369.29C353.927 369.427 353.74 369.495 353.494 369.495C353.248 369.495 353.061 369.427 352.934 369.29C352.811 369.153 352.749 368.982 352.749 368.777ZM357.336 377.104H361.663V378.136H355.791V377.206L359.872 371.785H355.853V370.739H361.458V371.635L357.336 377.104ZM366.052 378.272C365.049 378.272 364.234 377.944 363.605 377.288C362.976 376.627 362.661 375.745 362.661 374.643V374.41C362.661 373.676 362.8 373.022 363.078 372.448C363.361 371.869 363.753 371.418 364.254 371.095C364.76 370.767 365.307 370.603 365.895 370.603C366.856 370.603 367.604 370.919 368.137 371.553C368.67 372.186 368.937 373.093 368.937 374.273V374.8H363.926C363.944 375.529 364.156 376.119 364.562 376.57C364.972 377.017 365.491 377.24 366.12 377.24C366.567 377.24 366.945 377.149 367.255 376.967C367.565 376.785 367.836 376.543 368.068 376.242L368.841 376.844C368.221 377.796 367.291 378.272 366.052 378.272ZM365.895 371.642C365.384 371.642 364.956 371.828 364.609 372.202C364.263 372.571 364.049 373.091 363.967 373.761H367.672V373.665C367.636 373.022 367.462 372.526 367.152 372.175C366.843 371.819 366.423 371.642 365.895 371.642ZM373.982 371.874C373.79 371.842 373.583 371.826 373.359 371.826C372.53 371.826 371.967 372.179 371.671 372.886V378.136H370.406V370.739H371.637L371.657 371.594C372.072 370.933 372.66 370.603 373.421 370.603C373.667 370.603 373.854 370.634 373.982 370.698V371.874ZM379.457 376.174C379.457 375.832 379.327 375.568 379.068 375.381C378.812 375.189 378.363 375.025 377.721 374.889C377.083 374.752 376.575 374.588 376.196 374.396C375.823 374.205 375.545 373.977 375.362 373.713C375.185 373.449 375.096 373.134 375.096 372.77C375.096 372.163 375.351 371.651 375.861 371.231C376.376 370.812 377.033 370.603 377.83 370.603C378.669 370.603 379.348 370.819 379.867 371.252C380.391 371.685 380.653 372.239 380.653 372.913H379.382C379.382 372.567 379.234 372.268 378.938 372.018C378.646 371.767 378.277 371.642 377.83 371.642C377.37 371.642 377.01 371.742 376.75 371.942C376.49 372.143 376.36 372.405 376.36 372.729C376.36 373.034 376.481 373.264 376.723 373.419C376.964 373.574 377.4 373.722 378.028 373.863C378.662 374.005 379.175 374.173 379.567 374.369C379.958 374.565 380.248 374.802 380.435 375.08C380.626 375.354 380.722 375.688 380.722 376.085C380.722 376.746 380.457 377.277 379.929 377.678C379.4 378.074 378.714 378.272 377.871 378.272C377.279 378.272 376.755 378.168 376.299 377.958C375.843 377.748 375.485 377.457 375.226 377.083C374.97 376.705 374.843 376.297 374.843 375.859H376.108C376.13 376.283 376.299 376.62 376.613 376.871C376.932 377.117 377.352 377.24 377.871 377.24C378.35 377.24 378.733 377.145 379.02 376.953C379.311 376.757 379.457 376.497 379.457 376.174ZM393.341 378.136H392.069V369.707L389.52 370.644V369.495L393.143 368.135H393.341V378.136ZM397.135 380.118L396.417 379.626C396.845 379.029 397.069 378.414 397.087 377.78V376.639H398.324V377.63C398.324 378.09 398.21 378.55 397.983 379.011C397.759 379.471 397.477 379.84 397.135 380.118ZM406.22 368.894L402.098 378.136H400.772L404.88 369.222H399.493V368.183H406.22V368.894ZM413.692 370.78C413.692 371.277 413.559 371.719 413.295 372.106C413.035 372.494 412.682 372.797 412.235 373.016C412.755 373.239 413.165 373.565 413.466 373.993C413.771 374.422 413.924 374.907 413.924 375.449C413.924 376.311 413.632 376.996 413.049 377.507C412.47 378.017 411.707 378.272 410.759 378.272C409.802 378.272 409.034 378.017 408.455 377.507C407.881 376.992 407.594 376.306 407.594 375.449C407.594 374.911 407.74 374.426 408.031 373.993C408.328 373.56 408.735 373.232 409.255 373.009C408.813 372.79 408.464 372.487 408.209 372.1C407.954 371.712 407.826 371.272 407.826 370.78C407.826 369.942 408.095 369.276 408.633 368.784C409.171 368.292 409.879 368.046 410.759 368.046C411.634 368.046 412.34 368.292 412.878 368.784C413.42 369.276 413.692 369.942 413.692 370.78ZM412.659 375.422C412.659 374.866 412.482 374.412 412.126 374.062C411.775 373.711 411.315 373.535 410.745 373.535C410.176 373.535 409.718 373.708 409.371 374.055C409.029 374.401 408.859 374.857 408.859 375.422C408.859 375.987 409.025 376.431 409.358 376.755C409.695 377.078 410.162 377.24 410.759 377.24C411.351 377.24 411.816 377.078 412.153 376.755C412.491 376.427 412.659 375.982 412.659 375.422ZM410.759 369.085C410.262 369.085 409.859 369.24 409.549 369.55C409.244 369.855 409.091 370.272 409.091 370.801C409.091 371.307 409.241 371.717 409.542 372.031C409.847 372.341 410.253 372.496 410.759 372.496C411.265 372.496 411.668 372.341 411.969 372.031C412.274 371.717 412.427 371.307 412.427 370.801C412.427 370.295 412.27 369.882 411.955 369.563C411.641 369.244 411.242 369.085 410.759 369.085ZM416.836 370.739L416.87 371.56C417.413 370.922 418.144 370.603 419.065 370.603C420.099 370.603 420.803 370.999 421.177 371.792C421.423 371.437 421.742 371.149 422.134 370.931C422.53 370.712 422.998 370.603 423.535 370.603C425.158 370.603 425.983 371.462 426.01 373.18V378.136H424.745V373.255C424.745 372.726 424.624 372.332 424.383 372.072C424.141 371.808 423.736 371.676 423.166 371.676C422.697 371.676 422.307 371.817 421.997 372.1C421.687 372.378 421.507 372.754 421.457 373.228V378.136H420.186V373.289C420.186 372.214 419.659 371.676 418.607 371.676C417.777 371.676 417.21 372.029 416.904 372.735V378.136H415.64V370.739H416.836ZM429.298 378.136H428.033V370.739H429.298V378.136ZM427.931 368.777C427.931 368.572 427.992 368.399 428.115 368.258C428.243 368.117 428.43 368.046 428.676 368.046C428.922 368.046 429.109 368.117 429.236 368.258C429.364 368.399 429.428 368.572 429.428 368.777C429.428 368.982 429.364 369.153 429.236 369.29C429.109 369.427 428.922 369.495 428.676 369.495C428.43 369.495 428.243 369.427 428.115 369.29C427.992 369.153 427.931 368.982 427.931 368.777ZM432.702 378.136H431.438V367.636H432.702V378.136Z" fill="#009487"/>
<path d="M412.236 398.549H413.59C414.234 398.549 414.712 398.388 415.022 398.065C415.333 397.743 415.488 397.315 415.488 396.782C415.488 396.266 415.333 395.865 415.022 395.578C414.718 395.291 414.296 395.147 413.757 395.147C413.271 395.147 412.863 395.282 412.535 395.552C412.207 395.815 412.043 396.161 412.043 396.589H409.503C409.503 395.921 409.682 395.323 410.039 394.796C410.402 394.263 410.906 393.847 411.551 393.548C412.201 393.249 412.916 393.099 413.695 393.099C415.049 393.099 416.109 393.425 416.877 394.075C417.645 394.72 418.028 395.61 418.028 396.747C418.028 397.333 417.85 397.872 417.492 398.364C417.135 398.856 416.666 399.234 416.086 399.498C416.807 399.756 417.343 400.142 417.694 400.658C418.052 401.174 418.23 401.783 418.23 402.486C418.23 403.623 417.814 404.534 416.982 405.22C416.156 405.905 415.061 406.248 413.695 406.248C412.418 406.248 411.372 405.911 410.558 405.237C409.749 404.563 409.345 403.673 409.345 402.565H411.885C411.885 403.046 412.063 403.438 412.421 403.743C412.784 404.048 413.229 404.2 413.757 404.2C414.36 404.2 414.832 404.042 415.172 403.725C415.518 403.403 415.69 402.978 415.69 402.451C415.69 401.174 414.987 400.535 413.581 400.535H412.236V398.549ZM426.158 406.072H423.618V396.281L420.586 397.222V395.156L425.886 393.258H426.158V406.072ZM430.289 395.736C430.289 394.951 430.544 394.315 431.054 393.829C431.563 393.337 432.231 393.091 433.058 393.091C433.896 393.091 434.569 393.334 435.079 393.82C435.589 394.301 435.844 394.954 435.844 395.78V396.413C435.844 397.204 435.589 397.84 435.079 398.32C434.569 398.801 433.901 399.041 433.075 399.041C432.243 399.041 431.569 398.801 431.054 398.32C430.544 397.834 430.289 397.181 430.289 396.36V395.736ZM431.977 396.413C431.977 396.765 432.076 397.049 432.275 397.266C432.48 397.476 432.747 397.582 433.075 397.582C433.403 397.582 433.664 397.474 433.857 397.257C434.051 397.04 434.147 396.75 434.147 396.387V395.736C434.147 395.385 434.051 395.1 433.857 394.884C433.664 394.667 433.397 394.558 433.058 394.558C432.735 394.558 432.475 394.667 432.275 394.884C432.076 395.095 431.977 395.391 431.977 395.771V396.413ZM436.406 402.934C436.406 402.143 436.664 401.508 437.18 401.027C437.695 400.541 438.363 400.298 439.184 400.298C440.016 400.298 440.687 400.538 441.196 401.018C441.712 401.493 441.97 402.149 441.97 402.987V403.62C441.97 404.405 441.718 405.041 441.214 405.527C440.71 406.008 440.039 406.248 439.201 406.248C438.357 406.248 437.681 406.005 437.171 405.518C436.661 405.032 436.406 404.388 436.406 403.585V402.934ZM438.094 403.62C438.094 403.942 438.199 404.218 438.41 404.446C438.621 404.675 438.885 404.789 439.201 404.789C439.916 404.789 440.273 404.393 440.273 403.602V402.934C440.273 402.583 440.174 402.302 439.975 402.091C439.775 401.874 439.512 401.766 439.184 401.766C438.855 401.766 438.592 401.874 438.393 402.091C438.193 402.302 438.094 402.592 438.094 402.961V403.62ZM433.576 405.114L432.337 404.446L438.586 394.444L439.825 395.112L433.576 405.114Z" fill="#009487"/>
<path d="M8.83203 118.343C8.83203 119.319 8.66797 120.171 8.33984 120.9C8.01172 121.625 7.54688 122.178 6.94531 122.561C6.34375 122.944 5.64193 123.135 4.83984 123.135C4.05599 123.135 3.361 122.944 2.75488 122.561C2.14876 122.174 1.67708 121.625 1.33984 120.914C1.00716 120.198 0.836263 119.371 0.827148 118.432V117.714C0.827148 116.757 0.99349 115.912 1.32617 115.178C1.65885 114.445 2.12826 113.884 2.73438 113.497C3.34505 113.105 4.04232 112.909 4.82617 112.909C5.6237 112.909 6.32552 113.102 6.93164 113.49C7.54232 113.873 8.01172 114.431 8.33984 115.165C8.66797 115.894 8.83203 116.744 8.83203 117.714V118.343ZM7.52637 117.701C7.52637 116.52 7.28939 115.616 6.81543 114.987C6.34147 114.353 5.67839 114.037 4.82617 114.037C3.99674 114.037 3.34277 114.353 2.86426 114.987C2.3903 115.616 2.14648 116.491 2.13281 117.612V118.343C2.13281 119.487 2.37207 120.387 2.85059 121.044C3.33366 121.695 3.99674 122.021 4.83984 122.021C5.6875 122.021 6.34375 121.714 6.80859 121.098C7.27344 120.478 7.5127 119.592 7.52637 118.439V117.701ZM14.1777 116.737C13.9863 116.705 13.779 116.689 13.5557 116.689C12.7262 116.689 12.1634 117.042 11.8672 117.749V122.999H10.6025V115.602H11.833L11.8535 116.457C12.2682 115.796 12.8561 115.465 13.6172 115.465C13.8633 115.465 14.0501 115.497 14.1777 115.561V116.737ZM18.2793 123.135C17.2767 123.135 16.4609 122.807 15.832 122.151C15.2031 121.49 14.8887 120.608 14.8887 119.505V119.273C14.8887 118.539 15.0277 117.885 15.3057 117.311C15.5882 116.732 15.9801 116.281 16.4814 115.958C16.9873 115.63 17.5342 115.465 18.1221 115.465C19.0837 115.465 19.8311 115.782 20.3643 116.416C20.8975 117.049 21.1641 117.956 21.1641 119.136V119.663H16.1533C16.1715 120.392 16.3835 120.982 16.7891 121.433C17.1992 121.88 17.7188 122.103 18.3477 122.103C18.7943 122.103 19.1725 122.012 19.4824 121.83C19.7923 121.647 20.0635 121.406 20.2959 121.105L21.0684 121.707C20.4486 122.659 19.5189 123.135 18.2793 123.135ZM18.1221 116.505C17.6117 116.505 17.1833 116.691 16.8369 117.065C16.4906 117.434 16.2764 117.954 16.1943 118.624H19.8994V118.528C19.863 117.885 19.6898 117.389 19.3799 117.038C19.07 116.682 18.6507 116.505 18.1221 116.505Z" fill="#009487"/>
<path d="M37.0332 113.756L32.9111 122.999H31.585L35.6934 114.085H30.3066V113.046H37.0332V113.756ZM40.3076 117.407H41.2578C41.8548 117.398 42.3242 117.241 42.666 116.935C43.0078 116.63 43.1787 116.217 43.1787 115.698C43.1787 114.531 42.5977 113.948 41.4355 113.948C40.8887 113.948 40.4512 114.105 40.123 114.42C39.7995 114.729 39.6377 115.142 39.6377 115.657H38.373C38.373 114.868 38.6602 114.214 39.2344 113.695C39.8132 113.171 40.5469 112.909 41.4355 112.909C42.3743 112.909 43.1104 113.157 43.6436 113.654C44.1768 114.151 44.4434 114.841 44.4434 115.725C44.4434 116.158 44.3021 116.577 44.0195 116.983C43.7415 117.389 43.361 117.692 42.8779 117.892C43.4248 118.065 43.8464 118.352 44.1426 118.754C44.4434 119.155 44.5938 119.644 44.5938 120.223C44.5938 121.116 44.3021 121.825 43.7188 122.349C43.1354 122.873 42.3766 123.135 41.4424 123.135C40.5081 123.135 39.7471 122.882 39.1592 122.377C38.5758 121.871 38.2842 121.203 38.2842 120.374H39.5557C39.5557 120.898 39.7266 121.317 40.0684 121.631C40.4102 121.946 40.8682 122.103 41.4424 122.103C42.0531 122.103 42.5202 121.944 42.8438 121.625C43.1673 121.306 43.3291 120.848 43.3291 120.251C43.3291 119.672 43.1514 119.227 42.7959 118.918C42.4404 118.608 41.9277 118.448 41.2578 118.439H40.3076V117.407ZM52.3662 115.643C52.3662 116.14 52.234 116.582 51.9697 116.969C51.71 117.357 51.3568 117.66 50.9102 117.879C51.4297 118.102 51.8398 118.428 52.1406 118.856C52.446 119.284 52.5986 119.77 52.5986 120.312C52.5986 121.173 52.307 121.859 51.7236 122.37C51.1449 122.88 50.3815 123.135 49.4336 123.135C48.4766 123.135 47.7087 122.88 47.1299 122.37C46.5557 121.855 46.2686 121.169 46.2686 120.312C46.2686 119.774 46.4144 119.289 46.7061 118.856C47.0023 118.423 47.4102 118.095 47.9297 117.872C47.4876 117.653 47.139 117.35 46.8838 116.963C46.6286 116.575 46.501 116.135 46.501 115.643C46.501 114.805 46.7699 114.139 47.3076 113.647C47.8454 113.155 48.554 112.909 49.4336 112.909C50.3086 112.909 51.015 113.155 51.5527 113.647C52.0951 114.139 52.3662 114.805 52.3662 115.643ZM51.334 120.285C51.334 119.729 51.1562 119.275 50.8008 118.924C50.4499 118.574 49.9896 118.398 49.4199 118.398C48.8503 118.398 48.3923 118.571 48.0459 118.918C47.7041 119.264 47.5332 119.72 47.5332 120.285C47.5332 120.85 47.6995 121.294 48.0322 121.618C48.3695 121.941 48.8366 122.103 49.4336 122.103C50.026 122.103 50.4909 121.941 50.8281 121.618C51.1654 121.29 51.334 120.845 51.334 120.285ZM49.4336 113.948C48.9368 113.948 48.5335 114.103 48.2236 114.413C47.9183 114.718 47.7656 115.135 47.7656 115.664C47.7656 116.17 47.916 116.58 48.2168 116.894C48.5221 117.204 48.9277 117.359 49.4336 117.359C49.9395 117.359 50.3428 117.204 50.6436 116.894C50.9489 116.58 51.1016 116.17 51.1016 115.664C51.1016 115.158 50.9443 114.745 50.6299 114.426C50.3154 114.107 49.9167 113.948 49.4336 113.948ZM54.2803 124.981L53.5625 124.489C53.9909 123.892 54.2142 123.277 54.2324 122.643V121.502H55.4697V122.493C55.4697 122.953 55.3558 123.413 55.1279 123.874C54.9046 124.334 54.6221 124.703 54.2803 124.981ZM62.2783 119.656H63.6592V120.688H62.2783V122.999H61.0068V120.688H56.4746V119.943L60.9316 113.046H62.2783V119.656ZM57.9102 119.656H61.0068V114.775L60.8564 115.048L57.9102 119.656ZM66.9951 119.574L66.2021 120.401V122.999H64.9375V112.499H66.2021V118.849L66.8789 118.036L69.1826 115.602H70.7207L67.8428 118.692L71.0557 122.999H69.5723L66.9951 119.574Z" fill="#009487"/>
<path d="M7.06055 150.934H4.52051V141.143L1.48828 142.084V140.018L6.78809 138.12H7.06055V150.934ZM13.8105 143.411H15.1641C15.8086 143.411 16.2861 143.25 16.5967 142.927C16.9072 142.605 17.0625 142.177 17.0625 141.644C17.0625 141.129 16.9072 140.727 16.5967 140.44C16.292 140.153 15.8701 140.01 15.3311 140.01C14.8447 140.01 14.4375 140.144 14.1094 140.414C13.7812 140.677 13.6172 141.023 13.6172 141.451H11.0771C11.0771 140.783 11.2559 140.185 11.6133 139.658C11.9766 139.125 12.4805 138.709 13.125 138.41C13.7754 138.111 14.4902 137.962 15.2695 137.962C16.623 137.962 17.6836 138.287 18.4512 138.937C19.2188 139.582 19.6025 140.472 19.6025 141.609C19.6025 142.195 19.4238 142.734 19.0664 143.226C18.709 143.719 18.2402 144.096 17.6602 144.36C18.3809 144.618 18.917 145.005 19.2686 145.52C19.626 146.036 19.8047 146.645 19.8047 147.348C19.8047 148.485 19.3887 149.396 18.5566 150.082C17.7305 150.767 16.6348 151.11 15.2695 151.11C13.9922 151.11 12.9463 150.773 12.1318 150.099C11.3232 149.426 10.9189 148.535 10.9189 147.427H13.459C13.459 147.908 13.6377 148.301 13.9951 148.605C14.3584 148.91 14.8037 149.062 15.3311 149.062C15.9346 149.062 16.4062 148.904 16.7461 148.588C17.0918 148.265 17.2646 147.841 17.2646 147.313C17.2646 146.036 16.5615 145.397 15.1553 145.397H13.8105V143.411ZM21.5273 140.598C21.5273 139.813 21.7822 139.177 22.292 138.691C22.8018 138.199 23.4697 137.953 24.2959 137.953C25.1338 137.953 25.8076 138.196 26.3174 138.682C26.8271 139.163 27.082 139.816 27.082 140.642V141.275C27.082 142.066 26.8271 142.702 26.3174 143.182C25.8076 143.663 25.1396 143.903 24.3135 143.903C23.4814 143.903 22.8076 143.663 22.292 143.182C21.7822 142.696 21.5273 142.043 21.5273 141.222V140.598ZM23.2148 141.275C23.2148 141.627 23.3145 141.911 23.5137 142.128C23.7188 142.339 23.9854 142.444 24.3135 142.444C24.6416 142.444 24.9023 142.336 25.0957 142.119C25.2891 141.902 25.3857 141.612 25.3857 141.249V140.598C25.3857 140.247 25.2891 139.963 25.0957 139.746C24.9023 139.529 24.6357 139.421 24.2959 139.421C23.9736 139.421 23.7129 139.529 23.5137 139.746C23.3145 139.957 23.2148 140.253 23.2148 140.634V141.275ZM27.6445 147.797C27.6445 147.006 27.9023 146.37 28.418 145.889C28.9336 145.403 29.6016 145.16 30.4219 145.16C31.2539 145.16 31.9248 145.4 32.4346 145.881C32.9502 146.355 33.208 147.011 33.208 147.849V148.482C33.208 149.267 32.9561 149.903 32.4521 150.389C31.9482 150.87 31.2773 151.11 30.4395 151.11C29.5957 151.11 28.9189 150.867 28.4092 150.381C27.8994 149.894 27.6445 149.25 27.6445 148.447V147.797ZM29.332 148.482C29.332 148.804 29.4375 149.08 29.6484 149.308C29.8594 149.537 30.123 149.651 30.4395 149.651C31.1543 149.651 31.5117 149.256 31.5117 148.465V147.797C31.5117 147.445 31.4121 147.164 31.2129 146.953C31.0137 146.736 30.75 146.628 30.4219 146.628C30.0938 146.628 29.8301 146.736 29.6309 146.953C29.4316 147.164 29.332 147.454 29.332 147.823V148.482ZM24.8145 149.976L23.5752 149.308L29.8242 139.306L31.0635 139.974L24.8145 149.976Z" fill="#009487"/>
<path d="M468.254 151.932C468.131 152.984 467.742 153.798 467.085 154.372C466.434 154.942 465.566 155.227 464.481 155.227C463.305 155.227 462.362 154.805 461.651 153.962C460.944 153.119 460.591 151.991 460.591 150.578V149.621C460.591 148.696 460.755 147.883 461.083 147.181C461.416 146.479 461.886 145.941 462.492 145.568C463.098 145.189 463.8 145 464.597 145C465.654 145 466.502 145.296 467.14 145.889C467.778 146.477 468.15 147.292 468.254 148.336H466.935C466.821 147.543 466.573 146.969 466.19 146.613C465.812 146.258 465.281 146.08 464.597 146.08C463.759 146.08 463.1 146.39 462.622 147.01C462.148 147.63 461.911 148.512 461.911 149.655V150.619C461.911 151.699 462.136 152.558 462.587 153.196C463.039 153.834 463.67 154.153 464.481 154.153C465.21 154.153 465.768 153.989 466.156 153.661C466.548 153.329 466.807 152.752 466.935 151.932H468.254ZM469.519 151.323C469.519 150.599 469.66 149.947 469.943 149.368C470.23 148.79 470.626 148.343 471.132 148.028C471.643 147.714 472.224 147.557 472.875 147.557C473.883 147.557 474.696 147.905 475.316 148.603C475.94 149.3 476.252 150.227 476.252 151.385V151.474C476.252 152.194 476.113 152.841 475.835 153.415C475.562 153.985 475.168 154.429 474.653 154.748C474.142 155.067 473.555 155.227 472.889 155.227C471.887 155.227 471.073 154.878 470.449 154.181C469.829 153.484 469.519 152.561 469.519 151.412V151.323ZM470.791 151.474C470.791 152.294 470.98 152.953 471.358 153.449C471.741 153.946 472.251 154.194 472.889 154.194C473.532 154.194 474.042 153.944 474.42 153.443C474.799 152.937 474.988 152.23 474.988 151.323C474.988 150.512 474.794 149.856 474.407 149.355C474.024 148.849 473.514 148.596 472.875 148.596C472.251 148.596 471.748 148.844 471.365 149.341C470.982 149.838 470.791 150.549 470.791 151.474ZM482.405 155.09C482.332 154.944 482.273 154.684 482.227 154.311C481.639 154.921 480.937 155.227 480.122 155.227C479.392 155.227 478.793 155.022 478.324 154.611C477.859 154.197 477.626 153.673 477.626 153.039C477.626 152.269 477.918 151.672 478.501 151.248C479.089 150.82 479.914 150.606 480.976 150.606H482.207V150.025C482.207 149.582 482.074 149.232 481.81 148.972C481.546 148.707 481.156 148.575 480.641 148.575C480.19 148.575 479.812 148.689 479.506 148.917C479.201 149.145 479.048 149.421 479.048 149.744H477.777C477.777 149.375 477.907 149.02 478.167 148.678C478.431 148.332 478.786 148.058 479.233 147.858C479.684 147.657 480.179 147.557 480.716 147.557C481.569 147.557 482.236 147.771 482.719 148.199C483.202 148.623 483.453 149.209 483.471 149.956V153.36C483.471 154.04 483.558 154.58 483.731 154.981V155.09H482.405ZM480.306 154.126C480.703 154.126 481.079 154.024 481.434 153.818C481.79 153.613 482.047 153.347 482.207 153.019V151.501H481.215C479.666 151.501 478.891 151.955 478.891 152.861C478.891 153.258 479.023 153.568 479.288 153.791C479.552 154.014 479.891 154.126 480.306 154.126ZM486.828 155.09H485.563V144.59H486.828V155.09ZM493.165 153.128C493.165 152.786 493.035 152.522 492.775 152.335C492.52 152.144 492.071 151.98 491.428 151.843C490.79 151.706 490.282 151.542 489.904 151.351C489.53 151.159 489.252 150.931 489.07 150.667C488.892 150.403 488.803 150.088 488.803 149.724C488.803 149.118 489.058 148.605 489.569 148.186C490.084 147.766 490.74 147.557 491.538 147.557C492.376 147.557 493.055 147.773 493.575 148.206C494.099 148.639 494.361 149.193 494.361 149.867H493.089C493.089 149.521 492.941 149.222 492.645 148.972C492.353 148.721 491.984 148.596 491.538 148.596C491.077 148.596 490.717 148.696 490.458 148.897C490.198 149.097 490.068 149.359 490.068 149.683C490.068 149.988 490.189 150.218 490.43 150.373C490.672 150.528 491.107 150.676 491.736 150.818C492.369 150.959 492.882 151.127 493.274 151.323C493.666 151.519 493.955 151.756 494.142 152.034C494.333 152.308 494.429 152.643 494.429 153.039C494.429 153.7 494.165 154.231 493.636 154.632C493.108 155.028 492.422 155.227 491.579 155.227C490.986 155.227 490.462 155.122 490.006 154.912C489.551 154.703 489.193 154.411 488.933 154.037C488.678 153.659 488.55 153.251 488.55 152.814H489.815C489.838 153.237 490.006 153.575 490.321 153.825C490.64 154.071 491.059 154.194 491.579 154.194C492.057 154.194 492.44 154.099 492.727 153.907C493.019 153.711 493.165 153.452 493.165 153.128ZM504.731 149.498H505.681C506.278 149.489 506.748 149.332 507.089 149.026C507.431 148.721 507.602 148.309 507.602 147.789C507.602 146.623 507.021 146.039 505.859 146.039C505.312 146.039 504.875 146.196 504.546 146.511C504.223 146.821 504.061 147.233 504.061 147.748H502.796C502.796 146.96 503.083 146.306 503.658 145.786C504.236 145.262 504.97 145 505.859 145C506.798 145 507.534 145.248 508.067 145.745C508.6 146.242 508.867 146.932 508.867 147.817C508.867 148.249 508.725 148.669 508.443 149.074C508.165 149.48 507.784 149.783 507.301 149.984C507.848 150.157 508.27 150.444 508.566 150.845C508.867 151.246 509.017 151.736 509.017 152.315C509.017 153.208 508.725 153.916 508.142 154.441C507.559 154.965 506.8 155.227 505.866 155.227C504.931 155.227 504.17 154.974 503.583 154.468C502.999 153.962 502.708 153.294 502.708 152.465H503.979C503.979 152.989 504.15 153.408 504.492 153.723C504.833 154.037 505.292 154.194 505.866 154.194C506.476 154.194 506.944 154.035 507.267 153.716C507.591 153.397 507.752 152.939 507.752 152.342C507.752 151.763 507.575 151.319 507.219 151.009C506.864 150.699 506.351 150.54 505.681 150.53H504.731V149.498ZM516.995 150.845C516.995 152.326 516.742 153.427 516.236 154.147C515.73 154.867 514.939 155.227 513.864 155.227C512.802 155.227 512.016 154.876 511.505 154.174C510.995 153.468 510.731 152.415 510.712 151.016V149.327C510.712 147.864 510.965 146.777 511.471 146.067C511.977 145.356 512.77 145 513.85 145C514.921 145 515.709 145.344 516.215 146.032C516.721 146.716 516.981 147.773 516.995 149.204V150.845ZM515.73 149.115C515.73 148.044 515.58 147.265 515.279 146.777C514.978 146.285 514.502 146.039 513.85 146.039C513.203 146.039 512.731 146.283 512.435 146.771C512.139 147.258 511.986 148.008 511.977 149.02V151.043C511.977 152.119 512.132 152.914 512.442 153.429C512.756 153.939 513.23 154.194 513.864 154.194C514.488 154.194 514.951 153.953 515.251 153.47C515.557 152.987 515.716 152.226 515.73 151.187V149.115ZM523.578 145.13V146.203H523.345C522.361 146.221 521.577 146.513 520.994 147.078C520.41 147.643 520.073 148.439 519.982 149.464C520.506 148.862 521.222 148.562 522.128 148.562C522.994 148.562 523.685 148.867 524.2 149.478C524.719 150.088 524.979 150.877 524.979 151.843C524.979 152.868 524.699 153.689 524.138 154.304C523.582 154.919 522.835 155.227 521.896 155.227C520.944 155.227 520.171 154.862 519.579 154.133C518.986 153.399 518.69 152.456 518.69 151.303V150.818C518.69 148.985 519.08 147.586 519.859 146.62C520.643 145.65 521.807 145.153 523.352 145.13H523.578ZM521.917 149.614C521.484 149.614 521.085 149.744 520.72 150.004C520.356 150.264 520.103 150.59 519.961 150.982V151.446C519.961 152.267 520.146 152.928 520.515 153.429C520.884 153.93 521.345 154.181 521.896 154.181C522.466 154.181 522.912 153.971 523.236 153.552C523.564 153.133 523.728 152.583 523.728 151.904C523.728 151.221 523.562 150.669 523.229 150.25C522.901 149.826 522.463 149.614 521.917 149.614ZM526.565 157.072L525.847 156.58C526.276 155.983 526.499 155.368 526.517 154.734V153.593H527.754V154.584C527.754 155.044 527.64 155.505 527.413 155.965C527.189 156.425 526.907 156.794 526.565 157.072ZM533.38 155.09H532.109V146.661L529.559 147.598V146.449L533.182 145.089H533.38V155.09ZM539.28 151.665L538.487 152.492V155.09H537.222V144.59H538.487V150.941L539.164 150.127L541.467 147.693H543.005L540.127 150.783L543.34 155.09H541.857L539.28 151.665Z" fill="#009487"/>
<path d="M526.65 176.73L527.389 170.227H534.561V172.345H529.472L529.155 175.096C529.759 174.773 530.4 174.612 531.08 174.612C532.299 174.612 533.254 174.99 533.945 175.746C534.637 176.502 534.982 177.56 534.982 178.919C534.982 179.745 534.807 180.486 534.455 181.143C534.109 181.793 533.611 182.3 532.961 182.663C532.311 183.021 531.543 183.199 530.658 183.199C529.885 183.199 529.167 183.044 528.505 182.733C527.843 182.417 527.318 181.975 526.932 181.406C526.551 180.838 526.349 180.19 526.325 179.464H528.839C528.892 179.997 529.076 180.413 529.393 180.712C529.715 181.005 530.134 181.151 530.649 181.151C531.224 181.151 531.666 180.946 531.977 180.536C532.287 180.12 532.442 179.534 532.442 178.778C532.442 178.052 532.264 177.495 531.906 177.108C531.549 176.722 531.042 176.528 530.386 176.528C529.782 176.528 529.293 176.687 528.918 177.003L528.672 177.231L526.65 176.73ZM536.573 172.688C536.573 171.902 536.828 171.267 537.338 170.78C537.848 170.288 538.516 170.042 539.342 170.042C540.18 170.042 540.854 170.285 541.363 170.771C541.873 171.252 542.128 171.905 542.128 172.731V173.364C542.128 174.155 541.873 174.791 541.363 175.271C540.854 175.752 540.186 175.992 539.359 175.992C538.527 175.992 537.854 175.752 537.338 175.271C536.828 174.785 536.573 174.132 536.573 173.312V172.688ZM538.261 173.364C538.261 173.716 538.36 174 538.56 174.217C538.765 174.428 539.031 174.533 539.359 174.533C539.688 174.533 539.948 174.425 540.142 174.208C540.335 173.991 540.432 173.701 540.432 173.338V172.688C540.432 172.336 540.335 172.052 540.142 171.835C539.948 171.618 539.682 171.51 539.342 171.51C539.02 171.51 538.759 171.618 538.56 171.835C538.36 172.046 538.261 172.342 538.261 172.723V173.364ZM542.69 179.886C542.69 179.095 542.948 178.459 543.464 177.979C543.979 177.492 544.647 177.249 545.468 177.249C546.3 177.249 546.971 177.489 547.48 177.97C547.996 178.444 548.254 179.101 548.254 179.938V180.571C548.254 181.356 548.002 181.992 547.498 182.479C546.994 182.959 546.323 183.199 545.485 183.199C544.642 183.199 543.965 182.956 543.455 182.47C542.945 181.983 542.69 181.339 542.69 180.536V179.886ZM544.378 180.571C544.378 180.894 544.483 181.169 544.694 181.397C544.905 181.626 545.169 181.74 545.485 181.74C546.2 181.74 546.558 181.345 546.558 180.554V179.886C546.558 179.534 546.458 179.253 546.259 179.042C546.06 178.825 545.796 178.717 545.468 178.717C545.14 178.717 544.876 178.825 544.677 179.042C544.478 179.253 544.378 179.543 544.378 179.912V180.571ZM539.86 182.065L538.621 181.397L544.87 171.396L546.109 172.063L539.86 182.065Z" fill="#009487"/>
<path d="M14.0596 282.6L17.3135 290.722L20.5674 282.6H22.2695V292.554H20.957V288.678L21.0801 284.494L17.8125 292.554H16.8076L13.5469 284.515L13.6768 288.678V292.554H12.3643V282.6H14.0596ZM27.458 292.69C26.4554 292.69 25.6396 292.362 25.0107 291.706C24.3818 291.045 24.0674 290.163 24.0674 289.06V288.828C24.0674 288.094 24.2064 287.44 24.4844 286.866C24.7669 286.287 25.1589 285.836 25.6602 285.513C26.166 285.184 26.7129 285.02 27.3008 285.02C28.2624 285.02 29.0098 285.337 29.543 285.971C30.0762 286.604 30.3428 287.511 30.3428 288.691V289.218H25.332C25.3503 289.947 25.5622 290.537 25.9678 290.988C26.3779 291.435 26.8975 291.658 27.5264 291.658C27.973 291.658 28.3512 291.567 28.6611 291.385C28.971 291.202 29.2422 290.961 29.4746 290.66L30.2471 291.262C29.6273 292.214 28.6976 292.69 27.458 292.69ZM27.3008 286.059C26.7904 286.059 26.362 286.246 26.0156 286.62C25.6693 286.989 25.4551 287.509 25.373 288.179H29.0781V288.083C29.0417 287.44 28.8685 286.944 28.5586 286.593C28.2487 286.237 27.8294 286.059 27.3008 286.059ZM33.5283 283.366V285.157H34.9092V286.135H33.5283V290.722C33.5283 291.018 33.5898 291.241 33.7129 291.391C33.8359 291.537 34.0456 291.61 34.3418 291.61C34.4876 291.61 34.6882 291.583 34.9434 291.528V292.554C34.6107 292.645 34.2871 292.69 33.9727 292.69C33.4076 292.69 32.9814 292.519 32.6943 292.178C32.4072 291.836 32.2637 291.35 32.2637 290.722V286.135H30.917V285.157H32.2637V283.366H33.5283ZM40.959 292.554C40.8861 292.408 40.8268 292.148 40.7812 291.774C40.1934 292.385 39.4915 292.69 38.6758 292.69C37.9466 292.69 37.3473 292.485 36.8779 292.075C36.4131 291.66 36.1807 291.136 36.1807 290.503C36.1807 289.733 36.4723 289.136 37.0557 288.712C37.6436 288.283 38.4684 288.069 39.5303 288.069H40.7607V287.488C40.7607 287.046 40.6286 286.695 40.3643 286.435C40.0999 286.171 39.7103 286.039 39.1953 286.039C38.7441 286.039 38.3659 286.153 38.0605 286.381C37.7552 286.609 37.6025 286.884 37.6025 287.208H36.3311C36.3311 286.839 36.4609 286.483 36.7207 286.141C36.985 285.795 37.3405 285.522 37.7871 285.321C38.2383 285.121 38.7327 285.02 39.2705 285.02C40.1227 285.02 40.7904 285.235 41.2734 285.663C41.7565 286.087 42.0072 286.672 42.0254 287.42V290.824C42.0254 291.503 42.112 292.043 42.2852 292.444V292.554H40.959ZM38.8604 291.59C39.2568 291.59 39.6328 291.487 39.9883 291.282C40.3438 291.077 40.6012 290.81 40.7607 290.482V288.965H39.7695C38.2201 288.965 37.4453 289.418 37.4453 290.325C37.4453 290.722 37.5775 291.031 37.8418 291.255C38.1061 291.478 38.4456 291.59 38.8604 291.59ZM45.3818 292.554H44.1172V282.054H45.3818V292.554ZM51.7188 290.592C51.7188 290.25 51.5889 289.986 51.3291 289.799C51.0739 289.607 50.625 289.443 49.9824 289.307C49.3444 289.17 48.8363 289.006 48.458 288.814C48.0843 288.623 47.8063 288.395 47.624 288.131C47.4463 287.866 47.3574 287.552 47.3574 287.187C47.3574 286.581 47.6126 286.069 48.123 285.649C48.638 285.23 49.2943 285.02 50.0918 285.02C50.9303 285.02 51.6094 285.237 52.1289 285.67C52.653 286.103 52.915 286.656 52.915 287.331H51.6436C51.6436 286.985 51.4954 286.686 51.1992 286.435C50.9076 286.185 50.5384 286.059 50.0918 286.059C49.6315 286.059 49.2715 286.16 49.0117 286.36C48.752 286.561 48.6221 286.823 48.6221 287.146C48.6221 287.452 48.7428 287.682 48.9844 287.837C49.2259 287.992 49.6611 288.14 50.29 288.281C50.9235 288.422 51.4362 288.591 51.8281 288.787C52.2201 288.983 52.5094 289.22 52.6963 289.498C52.8877 289.771 52.9834 290.106 52.9834 290.503C52.9834 291.164 52.7191 291.695 52.1904 292.096C51.6618 292.492 50.9759 292.69 50.1328 292.69C49.5404 292.69 49.0163 292.585 48.5605 292.376C48.1048 292.166 47.7471 291.875 47.4873 291.501C47.2321 291.123 47.1045 290.715 47.1045 290.277H48.3691C48.3919 290.701 48.5605 291.038 48.875 291.289C49.194 291.535 49.6133 291.658 50.1328 291.658C50.6113 291.658 50.9941 291.562 51.2812 291.371C51.5729 291.175 51.7188 290.915 51.7188 290.592ZM64.0098 285.198C64.0098 285.695 63.8776 286.137 63.6133 286.524C63.3535 286.912 63.0003 287.215 62.5537 287.433C63.0732 287.657 63.4834 287.983 63.7842 288.411C64.0895 288.839 64.2422 289.325 64.2422 289.867C64.2422 290.728 63.9505 291.414 63.3672 291.925C62.7884 292.435 62.0251 292.69 61.0771 292.69C60.1201 292.69 59.3522 292.435 58.7734 291.925C58.1992 291.41 57.9121 290.724 57.9121 289.867C57.9121 289.329 58.0579 288.844 58.3496 288.411C58.6458 287.978 59.0537 287.65 59.5732 287.427C59.1312 287.208 58.7826 286.905 58.5273 286.517C58.2721 286.13 58.1445 285.69 58.1445 285.198C58.1445 284.36 58.4134 283.694 58.9512 283.202C59.4889 282.71 60.1976 282.464 61.0771 282.464C61.9521 282.464 62.6585 282.71 63.1963 283.202C63.7386 283.694 64.0098 284.36 64.0098 285.198ZM62.9775 289.84C62.9775 289.284 62.7998 288.83 62.4443 288.479C62.0934 288.128 61.6331 287.953 61.0635 287.953C60.4938 287.953 60.0358 288.126 59.6895 288.473C59.3477 288.819 59.1768 289.275 59.1768 289.84C59.1768 290.405 59.3431 290.849 59.6758 291.173C60.013 291.496 60.4801 291.658 61.0771 291.658C61.6696 291.658 62.1344 291.496 62.4717 291.173C62.8089 290.845 62.9775 290.4 62.9775 289.84ZM61.0771 283.503C60.5804 283.503 60.1771 283.658 59.8672 283.968C59.5618 284.273 59.4092 284.69 59.4092 285.219C59.4092 285.724 59.5596 286.135 59.8604 286.449C60.1657 286.759 60.5713 286.914 61.0771 286.914C61.583 286.914 61.9863 286.759 62.2871 286.449C62.5924 286.135 62.7451 285.724 62.7451 285.219C62.7451 284.713 62.5879 284.3 62.2734 283.981C61.959 283.662 61.5602 283.503 61.0771 283.503ZM72.3564 292.554H65.835V291.644L69.2803 287.816C69.7907 287.238 70.1416 286.768 70.333 286.408C70.529 286.043 70.627 285.668 70.627 285.28C70.627 284.761 70.4697 284.335 70.1553 284.002C69.8408 283.669 69.4215 283.503 68.8975 283.503C68.2686 283.503 67.7786 283.683 67.4277 284.043C67.0814 284.398 66.9082 284.895 66.9082 285.533H65.6436C65.6436 284.617 65.9375 283.877 66.5254 283.311C67.1178 282.746 67.9085 282.464 68.8975 282.464C69.8226 282.464 70.554 282.708 71.0918 283.195C71.6296 283.678 71.8984 284.323 71.8984 285.13C71.8984 286.11 71.2741 287.276 70.0254 288.63L67.3594 291.521H72.3564V292.554ZM79.9375 288.308C79.9375 289.79 79.6846 290.89 79.1787 291.61C78.6729 292.33 77.8822 292.69 76.8066 292.69C75.7448 292.69 74.9587 292.339 74.4482 291.638C73.9378 290.931 73.6735 289.878 73.6553 288.479V286.791C73.6553 285.328 73.9082 284.241 74.4141 283.53C74.9199 282.819 75.7129 282.464 76.793 282.464C77.8639 282.464 78.6523 282.808 79.1582 283.496C79.6641 284.18 79.9238 285.237 79.9375 286.668V288.308ZM78.6729 286.579C78.6729 285.508 78.5225 284.729 78.2217 284.241C77.9209 283.749 77.4447 283.503 76.793 283.503C76.1458 283.503 75.6742 283.747 75.3779 284.234C75.0817 284.722 74.929 285.472 74.9199 286.483V288.507C74.9199 289.582 75.0749 290.377 75.3848 290.892C75.6992 291.403 76.1732 291.658 76.8066 291.658C77.431 291.658 77.8936 291.417 78.1943 290.933C78.4997 290.45 78.6592 289.689 78.6729 288.65V286.579ZM81.6465 294.536L80.9287 294.044C81.3571 293.447 81.5804 292.832 81.5986 292.198V291.057H82.8359V292.048C82.8359 292.508 82.722 292.968 82.4941 293.429C82.2708 293.889 81.9883 294.258 81.6465 294.536ZM86.1445 286.962H87.0947C87.6917 286.953 88.1611 286.795 88.5029 286.49C88.8447 286.185 89.0156 285.772 89.0156 285.253C89.0156 284.086 88.4346 283.503 87.2725 283.503C86.7256 283.503 86.2881 283.66 85.96 283.974C85.6364 284.284 85.4746 284.697 85.4746 285.212H84.21C84.21 284.423 84.4971 283.769 85.0713 283.25C85.6501 282.726 86.3838 282.464 87.2725 282.464C88.2113 282.464 88.9473 282.712 89.4805 283.209C90.0137 283.706 90.2803 284.396 90.2803 285.28C90.2803 285.713 90.139 286.132 89.8564 286.538C89.5785 286.944 89.1979 287.247 88.7148 287.447C89.2617 287.62 89.6833 287.907 89.9795 288.308C90.2803 288.71 90.4307 289.199 90.4307 289.778C90.4307 290.671 90.139 291.38 89.5557 291.904C88.9723 292.428 88.2135 292.69 87.2793 292.69C86.3451 292.69 85.584 292.437 84.9961 291.932C84.4128 291.426 84.1211 290.758 84.1211 289.929H85.3926C85.3926 290.453 85.5635 290.872 85.9053 291.186C86.2471 291.501 86.7051 291.658 87.2793 291.658C87.89 291.658 88.3571 291.499 88.6807 291.18C89.0042 290.861 89.166 290.403 89.166 289.806C89.166 289.227 88.9883 288.782 88.6328 288.473C88.2773 288.163 87.7646 288.003 87.0947 287.994H86.1445V286.962ZM94.3613 289.129L93.5684 289.956V292.554H92.3037V282.054H93.5684V288.404L94.2451 287.591L96.5488 285.157H98.0869L95.209 288.247L98.4219 292.554H96.9385L94.3613 289.129Z" fill="#009487"/>
<path d="M18.249 320.486H15.709V310.695L12.6768 311.635V309.57L17.9766 307.671H18.249V320.486ZM29.9297 315.669H31.3799V317.717H29.9297V320.486H27.3896V317.717H22.1426L22.0283 316.118L27.3633 307.689H29.9297V315.669ZM24.5596 315.669H27.3896V311.152L27.2227 311.442L24.5596 315.669ZM32.7158 310.15C32.7158 309.365 32.9707 308.729 33.4805 308.243C33.9902 307.75 34.6582 307.504 35.4844 307.504C36.3223 307.504 36.9961 307.748 37.5059 308.234C38.0156 308.714 38.2705 309.368 38.2705 310.194V310.827C38.2705 311.618 38.0156 312.253 37.5059 312.734C36.9961 313.214 36.3281 313.455 35.502 313.455C34.6699 313.455 33.9961 313.214 33.4805 312.734C32.9707 312.248 32.7158 311.594 32.7158 310.774V310.15ZM34.4033 310.827C34.4033 311.178 34.5029 311.462 34.7021 311.679C34.9072 311.89 35.1738 311.996 35.502 311.996C35.8301 311.996 36.0908 311.887 36.2842 311.67C36.4775 311.454 36.5742 311.164 36.5742 310.8V310.15C36.5742 309.798 36.4775 309.514 36.2842 309.297C36.0908 309.081 35.8242 308.972 35.4844 308.972C35.1621 308.972 34.9014 309.081 34.7021 309.297C34.5029 309.508 34.4033 309.804 34.4033 310.185V310.827ZM38.833 317.348C38.833 316.557 39.0908 315.921 39.6064 315.441C40.1221 314.955 40.79 314.711 41.6104 314.711C42.4424 314.711 43.1133 314.952 43.623 315.432C44.1387 315.907 44.3965 316.563 44.3965 317.401V318.034C44.3965 318.819 44.1445 319.455 43.6406 319.941C43.1367 320.421 42.4658 320.662 41.6279 320.662C40.7842 320.662 40.1074 320.418 39.5977 319.932C39.0879 319.446 38.833 318.801 38.833 317.999V317.348ZM40.5205 318.034C40.5205 318.356 40.626 318.631 40.8369 318.86C41.0479 319.088 41.3115 319.203 41.6279 319.203C42.3428 319.203 42.7002 318.807 42.7002 318.016V317.348C42.7002 316.997 42.6006 316.715 42.4014 316.504C42.2021 316.288 41.9385 316.179 41.6104 316.179C41.2822 316.179 41.0186 316.288 40.8193 316.504C40.6201 316.715 40.5205 317.005 40.5205 317.375V318.034ZM36.0029 319.528L34.7637 318.86L41.0127 308.858L42.252 309.526L36.0029 319.528Z" fill="#009487"/>
<path d="M41.916 20.7755H162.123V46.0628H223.363" stroke="#009487" stroke-width="0.5" stroke-miterlimit="10"/>
<path d="M545.62 20.7755H390.602V69.0771" stroke="#009487" stroke-width="0.5" stroke-miterlimit="10"/>
<path d="M545.619 164.117H453.262V199.491H414.188" stroke="#009487" stroke-width="0.5" stroke-miterlimit="10"/>
<path d="M434.506 385.878H289.86V281.178" stroke="#009487" stroke-width="0.5" stroke-miterlimit="10"/>
<path d="M12.0781 299.504H123.333V209.862H159.566" stroke="#009487" stroke-width="0.5" stroke-miterlimit="10"/>
<path d="M0 130.164H113.671V103.74H172.779" stroke="#009487" stroke-width="0.5" stroke-miterlimit="10"/>
<path d="M223.363 49.3302C225.21 49.3302 226.631 47.9096 226.631 46.0627C226.631 44.2159 225.21 42.7953 223.363 42.7953C221.516 42.7953 220.095 44.2159 220.095 46.0627C219.953 47.9096 221.516 49.3302 223.363 49.3302Z" fill="#009487"/>
<path d="M390.601 72.4866C388.754 72.4866 387.333 71.0659 387.333 69.2191C387.333 67.3723 388.754 65.9517 390.601 65.9517C392.448 65.9517 393.869 67.3723 393.869 69.2191C393.869 70.9239 392.306 72.4866 390.601 72.4866Z" fill="#009487"/>
<path d="M414.188 202.759C412.341 202.759 410.92 201.338 410.92 199.491C410.92 197.645 412.341 196.224 414.188 196.224C416.035 196.224 417.456 197.645 417.456 199.491C417.456 201.338 415.893 202.759 414.188 202.759Z" fill="#009487"/>
<path d="M289.86 277.91C288.013 277.91 286.592 279.331 286.592 281.178C286.592 283.025 288.013 284.445 289.86 284.445C291.707 284.445 293.128 283.025 293.128 281.178C293.128 279.331 291.707 277.91 289.86 277.91Z" fill="#009487"/>
<path d="M159.565 206.452C161.412 206.452 162.833 207.873 162.833 209.72C162.833 211.567 161.412 212.987 159.565 212.987C157.718 212.987 156.297 211.567 156.297 209.72C156.297 208.015 157.718 206.452 159.565 206.452Z" fill="#009487"/>
<path d="M172.78 100.331C174.627 100.331 176.048 101.752 176.048 103.599C176.048 105.445 174.627 106.866 172.78 106.866C170.933 106.866 169.512 105.445 169.512 103.599C169.512 101.894 170.933 100.331 172.78 100.331Z" fill="#009487"/>
</svg>
