<svg width="558" height="414" viewBox="0 0 558 414" fill="none" xmlns="http://www.w3.org/2000/svg">
<path d="M187.841 45.0305C250.928 -11.2267 347.548 -5.82827 403.815 57.1059C424.134 79.836 437.064 107.965 441.184 138.082L365.451 148.453C359.768 106.686 321.12 77.4209 279.346 83.1034C264.284 85.2344 250.217 91.7693 238.85 101.856L187.841 45.0305Z" fill="#14ADEA"/>
<path d="M366.019 147.884L440.331 137.656C436.068 107.823 423.28 80.2623 403.246 57.8162C347.547 -4.54958 251.496 -10.0901 188.835 45.3146L238.708 101.288C250.075 91.3432 263.999 84.9504 279.061 82.8194C299.522 79.9781 319.84 85.3765 336.18 97.7361C352.663 109.954 363.177 127.711 366.019 147.884ZM441.752 138.792C441.61 138.934 441.468 138.934 441.326 138.934L365.593 149.305C365.45 149.305 365.166 149.305 365.024 149.163C364.882 149.021 364.74 148.879 364.74 148.737C362.04 128.706 351.668 110.948 335.47 98.7305C319.414 86.513 299.379 81.2567 279.345 84.098C264.426 86.2289 250.501 92.6218 239.134 102.708C238.85 102.992 238.424 102.992 238.139 102.708L187.272 45.5988C186.988 45.3147 186.988 44.8885 187.272 44.6043C250.501 -11.7948 347.832 -6.39642 404.241 56.8218C424.701 79.694 437.631 107.823 441.752 138.224C442.036 138.366 441.894 138.65 441.752 138.792Z" fill="white"/>
<path d="M441.184 138.224C445.872 172.746 438.768 207.835 420.723 237.668L355.078 198.459C364.03 183.542 367.582 165.926 365.308 148.737L441.184 138.224Z" fill="#DEDFE0"/>
<path d="M356.215 198.175L420.581 236.674C437.916 207.409 445.02 172.887 440.615 139.076L366.303 149.305C368.434 166.21 364.882 183.542 356.215 198.175ZM421.291 238.237C421.007 238.379 420.723 238.521 420.439 238.379L354.794 199.027C354.652 198.885 354.51 198.743 354.51 198.601C354.51 198.459 354.51 198.175 354.652 198.033C363.461 183.258 367.014 165.784 364.74 148.737C364.74 148.31 365.024 148.026 365.308 147.884L441.042 137.514C441.184 137.514 441.468 137.514 441.61 137.656C441.752 137.798 441.894 137.94 441.894 138.082C446.583 172.603 439.336 208.119 421.433 237.952C421.433 238.095 421.291 238.237 421.291 238.237Z" fill="white"/>
<path d="M420.865 237.668C389.748 289.664 330.781 318.361 270.678 310.831L280.198 234.969C310.32 238.663 339.733 224.315 355.22 198.317L420.865 237.668Z" fill="#CFE3F2"/>
<path d="M271.389 310.263C330.639 317.366 388.754 288.953 419.729 237.953L355.363 199.453C339.733 225.025 310.463 239.231 280.624 235.822L271.389 310.263ZM392.022 273.753C359.483 302.876 315.294 317.224 270.536 311.684C270.394 311.684 270.11 311.541 270.11 311.399C269.968 311.257 269.968 311.115 269.968 310.831L279.488 234.969C279.488 234.543 279.914 234.259 280.34 234.259C310.037 237.953 339.307 223.746 354.652 198.033C354.794 197.749 355.363 197.607 355.647 197.749L421.292 236.958C421.434 237.1 421.576 237.242 421.576 237.384C421.576 237.526 421.576 237.811 421.434 237.953C413.335 251.591 403.389 263.524 392.022 273.753Z" fill="white"/>
<path d="M270.678 310.831C186.846 300.46 127.453 224.03 137.968 140.213C139.957 124.728 144.22 109.669 150.756 95.4629L220.237 127.285C202.618 165.642 219.527 211.102 257.89 228.576C264.995 231.844 272.526 233.975 280.198 234.969L270.678 310.831Z" fill="#41BAAA"/>
<path d="M150.897 96.5995C144.645 110.522 140.383 125.296 138.535 140.497C133.42 180.843 144.503 220.763 169.369 252.727C194.234 284.549 229.898 305.007 269.825 310.121L279.203 235.68C271.672 234.685 264.283 232.554 257.321 229.429C238.565 220.905 224.357 205.562 217.11 186.1C210.006 167.063 210.716 146.322 218.957 127.711L150.897 96.5995ZM271.104 311.399C270.962 311.542 270.678 311.542 270.535 311.542C229.756 306.427 193.524 285.828 168.232 253.438C143.082 221.047 131.999 180.843 137.115 140.071C139.104 124.444 143.366 109.385 149.902 95.1789C150.045 94.7527 150.471 94.6107 150.897 94.7527L220.378 126.575C220.52 126.717 220.662 126.859 220.805 127.001C220.805 127.143 220.805 127.427 220.805 127.569C212.421 145.896 211.569 166.495 218.673 185.531C225.778 204.426 239.702 219.484 258.174 228.008C265.136 231.276 272.667 233.265 280.339 234.259C280.482 234.259 280.766 234.401 280.766 234.543C280.908 234.685 280.908 234.827 280.908 235.111L271.388 310.973C271.388 311.115 271.246 311.399 271.104 311.399Z" fill="white"/>
<path d="M150.613 95.6052C152.46 91.4854 154.592 87.5076 156.723 83.6719L223.22 121.461C222.084 123.45 221.089 125.438 220.095 127.427L150.613 95.6052Z" fill="#3AB0D5"/>
<path d="M151.608 95.1789L219.811 126.291C220.521 124.728 221.374 123.165 222.226 121.603L157.008 84.6662C155.018 88.0757 153.171 91.6273 151.608 95.1789ZM220.663 127.854C220.521 127.996 220.095 128.138 219.811 127.996L150.33 96.1734C150.187 96.0313 150.045 95.8892 149.903 95.7472C149.903 95.6051 149.903 95.321 149.903 95.1789C151.75 91.0591 153.882 87.0813 156.013 83.1035C156.155 82.8194 156.724 82.6773 157.008 82.8194L223.505 120.608C223.647 120.75 223.789 120.892 223.789 121.034C223.789 121.177 223.789 121.461 223.647 121.603C222.51 123.592 221.516 125.581 220.663 127.569C220.805 127.711 220.663 127.854 220.663 127.854Z" fill="white"/>
<path d="M156.723 83.5297C159.707 78.2733 162.975 73.159 166.527 68.3289L228.051 113.789C226.204 116.204 224.641 118.761 223.078 121.318L156.723 83.5297Z" fill="#6AA84B"/>
<path d="M157.718 83.2455L222.936 120.324C224.215 118.193 225.636 115.92 227.057 113.931L166.669 69.4653C163.543 73.8693 160.417 78.5574 157.718 83.2455ZM223.647 121.887C223.363 122.029 223.078 122.171 222.794 122.029L156.297 84.24C156.155 84.0979 156.013 83.9558 156.013 83.8138C156.013 83.6717 156.013 83.3876 156.013 83.2455C158.997 77.9892 162.407 72.8749 165.959 68.0447C166.243 67.7606 166.669 67.6186 166.954 67.9027L228.478 113.221C228.62 113.363 228.762 113.505 228.762 113.647C228.762 113.789 228.762 114.073 228.62 114.215C226.915 116.63 225.21 119.188 223.789 121.745C223.789 121.745 223.789 121.887 223.647 121.887Z" fill="white"/>
<path d="M166.527 68.471C172.779 59.9472 179.884 52.1337 187.841 45.1726L238.708 102.14C234.73 105.692 231.178 109.527 228.052 113.789L166.527 68.471Z" fill="#EDD3DD"/>
<path d="M167.664 68.1867L228.051 112.653C230.893 108.817 234.161 105.265 237.855 101.998L187.982 46.0248C180.309 52.8439 173.631 60.2312 167.664 68.1867ZM228.619 114.357C228.335 114.642 227.909 114.642 227.625 114.357L166.101 69.0391C165.959 68.8971 165.816 68.755 165.816 68.613C165.816 68.4709 165.816 68.1867 165.958 68.0447C172.21 59.5209 179.457 51.7074 187.272 44.6042C187.556 44.3201 187.982 44.3201 188.266 44.6042L239.134 101.572C239.418 101.856 239.418 102.282 239.134 102.566C235.298 106.118 231.745 109.953 228.619 114.357C228.619 114.215 228.619 114.357 228.619 114.357Z" fill="white"/>
<path d="M63.6064 8.34473C63.6064 9.31999 63.4424 10.1722 63.1143 10.9014C62.7861 11.626 62.3213 12.1797 61.7197 12.5625C61.1182 12.9453 60.4163 13.1367 59.6143 13.1367C58.8304 13.1367 58.1354 12.9453 57.5293 12.5625C56.9232 12.1751 56.4515 11.626 56.1143 10.915C55.7816 10.1995 55.6107 9.3724 55.6016 8.43359V7.71582C55.6016 6.75879 55.7679 5.91341 56.1006 5.17969C56.4333 4.44596 56.9027 3.88542 57.5088 3.49805C58.1195 3.10612 58.8167 2.91016 59.6006 2.91016C60.3981 2.91016 61.0999 3.10384 61.7061 3.49121C62.3167 3.87402 62.7861 4.43229 63.1143 5.16602C63.4424 5.89518 63.6064 6.74512 63.6064 7.71582V8.34473ZM62.3008 7.70215C62.3008 6.52181 62.0638 5.61719 61.5898 4.98828C61.1159 4.35482 60.4528 4.03809 59.6006 4.03809C58.7712 4.03809 58.1172 4.35482 57.6387 4.98828C57.1647 5.61719 56.9209 6.49219 56.9072 7.61328V8.34473C56.9072 9.48861 57.1465 10.3887 57.625 11.0449C58.1081 11.6966 58.7712 12.0225 59.6143 12.0225C60.4619 12.0225 61.1182 11.7148 61.583 11.0996C62.0479 10.4798 62.2871 9.59342 62.3008 8.44043V7.70215ZM67.0928 3.8125V5.60352H68.4736V6.58105H67.0928V11.168C67.0928 11.4642 67.1543 11.6875 67.2773 11.8379C67.4004 11.9837 67.61 12.0566 67.9062 12.0566C68.0521 12.0566 68.2526 12.0293 68.5078 11.9746V13C68.1751 13.0911 67.8516 13.1367 67.5371 13.1367C66.972 13.1367 66.5459 12.9658 66.2588 12.624C65.9717 12.2822 65.8281 11.7969 65.8281 11.168V6.58105H64.4814V5.60352H65.8281V3.8125H67.0928ZM71.2217 6.49902C71.7822 5.81087 72.5114 5.4668 73.4092 5.4668C74.9723 5.4668 75.7607 6.34863 75.7744 8.1123V13H74.5098V8.10547C74.5052 7.57227 74.3822 7.17806 74.1406 6.92285C73.9036 6.66764 73.5322 6.54004 73.0264 6.54004C72.6162 6.54004 72.2562 6.64941 71.9463 6.86816C71.6364 7.08691 71.3949 7.37402 71.2217 7.72949V13H69.957V2.5H71.2217V6.49902ZM80.7373 13.1367C79.7347 13.1367 78.9189 12.8086 78.29 12.1523C77.6611 11.4915 77.3467 10.6097 77.3467 9.50684V9.27441C77.3467 8.54069 77.4857 7.88672 77.7637 7.3125C78.0462 6.73372 78.4382 6.28255 78.9395 5.95898C79.4453 5.63086 79.9922 5.4668 80.5801 5.4668C81.5417 5.4668 82.2891 5.78353 82.8223 6.41699C83.3555 7.05046 83.6221 7.95736 83.6221 9.1377V9.66406H78.6113C78.6296 10.3932 78.8415 10.9834 79.2471 11.4346C79.6572 11.8812 80.1768 12.1045 80.8057 12.1045C81.2523 12.1045 81.6305 12.0133 81.9404 11.8311C82.2503 11.6488 82.5215 11.4072 82.7539 11.1064L83.5264 11.708C82.9066 12.6605 81.9769 13.1367 80.7373 13.1367ZM80.5801 6.50586C80.0697 6.50586 79.6413 6.69271 79.2949 7.06641C78.9486 7.43555 78.7344 7.95508 78.6523 8.625H82.3574V8.5293C82.321 7.88672 82.1478 7.38997 81.8379 7.03906C81.528 6.68359 81.1087 6.50586 80.5801 6.50586ZM88.667 6.73828C88.4756 6.70638 88.2682 6.69043 88.0449 6.69043C87.2155 6.69043 86.6527 7.04362 86.3564 7.75V13H85.0918V5.60352H86.3223L86.3428 6.45801C86.7575 5.7972 87.3454 5.4668 88.1064 5.4668C88.3525 5.4668 88.5394 5.4987 88.667 5.5625V6.73828ZM97.2324 8.00977L97.7383 3.04688H102.838V4.21582H98.8115L98.5107 6.92969C98.9984 6.64258 99.5521 6.49902 100.172 6.49902C101.079 6.49902 101.799 6.7998 102.332 7.40137C102.865 7.99837 103.132 8.80729 103.132 9.82812C103.132 10.8535 102.854 11.6624 102.298 12.2549C101.746 12.8428 100.974 13.1367 99.9805 13.1367C99.1009 13.1367 98.3831 12.8929 97.8271 12.4053C97.2712 11.9176 96.9544 11.2432 96.877 10.3818H98.0732C98.1507 10.9515 98.3535 11.3822 98.6816 11.6738C99.0098 11.9609 99.4427 12.1045 99.9805 12.1045C100.568 12.1045 101.029 11.904 101.361 11.5029C101.699 11.1019 101.867 10.5482 101.867 9.8418C101.867 9.17643 101.685 8.64323 101.32 8.24219C100.96 7.83659 100.479 7.63379 99.8779 7.63379C99.3265 7.63379 98.8936 7.75456 98.5791 7.99609L98.2441 8.26953L97.2324 8.00977ZM109.476 3.04004V4.11328H109.243C108.259 4.13151 107.475 4.42318 106.892 4.98828C106.308 5.55339 105.971 6.34863 105.88 7.37402C106.404 6.77246 107.119 6.47168 108.026 6.47168C108.892 6.47168 109.583 6.77702 110.098 7.3877C110.617 7.99837 110.877 8.78678 110.877 9.75293C110.877 10.7783 110.597 11.5986 110.036 12.2139C109.48 12.8291 108.733 13.1367 107.794 13.1367C106.841 13.1367 106.069 12.7721 105.477 12.043C104.884 11.3092 104.588 10.3659 104.588 9.21289V8.72754C104.588 6.89551 104.978 5.49642 105.757 4.53027C106.541 3.55957 107.705 3.06283 109.25 3.04004H109.476ZM107.814 7.52441C107.382 7.52441 106.983 7.6543 106.618 7.91406C106.254 8.17383 106.001 8.49967 105.859 8.8916V9.35645C105.859 10.1768 106.044 10.8376 106.413 11.3389C106.782 11.8402 107.243 12.0908 107.794 12.0908C108.364 12.0908 108.81 11.8812 109.134 11.4619C109.462 11.0426 109.626 10.4935 109.626 9.81445C109.626 9.13086 109.46 8.57943 109.127 8.16016C108.799 7.73633 108.361 7.52441 107.814 7.52441ZM112.463 14.9824L111.745 14.4902C112.174 13.8932 112.397 13.278 112.415 12.6445V11.5029H113.652V12.4941C113.652 12.9544 113.538 13.4147 113.311 13.875C113.087 14.3353 112.805 14.7044 112.463 14.9824ZM116.961 7.4082H117.911C118.508 7.39909 118.978 7.24186 119.319 6.93652C119.661 6.63118 119.832 6.21875 119.832 5.69922C119.832 4.53255 119.251 3.94922 118.089 3.94922C117.542 3.94922 117.104 4.10645 116.776 4.4209C116.453 4.73079 116.291 5.14323 116.291 5.6582H115.026C115.026 4.86979 115.313 4.21582 115.888 3.69629C116.466 3.1722 117.2 2.91016 118.089 2.91016C119.028 2.91016 119.764 3.15853 120.297 3.65527C120.83 4.15202 121.097 4.84245 121.097 5.72656C121.097 6.15951 120.955 6.57878 120.673 6.98438C120.395 7.38997 120.014 7.69303 119.531 7.89355C120.078 8.06673 120.5 8.35384 120.796 8.75488C121.097 9.15592 121.247 9.64583 121.247 10.2246C121.247 11.1178 120.955 11.8265 120.372 12.3506C119.789 12.8747 119.03 13.1367 118.096 13.1367C117.161 13.1367 116.4 12.8838 115.812 12.3779C115.229 11.8721 114.938 11.2044 114.938 10.375H116.209C116.209 10.8991 116.38 11.3184 116.722 11.6328C117.063 11.9473 117.521 12.1045 118.096 12.1045C118.706 12.1045 119.174 11.945 119.497 11.626C119.821 11.307 119.982 10.849 119.982 10.252C119.982 9.67318 119.805 9.22884 119.449 8.91895C119.094 8.60905 118.581 8.44954 117.911 8.44043H116.961V7.4082ZM125.178 9.5752L124.385 10.4023V13H123.12V2.5H124.385V8.85059L125.062 8.03711L127.365 5.60352H128.903L126.025 8.69336L129.238 13H127.755L125.178 9.5752Z" fill="#009487"/>
<path d="M58.249 33.4082H59.6025C60.2471 33.4082 60.7246 33.2471 61.0352 32.9248C61.3457 32.6025 61.501 32.1748 61.501 31.6416C61.501 31.126 61.3457 30.7246 61.0352 30.4375C60.7305 30.1504 60.3086 30.0068 59.7695 30.0068C59.2832 30.0068 58.876 30.1416 58.5479 30.4111C58.2197 30.6748 58.0557 31.0205 58.0557 31.4482H55.5156C55.5156 30.7803 55.6943 30.1826 56.0518 29.6553C56.415 29.1221 56.9189 28.7061 57.5635 28.4072C58.2139 28.1084 58.9287 27.959 59.708 27.959C61.0615 27.959 62.1221 28.2842 62.8896 28.9346C63.6572 29.5791 64.041 30.4697 64.041 31.6064C64.041 32.1924 63.8623 32.7314 63.5049 33.2236C63.1475 33.7158 62.6787 34.0938 62.0986 34.3574C62.8193 34.6152 63.3555 35.002 63.707 35.5176C64.0645 36.0332 64.2432 36.6426 64.2432 37.3457C64.2432 38.4824 63.8271 39.3936 62.9951 40.0791C62.1689 40.7646 61.0732 41.1074 59.708 41.1074C58.4307 41.1074 57.3848 40.7705 56.5703 40.0967C55.7617 39.4229 55.3574 38.5322 55.3574 37.4248H57.8975C57.8975 37.9053 58.0762 38.2979 58.4336 38.6025C58.7969 38.9072 59.2422 39.0596 59.7695 39.0596C60.373 39.0596 60.8447 38.9014 61.1846 38.585C61.5303 38.2627 61.7031 37.8379 61.7031 37.3105C61.7031 36.0332 61 35.3945 59.5938 35.3945H58.249V33.4082ZM65.9658 30.5957C65.9658 29.8105 66.2207 29.1748 66.7305 28.6885C67.2402 28.1963 67.9082 27.9502 68.7344 27.9502C69.5723 27.9502 70.2461 28.1934 70.7559 28.6797C71.2656 29.1602 71.5205 29.8135 71.5205 30.6396V31.2725C71.5205 32.0635 71.2656 32.6992 70.7559 33.1797C70.2461 33.6602 69.5781 33.9004 68.752 33.9004C67.9199 33.9004 67.2461 33.6602 66.7305 33.1797C66.2207 32.6934 65.9658 32.04 65.9658 31.2197V30.5957ZM67.6533 31.2725C67.6533 31.624 67.7529 31.9082 67.9521 32.125C68.1572 32.3359 68.4238 32.4414 68.752 32.4414C69.0801 32.4414 69.3408 32.333 69.5342 32.1162C69.7275 31.8994 69.8242 31.6094 69.8242 31.2461V30.5957C69.8242 30.2441 69.7275 29.96 69.5342 29.7432C69.3408 29.5264 69.0742 29.418 68.7344 29.418C68.4121 29.418 68.1514 29.5264 67.9521 29.7432C67.7529 29.9541 67.6533 30.25 67.6533 30.6309V31.2725ZM72.083 37.7939C72.083 37.0029 72.3408 36.3672 72.8564 35.8867C73.3721 35.4004 74.04 35.1572 74.8604 35.1572C75.6924 35.1572 76.3633 35.3975 76.873 35.8779C77.3887 36.3525 77.6465 37.0088 77.6465 37.8467V38.4795C77.6465 39.2646 77.3945 39.9004 76.8906 40.3867C76.3867 40.8672 75.7158 41.1074 74.8779 41.1074C74.0342 41.1074 73.3574 40.8643 72.8477 40.3779C72.3379 39.8916 72.083 39.2471 72.083 38.4443V37.7939ZM73.7705 38.4795C73.7705 38.8018 73.876 39.0771 74.0869 39.3057C74.2979 39.5342 74.5615 39.6484 74.8779 39.6484C75.5928 39.6484 75.9502 39.2529 75.9502 38.4619V37.7939C75.9502 37.4424 75.8506 37.1611 75.6514 36.9502C75.4521 36.7334 75.1885 36.625 74.8604 36.625C74.5322 36.625 74.2686 36.7334 74.0693 36.9502C73.8701 37.1611 73.7705 37.4512 73.7705 37.8203V38.4795ZM69.2529 39.9736L68.0137 39.3057L74.2627 29.3037L75.502 29.9717L69.2529 39.9736Z" fill="#009487"/>
<path d="M423.953 10.4023H419.783L418.847 13H417.493L421.294 3.04688H422.442L426.25 13H424.903L423.953 10.4023ZM420.18 9.32227H423.563L421.868 4.66699L420.18 9.32227ZM427.091 9.24023C427.091 8.08724 427.357 7.17122 427.891 6.49219C428.424 5.80859 429.13 5.4668 430.01 5.4668C430.912 5.4668 431.616 5.78581 432.122 6.42383L432.184 5.60352H433.339V12.8223C433.339 13.7793 433.054 14.5335 432.484 15.085C431.919 15.6364 431.158 15.9121 430.201 15.9121C429.668 15.9121 429.146 15.7982 428.636 15.5703C428.125 15.3424 427.736 15.0303 427.467 14.6338L428.123 13.875C428.665 14.5449 429.328 14.8799 430.112 14.8799C430.728 14.8799 431.206 14.7067 431.548 14.3604C431.894 14.014 432.067 13.5264 432.067 12.8975V12.2617C431.562 12.8451 430.871 13.1367 429.996 13.1367C429.13 13.1367 428.428 12.7881 427.891 12.0908C427.357 11.3936 427.091 10.4434 427.091 9.24023ZM428.362 9.38379C428.362 10.2178 428.533 10.874 428.875 11.3525C429.217 11.8265 429.695 12.0635 430.311 12.0635C431.108 12.0635 431.694 11.7012 432.067 10.9766V7.59961C431.68 6.89323 431.099 6.54004 430.324 6.54004C429.709 6.54004 429.228 6.7793 428.882 7.25781C428.535 7.73633 428.362 8.44499 428.362 9.38379ZM438.828 6.73828C438.637 6.70638 438.429 6.69043 438.206 6.69043C437.377 6.69043 436.814 7.04362 436.518 7.75V13H435.253V5.60352H436.483L436.504 6.45801C436.919 5.7972 437.507 5.4668 438.268 5.4668C438.514 5.4668 438.701 5.4987 438.828 5.5625V6.73828ZM441.371 13H440.106V5.60352H441.371V13ZM440.004 3.6416C440.004 3.43652 440.065 3.26335 440.188 3.12207C440.316 2.98079 440.503 2.91016 440.749 2.91016C440.995 2.91016 441.182 2.98079 441.31 3.12207C441.437 3.26335 441.501 3.43652 441.501 3.6416C441.501 3.84668 441.437 4.01758 441.31 4.1543C441.182 4.29102 440.995 4.35938 440.749 4.35938C440.503 4.35938 440.316 4.29102 440.188 4.1543C440.065 4.01758 440.004 3.84668 440.004 3.6416ZM449.649 9.38379C449.649 10.5094 449.392 11.4163 448.877 12.1045C448.362 12.7926 447.665 13.1367 446.785 13.1367C445.887 13.1367 445.181 12.8519 444.666 12.2822V15.8438H443.401V5.60352H444.557L444.618 6.42383C445.133 5.78581 445.849 5.4668 446.765 5.4668C447.653 5.4668 448.355 5.80176 448.87 6.47168C449.39 7.1416 449.649 8.07357 449.649 9.26758V9.38379ZM448.385 9.24023C448.385 8.40625 448.207 7.74772 447.852 7.26465C447.496 6.78158 447.008 6.54004 446.389 6.54004C445.623 6.54004 445.049 6.87956 444.666 7.55859V11.0928C445.044 11.7673 445.623 12.1045 446.402 12.1045C447.008 12.1045 447.489 11.8652 447.845 11.3867C448.205 10.9036 448.385 10.1882 448.385 9.24023ZM454.838 6.73828C454.646 6.70638 454.439 6.69043 454.216 6.69043C453.386 6.69043 452.824 7.04362 452.527 7.75V13H451.263V5.60352H452.493L452.514 6.45801C452.928 5.7972 453.516 5.4668 454.277 5.4668C454.523 5.4668 454.71 5.4987 454.838 5.5625V6.73828ZM455.535 9.2334C455.535 8.50879 455.676 7.8571 455.959 7.27832C456.246 6.69954 456.643 6.25293 457.148 5.93848C457.659 5.62402 458.24 5.4668 458.892 5.4668C459.899 5.4668 460.712 5.81543 461.332 6.5127C461.956 7.20996 462.269 8.13737 462.269 9.29492V9.38379C462.269 10.1038 462.13 10.751 461.852 11.3252C461.578 11.8949 461.184 12.3392 460.669 12.6582C460.159 12.9772 459.571 13.1367 458.905 13.1367C457.903 13.1367 457.089 12.7881 456.465 12.0908C455.845 11.3936 455.535 10.4707 455.535 9.32227V9.2334ZM456.807 9.38379C456.807 10.2041 456.996 10.8626 457.374 11.3594C457.757 11.8561 458.267 12.1045 458.905 12.1045C459.548 12.1045 460.058 11.8538 460.437 11.3525C460.815 10.8467 461.004 10.1403 461.004 9.2334C461.004 8.4222 460.81 7.76595 460.423 7.26465C460.04 6.75879 459.53 6.50586 458.892 6.50586C458.267 6.50586 457.764 6.75423 457.381 7.25098C456.998 7.74772 456.807 8.45866 456.807 9.38379ZM463.547 9.24023C463.547 8.10547 463.816 7.19401 464.354 6.50586C464.891 5.81315 465.595 5.4668 466.466 5.4668C467.332 5.4668 468.018 5.76302 468.523 6.35547V2.5H469.788V13H468.626L468.564 12.207C468.059 12.8268 467.354 13.1367 466.452 13.1367C465.595 13.1367 464.896 12.7858 464.354 12.084C463.816 11.3822 463.547 10.4661 463.547 9.33594V9.24023ZM464.812 9.38379C464.812 10.2223 464.985 10.8786 465.331 11.3525C465.677 11.8265 466.156 12.0635 466.767 12.0635C467.569 12.0635 468.154 11.7035 468.523 10.9834V7.58594C468.145 6.88867 467.564 6.54004 466.78 6.54004C466.16 6.54004 465.677 6.7793 465.331 7.25781C464.985 7.73633 464.812 8.44499 464.812 9.38379ZM476.323 12.2686C475.831 12.8473 475.109 13.1367 474.156 13.1367C473.368 13.1367 472.766 12.9089 472.352 12.4531C471.941 11.9928 471.734 11.3138 471.729 10.416V5.60352H472.994V10.3818C472.994 11.5029 473.45 12.0635 474.361 12.0635C475.327 12.0635 475.97 11.7035 476.289 10.9834V5.60352H477.554V13H476.351L476.323 12.2686ZM482.448 12.1045C482.899 12.1045 483.294 11.9678 483.631 11.6943C483.968 11.4209 484.155 11.0791 484.191 10.6689H485.388C485.365 11.0928 485.219 11.4961 484.95 11.8789C484.681 12.2617 484.321 12.5671 483.87 12.7949C483.424 13.0228 482.95 13.1367 482.448 13.1367C481.441 13.1367 480.639 12.8018 480.042 12.1318C479.45 11.4574 479.153 10.5368 479.153 9.37012V9.1582C479.153 8.43815 479.285 7.79785 479.55 7.2373C479.814 6.67676 480.192 6.24154 480.685 5.93164C481.181 5.62174 481.767 5.4668 482.441 5.4668C483.271 5.4668 483.959 5.71517 484.506 6.21191C485.057 6.70866 485.351 7.35352 485.388 8.14648H484.191C484.155 7.66797 483.973 7.27604 483.645 6.9707C483.321 6.66081 482.92 6.50586 482.441 6.50586C481.799 6.50586 481.3 6.73828 480.944 7.20312C480.593 7.66341 480.418 8.33105 480.418 9.20605V9.44531C480.418 10.2975 480.593 10.9538 480.944 11.4141C481.295 11.8743 481.797 12.1045 482.448 12.1045ZM488.525 3.8125V5.60352H489.906V6.58105H488.525V11.168C488.525 11.4642 488.587 11.6875 488.71 11.8379C488.833 11.9837 489.043 12.0566 489.339 12.0566C489.485 12.0566 489.685 12.0293 489.94 11.9746V13C489.608 13.0911 489.284 13.1367 488.97 13.1367C488.405 13.1367 487.979 12.9658 487.691 12.624C487.404 12.2822 487.261 11.7969 487.261 11.168V6.58105H485.914V5.60352H487.261V3.8125H488.525ZM495.696 11.0381C495.696 10.6963 495.566 10.432 495.307 10.2451C495.051 10.0537 494.603 9.88965 493.96 9.75293C493.322 9.61621 492.814 9.45215 492.436 9.26074C492.062 9.06934 491.784 8.84147 491.602 8.57715C491.424 8.31283 491.335 7.99837 491.335 7.63379C491.335 7.02767 491.59 6.51497 492.101 6.0957C492.616 5.67643 493.272 5.4668 494.069 5.4668C494.908 5.4668 495.587 5.68327 496.106 6.11621C496.631 6.54915 496.893 7.10286 496.893 7.77734H495.621C495.621 7.43099 495.473 7.13249 495.177 6.88184C494.885 6.63118 494.516 6.50586 494.069 6.50586C493.609 6.50586 493.249 6.60612 492.989 6.80664C492.729 7.00716 492.6 7.26921 492.6 7.59277C492.6 7.89811 492.72 8.12826 492.962 8.2832C493.203 8.43815 493.639 8.58626 494.268 8.72754C494.901 8.86882 495.414 9.03743 495.806 9.2334C496.198 9.42936 496.487 9.66634 496.674 9.94434C496.865 10.2178 496.961 10.5527 496.961 10.9492C496.961 11.61 496.697 12.141 496.168 12.542C495.639 12.9385 494.953 13.1367 494.11 13.1367C493.518 13.1367 492.994 13.0319 492.538 12.8223C492.082 12.6126 491.725 12.321 491.465 11.9473C491.21 11.569 491.082 11.1611 491.082 10.7236H492.347C492.369 11.1475 492.538 11.4847 492.853 11.7354C493.172 11.9814 493.591 12.1045 494.11 12.1045C494.589 12.1045 494.972 12.0088 495.259 11.8174C495.55 11.6214 495.696 11.3617 495.696 11.0381ZM502.532 8.00977L503.038 3.04688H508.138V4.21582H504.111L503.811 6.92969C504.298 6.64258 504.852 6.49902 505.472 6.49902C506.379 6.49902 507.099 6.7998 507.632 7.40137C508.165 7.99837 508.432 8.80729 508.432 9.82812C508.432 10.8535 508.154 11.6624 507.598 12.2549C507.046 12.8428 506.274 13.1367 505.28 13.1367C504.401 13.1367 503.683 12.8929 503.127 12.4053C502.571 11.9176 502.254 11.2432 502.177 10.3818H503.373C503.451 10.9515 503.653 11.3822 503.981 11.6738C504.31 11.9609 504.743 12.1045 505.28 12.1045C505.868 12.1045 506.328 11.904 506.661 11.5029C506.998 11.1019 507.167 10.5482 507.167 9.8418C507.167 9.17643 506.985 8.64323 506.62 8.24219C506.26 7.83659 505.779 7.63379 505.178 7.63379C504.626 7.63379 504.193 7.75456 503.879 7.99609L503.544 8.26953L502.532 8.00977ZM515.849 5.64453C515.849 6.14128 515.716 6.58333 515.452 6.9707C515.192 7.35807 514.839 7.66113 514.393 7.87988C514.912 8.10319 515.322 8.42904 515.623 8.85742C515.928 9.28581 516.081 9.77116 516.081 10.3135C516.081 11.1748 515.789 11.8607 515.206 12.3711C514.627 12.8815 513.864 13.1367 512.916 13.1367C511.959 13.1367 511.191 12.8815 510.612 12.3711C510.038 11.8561 509.751 11.1702 509.751 10.3135C509.751 9.77572 509.897 9.29036 510.188 8.85742C510.485 8.42448 510.893 8.09635 511.412 7.87305C510.97 7.6543 510.621 7.35124 510.366 6.96387C510.111 6.5765 509.983 6.13672 509.983 5.64453C509.983 4.80599 510.252 4.14062 510.79 3.64844C511.328 3.15625 512.036 2.91016 512.916 2.91016C513.791 2.91016 514.497 3.15625 515.035 3.64844C515.577 4.14062 515.849 4.80599 515.849 5.64453ZM514.816 10.2861C514.816 9.73014 514.639 9.27669 514.283 8.92578C513.932 8.57487 513.472 8.39941 512.902 8.39941C512.333 8.39941 511.875 8.57259 511.528 8.91895C511.187 9.2653 511.016 9.72103 511.016 10.2861C511.016 10.8512 511.182 11.2956 511.515 11.6191C511.852 11.9427 512.319 12.1045 512.916 12.1045C513.508 12.1045 513.973 11.9427 514.311 11.6191C514.648 11.291 514.816 10.8467 514.816 10.2861ZM512.916 3.94922C512.419 3.94922 512.016 4.10417 511.706 4.41406C511.401 4.7194 511.248 5.13639 511.248 5.66504C511.248 6.1709 511.398 6.58105 511.699 6.89551C512.005 7.2054 512.41 7.36035 512.916 7.36035C513.422 7.36035 513.825 7.2054 514.126 6.89551C514.431 6.58105 514.584 6.1709 514.584 5.66504C514.584 5.15918 514.427 4.74674 514.112 4.42773C513.798 4.10872 513.399 3.94922 512.916 3.94922ZM522.521 8.625C522.256 8.93945 521.939 9.19238 521.57 9.38379C521.206 9.5752 520.805 9.6709 520.367 9.6709C519.793 9.6709 519.292 9.52962 518.863 9.24707C518.439 8.96452 518.111 8.56803 517.879 8.05762C517.646 7.54264 517.53 6.97526 517.53 6.35547C517.53 5.6901 517.656 5.09082 517.906 4.55762C518.161 4.02441 518.521 3.61654 518.986 3.33398C519.451 3.05143 519.993 2.91016 520.613 2.91016C521.598 2.91016 522.372 3.2793 522.938 4.01758C523.507 4.7513 523.792 5.75391 523.792 7.02539V7.39453C523.792 9.33138 523.409 10.7464 522.644 11.6396C521.878 12.5283 520.723 12.984 519.178 13.0068H518.932V11.9404H519.198C520.242 11.9222 521.044 11.651 521.604 11.127C522.165 10.5983 522.47 9.76432 522.521 8.625ZM520.572 8.625C520.996 8.625 521.386 8.49512 521.741 8.23535C522.101 7.97559 522.363 7.6543 522.527 7.27148V6.76562C522.527 5.9362 522.347 5.26172 521.987 4.74219C521.627 4.22266 521.172 3.96289 520.62 3.96289C520.064 3.96289 519.618 4.17708 519.28 4.60547C518.943 5.0293 518.774 5.58984 518.774 6.28711C518.774 6.96615 518.936 7.52669 519.26 7.96875C519.588 8.40625 520.025 8.625 520.572 8.625ZM525.624 14.9824L524.906 14.4902C525.335 13.8932 525.558 13.278 525.576 12.6445V11.5029H526.813V12.4941C526.813 12.9544 526.7 13.4147 526.472 13.875C526.248 14.3353 525.966 14.7044 525.624 14.9824ZM534.709 3.75781L530.587 13H529.261L533.369 4.08594H527.982V3.04688H534.709V3.75781ZM541.812 9.5752L541.019 10.4023V13H539.754V2.5H541.019V8.85059L541.695 8.03711L543.999 5.60352H545.537L542.659 8.69336L545.872 13H544.389L541.812 9.5752Z" fill="#009487"/>
<path d="M522.548 33.4082H523.901C524.546 33.4082 525.023 33.2471 525.334 32.9248C525.645 32.6025 525.8 32.1748 525.8 31.6416C525.8 31.126 525.645 30.7246 525.334 30.4375C525.029 30.1504 524.607 30.0068 524.068 30.0068C523.582 30.0068 523.175 30.1416 522.847 30.4111C522.519 30.6748 522.354 31.0205 522.354 31.4482H519.814C519.814 30.7803 519.993 30.1826 520.351 29.6553C520.714 29.1221 521.218 28.7061 521.862 28.4072C522.513 28.1084 523.228 27.959 524.007 27.959C525.36 27.959 526.421 28.2842 527.188 28.9346C527.956 29.5791 528.34 30.4697 528.34 31.6064C528.34 32.1924 528.161 32.7314 527.804 33.2236C527.446 33.7158 526.978 34.0938 526.397 34.3574C527.118 34.6152 527.654 35.002 528.006 35.5176C528.363 36.0332 528.542 36.6426 528.542 37.3457C528.542 38.4824 528.126 39.3936 527.294 40.0791C526.468 40.7646 525.372 41.1074 524.007 41.1074C522.729 41.1074 521.684 40.7705 520.869 40.0967C520.061 39.4229 519.656 38.5322 519.656 37.4248H522.196C522.196 37.9053 522.375 38.2979 522.732 38.6025C523.096 38.9072 523.541 39.0596 524.068 39.0596C524.672 39.0596 525.144 38.9014 525.483 38.585C525.829 38.2627 526.002 37.8379 526.002 37.3105C526.002 36.0332 525.299 35.3945 523.893 35.3945H522.548V33.4082ZM530.678 34.6387L531.416 28.1348H538.588V30.2529H533.499L533.183 33.0039C533.786 32.6816 534.428 32.5205 535.107 32.5205C536.326 32.5205 537.281 32.8984 537.973 33.6543C538.664 34.4102 539.01 35.4678 539.01 36.8271C539.01 37.6533 538.834 38.3945 538.482 39.0508C538.137 39.7012 537.639 40.208 536.988 40.5713C536.338 40.9287 535.57 41.1074 534.686 41.1074C533.912 41.1074 533.194 40.9521 532.532 40.6416C531.87 40.3252 531.346 39.8828 530.959 39.3145C530.578 38.7461 530.376 38.0986 530.353 37.3721H532.866C532.919 37.9053 533.104 38.3213 533.42 38.6201C533.742 38.9131 534.161 39.0596 534.677 39.0596C535.251 39.0596 535.693 38.8545 536.004 38.4443C536.314 38.0283 536.47 37.4424 536.47 36.6865C536.47 35.96 536.291 35.4033 535.934 35.0166C535.576 34.6299 535.069 34.4365 534.413 34.4365C533.81 34.4365 533.32 34.5947 532.945 34.9111L532.699 35.1396L530.678 34.6387ZM540.601 30.5957C540.601 29.8105 540.855 29.1748 541.365 28.6885C541.875 28.1963 542.543 27.9502 543.369 27.9502C544.207 27.9502 544.881 28.1934 545.391 28.6797C545.9 29.1602 546.155 29.8135 546.155 30.6396V31.2725C546.155 32.0635 545.9 32.6992 545.391 33.1797C544.881 33.6602 544.213 33.9004 543.387 33.9004C542.555 33.9004 541.881 33.6602 541.365 33.1797C540.855 32.6934 540.601 32.04 540.601 31.2197V30.5957ZM542.288 31.2725C542.288 31.624 542.388 31.9082 542.587 32.125C542.792 32.3359 543.059 32.4414 543.387 32.4414C543.715 32.4414 543.976 32.333 544.169 32.1162C544.362 31.8994 544.459 31.6094 544.459 31.2461V30.5957C544.459 30.2441 544.362 29.96 544.169 29.7432C543.976 29.5264 543.709 29.418 543.369 29.418C543.047 29.418 542.786 29.5264 542.587 29.7432C542.388 29.9541 542.288 30.25 542.288 30.6309V31.2725ZM546.718 37.7939C546.718 37.0029 546.976 36.3672 547.491 35.8867C548.007 35.4004 548.675 35.1572 549.495 35.1572C550.327 35.1572 550.998 35.3975 551.508 35.8779C552.023 36.3525 552.281 37.0088 552.281 37.8467V38.4795C552.281 39.2646 552.029 39.9004 551.525 40.3867C551.021 40.8672 550.351 41.1074 549.513 41.1074C548.669 41.1074 547.992 40.8643 547.482 40.3779C546.973 39.8916 546.718 39.2471 546.718 38.4443V37.7939ZM548.405 38.4795C548.405 38.8018 548.511 39.0771 548.722 39.3057C548.933 39.5342 549.196 39.6484 549.513 39.6484C550.228 39.6484 550.585 39.2529 550.585 38.4619V37.7939C550.585 37.4424 550.485 37.1611 550.286 36.9502C550.087 36.7334 549.823 36.625 549.495 36.625C549.167 36.625 548.903 36.7334 548.704 36.9502C548.505 37.1611 548.405 37.4512 548.405 37.8203V38.4795ZM543.888 39.9736L542.648 39.3057L548.897 29.3037L550.137 29.9717L543.888 39.9736Z" fill="#009487"/>
<path d="M278.044 368.18L281.297 376.302L284.551 368.18H286.254V378.134H284.941V374.258L285.064 370.074L281.797 378.134H280.792L277.531 370.094L277.661 374.258V378.134H276.348V368.18H278.044ZM291.442 378.27C290.439 378.27 289.624 377.942 288.995 377.286C288.366 376.625 288.051 375.743 288.051 374.64V374.408C288.051 373.674 288.19 373.02 288.468 372.446C288.751 371.867 289.143 371.416 289.644 371.093C290.15 370.764 290.697 370.6 291.285 370.6C292.246 370.6 292.994 370.917 293.527 371.551C294.06 372.184 294.327 373.091 294.327 374.271V374.798H289.316C289.334 375.527 289.546 376.117 289.952 376.568C290.362 377.015 290.881 377.238 291.51 377.238C291.957 377.238 292.335 377.147 292.645 376.965C292.955 376.782 293.226 376.541 293.459 376.24L294.231 376.842C293.611 377.794 292.682 378.27 291.442 378.27ZM291.285 371.639C290.774 371.639 290.346 371.826 290 372.2C289.653 372.569 289.439 373.089 289.357 373.759H293.062V373.663C293.026 373.02 292.852 372.524 292.543 372.173C292.233 371.817 291.813 371.639 291.285 371.639ZM297.512 368.946V370.737H298.893V371.715H297.512V376.302C297.512 376.598 297.574 376.821 297.697 376.971C297.82 377.117 298.03 377.19 298.326 377.19C298.472 377.19 298.672 377.163 298.927 377.108V378.134C298.595 378.225 298.271 378.27 297.957 378.27C297.392 378.27 296.965 378.099 296.678 377.758C296.391 377.416 296.248 376.93 296.248 376.302V371.715H294.901V370.737H296.248V368.946H297.512ZM304.943 378.134C304.87 377.988 304.811 377.728 304.765 377.354C304.177 377.965 303.476 378.27 302.66 378.27C301.931 378.27 301.331 378.065 300.862 377.655C300.397 377.24 300.165 376.716 300.165 376.083C300.165 375.313 300.456 374.716 301.04 374.292C301.628 373.863 302.452 373.649 303.514 373.649H304.745V373.068C304.745 372.626 304.613 372.275 304.348 372.015C304.084 371.751 303.694 371.619 303.179 371.619C302.728 371.619 302.35 371.733 302.045 371.961C301.739 372.189 301.587 372.464 301.587 372.788H300.315C300.315 372.419 300.445 372.063 300.705 371.721C300.969 371.375 301.325 371.102 301.771 370.901C302.222 370.701 302.717 370.6 303.255 370.6C304.107 370.6 304.774 370.815 305.257 371.243C305.741 371.667 305.991 372.252 306.009 373V376.404C306.009 377.083 306.096 377.623 306.269 378.024V378.134H304.943ZM302.844 377.17C303.241 377.17 303.617 377.067 303.972 376.862C304.328 376.657 304.585 376.39 304.745 376.062V374.545H303.754C302.204 374.545 301.429 374.998 301.429 375.905C301.429 376.302 301.561 376.611 301.826 376.835C302.09 377.058 302.43 377.17 302.844 377.17ZM309.366 378.134H308.101V367.634H309.366V378.134ZM315.703 376.172C315.703 375.83 315.573 375.566 315.313 375.379C315.058 375.187 314.609 375.023 313.966 374.886C313.328 374.75 312.82 374.586 312.442 374.394C312.068 374.203 311.79 373.975 311.608 373.711C311.43 373.446 311.341 373.132 311.341 372.767C311.341 372.161 311.597 371.649 312.107 371.229C312.622 370.81 313.278 370.6 314.076 370.6C314.914 370.6 315.593 370.817 316.113 371.25C316.637 371.683 316.899 372.236 316.899 372.911H315.628C315.628 372.565 315.479 372.266 315.183 372.015C314.892 371.765 314.522 371.639 314.076 371.639C313.616 371.639 313.255 371.74 312.996 371.94C312.736 372.141 312.606 372.403 312.606 372.726C312.606 373.032 312.727 373.262 312.968 373.417C313.21 373.572 313.645 373.72 314.274 373.861C314.908 374.002 315.42 374.171 315.812 374.367C316.204 374.563 316.493 374.8 316.68 375.078C316.872 375.351 316.967 375.686 316.967 376.083C316.967 376.744 316.703 377.274 316.174 377.676C315.646 378.072 314.96 378.27 314.117 378.27C313.524 378.27 313 378.165 312.545 377.956C312.089 377.746 311.731 377.455 311.471 377.081C311.216 376.703 311.089 376.295 311.089 375.857H312.353C312.376 376.281 312.545 376.618 312.859 376.869C313.178 377.115 313.597 377.238 314.117 377.238C314.595 377.238 314.978 377.142 315.265 376.951C315.557 376.755 315.703 376.495 315.703 376.172ZM326.011 373.143L326.517 368.18H331.617V369.349H327.59L327.29 372.063C327.777 371.776 328.331 371.633 328.951 371.633C329.858 371.633 330.578 371.933 331.111 372.535C331.644 373.132 331.911 373.941 331.911 374.962C331.911 375.987 331.633 376.796 331.077 377.388C330.525 377.976 329.753 378.27 328.759 378.27C327.88 378.27 327.162 378.026 326.606 377.539C326.05 377.051 325.733 376.377 325.656 375.515H326.852C326.93 376.085 327.132 376.516 327.461 376.807C327.789 377.094 328.222 377.238 328.759 377.238C329.347 377.238 329.808 377.038 330.14 376.636C330.477 376.235 330.646 375.682 330.646 374.975C330.646 374.31 330.464 373.777 330.099 373.376C329.739 372.97 329.258 372.767 328.657 372.767C328.105 372.767 327.672 372.888 327.358 373.13L327.023 373.403L326.011 373.143ZM337.448 378.134H336.176V369.705L333.627 370.641V369.493L337.25 368.133H337.448V378.134ZM345.309 378.134H344.038V369.705L341.488 370.641V369.493L345.111 368.133H345.309V378.134ZM349.103 380.116L348.385 379.624C348.814 379.027 349.037 378.412 349.055 377.778V376.636H350.293V377.628C350.293 378.088 350.179 378.548 349.951 379.009C349.727 379.469 349.445 379.838 349.103 380.116ZM357.101 374.791H358.482V375.823H357.101V378.134H355.83V375.823H351.297V375.078L355.755 368.18H357.101V374.791ZM352.733 374.791H355.83V369.91L355.679 370.183L352.733 374.791ZM361.818 374.709L361.025 375.536V378.134H359.76V367.634H361.025V373.984L361.702 373.171L364.005 370.737H365.544L362.666 373.827L365.879 378.134H364.395L361.818 374.709Z" fill="#009487"/>
<path d="M341.616 398.54H342.97C343.614 398.54 344.092 398.379 344.402 398.057C344.713 397.735 344.868 397.307 344.868 396.774C344.868 396.258 344.713 395.857 344.402 395.57C344.098 395.282 343.676 395.139 343.137 395.139C342.65 395.139 342.243 395.274 341.915 395.543C341.587 395.807 341.423 396.153 341.423 396.58H338.883C338.883 395.912 339.062 395.315 339.419 394.787C339.782 394.254 340.286 393.838 340.931 393.539C341.581 393.24 342.296 393.091 343.075 393.091C344.429 393.091 345.489 393.416 346.257 394.067C347.024 394.711 347.408 395.602 347.408 396.739C347.408 397.324 347.229 397.864 346.872 398.356C346.515 398.848 346.046 399.226 345.466 399.49C346.187 399.747 346.723 400.134 347.074 400.65C347.432 401.165 347.61 401.775 347.61 402.478C347.61 403.615 347.194 404.526 346.362 405.211C345.536 405.897 344.44 406.24 343.075 406.24C341.798 406.24 340.752 405.903 339.938 405.229C339.129 404.555 338.725 403.664 338.725 402.557H341.265C341.265 403.037 341.443 403.43 341.801 403.735C342.164 404.039 342.609 404.192 343.137 404.192C343.74 404.192 344.212 404.033 344.552 403.717C344.897 403.395 345.07 402.97 345.07 402.443C345.07 401.165 344.367 400.527 342.961 400.527H341.616V398.54ZM357.981 400.773C357.981 402.542 357.615 403.896 356.883 404.833C356.15 405.771 355.078 406.24 353.666 406.24C352.271 406.24 351.205 405.78 350.467 404.86C349.729 403.94 349.351 402.621 349.333 400.905V398.549C349.333 396.762 349.702 395.406 350.44 394.48C351.185 393.554 352.254 393.091 353.648 393.091C355.043 393.091 356.109 393.551 356.848 394.471C357.586 395.385 357.964 396.7 357.981 398.417V400.773ZM355.441 398.189C355.441 397.128 355.295 396.358 355.002 395.877C354.715 395.391 354.264 395.148 353.648 395.148C353.051 395.148 352.608 395.379 352.321 395.842C352.04 396.299 351.891 397.017 351.873 397.995V401.107C351.873 402.15 352.014 402.926 352.295 403.436C352.582 403.94 353.039 404.192 353.666 404.192C354.287 404.192 354.735 403.948 355.011 403.462C355.286 402.976 355.43 402.232 355.441 401.23V398.189ZM359.669 395.728C359.669 394.943 359.924 394.307 360.434 393.821C360.943 393.328 361.611 393.082 362.438 393.082C363.275 393.082 363.949 393.325 364.459 393.812C364.969 394.292 365.224 394.946 365.224 395.772V396.405C365.224 397.196 364.969 397.831 364.459 398.312C363.949 398.792 363.281 399.032 362.455 399.032C361.623 399.032 360.949 398.792 360.434 398.312C359.924 397.825 359.669 397.172 359.669 396.352V395.728ZM361.356 396.405C361.356 396.756 361.456 397.04 361.655 397.257C361.86 397.468 362.127 397.573 362.455 397.573C362.783 397.573 363.044 397.465 363.237 397.248C363.431 397.031 363.527 396.741 363.527 396.378V395.728C363.527 395.376 363.431 395.092 363.237 394.875C363.044 394.658 362.777 394.55 362.438 394.55C362.115 394.55 361.854 394.658 361.655 394.875C361.456 395.086 361.356 395.382 361.356 395.763V396.405ZM365.786 402.926C365.786 402.135 366.044 401.499 366.56 401.019C367.075 400.532 367.743 400.289 368.563 400.289C369.396 400.289 370.066 400.53 370.576 401.01C371.092 401.485 371.35 402.141 371.35 402.979V403.612C371.35 404.397 371.098 405.032 370.594 405.519C370.09 405.999 369.419 406.24 368.581 406.24C367.737 406.24 367.061 405.996 366.551 405.51C366.041 405.024 365.786 404.379 365.786 403.576V402.926ZM367.474 403.612C367.474 403.934 367.579 404.209 367.79 404.438C368.001 404.666 368.265 404.781 368.581 404.781C369.296 404.781 369.653 404.385 369.653 403.594V402.926C369.653 402.574 369.554 402.293 369.354 402.082C369.155 401.865 368.892 401.757 368.563 401.757C368.235 401.757 367.972 401.865 367.772 402.082C367.573 402.293 367.474 402.583 367.474 402.952V403.612ZM362.956 405.106L361.717 404.438L367.966 394.436L369.205 395.104L362.956 405.106Z" fill="#009487"/>
<path d="M8.08398 167.216H4.88477V176.089H3.5791V167.216H0.386719V166.135H8.08398V167.216ZM10.7363 176.089H9.47168V168.692H10.7363V176.089ZM9.36914 166.73C9.36914 166.525 9.43066 166.352 9.55371 166.211C9.68132 166.069 9.86816 165.999 10.1143 165.999C10.3604 165.999 10.5472 166.069 10.6748 166.211C10.8024 166.352 10.8662 166.525 10.8662 166.73C10.8662 166.935 10.8024 167.106 10.6748 167.243C10.5472 167.38 10.3604 167.448 10.1143 167.448C9.86816 167.448 9.68132 167.38 9.55371 167.243C9.43066 167.106 9.36914 166.935 9.36914 166.73ZM13.9561 168.692L13.9902 169.512C14.5326 168.874 15.264 168.555 16.1846 168.555C17.2191 168.555 17.9232 168.952 18.2969 169.745C18.543 169.389 18.862 169.102 19.2539 168.884C19.6504 168.665 20.1175 168.555 20.6553 168.555C22.2777 168.555 23.1025 169.414 23.1299 171.133V176.089H21.8652V171.208C21.8652 170.679 21.7445 170.285 21.5029 170.025C21.2614 169.761 20.8558 169.629 20.2861 169.629C19.8167 169.629 19.4271 169.77 19.1172 170.052C18.8073 170.33 18.6273 170.706 18.5771 171.18V176.089H17.3057V171.242C17.3057 170.166 16.7793 169.629 15.7266 169.629C14.8971 169.629 14.3298 169.982 14.0244 170.688V176.089H12.7598V168.692H13.9561ZM31.3057 172.472C31.3057 173.603 31.0459 174.512 30.5264 175.2C30.0068 175.884 29.3096 176.225 28.4346 176.225C27.5003 176.225 26.778 175.895 26.2676 175.234L26.2061 176.089H25.0439V165.589H26.3086V169.506C26.819 168.872 27.5231 168.555 28.4209 168.555C29.3187 168.555 30.0228 168.895 30.5332 169.574C31.0482 170.253 31.3057 171.183 31.3057 172.363V172.472ZM30.041 172.329C30.041 171.468 29.8747 170.802 29.542 170.333C29.2093 169.863 28.7308 169.629 28.1064 169.629C27.2725 169.629 26.6732 170.016 26.3086 170.791V173.99C26.696 174.765 27.2998 175.152 28.1201 175.152C28.7262 175.152 29.1979 174.917 29.5352 174.448C29.8724 173.979 30.041 173.272 30.041 172.329ZM35.9746 176.225C34.972 176.225 34.1562 175.897 33.5273 175.241C32.8984 174.58 32.584 173.698 32.584 172.595V172.363C32.584 171.629 32.723 170.975 33.001 170.401C33.2835 169.822 33.6755 169.371 34.1768 169.048C34.6826 168.719 35.2295 168.555 35.8174 168.555C36.779 168.555 37.5264 168.872 38.0596 169.506C38.5928 170.139 38.8594 171.046 38.8594 172.226V172.753H33.8486C33.8669 173.482 34.0788 174.072 34.4844 174.523C34.8945 174.97 35.4141 175.193 36.043 175.193C36.4896 175.193 36.8678 175.102 37.1777 174.92C37.4876 174.737 37.7588 174.496 37.9912 174.195L38.7637 174.797C38.1439 175.749 37.2142 176.225 35.9746 176.225ZM35.8174 169.594C35.307 169.594 34.8786 169.781 34.5322 170.155C34.1859 170.524 33.9717 171.044 33.8896 171.714H37.5947V171.618C37.5583 170.975 37.3851 170.479 37.0752 170.128C36.7653 169.772 36.346 169.594 35.8174 169.594ZM43.9043 169.827C43.7129 169.795 43.5055 169.779 43.2822 169.779C42.4528 169.779 41.89 170.132 41.5938 170.839V176.089H40.3291V168.692H41.5596L41.5801 169.547C41.9948 168.886 42.5827 168.555 43.3438 168.555C43.5898 168.555 43.7767 168.587 43.9043 168.651V169.827Z" fill="#009487"/>
<path d="M57.7178 170.497H58.668C59.265 170.488 59.7344 170.33 60.0762 170.025C60.418 169.72 60.5889 169.307 60.5889 168.788C60.5889 167.621 60.0078 167.038 58.8457 167.038C58.2988 167.038 57.8613 167.195 57.5332 167.51C57.2096 167.819 57.0479 168.232 57.0479 168.747H55.7832C55.7832 167.958 56.0703 167.304 56.6445 166.785C57.2233 166.261 57.957 165.999 58.8457 165.999C59.7845 165.999 60.5205 166.247 61.0537 166.744C61.5869 167.241 61.8535 167.931 61.8535 168.815C61.8535 169.248 61.7122 169.667 61.4297 170.073C61.1517 170.479 60.7712 170.782 60.2881 170.982C60.835 171.155 61.2565 171.442 61.5527 171.844C61.8535 172.245 62.0039 172.734 62.0039 173.313C62.0039 174.206 61.7122 174.915 61.1289 175.439C60.5456 175.963 59.7868 176.225 58.8525 176.225C57.9183 176.225 57.1572 175.972 56.5693 175.467C55.986 174.961 55.6943 174.293 55.6943 173.464H56.9658C56.9658 173.988 57.1367 174.407 57.4785 174.721C57.8203 175.036 58.2783 175.193 58.8525 175.193C59.4632 175.193 59.9303 175.034 60.2539 174.715C60.5775 174.396 60.7393 173.938 60.7393 173.341C60.7393 172.762 60.5615 172.317 60.2061 172.008C59.8506 171.698 59.3379 171.538 58.668 171.529H57.7178V170.497ZM70.2617 176.089H63.7402V175.179L67.1855 171.351C67.696 170.773 68.0469 170.303 68.2383 169.943C68.4342 169.579 68.5322 169.203 68.5322 168.815C68.5322 168.296 68.375 167.87 68.0605 167.537C67.7461 167.204 67.3268 167.038 66.8027 167.038C66.1738 167.038 65.6839 167.218 65.333 167.578C64.9867 167.933 64.8135 168.43 64.8135 169.068H63.5488C63.5488 168.152 63.8428 167.412 64.4307 166.846C65.0231 166.281 65.8138 165.999 66.8027 165.999C67.7279 165.999 68.4593 166.243 68.9971 166.73C69.5348 167.213 69.8037 167.858 69.8037 168.665C69.8037 169.645 69.1794 170.811 67.9307 172.165L65.2646 175.056H70.2617V176.089ZM71.6904 178.071L70.9727 177.579C71.401 176.982 71.6243 176.367 71.6426 175.733V174.592H72.8799V175.583C72.8799 176.043 72.766 176.503 72.5381 176.964C72.3148 177.424 72.0322 177.793 71.6904 178.071ZM76.1885 170.497H77.1387C77.7357 170.488 78.2051 170.33 78.5469 170.025C78.8887 169.72 79.0596 169.307 79.0596 168.788C79.0596 167.621 78.4785 167.038 77.3164 167.038C76.7695 167.038 76.332 167.195 76.0039 167.51C75.6803 167.819 75.5186 168.232 75.5186 168.747H74.2539C74.2539 167.958 74.541 167.304 75.1152 166.785C75.694 166.261 76.4277 165.999 77.3164 165.999C78.2552 165.999 78.9912 166.247 79.5244 166.744C80.0576 167.241 80.3242 167.931 80.3242 168.815C80.3242 169.248 80.1829 169.667 79.9004 170.073C79.6224 170.479 79.2419 170.782 78.7588 170.982C79.3057 171.155 79.7272 171.442 80.0234 171.844C80.3242 172.245 80.4746 172.734 80.4746 173.313C80.4746 174.206 80.1829 174.915 79.5996 175.439C79.0163 175.963 78.2575 176.225 77.3232 176.225C76.389 176.225 75.6279 175.972 75.04 175.467C74.4567 174.961 74.165 174.293 74.165 173.464H75.4365C75.4365 173.988 75.6074 174.407 75.9492 174.721C76.291 175.036 76.749 175.193 77.3232 175.193C77.9339 175.193 78.401 175.034 78.7246 174.715C79.0482 174.396 79.21 173.938 79.21 173.341C79.21 172.762 79.0322 172.317 78.6768 172.008C78.3213 171.698 77.8086 171.538 77.1387 171.529H76.1885V170.497ZM84.4053 172.664L83.6123 173.491V176.089H82.3477V165.589H83.6123V171.939L84.2891 171.126L86.5928 168.692H88.1309L85.2529 171.782L88.4658 176.089H86.9824L84.4053 172.664Z" fill="#009487"/>
<path d="M9.69336 204.024H0.921875V202.284L5.06152 197.872C5.62988 197.251 6.04883 196.709 6.31836 196.246C6.59375 195.783 6.73145 195.344 6.73145 194.927C6.73145 194.359 6.58789 193.914 6.30078 193.592C6.01367 193.263 5.60352 193.099 5.07031 193.099C4.49609 193.099 4.04199 193.299 3.70801 193.697C3.37988 194.09 3.21582 194.608 3.21582 195.253H0.666992C0.666992 194.473 0.851562 193.761 1.2207 193.117C1.5957 192.472 2.12305 191.969 2.80273 191.605C3.48242 191.236 4.25293 191.052 5.11426 191.052C6.43262 191.052 7.45508 191.368 8.18164 192.001C8.91406 192.634 9.28027 193.527 9.28027 194.681C9.28027 195.314 9.11621 195.959 8.78809 196.615C8.45996 197.271 7.89746 198.036 7.10059 198.909L4.19141 201.976H9.69336V204.024ZM11.2227 193.688C11.2227 192.903 11.4775 192.267 11.9873 191.781C12.4971 191.289 13.165 191.043 13.9912 191.043C14.8291 191.043 15.5029 191.286 16.0127 191.772C16.5225 192.253 16.7773 192.906 16.7773 193.732V194.365C16.7773 195.156 16.5225 195.792 16.0127 196.272C15.5029 196.753 14.835 196.993 14.0088 196.993C13.1768 196.993 12.5029 196.753 11.9873 196.272C11.4775 195.786 11.2227 195.133 11.2227 194.312V193.688ZM12.9102 194.365C12.9102 194.717 13.0098 195.001 13.209 195.218C13.4141 195.428 13.6807 195.534 14.0088 195.534C14.3369 195.534 14.5977 195.426 14.791 195.209C14.9844 194.992 15.0811 194.702 15.0811 194.339V193.688C15.0811 193.337 14.9844 193.052 14.791 192.836C14.5977 192.619 14.3311 192.51 13.9912 192.51C13.6689 192.51 13.4082 192.619 13.209 192.836C13.0098 193.047 12.9102 193.343 12.9102 193.723V194.365ZM17.3398 200.886C17.3398 200.095 17.5977 199.46 18.1133 198.979C18.6289 198.493 19.2969 198.25 20.1172 198.25C20.9492 198.25 21.6201 198.49 22.1299 198.97C22.6455 199.445 22.9033 200.101 22.9033 200.939V201.572C22.9033 202.357 22.6514 202.993 22.1475 203.479C21.6436 203.96 20.9727 204.2 20.1348 204.2C19.291 204.2 18.6143 203.957 18.1045 203.47C17.5947 202.984 17.3398 202.34 17.3398 201.537V200.886ZM19.0273 201.572C19.0273 201.894 19.1328 202.17 19.3438 202.398C19.5547 202.627 19.8184 202.741 20.1348 202.741C20.8496 202.741 21.207 202.345 21.207 201.554V200.886C21.207 200.535 21.1074 200.254 20.9082 200.043C20.709 199.826 20.4453 199.718 20.1172 199.718C19.7891 199.718 19.5254 199.826 19.3262 200.043C19.127 200.254 19.0273 200.544 19.0273 200.913V201.572ZM14.5098 203.066L13.2705 202.398L19.5195 192.396L20.7588 193.064L14.5098 203.066Z" fill="#009487"/>
<path d="M472.846 151.927C472.723 152.979 472.334 153.793 471.677 154.367C471.026 154.937 470.158 155.222 469.073 155.222C467.897 155.222 466.954 154.8 466.243 153.957C465.536 153.114 465.183 151.986 465.183 150.573V149.616C465.183 148.691 465.347 147.878 465.675 147.176C466.008 146.474 466.477 145.936 467.084 145.562C467.69 145.184 468.392 144.995 469.189 144.995C470.246 144.995 471.094 145.291 471.732 145.884C472.37 146.472 472.741 147.287 472.846 148.331H471.527C471.413 147.538 471.165 146.964 470.782 146.608C470.404 146.253 469.873 146.075 469.189 146.075C468.351 146.075 467.692 146.385 467.214 147.005C466.74 147.625 466.503 148.507 466.503 149.65V150.614C466.503 151.694 466.728 152.553 467.179 153.191C467.63 153.829 468.262 154.148 469.073 154.148C469.802 154.148 470.36 153.984 470.748 153.656C471.14 153.324 471.399 152.747 471.527 151.927H472.846ZM474.111 151.318C474.111 150.594 474.252 149.942 474.535 149.363C474.822 148.785 475.218 148.338 475.724 148.023C476.235 147.709 476.816 147.552 477.467 147.552C478.475 147.552 479.288 147.9 479.908 148.598C480.532 149.295 480.844 150.222 480.844 151.38V151.469C480.844 152.189 480.705 152.836 480.427 153.41C480.154 153.98 479.76 154.424 479.245 154.743C478.734 155.062 478.146 155.222 477.481 155.222C476.478 155.222 475.665 154.873 475.041 154.176C474.421 153.479 474.111 152.556 474.111 151.407V151.318ZM475.382 151.469C475.382 152.289 475.572 152.948 475.95 153.444C476.333 153.941 476.843 154.189 477.481 154.189C478.124 154.189 478.634 153.939 479.012 153.438C479.391 152.932 479.58 152.225 479.58 151.318C479.58 150.507 479.386 149.851 478.999 149.35C478.616 148.844 478.105 148.591 477.467 148.591C476.843 148.591 476.339 148.839 475.957 149.336C475.574 149.833 475.382 150.544 475.382 151.469ZM486.997 155.085C486.924 154.939 486.865 154.679 486.819 154.306C486.231 154.916 485.529 155.222 484.714 155.222C483.984 155.222 483.385 155.017 482.916 154.606C482.451 154.192 482.218 153.668 482.218 153.034C482.218 152.264 482.51 151.667 483.093 151.243C483.681 150.815 484.506 150.601 485.568 150.601H486.798V150.02C486.798 149.577 486.666 149.227 486.402 148.967C486.138 148.702 485.748 148.57 485.233 148.57C484.782 148.57 484.404 148.684 484.098 148.912C483.793 149.14 483.64 149.416 483.64 149.739H482.369C482.369 149.37 482.499 149.015 482.758 148.673C483.023 148.326 483.378 148.053 483.825 147.853C484.276 147.652 484.77 147.552 485.308 147.552C486.16 147.552 486.828 147.766 487.311 148.194C487.794 148.618 488.045 149.204 488.063 149.951V153.355C488.063 154.035 488.15 154.575 488.323 154.976V155.085H486.997ZM484.898 154.121C485.295 154.121 485.671 154.019 486.026 153.813C486.381 153.608 486.639 153.342 486.798 153.014V151.496H485.807C484.258 151.496 483.483 151.95 483.483 152.856C483.483 153.253 483.615 153.563 483.88 153.786C484.144 154.009 484.483 154.121 484.898 154.121ZM491.42 155.085H490.155V144.585H491.42V155.085ZM497.756 153.123C497.756 152.781 497.627 152.517 497.367 152.33C497.112 152.139 496.663 151.975 496.02 151.838C495.382 151.701 494.874 151.537 494.496 151.346C494.122 151.154 493.844 150.926 493.662 150.662C493.484 150.398 493.395 150.083 493.395 149.719C493.395 149.113 493.65 148.6 494.161 148.181C494.676 147.761 495.332 147.552 496.13 147.552C496.968 147.552 497.647 147.768 498.167 148.201C498.691 148.634 498.953 149.188 498.953 149.862H497.681C497.681 149.516 497.533 149.217 497.237 148.967C496.945 148.716 496.576 148.591 496.13 148.591C495.669 148.591 495.309 148.691 495.049 148.892C494.79 149.092 494.66 149.354 494.66 149.678C494.66 149.983 494.781 150.213 495.022 150.368C495.264 150.523 495.699 150.671 496.328 150.812C496.961 150.954 497.474 151.122 497.866 151.318C498.258 151.514 498.547 151.751 498.734 152.029C498.925 152.303 499.021 152.638 499.021 153.034C499.021 153.695 498.757 154.226 498.228 154.627C497.7 155.023 497.014 155.222 496.171 155.222C495.578 155.222 495.054 155.117 494.598 154.907C494.143 154.698 493.785 154.406 493.525 154.032C493.27 153.654 493.142 153.246 493.142 152.809H494.407C494.43 153.232 494.598 153.57 494.913 153.82C495.232 154.066 495.651 154.189 496.171 154.189C496.649 154.189 497.032 154.094 497.319 153.902C497.611 153.706 497.756 153.447 497.756 153.123ZM511.64 155.085H510.369V146.656L507.819 147.593V146.444L511.442 145.084H511.64V155.085ZM521.381 147.729C521.381 148.226 521.249 148.668 520.985 149.056C520.725 149.443 520.372 149.746 519.925 149.965C520.445 150.188 520.855 150.514 521.156 150.942C521.461 151.371 521.614 151.856 521.614 152.398C521.614 153.26 521.322 153.946 520.739 154.456C520.16 154.966 519.397 155.222 518.449 155.222C517.492 155.222 516.724 154.966 516.145 154.456C515.571 153.941 515.284 153.255 515.284 152.398C515.284 151.861 515.43 151.375 515.721 150.942C516.018 150.509 516.425 150.181 516.945 149.958C516.503 149.739 516.154 149.436 515.899 149.049C515.644 148.661 515.516 148.222 515.516 147.729C515.516 146.891 515.785 146.226 516.323 145.733C516.861 145.241 517.569 144.995 518.449 144.995C519.324 144.995 520.03 145.241 520.568 145.733C521.11 146.226 521.381 146.891 521.381 147.729ZM520.349 152.371C520.349 151.815 520.172 151.362 519.816 151.011C519.465 150.66 519.005 150.484 518.435 150.484C517.866 150.484 517.408 150.658 517.061 151.004C516.719 151.35 516.548 151.806 516.548 152.371C516.548 152.936 516.715 153.381 517.047 153.704C517.385 154.028 517.852 154.189 518.449 154.189C519.041 154.189 519.506 154.028 519.843 153.704C520.181 153.376 520.349 152.932 520.349 152.371ZM518.449 146.034C517.952 146.034 517.549 146.189 517.239 146.499C516.934 146.804 516.781 147.221 516.781 147.75C516.781 148.256 516.931 148.666 517.232 148.98C517.537 149.29 517.943 149.445 518.449 149.445C518.955 149.445 519.358 149.29 519.659 148.98C519.964 148.666 520.117 148.256 520.117 147.75C520.117 147.244 519.96 146.832 519.645 146.513C519.331 146.194 518.932 146.034 518.449 146.034ZM528.546 151.742H529.926V152.774H528.546V155.085H527.274V152.774H522.742V152.029L527.199 145.132H528.546V151.742ZM524.177 151.742H527.274V146.861L527.124 147.135L524.177 151.742ZM531.157 157.067L530.439 156.575C530.867 155.978 531.091 155.363 531.109 154.729V153.588H532.346V154.579C532.346 155.039 532.232 155.5 532.005 155.96C531.781 156.42 531.499 156.789 531.157 157.067ZM539.155 151.742H540.536V152.774H539.155V155.085H537.883V152.774H533.351V152.029L537.808 145.132H539.155V151.742ZM534.787 151.742H537.883V146.861L537.733 147.135L534.787 151.742ZM543.872 151.66L543.079 152.487V155.085H541.814V144.585H543.079V150.936L543.755 150.122L546.059 147.688H547.597L544.719 150.778L547.932 155.085H546.449L543.872 151.66Z" fill="#009487"/>
<path d="M523.281 185.02H520.741V175.229L517.709 176.169V174.104L523.009 172.206H523.281V185.02ZM533.617 185.02H531.077V175.229L528.045 176.169V174.104L533.345 172.206H533.617V185.02ZM537.748 174.684C537.748 173.899 538.003 173.263 538.513 172.777C539.022 172.285 539.69 172.039 540.517 172.039C541.354 172.039 542.028 172.282 542.538 172.768C543.048 173.249 543.303 173.902 543.303 174.728V175.361C543.303 176.152 543.048 176.788 542.538 177.268C542.028 177.749 541.36 177.989 540.534 177.989C539.702 177.989 539.028 177.749 538.513 177.268C538.003 176.782 537.748 176.128 537.748 175.308V174.684ZM539.436 175.361C539.436 175.712 539.535 175.997 539.734 176.213C539.939 176.424 540.206 176.53 540.534 176.53C540.862 176.53 541.123 176.421 541.316 176.205C541.51 175.988 541.606 175.698 541.606 175.334V174.684C541.606 174.333 541.51 174.048 541.316 173.832C541.123 173.615 540.856 173.506 540.517 173.506C540.194 173.506 539.934 173.615 539.734 173.832C539.535 174.042 539.436 174.338 539.436 174.719V175.361ZM543.865 181.882C543.865 181.091 544.123 180.456 544.639 179.975C545.154 179.489 545.822 179.246 546.643 179.246C547.475 179.246 548.146 179.486 548.655 179.966C549.171 180.441 549.429 181.097 549.429 181.935V182.568C549.429 183.353 549.177 183.989 548.673 184.475C548.169 184.956 547.498 185.196 546.66 185.196C545.816 185.196 545.14 184.953 544.63 184.466C544.12 183.98 543.865 183.335 543.865 182.533V181.882ZM545.553 182.568C545.553 182.89 545.658 183.166 545.869 183.394C546.08 183.623 546.344 183.737 546.66 183.737C547.375 183.737 547.732 183.341 547.732 182.55V181.882C547.732 181.531 547.633 181.25 547.434 181.039C547.234 180.822 546.971 180.713 546.643 180.713C546.314 180.713 546.051 180.822 545.852 181.039C545.652 181.25 545.553 181.54 545.553 181.909V182.568ZM541.035 184.062L539.796 183.394L546.045 173.392L547.284 174.06L541.035 184.062Z" fill="#009487"/>
<path d="M431.186 297.407H427.009V301.803H425.697V291.85H431.863V292.93H427.009V296.334H431.186V297.407ZM436.156 301.94C435.153 301.94 434.337 301.612 433.708 300.955C433.079 300.295 432.765 299.413 432.765 298.31V298.077C432.765 297.344 432.904 296.69 433.182 296.115C433.464 295.537 433.856 295.086 434.358 294.762C434.864 294.434 435.41 294.27 435.998 294.27C436.96 294.27 437.707 294.587 438.24 295.22C438.774 295.853 439.04 296.76 439.04 297.941V298.467H434.03C434.048 299.196 434.26 299.786 434.665 300.238C435.075 300.684 435.595 300.907 436.224 300.907C436.67 300.907 437.049 300.816 437.359 300.634C437.669 300.452 437.94 300.21 438.172 299.909L438.945 300.511C438.325 301.463 437.395 301.94 436.156 301.94ZM435.998 295.309C435.488 295.309 435.059 295.496 434.713 295.869C434.367 296.239 434.153 296.758 434.071 297.428H437.776V297.332C437.739 296.69 437.566 296.193 437.256 295.842C436.946 295.487 436.527 295.309 435.998 295.309ZM444.085 295.541C443.894 295.509 443.686 295.493 443.463 295.493C442.634 295.493 442.071 295.847 441.775 296.553V301.803H440.51V294.406H441.74L441.761 295.261C442.176 294.6 442.764 294.27 443.525 294.27C443.771 294.27 443.958 294.302 444.085 294.365V295.541ZM447.312 292.615V294.406H448.693V295.384H447.312V299.971C447.312 300.267 447.373 300.49 447.496 300.641C447.619 300.787 447.829 300.86 448.125 300.86C448.271 300.86 448.472 300.832 448.727 300.778V301.803C448.394 301.894 448.071 301.94 447.756 301.94C447.191 301.94 446.765 301.769 446.478 301.427C446.191 301.085 446.047 300.6 446.047 299.971V295.384H444.7V294.406H446.047V292.615H447.312ZM451.55 301.803H450.285V294.406H451.55V301.803ZM450.183 292.445C450.183 292.24 450.244 292.066 450.367 291.925C450.495 291.784 450.682 291.713 450.928 291.713C451.174 291.713 451.361 291.784 451.489 291.925C451.616 292.066 451.68 292.24 451.68 292.445C451.68 292.65 451.616 292.821 451.489 292.957C451.361 293.094 451.174 293.162 450.928 293.162C450.682 293.162 450.495 293.094 450.367 292.957C450.244 292.821 450.183 292.65 450.183 292.445ZM454.954 301.803H453.69V291.303H454.954V301.803ZM458.359 301.803H457.094V294.406H458.359V301.803ZM456.991 292.445C456.991 292.24 457.053 292.066 457.176 291.925C457.304 291.784 457.49 291.713 457.737 291.713C457.983 291.713 458.17 291.784 458.297 291.925C458.425 292.066 458.489 292.24 458.489 292.445C458.489 292.65 458.425 292.821 458.297 292.957C458.17 293.094 457.983 293.162 457.737 293.162C457.49 293.162 457.304 293.094 457.176 292.957C457.053 292.821 456.991 292.65 456.991 292.445ZM461.578 300.771H465.906V301.803H460.033V300.873L464.115 295.452H460.095V294.406H465.7V295.302L461.578 300.771ZM470.294 301.94C469.292 301.94 468.476 301.612 467.847 300.955C467.218 300.295 466.904 299.413 466.904 298.31V298.077C466.904 297.344 467.043 296.69 467.321 296.115C467.603 295.537 467.995 295.086 468.496 294.762C469.002 294.434 469.549 294.27 470.137 294.27C471.099 294.27 471.846 294.587 472.379 295.22C472.912 295.853 473.179 296.76 473.179 297.941V298.467H468.168C468.186 299.196 468.398 299.786 468.804 300.238C469.214 300.684 469.734 300.907 470.363 300.907C470.809 300.907 471.187 300.816 471.497 300.634C471.807 300.452 472.078 300.21 472.311 299.909L473.083 300.511C472.463 301.463 471.534 301.94 470.294 301.94ZM470.137 295.309C469.627 295.309 469.198 295.496 468.852 295.869C468.505 296.239 468.291 296.758 468.209 297.428H471.914V297.332C471.878 296.69 471.705 296.193 471.395 295.842C471.085 295.487 470.666 295.309 470.137 295.309ZM478.224 295.541C478.032 295.509 477.825 295.493 477.602 295.493C476.772 295.493 476.21 295.847 475.913 296.553V301.803H474.649V294.406H475.879L475.9 295.261C476.314 294.6 476.902 294.27 477.663 294.27C477.909 294.27 478.096 294.302 478.224 294.365V295.541ZM483.699 299.841C483.699 299.499 483.57 299.235 483.31 299.048C483.055 298.857 482.606 298.693 481.963 298.556C481.325 298.419 480.817 298.255 480.439 298.064C480.065 297.872 479.787 297.644 479.605 297.38C479.427 297.116 479.338 296.801 479.338 296.437C479.338 295.831 479.593 295.318 480.104 294.899C480.619 294.479 481.275 294.27 482.073 294.27C482.911 294.27 483.59 294.486 484.11 294.919C484.634 295.352 484.896 295.906 484.896 296.58H483.624C483.624 296.234 483.476 295.935 483.18 295.685C482.888 295.434 482.519 295.309 482.073 295.309C481.612 295.309 481.252 295.409 480.992 295.61C480.733 295.81 480.603 296.072 480.603 296.396C480.603 296.701 480.724 296.931 480.965 297.086C481.207 297.241 481.642 297.389 482.271 297.531C482.904 297.672 483.417 297.84 483.809 298.036C484.201 298.232 484.49 298.469 484.677 298.747C484.868 299.021 484.964 299.356 484.964 299.752C484.964 300.413 484.7 300.944 484.171 301.345C483.642 301.741 482.957 301.94 482.114 301.94C481.521 301.94 480.997 301.835 480.541 301.625C480.086 301.416 479.728 301.124 479.468 300.75C479.213 300.372 479.085 299.964 479.085 299.527H480.35C480.373 299.95 480.541 300.288 480.856 300.538C481.175 300.784 481.594 300.907 482.114 300.907C482.592 300.907 482.975 300.812 483.262 300.62C483.554 300.424 483.699 300.165 483.699 299.841ZM495.266 296.211H496.216C496.813 296.202 497.282 296.045 497.624 295.74C497.966 295.434 498.137 295.022 498.137 294.502C498.137 293.336 497.556 292.752 496.394 292.752C495.847 292.752 495.409 292.909 495.081 293.224C494.758 293.534 494.596 293.946 494.596 294.461H493.331C493.331 293.673 493.618 293.019 494.193 292.499C494.771 291.975 495.505 291.713 496.394 291.713C497.333 291.713 498.069 291.962 498.602 292.458C499.135 292.955 499.402 293.645 499.402 294.53C499.402 294.962 499.26 295.382 498.978 295.787C498.7 296.193 498.319 296.496 497.836 296.697C498.383 296.87 498.805 297.157 499.101 297.558C499.402 297.959 499.552 298.449 499.552 299.028C499.552 299.921 499.26 300.629 498.677 301.154C498.094 301.678 497.335 301.94 496.401 301.94C495.466 301.94 494.705 301.687 494.117 301.181C493.534 300.675 493.242 300.007 493.242 299.178H494.514C494.514 299.702 494.685 300.121 495.027 300.436C495.368 300.75 495.826 300.907 496.401 300.907C497.011 300.907 497.478 300.748 497.802 300.429C498.126 300.11 498.287 299.652 498.287 299.055C498.287 298.476 498.11 298.032 497.754 297.722C497.399 297.412 496.886 297.253 496.216 297.243H495.266V296.211ZM505.445 301.803H504.173V293.374L501.623 294.311V293.162L505.246 291.802H505.445V301.803ZM514.489 298.46H515.869V299.492H514.489V301.803H513.217V299.492H508.685V298.747L513.142 291.85H514.489V298.46ZM510.12 298.46H513.217V293.579L513.067 293.853L510.12 298.46ZM517.1 303.785L516.382 303.293C516.81 302.696 517.034 302.081 517.052 301.448V300.306H518.289V301.297C518.289 301.757 518.175 302.218 517.948 302.678C517.724 303.138 517.442 303.507 517.1 303.785ZM524.606 297.428C524.341 297.742 524.025 297.995 523.656 298.187C523.291 298.378 522.89 298.474 522.452 298.474C521.878 298.474 521.377 298.333 520.948 298.05C520.525 297.767 520.197 297.371 519.964 296.861C519.732 296.346 519.615 295.778 519.615 295.158C519.615 294.493 519.741 293.894 519.991 293.361C520.247 292.827 520.607 292.42 521.072 292.137C521.536 291.854 522.079 291.713 522.698 291.713C523.683 291.713 524.458 292.082 525.023 292.821C525.592 293.554 525.877 294.557 525.877 295.828V296.198C525.877 298.134 525.494 299.549 524.729 300.443C523.963 301.331 522.808 301.787 521.263 301.81H521.017V300.743H521.283C522.327 300.725 523.129 300.454 523.69 299.93C524.25 299.401 524.556 298.567 524.606 297.428ZM522.657 297.428C523.081 297.428 523.471 297.298 523.826 297.038C524.186 296.779 524.448 296.457 524.613 296.074V295.569C524.613 294.739 524.433 294.065 524.073 293.545C523.712 293.026 523.257 292.766 522.705 292.766C522.149 292.766 521.703 292.98 521.365 293.408C521.028 293.832 520.86 294.393 520.86 295.09C520.86 295.769 521.021 296.33 521.345 296.772C521.673 297.209 522.111 297.428 522.657 297.428ZM529.815 298.378L529.022 299.205V301.803H527.757V291.303H529.022V297.654L529.698 296.84L532.002 294.406H533.54L530.662 297.496L533.875 301.803H532.392L529.815 298.378Z" fill="#009487"/>
<path d="M509.829 329.739H507.289V319.948L504.257 320.889V318.823L509.557 316.925H509.829V329.739ZM522.336 320.344C522.336 320.965 522.181 321.516 521.87 321.996C521.56 322.477 521.132 322.86 520.587 323.147C521.208 323.446 521.7 323.859 522.063 324.387C522.427 324.908 522.608 325.523 522.608 326.232C522.608 327.369 522.222 328.269 521.448 328.931C520.675 329.587 519.623 329.915 518.293 329.915C516.963 329.915 515.908 329.584 515.129 328.922C514.35 328.26 513.96 327.363 513.96 326.232C513.96 325.523 514.142 324.905 514.505 324.378C514.868 323.851 515.357 323.44 515.973 323.147C515.428 322.86 515 322.477 514.689 321.996C514.385 321.516 514.232 320.965 514.232 320.344C514.232 319.254 514.596 318.387 515.322 317.742C516.049 317.092 517.036 316.767 518.284 316.767C519.526 316.767 520.511 317.089 521.237 317.733C521.97 318.372 522.336 319.242 522.336 320.344ZM520.06 326.048C520.06 325.491 519.898 325.046 519.576 324.712C519.254 324.378 518.82 324.211 518.275 324.211C517.736 324.211 517.306 324.378 516.983 324.712C516.661 325.04 516.5 325.485 516.5 326.048C516.5 326.593 516.658 327.032 516.975 327.366C517.291 327.7 517.73 327.867 518.293 327.867C518.844 327.867 519.274 327.706 519.585 327.384C519.901 327.062 520.06 326.616 520.06 326.048ZM519.796 320.467C519.796 319.969 519.664 319.57 519.4 319.271C519.137 318.967 518.765 318.814 518.284 318.814C517.81 318.814 517.44 318.961 517.177 319.254C516.913 319.547 516.781 319.951 516.781 320.467C516.781 320.977 516.913 321.387 517.177 321.697C517.44 322.008 517.812 322.163 518.293 322.163C518.773 322.163 519.143 322.008 519.4 321.697C519.664 321.387 519.796 320.977 519.796 320.467ZM524.296 319.403C524.296 318.618 524.551 317.982 525.061 317.496C525.57 317.004 526.238 316.758 527.064 316.758C527.902 316.758 528.576 317.001 529.086 317.487C529.596 317.968 529.851 318.621 529.851 319.447V320.08C529.851 320.871 529.596 321.507 529.086 321.987C528.576 322.468 527.908 322.708 527.082 322.708C526.25 322.708 525.576 322.468 525.061 321.987C524.551 321.501 524.296 320.848 524.296 320.027V319.403ZM525.983 320.08C525.983 320.432 526.083 320.716 526.282 320.933C526.487 321.144 526.754 321.249 527.082 321.249C527.41 321.249 527.671 321.141 527.864 320.924C528.058 320.707 528.154 320.417 528.154 320.054V319.403C528.154 319.052 528.058 318.768 527.864 318.551C527.671 318.334 527.404 318.226 527.064 318.226C526.742 318.226 526.481 318.334 526.282 318.551C526.083 318.762 525.983 319.058 525.983 319.438V320.08ZM530.413 326.602C530.413 325.811 530.671 325.175 531.187 324.694C531.702 324.208 532.37 323.965 533.19 323.965C534.022 323.965 534.693 324.205 535.203 324.686C535.719 325.16 535.977 325.816 535.977 326.654V327.287C535.977 328.072 535.725 328.708 535.221 329.194C534.717 329.675 534.046 329.915 533.208 329.915C532.364 329.915 531.688 329.672 531.178 329.186C530.668 328.699 530.413 328.055 530.413 327.252V326.602ZM532.101 327.287C532.101 327.609 532.206 327.885 532.417 328.113C532.628 328.342 532.892 328.456 533.208 328.456C533.923 328.456 534.28 328.061 534.28 327.27V326.602C534.28 326.25 534.181 325.969 533.981 325.758C533.782 325.541 533.519 325.433 533.19 325.433C532.862 325.433 532.599 325.541 532.399 325.758C532.2 325.969 532.101 326.259 532.101 326.628V327.287ZM527.583 328.781L526.344 328.113L532.593 318.111L533.832 318.779L527.583 328.781Z" fill="#009487"/>
<path d="M20.0596 261.289C20.0596 262.264 19.8955 263.117 19.5674 263.846C19.2393 264.57 18.7744 265.124 18.1729 265.507C17.5713 265.89 16.8695 266.081 16.0674 266.081C15.2835 266.081 14.5885 265.89 13.9824 265.507C13.3763 265.119 12.9046 264.57 12.5674 263.859C12.2347 263.144 12.0638 262.317 12.0547 261.378V260.66C12.0547 259.703 12.221 258.858 12.5537 258.124C12.8864 257.39 13.3558 256.83 13.9619 256.442C14.5726 256.05 15.2699 255.854 16.0537 255.854C16.8512 255.854 17.5531 256.048 18.1592 256.436C18.7699 256.818 19.2393 257.377 19.5674 258.11C19.8955 258.84 20.0596 259.689 20.0596 260.66V261.289ZM18.7539 260.646C18.7539 259.466 18.5169 258.562 18.043 257.933C17.569 257.299 16.9059 256.982 16.0537 256.982C15.2243 256.982 14.5703 257.299 14.0918 257.933C13.6178 258.562 13.374 259.437 13.3604 260.558V261.289C13.3604 262.433 13.5996 263.333 14.0781 263.989C14.5612 264.641 15.2243 264.967 16.0674 264.967C16.915 264.967 17.5713 264.659 18.0361 264.044C18.501 263.424 18.7402 262.538 18.7539 261.385V260.646ZM25.4053 259.683C25.2139 259.651 25.0065 259.635 24.7832 259.635C23.9538 259.635 23.391 259.988 23.0947 260.694V265.944H21.8301V258.548H23.0605L23.0811 259.402C23.4958 258.742 24.0837 258.411 24.8447 258.411C25.0908 258.411 25.2777 258.443 25.4053 258.507V259.683ZM29.5068 266.081C28.5042 266.081 27.6885 265.753 27.0596 265.097C26.4307 264.436 26.1162 263.554 26.1162 262.451V262.219C26.1162 261.485 26.2552 260.831 26.5332 260.257C26.8158 259.678 27.2077 259.227 27.709 258.903C28.2148 258.575 28.7617 258.411 29.3496 258.411C30.3112 258.411 31.0586 258.728 31.5918 259.361C32.125 259.995 32.3916 260.902 32.3916 262.082V262.608H27.3809C27.3991 263.338 27.611 263.928 28.0166 264.379C28.4268 264.826 28.9463 265.049 29.5752 265.049C30.0218 265.049 30.4001 264.958 30.71 264.775C31.0199 264.593 31.291 264.352 31.5234 264.051L32.2959 264.652C31.6761 265.605 30.7464 266.081 29.5068 266.081ZM29.3496 259.45C28.8392 259.45 28.4108 259.637 28.0645 260.011C27.7181 260.38 27.5039 260.899 27.4219 261.569H31.127V261.474C31.0905 260.831 30.9173 260.334 30.6074 259.983C30.2975 259.628 29.8783 259.45 29.3496 259.45ZM43.7256 265.944H37.2041V265.035L40.6494 261.207C41.1598 260.628 41.5107 260.159 41.7021 259.799C41.8981 259.434 41.9961 259.058 41.9961 258.671C41.9961 258.151 41.8389 257.725 41.5244 257.393C41.21 257.06 40.7907 256.894 40.2666 256.894C39.6377 256.894 39.1478 257.074 38.7969 257.434C38.4505 257.789 38.2773 258.286 38.2773 258.924H37.0127C37.0127 258.008 37.3066 257.267 37.8945 256.702C38.487 256.137 39.2777 255.854 40.2666 255.854C41.1917 255.854 41.9232 256.098 42.4609 256.586C42.9987 257.069 43.2676 257.714 43.2676 258.521C43.2676 259.5 42.6432 260.667 41.3945 262.021L38.7285 264.912H43.7256V265.944ZM50.4043 262.602H51.7852V263.634H50.4043V265.944H49.1328V263.634H44.6006V262.889L49.0576 255.991H50.4043V262.602ZM46.0361 262.602H49.1328V257.721L48.9824 257.994L46.0361 262.602ZM53.0156 267.927L52.2979 267.435C52.7262 266.838 52.9495 266.222 52.9678 265.589V264.447H54.2051V265.438C54.2051 265.899 54.0911 266.359 53.8633 266.819C53.64 267.28 53.3574 267.649 53.0156 267.927ZM61.916 261.699C61.916 263.18 61.6631 264.281 61.1572 265.001C60.6514 265.721 59.8607 266.081 58.7852 266.081C57.7233 266.081 56.9372 265.73 56.4268 265.028C55.9163 264.322 55.652 263.269 55.6338 261.87V260.182C55.6338 258.719 55.8867 257.632 56.3926 256.921C56.8984 256.21 57.6914 255.854 58.7715 255.854C59.8424 255.854 60.6309 256.199 61.1367 256.887C61.6426 257.57 61.9023 258.628 61.916 260.059V261.699ZM60.6514 259.97C60.6514 258.899 60.501 258.119 60.2002 257.632C59.8994 257.14 59.4232 256.894 58.7715 256.894C58.1243 256.894 57.6527 257.137 57.3564 257.625C57.0602 258.113 56.9076 258.862 56.8984 259.874V261.897C56.8984 262.973 57.0534 263.768 57.3633 264.283C57.6777 264.794 58.1517 265.049 58.7852 265.049C59.4095 265.049 59.8721 264.807 60.1729 264.324C60.4782 263.841 60.6377 263.08 60.6514 262.041V259.97ZM65.7305 262.52L64.9375 263.347V265.944H63.6729V255.444H64.9375V261.795L65.6143 260.981L67.918 258.548H69.4561L66.5781 261.638L69.791 265.944H68.3076L65.7305 262.52Z" fill="#009487"/>
<path d="M18.2881 293.879H15.748V284.088L12.7158 285.029V282.963L18.0156 281.065H18.2881V293.879ZM22.4189 283.543C22.4189 282.758 22.6738 282.123 23.1836 281.636C23.6934 281.144 24.3613 280.898 25.1875 280.898C26.0254 280.898 26.6992 281.141 27.209 281.627C27.7188 282.108 27.9736 282.761 27.9736 283.587V284.22C27.9736 285.011 27.7188 285.647 27.209 286.127C26.6992 286.608 26.0312 286.848 25.2051 286.848C24.373 286.848 23.6992 286.608 23.1836 286.127C22.6738 285.641 22.4189 284.988 22.4189 284.167V283.543ZM24.1064 284.22C24.1064 284.572 24.2061 284.856 24.4053 285.073C24.6104 285.284 24.877 285.389 25.2051 285.389C25.5332 285.389 25.7939 285.281 25.9873 285.064C26.1807 284.847 26.2773 284.557 26.2773 284.194V283.543C26.2773 283.192 26.1807 282.908 25.9873 282.691C25.7939 282.474 25.5273 282.366 25.1875 282.366C24.8652 282.366 24.6045 282.474 24.4053 282.691C24.2061 282.902 24.1064 283.198 24.1064 283.579V284.22ZM28.5361 290.742C28.5361 289.951 28.7939 289.315 29.3096 288.834C29.8252 288.348 30.4932 288.105 31.3135 288.105C32.1455 288.105 32.8164 288.345 33.3262 288.826C33.8418 289.3 34.0996 289.957 34.0996 290.794V291.427C34.0996 292.212 33.8477 292.848 33.3438 293.334C32.8398 293.815 32.1689 294.055 31.3311 294.055C30.4873 294.055 29.8105 293.812 29.3008 293.326C28.791 292.839 28.5361 292.195 28.5361 291.392V290.742ZM30.2236 291.427C30.2236 291.75 30.3291 292.025 30.54 292.253C30.751 292.482 31.0146 292.596 31.3311 292.596C32.0459 292.596 32.4033 292.201 32.4033 291.41V290.742C32.4033 290.39 32.3037 290.109 32.1045 289.898C31.9053 289.681 31.6416 289.573 31.3135 289.573C30.9854 289.573 30.7217 289.681 30.5225 289.898C30.3232 290.109 30.2236 290.399 30.2236 290.768V291.427ZM25.7061 292.921L24.4668 292.253L30.7158 282.251L31.9551 282.919L25.7061 292.921Z" fill="#009487"/>
<path d="M54.8457 20.7378H182.015V65.3456" stroke="#009487" stroke-width="0.5" stroke-miterlimit="10"/>
<path d="M547.751 20.7378H375.682V59.2369" stroke="#009487" stroke-width="0.5" stroke-miterlimit="10"/>
<path d="M547.75 164.08H455.393V199.453H416.318" stroke="#009487" stroke-width="0.5" stroke-miterlimit="10"/>
<path d="M533.115 309.126H362.467V267.928" stroke="#009487" stroke-width="0.5" stroke-miterlimit="10"/>
<path d="M367.298 385.841H211.711V272.758" stroke="#009487" stroke-width="0.5" stroke-miterlimit="10"/>
<path d="M12.2188 272.9H123.332V93.332H159.706" stroke="#009487" stroke-width="0.5" stroke-miterlimit="10"/>
<path d="M0 183.258H105.572V79.978H171.216" stroke="#009487" stroke-width="0.5" stroke-miterlimit="10"/>
<path d="M182.015 68.613C183.862 68.613 185.283 67.1924 185.283 65.3456C185.283 63.4987 183.862 62.0781 182.015 62.0781C180.168 62.0781 178.747 63.4987 178.747 65.3456C178.747 67.1924 180.168 68.613 182.015 68.613Z" fill="#009487"/>
<path d="M375.681 62.5042C373.834 62.5042 372.413 61.0835 372.413 59.2367C372.413 57.3899 373.834 55.9692 375.681 55.9692C377.528 55.9692 378.949 57.3899 378.949 59.2367C379.091 61.0835 377.528 62.5042 375.681 62.5042Z" fill="#009487"/>
<path d="M416.319 202.721C414.472 202.721 413.051 201.3 413.051 199.453C413.051 197.607 414.472 196.186 416.319 196.186C418.166 196.186 419.587 197.607 419.587 199.453C419.587 201.3 418.024 202.721 416.319 202.721Z" fill="#009487"/>
<path d="M362.467 264.661C360.62 264.661 359.199 266.081 359.199 267.928C359.199 269.775 360.62 271.196 362.467 271.196C364.314 271.196 365.735 269.775 365.735 267.928C365.735 266.081 364.314 264.661 362.467 264.661Z" fill="#009487"/>
<path d="M211.711 269.349C209.864 269.349 208.443 270.769 208.443 272.616C208.443 274.463 209.864 275.883 211.711 275.883C213.559 275.883 214.979 274.463 214.979 272.616C214.979 270.769 213.559 269.349 211.711 269.349Z" fill="#009487"/>
<path d="M159.707 90.0645C161.554 90.0645 162.975 91.4851 162.975 93.332C162.975 95.1788 161.554 96.5994 159.707 96.5994C157.86 96.5994 156.439 95.1788 156.439 93.332C156.297 91.4851 157.86 90.0645 159.707 90.0645Z" fill="#009487"/>
<path d="M171.216 76.7107C173.064 76.7107 174.484 78.1314 174.484 79.9782C174.484 81.825 173.064 83.2456 171.216 83.2456C169.369 83.2456 167.948 81.825 167.948 79.9782C167.806 78.1314 169.369 76.7107 171.216 76.7107Z" fill="#009487"/>
</svg>
