<svg width="549" height="335" viewBox="0 0 549 335" fill="none" xmlns="http://www.w3.org/2000/svg">
<path d="M252.349 8.30064C296.112 -1.78585 342.006 7.73243 378.097 34.4403L332.486 95.9537C314.441 82.5998 291.423 77.9117 269.541 82.8839L252.349 8.30064Z" fill="#14ADEA"/>
<path d="M270.252 81.7475C291.849 77.0594 314.299 81.7474 332.202 94.6752L376.818 34.5824C341.296 8.58475 296.396 -0.649372 253.485 9.01094L270.252 81.7475ZM332.629 96.8062C332.344 96.8062 332.06 96.8062 331.918 96.6641C314.015 83.4522 291.423 78.7642 269.825 83.7364C269.399 83.8784 268.831 83.5943 268.689 83.0261L251.496 8.44274C251.354 8.01655 251.638 7.44823 252.207 7.30617C296.254 -2.9224 342.433 6.73791 378.665 33.5879C378.807 33.73 378.949 34.0141 379.091 34.1562C379.091 34.4403 379.091 34.5824 378.949 34.8665L333.339 96.38C333.055 96.6641 332.913 96.8062 332.629 96.8062Z" fill="white"/>
<path d="M378.097 34.4404C446.157 84.7308 460.366 180.624 410.067 248.672C377.102 292.996 322.825 316.294 267.979 309.617L277.356 233.613C319.414 238.727 357.636 208.894 362.893 166.985C366.304 139.567 354.652 112.433 332.487 96.0959L378.097 34.4404Z" fill="#CFE3F2"/>
<path d="M268.973 308.765C323.109 315.158 376.818 291.859 409.214 248.104C433.511 215.429 443.457 175.225 437.49 135.021C431.522 95.1014 410.493 59.8696 378.239 35.7189L333.623 95.8117C355.647 112.433 367.156 139.709 363.746 166.985C358.489 209.036 320.267 239.154 278.067 234.466L268.973 308.765ZM321.403 307.628C304.069 311.606 286.024 312.6 267.978 310.469C267.694 310.469 267.552 310.327 267.41 310.185C267.268 310.043 267.126 309.759 267.268 309.475L276.646 233.471C276.646 232.903 277.214 232.619 277.64 232.619C319.13 237.733 357.068 208.184 362.183 166.701C365.593 139.709 353.942 112.859 332.06 96.6641C331.918 96.522 331.776 96.2378 331.634 96.0958C331.634 95.8117 331.634 95.6696 331.776 95.3855L377.386 33.872C377.671 33.4459 378.239 33.4459 378.665 33.73C411.772 58.1649 433.369 94.107 439.337 134.879C445.447 175.651 435.216 216.281 410.635 249.382C388.611 279.073 356.641 299.531 321.403 307.628Z" fill="white"/>
<path d="M267.978 309.475C183.862 299.105 124.184 222.674 134.557 138.715C140.098 94.3911 164.68 54.6133 201.907 29.8943L244.249 93.6808C209.011 117.121 199.349 164.57 222.794 199.802C235.155 218.412 255.048 230.772 277.214 233.471L267.978 309.475Z" fill="#41BAAA"/>
<path d="M201.765 31.1728C165.106 55.8919 140.951 94.9593 135.552 138.857C130.579 179.203 141.661 219.123 166.669 251.229C191.534 283.051 227.199 303.366 267.267 308.481L276.503 234.324C254.337 231.34 234.587 218.981 222.225 200.37C210.716 183.181 206.738 162.439 210.858 142.124C214.837 122.093 226.346 104.904 243.254 93.3966L201.765 31.1728ZM268.262 310.328C268.12 310.328 268.12 310.328 267.978 310.328C227.056 305.355 190.54 284.614 165.248 252.224C139.956 219.833 128.731 179.487 133.847 138.573C139.388 93.8228 164.111 53.903 201.623 29.0419C202.049 28.7578 202.617 28.8997 202.901 29.3259L245.244 93.1125C245.386 93.2545 245.386 93.5387 245.386 93.8228C245.386 94.1069 245.244 94.249 244.96 94.3911C228.051 105.614 216.542 122.662 212.563 142.409C208.585 162.155 212.563 182.47 223.646 199.234C235.866 217.702 255.474 229.777 277.498 232.477C277.782 232.477 277.924 232.619 278.066 232.761C278.208 232.903 278.35 233.187 278.208 233.471L268.83 309.475C268.83 310.043 268.546 310.328 268.262 310.328Z" fill="white"/>
<path d="M202.049 29.8944C217.394 19.6659 234.445 12.4206 252.348 8.30078L269.541 82.884C260.589 85.015 252.064 88.5666 244.391 93.6809L202.049 29.8944Z" fill="#EDD3DD"/>
<path d="M203.328 30.1783L244.675 92.4021C252.064 87.714 260.021 84.1624 268.546 82.1735L251.638 9.2949C234.445 13.4147 218.105 20.3759 203.328 30.1783ZM244.675 94.533C244.249 94.6751 243.965 94.533 243.681 94.1069L201.338 30.3203C201.196 30.1782 201.196 29.8941 201.196 29.61C201.196 29.3258 201.338 29.1838 201.623 29.0418C217.11 18.8132 234.161 11.4258 252.206 7.30598C252.632 7.16391 253.201 7.44804 253.343 8.0163L270.535 82.5997C270.677 83.0258 270.393 83.5942 269.825 83.7362C260.873 85.7251 252.632 89.4188 244.959 94.391C244.817 94.5331 244.817 94.533 244.675 94.533Z" fill="white"/>
<path d="M429.016 10.4023H424.846L423.909 13H422.556L426.356 3.04688H427.505L431.312 13H429.966L429.016 10.4023ZM425.242 9.32227H428.626L426.931 4.66699L425.242 9.32227ZM432.153 9.24023C432.153 8.08724 432.42 7.17122 432.953 6.49219C433.486 5.80859 434.193 5.4668 435.072 5.4668C435.975 5.4668 436.679 5.78581 437.185 6.42383L437.246 5.60352H438.401V12.8223C438.401 13.7793 438.117 14.5335 437.547 15.085C436.982 15.6364 436.221 15.9121 435.264 15.9121C434.73 15.9121 434.209 15.7982 433.698 15.5703C433.188 15.3424 432.798 15.0303 432.529 14.6338L433.186 13.875C433.728 14.5449 434.391 14.8799 435.175 14.8799C435.79 14.8799 436.269 14.7067 436.61 14.3604C436.957 14.014 437.13 13.5264 437.13 12.8975V12.2617C436.624 12.8451 435.934 13.1367 435.059 13.1367C434.193 13.1367 433.491 12.7881 432.953 12.0908C432.42 11.3936 432.153 10.4434 432.153 9.24023ZM433.425 9.38379C433.425 10.2178 433.596 10.874 433.938 11.3525C434.279 11.8265 434.758 12.0635 435.373 12.0635C436.171 12.0635 436.756 11.7012 437.13 10.9766V7.59961C436.743 6.89323 436.161 6.54004 435.387 6.54004C434.771 6.54004 434.291 6.7793 433.944 7.25781C433.598 7.73633 433.425 8.44499 433.425 9.38379ZM443.891 6.73828C443.699 6.70638 443.492 6.69043 443.269 6.69043C442.439 6.69043 441.876 7.04362 441.58 7.75V13H440.315V5.60352H441.546L441.566 6.45801C441.981 5.7972 442.569 5.4668 443.33 5.4668C443.576 5.4668 443.763 5.4987 443.891 5.5625V6.73828ZM446.434 13H445.169V5.60352H446.434V13ZM445.066 3.6416C445.066 3.43652 445.128 3.26335 445.251 3.12207C445.379 2.98079 445.565 2.91016 445.812 2.91016C446.058 2.91016 446.244 2.98079 446.372 3.12207C446.5 3.26335 446.563 3.43652 446.563 3.6416C446.563 3.84668 446.5 4.01758 446.372 4.1543C446.244 4.29102 446.058 4.35938 445.812 4.35938C445.565 4.35938 445.379 4.29102 445.251 4.1543C445.128 4.01758 445.066 3.84668 445.066 3.6416ZM454.712 9.38379C454.712 10.5094 454.454 11.4163 453.939 12.1045C453.424 12.7926 452.727 13.1367 451.848 13.1367C450.95 13.1367 450.243 12.8519 449.729 12.2822V15.8438H448.464V5.60352H449.619L449.681 6.42383C450.196 5.78581 450.911 5.4668 451.827 5.4668C452.716 5.4668 453.418 5.80176 453.933 6.47168C454.452 7.1416 454.712 8.07357 454.712 9.26758V9.38379ZM453.447 9.24023C453.447 8.40625 453.27 7.74772 452.914 7.26465C452.559 6.78158 452.071 6.54004 451.451 6.54004C450.686 6.54004 450.111 6.87956 449.729 7.55859V11.0928C450.107 11.7673 450.686 12.1045 451.465 12.1045C452.071 12.1045 452.552 11.8652 452.907 11.3867C453.267 10.9036 453.447 10.1882 453.447 9.24023ZM459.9 6.73828C459.709 6.70638 459.502 6.69043 459.278 6.69043C458.449 6.69043 457.886 7.04362 457.59 7.75V13H456.325V5.60352H457.556L457.576 6.45801C457.991 5.7972 458.579 5.4668 459.34 5.4668C459.586 5.4668 459.773 5.4987 459.9 5.5625V6.73828ZM460.598 9.2334C460.598 8.50879 460.739 7.8571 461.021 7.27832C461.309 6.69954 461.705 6.25293 462.211 5.93848C462.721 5.62402 463.302 5.4668 463.954 5.4668C464.961 5.4668 465.775 5.81543 466.395 6.5127C467.019 7.20996 467.331 8.13737 467.331 9.29492V9.38379C467.331 10.1038 467.192 10.751 466.914 11.3252C466.641 11.8949 466.246 12.3392 465.731 12.6582C465.221 12.9772 464.633 13.1367 463.968 13.1367C462.965 13.1367 462.152 12.7881 461.527 12.0908C460.908 11.3936 460.598 10.4707 460.598 9.32227V9.2334ZM461.869 9.38379C461.869 10.2041 462.058 10.8626 462.437 11.3594C462.819 11.8561 463.33 12.1045 463.968 12.1045C464.61 12.1045 465.121 11.8538 465.499 11.3525C465.877 10.8467 466.066 10.1403 466.066 9.2334C466.066 8.4222 465.873 7.76595 465.485 7.26465C465.103 6.75879 464.592 6.50586 463.954 6.50586C463.33 6.50586 462.826 6.75423 462.443 7.25098C462.061 7.74772 461.869 8.45866 461.869 9.38379ZM468.609 9.24023C468.609 8.10547 468.878 7.19401 469.416 6.50586C469.954 5.81315 470.658 5.4668 471.528 5.4668C472.394 5.4668 473.08 5.76302 473.586 6.35547V2.5H474.851V13H473.688L473.627 12.207C473.121 12.8268 472.417 13.1367 471.515 13.1367C470.658 13.1367 469.958 12.7858 469.416 12.084C468.878 11.3822 468.609 10.4661 468.609 9.33594V9.24023ZM469.874 9.38379C469.874 10.2223 470.047 10.8786 470.394 11.3525C470.74 11.8265 471.218 12.0635 471.829 12.0635C472.631 12.0635 473.217 11.7035 473.586 10.9834V7.58594C473.208 6.88867 472.627 6.54004 471.843 6.54004C471.223 6.54004 470.74 6.7793 470.394 7.25781C470.047 7.73633 469.874 8.44499 469.874 9.38379ZM481.386 12.2686C480.894 12.8473 480.171 13.1367 479.219 13.1367C478.43 13.1367 477.829 12.9089 477.414 12.4531C477.004 11.9928 476.797 11.3138 476.792 10.416V5.60352H478.057V10.3818C478.057 11.5029 478.512 12.0635 479.424 12.0635C480.39 12.0635 481.033 11.7035 481.352 10.9834V5.60352H482.616V13H481.413L481.386 12.2686ZM487.511 12.1045C487.962 12.1045 488.356 11.9678 488.693 11.6943C489.031 11.4209 489.217 11.0791 489.254 10.6689H490.45C490.427 11.0928 490.282 11.4961 490.013 11.8789C489.744 12.2617 489.384 12.5671 488.933 12.7949C488.486 13.0228 488.012 13.1367 487.511 13.1367C486.504 13.1367 485.701 12.8018 485.104 12.1318C484.512 11.4574 484.216 10.5368 484.216 9.37012V9.1582C484.216 8.43815 484.348 7.79785 484.612 7.2373C484.877 6.67676 485.255 6.24154 485.747 5.93164C486.244 5.62174 486.829 5.4668 487.504 5.4668C488.333 5.4668 489.021 5.71517 489.568 6.21191C490.12 6.70866 490.414 7.35352 490.45 8.14648H489.254C489.217 7.66797 489.035 7.27604 488.707 6.9707C488.383 6.66081 487.982 6.50586 487.504 6.50586C486.861 6.50586 486.362 6.73828 486.007 7.20312C485.656 7.66341 485.48 8.33105 485.48 9.20605V9.44531C485.48 10.2975 485.656 10.9538 486.007 11.4141C486.358 11.8743 486.859 12.1045 487.511 12.1045ZM493.588 3.8125V5.60352H494.969V6.58105H493.588V11.168C493.588 11.4642 493.649 11.6875 493.772 11.8379C493.896 11.9837 494.105 12.0566 494.401 12.0566C494.547 12.0566 494.748 12.0293 495.003 11.9746V13C494.67 13.0911 494.347 13.1367 494.032 13.1367C493.467 13.1367 493.041 12.9658 492.754 12.624C492.467 12.2822 492.323 11.7969 492.323 11.168V6.58105H490.977V5.60352H492.323V3.8125H493.588ZM500.759 11.0381C500.759 10.6963 500.629 10.432 500.369 10.2451C500.114 10.0537 499.665 9.88965 499.022 9.75293C498.384 9.61621 497.876 9.45215 497.498 9.26074C497.124 9.06934 496.846 8.84147 496.664 8.57715C496.486 8.31283 496.397 7.99837 496.397 7.63379C496.397 7.02767 496.653 6.51497 497.163 6.0957C497.678 5.67643 498.334 5.4668 499.132 5.4668C499.97 5.4668 500.649 5.68327 501.169 6.11621C501.693 6.54915 501.955 7.10286 501.955 7.77734H500.684C500.684 7.43099 500.535 7.13249 500.239 6.88184C499.948 6.63118 499.578 6.50586 499.132 6.50586C498.672 6.50586 498.312 6.60612 498.052 6.80664C497.792 7.00716 497.662 7.26921 497.662 7.59277C497.662 7.89811 497.783 8.12826 498.024 8.2832C498.266 8.43815 498.701 8.58626 499.33 8.72754C499.964 8.86882 500.476 9.03743 500.868 9.2334C501.26 9.42936 501.549 9.66634 501.736 9.94434C501.928 10.2178 502.023 10.5527 502.023 10.9492C502.023 11.61 501.759 12.141 501.23 12.542C500.702 12.9385 500.016 13.1367 499.173 13.1367C498.58 13.1367 498.056 13.0319 497.601 12.8223C497.145 12.6126 496.787 12.321 496.527 11.9473C496.272 11.569 496.145 11.1611 496.145 10.7236H497.409C497.432 11.1475 497.601 11.4847 497.915 11.7354C498.234 11.9814 498.653 12.1045 499.173 12.1045C499.651 12.1045 500.034 12.0088 500.321 11.8174C500.613 11.6214 500.759 11.3617 500.759 11.0381ZM511.17 13H509.898V4.57129L507.349 5.50781V4.35938L510.972 2.99902H511.17V13ZM520.214 9.65723H521.595V10.6895H520.214V13H518.942V10.6895H514.41V9.94434L518.867 3.04688H520.214V9.65723ZM515.846 9.65723H518.942V4.77637L518.792 5.0498L515.846 9.65723ZM524.575 7.4082H525.525C526.122 7.39909 526.592 7.24186 526.934 6.93652C527.275 6.63118 527.446 6.21875 527.446 5.69922C527.446 4.53255 526.865 3.94922 525.703 3.94922C525.156 3.94922 524.719 4.10645 524.391 4.4209C524.067 4.73079 523.905 5.14323 523.905 5.6582H522.641C522.641 4.86979 522.928 4.21582 523.502 3.69629C524.081 3.1722 524.814 2.91016 525.703 2.91016C526.642 2.91016 527.378 3.15853 527.911 3.65527C528.444 4.15202 528.711 4.84245 528.711 5.72656C528.711 6.15951 528.57 6.57878 528.287 6.98438C528.009 7.38997 527.629 7.69303 527.146 7.89355C527.692 8.06673 528.114 8.35384 528.41 8.75488C528.711 9.15592 528.861 9.64583 528.861 10.2246C528.861 11.1178 528.57 11.8265 527.986 12.3506C527.403 12.8747 526.644 13.1367 525.71 13.1367C524.776 13.1367 524.015 12.8838 523.427 12.3779C522.843 11.8721 522.552 11.2044 522.552 10.375H523.823C523.823 10.8991 523.994 11.3184 524.336 11.6328C524.678 11.9473 525.136 12.1045 525.71 12.1045C526.321 12.1045 526.788 11.945 527.111 11.626C527.435 11.307 527.597 10.849 527.597 10.252C527.597 9.67318 527.419 9.22884 527.063 8.91895C526.708 8.60905 526.195 8.44954 525.525 8.44043H524.575V7.4082ZM530.687 14.9824L529.969 14.4902C530.397 13.8932 530.62 13.278 530.639 12.6445V11.5029H531.876V12.4941C531.876 12.9544 531.762 13.4147 531.534 13.875C531.311 14.3353 531.028 14.7044 530.687 14.9824ZM538.309 3.04004V4.11328H538.076C537.092 4.13151 536.308 4.42318 535.725 4.98828C535.141 5.55339 534.804 6.34863 534.713 7.37402C535.237 6.77246 535.952 6.47168 536.859 6.47168C537.725 6.47168 538.416 6.77702 538.931 7.3877C539.45 7.99837 539.71 8.78678 539.71 9.75293C539.71 10.7783 539.43 11.5986 538.869 12.2139C538.313 12.8291 537.566 13.1367 536.627 13.1367C535.674 13.1367 534.902 12.7721 534.31 12.043C533.717 11.3092 533.421 10.3659 533.421 9.21289V8.72754C533.421 6.89551 533.811 5.49642 534.59 4.53027C535.374 3.55957 536.538 3.06283 538.083 3.04004H538.309ZM536.647 7.52441C536.215 7.52441 535.816 7.6543 535.451 7.91406C535.087 8.17383 534.834 8.49967 534.692 8.8916V9.35645C534.692 10.1768 534.877 10.8376 535.246 11.3389C535.615 11.8402 536.076 12.0908 536.627 12.0908C537.197 12.0908 537.643 11.8812 537.967 11.4619C538.295 11.0426 538.459 10.4935 538.459 9.81445C538.459 9.13086 538.293 8.57943 537.96 8.16016C537.632 7.73633 537.194 7.52441 536.647 7.52441ZM543.401 9.5752L542.608 10.4023V13H541.344V2.5H542.608V8.85059L543.285 8.03711L545.589 5.60352H547.127L544.249 8.69336L547.462 13H545.979L543.401 9.5752Z" fill="#009487"/>
<path d="M521.887 40.9329H519.347V31.1418L516.315 32.0823V30.0168L521.615 28.1184H521.887V40.9329ZM533.568 36.1165H535.018V38.1643H533.568V40.9329H531.028V38.1643H525.781L525.667 36.5647L531.002 28.136H533.568V36.1165ZM528.198 36.1165H531.028V31.5989L530.861 31.8889L528.198 36.1165ZM536.354 30.5969C536.354 29.8118 536.609 29.176 537.119 28.6897C537.629 28.1975 538.297 27.9514 539.123 27.9514C539.961 27.9514 540.634 28.1946 541.144 28.6809C541.654 29.1614 541.909 29.8147 541.909 30.6409V31.2737C541.909 32.0647 541.654 32.7004 541.144 33.1809C540.634 33.6614 539.966 33.9016 539.14 33.9016C538.308 33.9016 537.634 33.6614 537.119 33.1809C536.609 32.6946 536.354 32.0413 536.354 31.2209V30.5969ZM538.042 31.2737C538.042 31.6252 538.141 31.9094 538.34 32.1262C538.546 32.3372 538.812 32.4426 539.14 32.4426C539.468 32.4426 539.729 32.3342 539.922 32.1174C540.116 31.9006 540.213 31.6106 540.213 31.2473V30.5969C540.213 30.2454 540.116 29.9612 539.922 29.7444C539.729 29.5276 539.463 29.4192 539.123 29.4192C538.8 29.4192 538.54 29.5276 538.34 29.7444C538.141 29.9553 538.042 30.2512 538.042 30.6321V31.2737ZM542.471 37.7952C542.471 37.0042 542.729 36.3684 543.245 35.8879C543.76 35.4016 544.428 35.1584 545.249 35.1584C546.081 35.1584 546.752 35.3987 547.261 35.8792C547.777 36.3538 548.035 37.01 548.035 37.8479V38.4807C548.035 39.2659 547.783 39.9016 547.279 40.3879C546.775 40.8684 546.104 41.1086 545.266 41.1086C544.422 41.1086 543.746 40.8655 543.236 40.3792C542.726 39.8928 542.471 39.2483 542.471 38.4456V37.7952ZM544.159 38.4807C544.159 38.803 544.264 39.0784 544.475 39.3069C544.686 39.5354 544.95 39.6497 545.266 39.6497C545.981 39.6497 546.339 39.2542 546.339 38.4631V37.7952C546.339 37.4436 546.239 37.1624 546.04 36.9514C545.84 36.7346 545.577 36.6262 545.249 36.6262C544.921 36.6262 544.657 36.7346 544.458 36.9514C544.258 37.1624 544.159 37.4524 544.159 37.8215V38.4807ZM539.641 39.9749L538.402 39.3069L544.651 29.3049L545.89 29.9729L539.641 39.9749Z" fill="#009487"/>
<path d="M55.6816 285.025L58.9355 293.146L62.1895 285.025H63.8916V294.978H62.5791V291.102L62.7021 286.919L59.4346 294.978H58.4297L55.1689 286.939L55.2988 291.102V294.978H53.9863V285.025H55.6816ZM69.0801 295.115C68.0775 295.115 67.2617 294.787 66.6328 294.131C66.0039 293.47 65.6895 292.588 65.6895 291.485V291.253C65.6895 290.519 65.8285 289.865 66.1064 289.291C66.389 288.712 66.7809 288.261 67.2822 287.937C67.7881 287.609 68.335 287.445 68.9229 287.445C69.8844 287.445 70.6318 287.762 71.165 288.395C71.6982 289.029 71.9648 289.936 71.9648 291.116V291.642H66.9541C66.9723 292.372 67.1842 292.962 67.5898 293.413C68 293.859 68.5195 294.083 69.1484 294.083C69.5951 294.083 69.9733 293.992 70.2832 293.809C70.5931 293.627 70.8643 293.385 71.0967 293.085L71.8691 293.686C71.2493 294.639 70.3197 295.115 69.0801 295.115ZM68.9229 288.484C68.4124 288.484 67.984 288.671 67.6377 289.045C67.2913 289.414 67.0771 289.933 66.9951 290.603H70.7002V290.508C70.6637 289.865 70.4906 289.368 70.1807 289.017C69.8708 288.662 69.4515 288.484 68.9229 288.484ZM75.1504 285.791V287.582H76.5312V288.559H75.1504V293.146C75.1504 293.442 75.2119 293.666 75.335 293.816C75.458 293.962 75.6676 294.035 75.9639 294.035C76.1097 294.035 76.3102 294.008 76.5654 293.953V294.978C76.2327 295.069 75.9092 295.115 75.5947 295.115C75.0296 295.115 74.6035 294.944 74.3164 294.602C74.0293 294.26 73.8857 293.775 73.8857 293.146V288.559H72.5391V287.582H73.8857V285.791H75.1504ZM82.5811 294.978C82.5081 294.832 82.4489 294.573 82.4033 294.199C81.8154 294.81 81.1136 295.115 80.2979 295.115C79.5687 295.115 78.9694 294.91 78.5 294.5C78.0352 294.085 77.8027 293.561 77.8027 292.927C77.8027 292.157 78.0944 291.56 78.6777 291.136C79.2656 290.708 80.0905 290.494 81.1523 290.494H82.3828V289.913C82.3828 289.471 82.2507 289.12 81.9863 288.86C81.722 288.596 81.3324 288.464 80.8174 288.464C80.3662 288.464 79.988 288.578 79.6826 288.805C79.3773 289.033 79.2246 289.309 79.2246 289.633H77.9531C77.9531 289.263 78.083 288.908 78.3428 288.566C78.6071 288.22 78.9626 287.946 79.4092 287.746C79.8604 287.545 80.3548 287.445 80.8926 287.445C81.7448 287.445 82.4124 287.659 82.8955 288.088C83.3786 288.511 83.6292 289.097 83.6475 289.844V293.249C83.6475 293.928 83.734 294.468 83.9072 294.869V294.978H82.5811ZM80.4824 294.014C80.8789 294.014 81.2549 293.912 81.6104 293.707C81.9658 293.502 82.2233 293.235 82.3828 292.907V291.389H81.3916C79.8421 291.389 79.0674 291.843 79.0674 292.75C79.0674 293.146 79.1995 293.456 79.4639 293.679C79.7282 293.903 80.0677 294.014 80.4824 294.014ZM87.0039 294.978H85.7393V284.478H87.0039V294.978ZM93.3408 293.016C93.3408 292.675 93.2109 292.41 92.9512 292.223C92.696 292.032 92.2471 291.868 91.6045 291.731C90.9665 291.594 90.4583 291.43 90.0801 291.239C89.7064 291.048 89.4284 290.82 89.2461 290.555C89.0684 290.291 88.9795 289.977 88.9795 289.612C88.9795 289.006 89.2347 288.493 89.7451 288.074C90.2601 287.655 90.9163 287.445 91.7139 287.445C92.5524 287.445 93.2314 287.662 93.751 288.094C94.2751 288.527 94.5371 289.081 94.5371 289.756H93.2656C93.2656 289.409 93.1175 289.111 92.8213 288.86C92.5296 288.609 92.1605 288.484 91.7139 288.484C91.2536 288.484 90.8936 288.584 90.6338 288.785C90.374 288.985 90.2441 289.247 90.2441 289.571C90.2441 289.876 90.3649 290.107 90.6064 290.261C90.848 290.416 91.2832 290.565 91.9121 290.706C92.5456 290.847 93.0583 291.016 93.4502 291.212C93.8421 291.408 94.1315 291.645 94.3184 291.923C94.5098 292.196 94.6055 292.531 94.6055 292.927C94.6055 293.588 94.3411 294.119 93.8125 294.52C93.2839 294.917 92.598 295.115 91.7549 295.115C91.1624 295.115 90.6383 295.01 90.1826 294.801C89.7269 294.591 89.3691 294.299 89.1094 293.926C88.8542 293.547 88.7266 293.139 88.7266 292.702H89.9912C90.014 293.126 90.1826 293.463 90.4971 293.714C90.8161 293.96 91.2354 294.083 91.7549 294.083C92.2334 294.083 92.6162 293.987 92.9033 293.796C93.195 293.6 93.3408 293.34 93.3408 293.016ZM108.407 291.635H109.788V292.668H108.407V294.978H107.136V292.668H102.604V291.923L107.061 285.025H108.407V291.635ZM104.039 291.635H107.136V286.755L106.985 287.028L104.039 291.635ZM117.171 290.733C117.171 292.214 116.918 293.315 116.412 294.035C115.906 294.755 115.116 295.115 114.04 295.115C112.978 295.115 112.192 294.764 111.682 294.062C111.171 293.356 110.907 292.303 110.889 290.904V289.216C110.889 287.753 111.142 286.666 111.647 285.955C112.153 285.244 112.946 284.888 114.026 284.888C115.097 284.888 115.886 285.233 116.392 285.921C116.897 286.604 117.157 287.662 117.171 289.093V290.733ZM115.906 289.004C115.906 287.933 115.756 287.153 115.455 286.666C115.154 286.174 114.678 285.927 114.026 285.927C113.379 285.927 112.908 286.171 112.611 286.659C112.315 287.147 112.162 287.896 112.153 288.908V290.931C112.153 292.007 112.308 292.802 112.618 293.317C112.933 293.828 113.407 294.083 114.04 294.083C114.664 294.083 115.127 293.841 115.428 293.358C115.733 292.875 115.893 292.114 115.906 291.075V289.004ZM124.13 291.635H125.511V292.668H124.13V294.978H122.858V292.668H118.326V291.923L122.783 285.025H124.13V291.635ZM119.762 291.635H122.858V286.755L122.708 287.028L119.762 291.635ZM126.741 296.961L126.023 296.469C126.452 295.872 126.675 295.256 126.693 294.623V293.481H127.931V294.472C127.931 294.933 127.817 295.393 127.589 295.853C127.366 296.314 127.083 296.683 126.741 296.961ZM135.922 294.978H129.4V294.069L132.846 290.241C133.356 289.662 133.707 289.193 133.898 288.833C134.094 288.468 134.192 288.092 134.192 287.705C134.192 287.185 134.035 286.759 133.721 286.427C133.406 286.094 132.987 285.927 132.463 285.927C131.834 285.927 131.344 286.108 130.993 286.468C130.647 286.823 130.474 287.32 130.474 287.958H129.209C129.209 287.042 129.503 286.301 130.091 285.736C130.683 285.171 131.474 284.888 132.463 284.888C133.388 284.888 134.119 285.132 134.657 285.62C135.195 286.103 135.464 286.748 135.464 287.554C135.464 288.534 134.84 289.701 133.591 291.054L130.925 293.946H135.922V294.978ZM139.456 291.553L138.663 292.381V294.978H137.398V284.478H138.663V290.829L139.34 290.015L141.644 287.582H143.182L140.304 290.672L143.517 294.978H142.033L139.456 291.553Z" fill="#009487"/>
<path d="M56.2852 315.388H57.6387C58.2832 315.388 58.7607 315.227 59.0713 314.905C59.3818 314.583 59.5371 314.155 59.5371 313.622C59.5371 313.106 59.3818 312.705 59.0713 312.417C58.7666 312.13 58.3447 311.987 57.8057 311.987C57.3193 311.987 56.9121 312.122 56.584 312.391C56.2559 312.655 56.0918 313 56.0918 313.428H53.5518C53.5518 312.76 53.7305 312.163 54.0879 311.635C54.4512 311.102 54.9551 310.686 55.5996 310.387C56.25 310.088 56.9648 309.939 57.7441 309.939C59.0977 309.939 60.1582 310.264 60.9258 310.915C61.6934 311.559 62.0771 312.45 62.0771 313.586C62.0771 314.172 61.8984 314.711 61.541 315.204C61.1836 315.696 60.7148 316.074 60.1348 316.337C60.8555 316.595 61.3916 316.982 61.7432 317.498C62.1006 318.013 62.2793 318.623 62.2793 319.326C62.2793 320.462 61.8633 321.374 61.0312 322.059C60.2051 322.745 59.1094 323.087 57.7441 323.087C56.4668 323.087 55.4209 322.75 54.6064 322.077C53.7979 321.403 53.3936 320.512 53.3936 319.405H55.9336C55.9336 319.885 56.1123 320.278 56.4697 320.583C56.833 320.887 57.2783 321.04 57.8057 321.04C58.4092 321.04 58.8809 320.881 59.2207 320.565C59.5664 320.243 59.7393 319.818 59.7393 319.291C59.7393 318.013 59.0361 317.375 57.6299 317.375H56.2852V315.388ZM69.9785 317.796C69.3164 318.447 68.543 318.772 67.6582 318.772C66.5273 318.772 65.6221 318.385 64.9424 317.612C64.2627 316.833 63.9229 315.784 63.9229 314.465C63.9229 313.627 64.1045 312.86 64.4678 312.163C64.8369 311.459 65.3496 310.915 66.0059 310.528C66.6621 310.135 67.4004 309.939 68.2207 309.939C69.0645 309.939 69.8145 310.15 70.4707 310.572C71.127 310.994 71.6367 311.6 72 312.391C72.3633 313.182 72.5479 314.087 72.5537 315.107V316.047C72.5537 318.18 72.0234 319.856 70.9629 321.075C69.9023 322.293 68.3994 322.944 66.4541 323.026L65.8301 323.035V320.917L66.3926 320.908C68.6016 320.808 69.7969 319.771 69.9785 317.796ZM68.2822 316.83C68.6924 316.83 69.0439 316.724 69.3369 316.513C69.6357 316.302 69.8613 316.047 70.0137 315.749V314.703C70.0137 313.841 69.8496 313.173 69.5215 312.699C69.1934 312.224 68.7539 311.987 68.2031 311.987C67.6934 311.987 67.2744 312.221 66.9463 312.69C66.6182 313.153 66.4541 313.736 66.4541 314.439C66.4541 315.136 66.6123 315.71 66.9287 316.162C67.251 316.607 67.7021 316.83 68.2822 316.83ZM74.3379 312.576C74.3379 311.791 74.5928 311.155 75.1025 310.668C75.6123 310.176 76.2803 309.93 77.1064 309.93C77.9443 309.93 78.6182 310.173 79.1279 310.66C79.6377 311.14 79.8926 311.793 79.8926 312.62V313.252C79.8926 314.043 79.6377 314.679 79.1279 315.16C78.6182 315.64 77.9502 315.88 77.124 315.88C76.292 315.88 75.6182 315.64 75.1025 315.16C74.5928 314.673 74.3379 314.02 74.3379 313.2V312.576ZM76.0254 313.252C76.0254 313.604 76.125 313.888 76.3242 314.105C76.5293 314.316 76.7959 314.421 77.124 314.421C77.4521 314.421 77.7129 314.313 77.9062 314.096C78.0996 313.879 78.1963 313.589 78.1963 313.226V312.576C78.1963 312.224 78.0996 311.94 77.9062 311.723C77.7129 311.506 77.4463 311.398 77.1064 311.398C76.7842 311.398 76.5234 311.506 76.3242 311.723C76.125 311.934 76.0254 312.23 76.0254 312.611V313.252ZM80.4551 319.774C80.4551 318.983 80.7129 318.347 81.2285 317.867C81.7441 317.38 82.4121 317.137 83.2324 317.137C84.0645 317.137 84.7354 317.377 85.2451 317.858C85.7607 318.333 86.0186 318.989 86.0186 319.827V320.459C86.0186 321.245 85.7666 321.88 85.2627 322.367C84.7588 322.847 84.0879 323.087 83.25 323.087C82.4062 323.087 81.7295 322.844 81.2197 322.358C80.71 321.872 80.4551 321.227 80.4551 320.424V319.774ZM82.1426 320.459C82.1426 320.782 82.248 321.057 82.459 321.286C82.6699 321.514 82.9336 321.628 83.25 321.628C83.9648 321.628 84.3223 321.233 84.3223 320.442V319.774C84.3223 319.422 84.2227 319.141 84.0234 318.93C83.8242 318.713 83.5605 318.605 83.2324 318.605C82.9043 318.605 82.6406 318.713 82.4414 318.93C82.2422 319.141 82.1426 319.431 82.1426 319.8V320.459ZM77.625 321.954L76.3857 321.286L82.6348 311.284L83.874 311.952L77.625 321.954Z" fill="#009487"/>
<path d="M445.038 294.53H440.861V298.926H439.549V288.973H445.715V290.053H440.861V293.457H445.038V294.53ZM450.008 299.062C449.005 299.062 448.19 298.734 447.561 298.078C446.932 297.417 446.617 296.535 446.617 295.433V295.2C446.617 294.466 446.756 293.812 447.034 293.238C447.317 292.66 447.709 292.208 448.21 291.885C448.716 291.557 449.263 291.393 449.851 291.393C450.812 291.393 451.56 291.709 452.093 292.343C452.626 292.976 452.893 293.883 452.893 295.063V295.59H447.882C447.9 296.319 448.112 296.909 448.518 297.36C448.928 297.807 449.447 298.03 450.076 298.03C450.523 298.03 450.901 297.939 451.211 297.757C451.521 297.575 451.792 297.333 452.025 297.032L452.797 297.634C452.177 298.586 451.248 299.062 450.008 299.062ZM449.851 292.432C449.34 292.432 448.912 292.618 448.566 292.992C448.219 293.361 448.005 293.881 447.923 294.551H451.628V294.455C451.592 293.812 451.418 293.316 451.109 292.965C450.799 292.609 450.379 292.432 449.851 292.432ZM457.938 292.664C457.746 292.632 457.539 292.616 457.316 292.616C456.486 292.616 455.923 292.969 455.627 293.676V298.926H454.362V291.529H455.593L455.613 292.384C456.028 291.723 456.616 291.393 457.377 291.393C457.623 291.393 457.81 291.424 457.938 291.488V292.664ZM461.164 289.738V291.529H462.545V292.507H461.164V297.094C461.164 297.39 461.226 297.613 461.349 297.764C461.472 297.91 461.681 297.982 461.978 297.982C462.123 297.982 462.324 297.955 462.579 297.9V298.926C462.247 299.017 461.923 299.062 461.609 299.062C461.043 299.062 460.617 298.892 460.33 298.55C460.043 298.208 459.9 297.723 459.9 297.094V292.507H458.553V291.529H459.9V289.738H461.164ZM465.402 298.926H464.138V291.529H465.402V298.926ZM464.035 289.567C464.035 289.362 464.097 289.189 464.22 289.048C464.347 288.907 464.534 288.836 464.78 288.836C465.026 288.836 465.213 288.907 465.341 289.048C465.469 289.189 465.532 289.362 465.532 289.567C465.532 289.772 465.469 289.943 465.341 290.08C465.213 290.217 465.026 290.285 464.78 290.285C464.534 290.285 464.347 290.217 464.22 290.08C464.097 289.943 464.035 289.772 464.035 289.567ZM468.807 298.926H467.542V288.426H468.807V298.926ZM472.211 298.926H470.946V291.529H472.211V298.926ZM470.844 289.567C470.844 289.362 470.905 289.189 471.028 289.048C471.156 288.907 471.343 288.836 471.589 288.836C471.835 288.836 472.022 288.907 472.15 289.048C472.277 289.189 472.341 289.362 472.341 289.567C472.341 289.772 472.277 289.943 472.15 290.08C472.022 290.217 471.835 290.285 471.589 290.285C471.343 290.285 471.156 290.217 471.028 290.08C470.905 289.943 470.844 289.772 470.844 289.567ZM475.431 297.894H479.758V298.926H473.886V297.996L477.967 292.575H473.947V291.529H479.553V292.425L475.431 297.894ZM484.147 299.062C483.144 299.062 482.328 298.734 481.699 298.078C481.07 297.417 480.756 296.535 480.756 295.433V295.2C480.756 294.466 480.895 293.812 481.173 293.238C481.456 292.66 481.847 292.208 482.349 291.885C482.855 291.557 483.401 291.393 483.989 291.393C484.951 291.393 485.698 291.709 486.232 292.343C486.765 292.976 487.031 293.883 487.031 295.063V295.59H482.021C482.039 296.319 482.251 296.909 482.656 297.36C483.067 297.807 483.586 298.03 484.215 298.03C484.662 298.03 485.04 297.939 485.35 297.757C485.66 297.575 485.931 297.333 486.163 297.032L486.936 297.634C486.316 298.586 485.386 299.062 484.147 299.062ZM483.989 292.432C483.479 292.432 483.051 292.618 482.704 292.992C482.358 293.361 482.144 293.881 482.062 294.551H485.767V294.455C485.73 293.812 485.557 293.316 485.247 292.965C484.937 292.609 484.518 292.432 483.989 292.432ZM492.076 292.664C491.885 292.632 491.678 292.616 491.454 292.616C490.625 292.616 490.062 292.969 489.766 293.676V298.926H488.501V291.529H489.732L489.752 292.384C490.167 291.723 490.755 291.393 491.516 291.393C491.762 291.393 491.949 291.424 492.076 291.488V292.664ZM497.552 296.964C497.552 296.622 497.422 296.358 497.162 296.171C496.907 295.979 496.458 295.815 495.816 295.679C495.178 295.542 494.669 295.378 494.291 295.187C493.917 294.995 493.639 294.767 493.457 294.503C493.279 294.239 493.191 293.924 493.191 293.56C493.191 292.953 493.446 292.441 493.956 292.021C494.471 291.602 495.127 291.393 495.925 291.393C496.763 291.393 497.443 291.609 497.962 292.042C498.486 292.475 498.748 293.029 498.748 293.703H497.477C497.477 293.357 497.329 293.058 497.032 292.808C496.741 292.557 496.372 292.432 495.925 292.432C495.465 292.432 495.105 292.532 494.845 292.732C494.585 292.933 494.455 293.195 494.455 293.519C494.455 293.824 494.576 294.054 494.818 294.209C495.059 294.364 495.494 294.512 496.123 294.653C496.757 294.795 497.269 294.963 497.661 295.159C498.053 295.355 498.343 295.592 498.529 295.87C498.721 296.144 498.817 296.479 498.817 296.875C498.817 297.536 498.552 298.067 498.024 298.468C497.495 298.864 496.809 299.062 495.966 299.062C495.373 299.062 494.849 298.958 494.394 298.748C493.938 298.538 493.58 298.247 493.32 297.873C493.065 297.495 492.938 297.087 492.938 296.649H494.202C494.225 297.073 494.394 297.41 494.708 297.661C495.027 297.907 495.446 298.03 495.966 298.03C496.444 298.03 496.827 297.935 497.114 297.743C497.406 297.547 497.552 297.287 497.552 296.964ZM512.618 295.583H513.999V296.615H512.618V298.926H511.347V296.615H506.815V295.87L511.272 288.973H512.618V295.583ZM508.25 295.583H511.347V290.702L511.196 290.976L508.25 295.583ZM516.98 293.334H517.93C518.527 293.325 518.996 293.168 519.338 292.862C519.68 292.557 519.851 292.145 519.851 291.625C519.851 290.458 519.27 289.875 518.108 289.875C517.561 289.875 517.123 290.032 516.795 290.347C516.471 290.657 516.31 291.069 516.31 291.584H515.045C515.045 290.796 515.332 290.142 515.906 289.622C516.485 289.098 517.219 288.836 518.108 288.836C519.046 288.836 519.782 289.084 520.316 289.581C520.849 290.078 521.115 290.768 521.115 291.652C521.115 292.085 520.974 292.505 520.692 292.91C520.414 293.316 520.033 293.619 519.55 293.819C520.097 293.993 520.518 294.28 520.815 294.681C521.115 295.082 521.266 295.572 521.266 296.15C521.266 297.044 520.974 297.752 520.391 298.276C519.807 298.8 519.049 299.062 518.114 299.062C517.18 299.062 516.419 298.81 515.831 298.304C515.248 297.798 514.956 297.13 514.956 296.301H516.228C516.228 296.825 516.399 297.244 516.74 297.559C517.082 297.873 517.54 298.03 518.114 298.03C518.725 298.03 519.192 297.871 519.516 297.552C519.839 297.233 520.001 296.775 520.001 296.178C520.001 295.599 519.823 295.155 519.468 294.845C519.112 294.535 518.6 294.375 517.93 294.366H516.98V293.334ZM527.965 288.966V290.039H527.733C526.748 290.057 525.964 290.349 525.381 290.914C524.798 291.479 524.46 292.274 524.369 293.3C524.893 292.698 525.609 292.397 526.516 292.397C527.382 292.397 528.072 292.703 528.587 293.313C529.107 293.924 529.366 294.713 529.366 295.679C529.366 296.704 529.086 297.524 528.526 298.14C527.97 298.755 527.222 299.062 526.283 299.062C525.331 299.062 524.558 298.698 523.966 297.969C523.373 297.235 523.077 296.292 523.077 295.139V294.653C523.077 292.821 523.467 291.422 524.246 290.456C525.03 289.485 526.194 288.989 527.739 288.966H527.965ZM526.304 293.45C525.871 293.45 525.472 293.58 525.108 293.84C524.743 294.1 524.49 294.425 524.349 294.817V295.282C524.349 296.103 524.533 296.763 524.902 297.265C525.272 297.766 525.732 298.017 526.283 298.017C526.853 298.017 527.3 297.807 527.623 297.388C527.951 296.968 528.115 296.419 528.115 295.74C528.115 295.057 527.949 294.505 527.616 294.086C527.288 293.662 526.851 293.45 526.304 293.45ZM530.952 300.908L530.234 300.416C530.663 299.819 530.886 299.204 530.904 298.57V297.429H532.142V298.42C532.142 298.88 532.028 299.34 531.8 299.801C531.577 300.261 531.294 300.63 530.952 300.908ZM534.193 293.936L534.698 288.973H539.798V290.142H535.772L535.471 292.855C535.958 292.568 536.512 292.425 537.132 292.425C538.039 292.425 538.759 292.726 539.292 293.327C539.825 293.924 540.092 294.733 540.092 295.754C540.092 296.779 539.814 297.588 539.258 298.181C538.707 298.769 537.934 299.062 536.941 299.062C536.061 299.062 535.343 298.819 534.787 298.331C534.231 297.843 533.915 297.169 533.837 296.308H535.033C535.111 296.877 535.314 297.308 535.642 297.6C535.97 297.887 536.403 298.03 536.941 298.03C537.528 298.03 537.989 297.83 538.321 297.429C538.659 297.028 538.827 296.474 538.827 295.768C538.827 295.102 538.645 294.569 538.28 294.168C537.92 293.762 537.44 293.56 536.838 293.56C536.287 293.56 535.854 293.68 535.539 293.922L535.204 294.195L534.193 293.936ZM543.667 295.501L542.874 296.328V298.926H541.609V288.426H542.874V294.776L543.551 293.963L545.855 291.529H547.393L544.515 294.619L547.728 298.926H546.244L543.667 295.501Z" fill="#009487"/>
<path d="M523.232 322.043H524.682V324.091H523.232V326.859H520.692V324.091H515.445L515.331 322.491L520.666 314.062H523.232V322.043ZM517.862 322.043H520.692V317.525L520.525 317.815L517.862 322.043ZM534.825 326.859H526.053V325.119L530.193 320.707C530.761 320.086 531.18 319.544 531.45 319.081C531.725 318.618 531.863 318.178 531.863 317.762C531.863 317.194 531.719 316.749 531.432 316.427C531.145 316.098 530.735 315.934 530.202 315.934C529.628 315.934 529.173 316.134 528.839 316.532C528.511 316.925 528.347 317.443 528.347 318.088H525.798C525.798 317.308 525.983 316.596 526.352 315.952C526.727 315.307 527.255 314.803 527.934 314.44C528.614 314.071 529.384 313.886 530.246 313.886C531.564 313.886 532.587 314.203 533.313 314.836C534.046 315.469 534.412 316.362 534.412 317.516C534.412 318.149 534.248 318.794 533.92 319.45C533.591 320.106 533.029 320.871 532.232 321.744L529.323 324.811H534.825V326.859ZM536.354 316.523C536.354 315.738 536.609 315.102 537.119 314.616C537.629 314.124 538.297 313.878 539.123 313.878C539.961 313.878 540.634 314.121 541.144 314.607C541.654 315.088 541.909 315.741 541.909 316.567V317.2C541.909 317.991 541.654 318.627 541.144 319.107C540.634 319.588 539.966 319.828 539.14 319.828C538.308 319.828 537.634 319.588 537.119 319.107C536.609 318.621 536.354 317.968 536.354 317.147V316.523ZM538.042 317.2C538.042 317.552 538.141 317.836 538.34 318.052C538.546 318.263 538.812 318.369 539.14 318.369C539.468 318.369 539.729 318.26 539.922 318.044C540.116 317.827 540.213 317.537 540.213 317.174V316.523C540.213 316.172 540.116 315.887 539.922 315.671C539.729 315.454 539.463 315.345 539.123 315.345C538.8 315.345 538.54 315.454 538.34 315.671C538.141 315.882 538.042 316.177 538.042 316.558V317.2ZM542.471 323.721C542.471 322.93 542.729 322.295 543.245 321.814C543.76 321.328 544.428 321.085 545.249 321.085C546.081 321.085 546.752 321.325 547.261 321.805C547.777 322.28 548.035 322.936 548.035 323.774V324.407C548.035 325.192 547.783 325.828 547.279 326.314C546.775 326.795 546.104 327.035 545.266 327.035C544.422 327.035 543.746 326.792 543.236 326.305C542.726 325.819 542.471 325.175 542.471 324.372V323.721ZM544.159 324.407C544.159 324.729 544.264 325.005 544.475 325.233C544.686 325.462 544.95 325.576 545.266 325.576C545.981 325.576 546.339 325.18 546.339 324.389V323.721C546.339 323.37 546.239 323.089 546.04 322.878C545.84 322.661 545.577 322.552 545.249 322.552C544.921 322.552 544.657 322.661 544.458 322.878C544.258 323.089 544.159 323.379 544.159 323.748V324.407ZM539.641 325.901L538.402 325.233L544.651 315.231L545.89 315.899L539.641 325.901Z" fill="#009487"/>
<path d="M547.75 19.6658H307.763" stroke="#009487" stroke-width="0.5" stroke-miterlimit="10"/>
<path d="M548.176 305.275H410.919V212.223" stroke="#009487" stroke-width="0.5" stroke-miterlimit="10"/>
<path d="M51.4443 302.978H188.444V224.978" stroke="#009487" stroke-width="0.5" stroke-miterlimit="10"/>
<path d="M0 77.0592H137.968V21.3704H234.161" stroke="#009487" stroke-width="0.5" stroke-miterlimit="10"/>
<path d="M307.763 23.0752C305.916 23.0752 304.495 21.6546 304.495 19.8078C304.495 17.961 305.916 16.5403 307.763 16.5403C309.61 16.5403 311.031 17.961 311.031 19.8078C311.173 21.5125 309.61 23.0752 307.763 23.0752Z" fill="#009487"/>
<path d="M410.919 208.955C409.072 208.955 407.651 210.376 407.651 212.223C407.651 214.07 409.072 215.49 410.919 215.49C412.767 215.49 414.188 214.07 414.188 212.223C414.188 210.376 412.767 208.955 410.919 208.955Z" fill="#009487"/>
<path d="M187.983 221.538C189.83 221.538 191.251 222.958 191.251 224.805C191.251 226.652 189.83 228.073 187.983 228.073C186.136 228.073 184.715 226.652 184.715 224.805C184.715 222.958 186.136 221.538 187.983 221.538Z" fill="#009487"/>
<path d="M234.162 17.9609C236.009 17.9609 237.43 19.3817 237.43 21.2285C237.43 23.0753 236.009 24.496 234.162 24.496C232.314 24.496 230.894 23.0753 230.894 21.2285C230.894 19.3817 232.314 17.9609 234.162 17.9609Z" fill="#009487"/>
<path d="M8.87793 66.1982C8.87793 67.1735 8.71387 68.0257 8.38574 68.7549C8.05762 69.4795 7.59277 70.0332 6.99121 70.416C6.38965 70.7988 5.68783 70.9902 4.88574 70.9902C4.10189 70.9902 3.4069 70.7988 2.80078 70.416C2.19466 70.0286 1.72298 69.4795 1.38574 68.7686C1.05306 68.0531 0.882161 67.2259 0.873047 66.2871V65.5693C0.873047 64.6123 1.03939 63.7669 1.37207 63.0332C1.70475 62.2995 2.17415 61.7389 2.78027 61.3516C3.39095 60.9596 4.08822 60.7637 4.87207 60.7637C5.6696 60.7637 6.37142 60.9574 6.97754 61.3447C7.58822 61.7275 8.05762 62.2858 8.38574 63.0195C8.71387 63.7487 8.87793 64.5986 8.87793 65.5693V66.1982ZM7.57227 65.5557C7.57227 64.3753 7.33529 63.4707 6.86133 62.8418C6.38737 62.2083 5.72428 61.8916 4.87207 61.8916C4.04264 61.8916 3.38867 62.2083 2.91016 62.8418C2.4362 63.4707 2.19238 64.3457 2.17871 65.4668V66.1982C2.17871 67.3421 2.41797 68.2422 2.89648 68.8984C3.37956 69.5501 4.04264 69.876 4.88574 69.876C5.7334 69.876 6.38965 69.5684 6.85449 68.9531C7.31934 68.3333 7.55859 67.4469 7.57227 66.2939V65.5557ZM12.3643 61.666V63.457H13.7451V64.4346H12.3643V69.0215C12.3643 69.3177 12.4258 69.541 12.5488 69.6914C12.6719 69.8372 12.8815 69.9102 13.1777 69.9102C13.3236 69.9102 13.5241 69.8828 13.7793 69.8281V70.8535C13.4466 70.9447 13.123 70.9902 12.8086 70.9902C12.2435 70.9902 11.8174 70.8193 11.5303 70.4775C11.2432 70.1357 11.0996 69.6504 11.0996 69.0215V64.4346H9.75293V63.457H11.0996V61.666H12.3643ZM16.4932 64.3525C17.0537 63.6644 17.7829 63.3203 18.6807 63.3203C20.2438 63.3203 21.0322 64.2021 21.0459 65.9658V70.8535H19.7812V65.959C19.7767 65.4258 19.6536 65.0316 19.4121 64.7764C19.1751 64.5212 18.8037 64.3936 18.2979 64.3936C17.8877 64.3936 17.5277 64.5029 17.2178 64.7217C16.9079 64.9404 16.6663 65.2275 16.4932 65.583V70.8535H15.2285V60.3535H16.4932V64.3525ZM26.0088 70.9902C25.0062 70.9902 24.1904 70.6621 23.5615 70.0059C22.9326 69.3451 22.6182 68.4632 22.6182 67.3604V67.1279C22.6182 66.3942 22.7572 65.7402 23.0352 65.166C23.3177 64.5872 23.7096 64.1361 24.2109 63.8125C24.7168 63.4844 25.2637 63.3203 25.8516 63.3203C26.8132 63.3203 27.5605 63.637 28.0938 64.2705C28.627 64.904 28.8936 65.8109 28.8936 66.9912V67.5176H23.8828C23.901 68.2467 24.113 68.8369 24.5186 69.2881C24.9287 69.7347 25.4482 69.958 26.0771 69.958C26.5238 69.958 26.902 69.8669 27.2119 69.6846C27.5218 69.5023 27.793 69.2607 28.0254 68.96L28.7979 69.5615C28.1781 70.514 27.2484 70.9902 26.0088 70.9902ZM25.8516 64.3594C25.3411 64.3594 24.9128 64.5462 24.5664 64.9199C24.2201 65.2891 24.0059 65.8086 23.9238 66.4785H27.6289V66.3828C27.5924 65.7402 27.4193 65.2435 27.1094 64.8926C26.7995 64.5371 26.3802 64.3594 25.8516 64.3594ZM33.9385 64.5918C33.7471 64.5599 33.5397 64.5439 33.3164 64.5439C32.487 64.5439 31.9242 64.8971 31.6279 65.6035V70.8535H30.3633V63.457H31.5938L31.6143 64.3115C32.029 63.6507 32.6169 63.3203 33.3779 63.3203C33.624 63.3203 33.8109 63.3522 33.9385 63.416V64.5918Z" fill="#009487"/>
<path d="M46.9795 65.8633L47.4854 60.9004H52.585V62.0693H48.5586L48.2578 64.7832C48.7454 64.4961 49.2992 64.3525 49.9189 64.3525C50.8258 64.3525 51.5459 64.6533 52.0791 65.2549C52.6123 65.8519 52.8789 66.6608 52.8789 67.6816C52.8789 68.707 52.6009 69.516 52.0449 70.1084C51.4935 70.6963 50.721 70.9902 49.7275 70.9902C48.848 70.9902 48.1302 70.7464 47.5742 70.2588C47.0182 69.7712 46.7015 69.0967 46.624 68.2354H47.8203C47.8978 68.805 48.1006 69.2357 48.4287 69.5273C48.7568 69.8145 49.1898 69.958 49.7275 69.958C50.3154 69.958 50.7757 69.7575 51.1084 69.3564C51.4456 68.9554 51.6143 68.4017 51.6143 67.6953C51.6143 67.0299 51.432 66.4967 51.0674 66.0957C50.7074 65.6901 50.2266 65.4873 49.625 65.4873C49.0736 65.4873 48.6406 65.6081 48.3262 65.8496L47.9912 66.123L46.9795 65.8633ZM59.1064 66.4785C58.8421 66.793 58.5254 67.0459 58.1562 67.2373C57.7917 67.4287 57.3906 67.5244 56.9531 67.5244C56.3789 67.5244 55.8776 67.3831 55.4492 67.1006C55.0254 66.818 54.6973 66.4215 54.4648 65.9111C54.2324 65.3962 54.1162 64.8288 54.1162 64.209C54.1162 63.5436 54.2415 62.9443 54.4922 62.4111C54.7474 61.8779 55.1074 61.4701 55.5723 61.1875C56.0371 60.9049 56.5794 60.7637 57.1992 60.7637C58.1836 60.7637 58.9583 61.1328 59.5234 61.8711C60.0931 62.6048 60.3779 63.6074 60.3779 64.8789V65.248C60.3779 67.1849 59.9951 68.5999 59.2295 69.4932C58.4639 70.3818 57.3086 70.8376 55.7637 70.8604H55.5176V69.7939H55.7842C56.8278 69.7757 57.6299 69.5046 58.1904 68.9805C58.751 68.4518 59.0563 67.6178 59.1064 66.4785ZM57.1582 66.4785C57.582 66.4785 57.9717 66.3486 58.3271 66.0889C58.6872 65.8291 58.9492 65.5078 59.1133 65.125V64.6191C59.1133 63.7897 58.9333 63.1152 58.5732 62.5957C58.2132 62.0762 57.7575 61.8164 57.2061 61.8164C56.6501 61.8164 56.2035 62.0306 55.8662 62.459C55.529 62.8828 55.3604 63.4434 55.3604 64.1406C55.3604 64.8197 55.5221 65.3802 55.8457 65.8223C56.1738 66.2598 56.6113 66.4785 57.1582 66.4785ZM62.21 72.8359L61.4922 72.3438C61.9206 71.7467 62.1439 71.1315 62.1621 70.498V69.3564H63.3994V70.3477C63.3994 70.8079 63.2855 71.2682 63.0576 71.7285C62.8343 72.1888 62.5518 72.5579 62.21 72.8359ZM71.2949 61.6113L67.1729 70.8535H65.8467L69.9551 61.9395H64.5684V60.9004H71.2949V61.6113ZM74.9248 67.4287L74.1318 68.2559V70.8535H72.8672V60.3535H74.1318V66.7041L74.8086 65.8906L77.1123 63.457H78.6504L75.7725 66.5469L78.9854 70.8535H77.502L74.9248 67.4287Z" fill="#009487"/>
<path d="M1.31445 92.4976L2.05273 85.9937H9.22461V88.1118H4.13574L3.81934 90.8628C4.42285 90.5405 5.06445 90.3794 5.74414 90.3794C6.96289 90.3794 7.91797 90.7573 8.60938 91.5132C9.30078 92.269 9.64648 93.3267 9.64648 94.686C9.64648 95.5122 9.4707 96.2534 9.11914 96.9097C8.77344 97.5601 8.27539 98.0669 7.625 98.4302C6.97461 98.7876 6.20703 98.9663 5.32227 98.9663C4.54883 98.9663 3.83105 98.811 3.16895 98.5005C2.50684 98.1841 1.98242 97.7417 1.5957 97.1733C1.21484 96.605 1.0127 95.9575 0.989258 95.231H3.50293C3.55566 95.7642 3.74023 96.1802 4.05664 96.479C4.37891 96.772 4.79785 96.9185 5.31348 96.9185C5.8877 96.9185 6.33008 96.7134 6.64062 96.3032C6.95117 95.8872 7.10645 95.3013 7.10645 94.5454C7.10645 93.8188 6.92773 93.2622 6.57031 92.8755C6.21289 92.4888 5.70605 92.2954 5.0498 92.2954C4.44629 92.2954 3.95703 92.4536 3.58203 92.77L3.33594 92.9985L1.31445 92.4976ZM11.2373 88.4546C11.2373 87.6694 11.4922 87.0337 12.002 86.5474C12.5117 86.0552 13.1797 85.8091 14.0059 85.8091C14.8438 85.8091 15.5176 86.0522 16.0273 86.5386C16.5371 87.019 16.792 87.6724 16.792 88.4985V89.1313C16.792 89.9224 16.5371 90.5581 16.0273 91.0386C15.5176 91.519 14.8496 91.7593 14.0234 91.7593C13.1914 91.7593 12.5176 91.519 12.002 91.0386C11.4922 90.5522 11.2373 89.8989 11.2373 89.0786V88.4546ZM12.9248 89.1313C12.9248 89.4829 13.0244 89.7671 13.2236 89.9839C13.4287 90.1948 13.6953 90.3003 14.0234 90.3003C14.3516 90.3003 14.6123 90.1919 14.8057 89.9751C14.999 89.7583 15.0957 89.4683 15.0957 89.105V88.4546C15.0957 88.103 14.999 87.8188 14.8057 87.6021C14.6123 87.3853 14.3457 87.2769 14.0059 87.2769C13.6836 87.2769 13.4229 87.3853 13.2236 87.6021C13.0244 87.813 12.9248 88.1089 12.9248 88.4897V89.1313ZM17.3545 95.6528C17.3545 94.8618 17.6123 94.2261 18.1279 93.7456C18.6436 93.2593 19.3115 93.0161 20.1318 93.0161C20.9639 93.0161 21.6348 93.2563 22.1445 93.7368C22.6602 94.2114 22.918 94.8677 22.918 95.7056V96.3384C22.918 97.1235 22.666 97.7593 22.1621 98.2456C21.6582 98.7261 20.9873 98.9663 20.1494 98.9663C19.3057 98.9663 18.6289 98.7231 18.1191 98.2368C17.6094 97.7505 17.3545 97.106 17.3545 96.3032V95.6528ZM19.042 96.3384C19.042 96.6606 19.1475 96.936 19.3584 97.1646C19.5693 97.3931 19.833 97.5073 20.1494 97.5073C20.8643 97.5073 21.2217 97.1118 21.2217 96.3208V95.6528C21.2217 95.3013 21.1221 95.02 20.9229 94.8091C20.7236 94.5923 20.46 94.4839 20.1318 94.4839C19.8037 94.4839 19.54 94.5923 19.3408 94.8091C19.1416 95.02 19.042 95.3101 19.042 95.6792V96.3384ZM14.5244 97.8325L13.2852 97.1646L19.5342 87.1626L20.7734 87.8306L14.5244 97.8325Z" fill="#009487"/>
</svg>
