<?xml version="1.0" encoding="utf-8"?>
<!-- Generator: Adobe Illustrator 19.2.1, SVG Export Plug-In . SVG Version: 6.00 Build 0)  -->
<svg version="1.1" id="Layer_1" xmlns="http://www.w3.org/2000/svg" xmlns:xlink="http://www.w3.org/1999/xlink" x="0px" y="0px"
	 viewBox="0 0 143.1 141.7" style="enable-background:new 0 0 143.1 141.7;" xml:space="preserve">
<style type="text/css">
	.st0{clip-path:url(#SVGID_2_);fill:#009AD7;}
	.st1{clip-path:url(#SVGID_2_);fill:#11A190;}
	.st2{clip-path:url(#SVGID_2_);fill:#0069A2;}
	.st3{clip-path:url(#SVGID_2_);fill:#0068A8;}
	.st4{fill:#0069A2;}
	.st5{clip-path:url(#SVGID_4_);fill:#0069A2;}
</style>
<g>
	<defs>
		<rect id="SVGID_1_" x="13.8" y="4" width="116" height="136.3"/>
	</defs>
	<clipPath id="SVGID_2_">
		<use xlink:href="#SVGID_1_"  style="overflow:visible;"/>
	</clipPath>
	<path class="st0" d="M14.2,4c0.4,0.9,0.8,1.7,1.2,2.5c1.7,3.1,4.2,5.3,6.9,7.3c3.9,2.7,8.1,4.8,12.5,6.6c5.8,2.5,11.8,4.5,17.8,6.7
		c4.7,1.7,9.3,3.4,13.7,5.8c3.2,1.8,6.2,3.8,8.8,6.5c3.9,4,6.2,8.9,7.1,14.5c0.8,4.6,0.6,9.3,0,13.9c0,0,0,0-0.1,0.1
		c-0.4-0.5-0.8-1-1.1-1.6c-4.3-5.7-9.6-9.9-15.7-13.3C59.6,50,53.7,47.8,47.7,46c-4.7-1.4-9.4-2.8-13.9-4.8c-4.1-1.8-8-3.9-11.4-6.8
		c-4.9-4.1-7.6-9.4-8.3-15.8c-0.4-4-0.3-8-0.1-12C14.1,5.8,14.1,4.9,14.2,4"/>
	<path class="st1" d="M25.8,40c1,0.6,2,1.1,3,1.7c3.8,2,7.9,3.4,12,4.6c0.5,0.1,0.6,0.3,0.6,0.8c0,6.7,0,13.3,0,20
		c0,8.4,0,16.9,0,25.3c0,8.3,0,16.6,0,24.9c0,3.7,0,7.5,0,11.2c0,0.3,0,0.5-0.3,0.6c-6.1,2.1-11.2,5.7-15.1,11.3V40z"/>
	<path class="st2" d="M73.9,61.2c2.9,2.5,5.5,5.2,7.4,8.5c0.1,0.2,0.1,0.6,0.1,0.8c-0.9,3.3-2.7,5.9-5,8.3c-2.9,2.9-6.3,5-9.9,6.9
		c-4.9,2.6-10,4.5-15.1,6.6c-2.6,1-5.1,2.1-7.6,3.1c-0.1,0-0.2,0.1-0.3,0.1V74.5C54.2,71.9,64.5,67.6,73.9,61.2"/>
	<path class="st3" d="M23.8,84.2c0,3.5,0,6.9,0,10.3c0,3.2,0,6.4,0.1,9.7c0,0.4-0.1,0.6-0.4,0.7c-1.9,0.9-3.7,2.1-5.2,3.6
		c-2.1,2.2-3.1,5-3.5,8c-0.1,0.4-0.1,0.8-0.2,1.2c-0.1-0.8-0.2-1.7-0.3-2.5c-0.3-3.8-0.5-7.6-0.2-11.4c0.3-4.3,1.1-8.5,3.1-12.4
		c1.5-2.9,3.6-5.3,6.3-7.1C23.5,84.4,23.6,84.4,23.8,84.2"/>
	<path class="st2" d="M63.7,103c-2.3,0-4,0.8-5.3,2.4c-1.2,1.6-1.9,3.9-1.9,6.9c0,6.2,2.4,9.3,7.2,9.3c4.6,0,6.8-3.2,6.8-9.6
		C70.6,106,68.3,103,63.7,103 M63.5,129.2c-5.2,0-9.2-1.5-12.1-4.5c-2.9-3-4.4-7.1-4.4-12.3c0-5.3,1.5-9.5,4.6-12.5
		c3.1-3,7.2-4.5,12.4-4.5c5.1,0,9.2,1.5,12.1,4.5c2.9,3,4.4,7,4.4,12c0,5.4-1.5,9.6-4.5,12.7C72.8,127.7,68.7,129.2,63.5,129.2"/>
</g>
<rect x="86.5" y="86.2" class="st4" width="9.5" height="42.2"/>
<g>
	<defs>
		<rect id="SVGID_3_" x="13.8" y="4" width="116" height="136.3"/>
	</defs>
	<clipPath id="SVGID_4_">
		<use xlink:href="#SVGID_3_"  style="overflow:visible;"/>
	</clipPath>
	<path class="st5" d="M120.8,115.3v-2.2l-5.6,0.8c-3.1,0.4-4.6,1.9-4.6,4.4c0,1.1,0.4,2.1,1.1,2.8c0.8,0.7,1.8,1.1,3.1,1.1
		c1.8,0,3.2-0.6,4.4-1.9C120.3,118.9,120.8,117.3,120.8,115.3 M129.8,128.4h-9v-4.6h-0.1c-2.1,3.6-5.1,5.4-9.2,5.4
		c-3,0-5.4-0.9-7.1-2.7c-1.7-1.8-2.6-4.1-2.6-7.1c0-6.3,3.6-9.9,10.7-10.8l8.4-1.2c0-3.5-1.8-5.3-5.5-5.3c-3.7,0-7.2,1.1-10.5,3.4
		v-7.5c1.3-0.7,3.1-1.3,5.4-1.9c2.3-0.5,4.4-0.8,6.3-0.8c8.8,0,13.2,4.6,13.2,13.8V128.4z"/>
</g>
</svg>
